<?xml version="1.0" standalone="no"?>
<!DOCTYPE svg PUBLIC "-//W3C//DTD SVG 20010904//EN"
 "http://www.w3.org/TR/2001/REC-SVG-20010904/DTD/svg10.dtd">
<svg version="1.0" xmlns="http://www.w3.org/2000/svg"
 width="1024.000000pt" height="1024.000000pt" viewBox="0 0 1024.000000 1024.000000"
 preserveAspectRatio="xMidYMid meet">

<g transform="translate(0.000000,1024.000000) scale(0.100000,-0.100000)"
fill="#000000" stroke="none">
<path d="M1260 10043 c0 -170 -3 -204 -19 -238 -25 -56 -79 -100 -140 -115
-55 -13 -68 -30 -23 -30 65 0 132 -66 161 -160 25 -81 37 -347 51 -1085 5
-286 12 -585 16 -665 3 -80 2 -179 -4 -220 -5 -41 -7 -129 -3 -195 4 -66 3
-170 -2 -231 -7 -89 -6 -129 8 -205 12 -68 19 -197 26 -474 5 -209 13 -530 18
-712 11 -383 9 -402 -59 -468 -35 -34 -46 -39 -97 -43 -36 -2 -127 7 -243 27
-102 17 -223 35 -269 41 -117 16 -240 80 -261 136 -5 13 -16 24 -23 24 -20 0
-41 75 -27 99 5 11 15 21 21 23 12 4 13 28 9 286 -2 83 -5 152 -9 152 -3 0 -7
42 -9 93 -4 139 -13 237 -23 237 -5 0 -9 18 -9 40 0 29 -4 40 -15 40 -13 0
-15 -20 -15 -122 0 -68 -2 -184 -5 -258 -3 -74 -6 -238 -6 -365 -1 -200 -3
-237 -20 -285 -23 -66 -23 -62 0 -88 27 -32 75 -49 187 -67 200 -32 350 -73
639 -177 85 -30 98 -32 240 -34 102 -1 188 -8 270 -22 247 -44 552 -92 581
-92 85 0 110 -20 85 -68 -48 -91 -45 -129 14 -197 48 -54 60 -95 45 -148 -13
-49 -27 -69 -57 -85 -43 -23 -75 -18 -418 73 -27 7 -95 29 -150 48 -162 56
-200 64 -410 87 -110 12 -209 23 -220 25 -103 22 -551 127 -557 131 -24 15
-191 48 -323 64 -50 6 -118 17 -152 24 l-63 14 0 -2429 0 -2429 3924 0 c3278
0 3925 2 3929 13 3 8 18 14 34 15 49 2 456 53 465 58 4 3 8 11 8 19 0 8 10 25
23 39 20 21 40 28 128 41 123 18 398 52 809 101 183 22 462 63 468 69 3 3 -9
20 -26 38 -43 44 -43 81 1 107 35 22 83 25 138 10 42 -12 58 -40 51 -93 -4
-35 -3 -37 24 -37 16 0 76 7 134 15 58 8 111 15 118 15 8 0 12 18 12 55 0 53
-1 55 -24 49 -13 -3 -27 -1 -30 5 -5 7 4 11 23 11 l31 0 0 4855 0 4855 -3905
0 -3905 0 0 -97 c0 -73 -5 -108 -19 -138 -23 -50 -70 -92 -119 -103 -89 -22
-274 -43 -357 -41 -75 2 -98 -1 -138 -20 -57 -26 -184 -38 -242 -22 -57 15
-104 58 -116 106 -6 22 -13 96 -15 165 -3 69 -7 131 -9 138 -3 8 -28 12 -80
12 l-75 0 0 -197z m1068 -216 c50 -24 86 -68 101 -125 6 -19 15 -303 22 -631
11 -555 10 -600 -6 -656 -28 -98 -54 -213 -75 -335 -11 -63 -32 -162 -45 -220
-14 -58 -25 -116 -25 -129 0 -13 -5 -41 -12 -63 -9 -31 -9 -41 1 -47 9 -6 9
-15 1 -35 -5 -15 -10 -88 -10 -162 0 -134 11 -185 43 -206 8 -4 8 -14 1 -30
-6 -13 -8 -34 -4 -48 6 -24 6 -24 13 8 4 17 11 32 17 32 12 0 13 -52 1 -66
-12 -13 -45 -237 -45 -314 -1 -64 31 -200 46 -200 5 0 8 -5 8 -10 0 -6 26 -50
57 -98 70 -105 81 -124 54 -93 -31 34 -26 4 7 -43 l27 -39 0 -506 c0 -278 4
-538 9 -577 14 -117 -31 -210 -111 -230 -14 -4 -89 5 -167 20 -77 14 -224 40
-325 56 -107 18 -209 41 -243 55 -69 28 -154 89 -161 116 -3 9 -5 73 -6 140
-1 67 -4 126 -7 130 -2 4 -7 166 -10 360 -3 195 -7 374 -7 399 -1 25 3 151 8
280 6 129 10 262 9 295 0 33 -3 290 -6 570 -4 281 -11 634 -17 785 -15 376
-16 1218 -2 1295 9 53 17 65 68 117 72 72 116 94 218 109 43 6 92 17 108 25
15 8 72 24 125 35 53 12 101 25 107 30 5 5 20 9 35 9 14 1 36 7 50 15 31 19
86 12 148 -18z m6021 -406 c18 -35 35 -87 52 -161 4 -19 15 -64 23 -100 18
-78 22 -354 5 -415 -13 -49 -52 -102 -85 -117 -54 -25 -116 -207 -80 -237 23
-19 31 -13 89 64 102 136 176 160 297 96 86 -46 137 -88 160 -133 28 -52 26
-100 -6 -137 -34 -41 -91 -43 -141 -5 -70 53 -101 -5 -39 -74 23 -25 38 -53
42 -79 5 -36 3 -42 -25 -66 -18 -15 -50 -29 -75 -32 -46 -7 -129 -66 -153
-109 -15 -26 -16 -61 -2 -88 10 -18 17 -19 104 -13 153 12 215 -15 303 -130
25 -33 50 -63 55 -66 4 -3 14 -26 22 -52 13 -44 12 -71 -5 -112 -4 -11 -18
-46 -31 -79 -19 -50 -30 -63 -75 -92 -63 -40 -88 -42 -109 -10 -13 20 -14 29
-5 46 22 42 5 69 -66 101 -36 16 -97 38 -135 50 -38 11 -88 34 -111 50 -63 42
-77 39 -131 -35 -25 -36 -70 -83 -99 -104 -29 -22 -66 -53 -81 -68 -22 -22
-39 -29 -70 -29 -68 -2 -146 22 -183 54 -41 37 -94 65 -94 52 0 -6 -21 -53
-47 -106 -31 -64 -68 -119 -111 -167 -36 -40 -78 -92 -94 -117 -24 -39 -27
-52 -22 -92 7 -52 -7 -89 -35 -89 -9 0 -39 7 -64 16 -37 13 -53 25 -72 58 -33
56 -32 114 1 197 39 99 52 147 57 231 7 93 37 167 96 231 23 25 39 51 36 58
-3 8 -63 36 -133 63 -70 27 -131 52 -137 56 -29 21 -132 50 -176 50 -65 0 -89
13 -89 49 0 33 13 46 65 64 24 9 44 24 54 43 52 96 74 123 130 163 54 37 81
66 81 86 0 3 -16 13 -35 21 -47 19 -164 131 -211 202 -22 31 -45 61 -51 65 -7
4 -13 14 -13 22 0 8 -9 30 -20 50 -11 20 -20 44 -20 54 0 11 -5 21 -12 23 -6
2 -12 13 -13 24 -2 16 -17 74 -67 254 -5 19 -14 69 -20 110 -10 74 -9 75 17
97 33 29 43 29 105 -1 82 -40 182 -163 261 -321 53 -105 93 -156 139 -175 23
-9 42 -7 116 15 150 46 220 27 309 -87 60 -77 88 -77 103 3 14 72 42 120 78
135 21 9 72 14 137 14 90 0 203 12 214 24 2 1 -4 19 -12 39 -8 21 -12 37 -9
37 4 0 2 6 -4 13 -14 17 -30 205 -26 305 5 113 25 293 35 320 10 25 44 42 72
34 10 -2 26 -21 36 -41z m-3414 11 c-3 -3 -11 0 -18 7 -9 10 -8 11 6 5 10 -3
15 -9 12 -12z m105 -34 c19 -9 53 -25 75 -35 39 -17 39 -18 12 -21 -16 -2 -39
5 -57 18 -17 12 -30 18 -30 15 0 -4 -7 1 -16 10 -9 9 -24 13 -35 10 -11 -4
-19 -2 -19 5 0 7 -9 9 -22 5 -18 -5 -20 -4 -8 4 19 13 56 9 100 -11z m-566
-63 c11 -8 15 -15 10 -15 -6 0 -19 7 -30 15 -10 8 -14 14 -9 14 6 0 19 -6 29
-14z m721 -25 c18 -8 17 -9 -7 -9 -16 -1 -28 4 -28 9 0 12 8 12 35 0z m-171
-31 c-6 -11 -24 -2 -24 11 0 5 7 7 15 4 8 -4 12 -10 9 -15z m-614 -9 c13 -9
13 -10 0 -10 -8 0 -22 5 -30 10 -13 9 -13 10 0 10 8 0 22 -5 30 -10z m45 -8
c-3 -3 -11 0 -18 7 -9 10 -8 11 6 5 10 -3 15 -9 12 -12z m811 -17 c16 -14 25
-25 19 -25 -18 1 -69 50 -52 50 2 0 17 -11 33 -25z m-206 11 c0 -2 -7 -7 -16
-10 -8 -3 -12 -2 -9 4 6 10 25 14 25 6z m23 -33 c-3 -7 -6 -13 -8 -13 -2 0 -5
6 -8 13 -3 8 1 14 8 14 7 0 11 -6 8 -14z m110 -44 c23 -21 47 -43 52 -49 56
-61 140 -134 151 -132 8 2 14 -3 14 -10 0 -7 14 -26 30 -42 17 -16 30 -34 30
-41 0 -6 11 -26 25 -45 13 -18 22 -37 19 -41 -3 -5 2 -9 11 -9 9 0 13 -4 10
-10 -3 -5 -1 -10 4 -10 6 0 11 -6 11 -14 0 -7 9 -25 21 -40 15 -19 16 -24 5
-20 -9 3 -16 9 -16 13 0 4 -32 40 -71 81 -39 41 -80 86 -90 99 -11 13 -19 18
-19 11 0 -7 -3 -11 -6 -8 -3 4 -1 16 6 27 8 17 8 21 -2 19 -7 -2 -12 3 -10 11
3 12 0 12 -13 1 -13 -11 -14 -10 -8 5 5 14 3 17 -10 12 -9 -3 -16 -3 -15 1 3
11 -164 176 -200 197 -33 20 -44 39 -15 28 10 -4 14 -2 10 4 -15 24 36 -1 76
-38z m44 -5 c-7 -7 -37 7 -37 17 0 6 9 5 21 -1 11 -7 19 -14 16 -16z m91 6 c7
-11 11 -20 9 -20 -2 0 -12 9 -22 20 -10 11 -14 20 -9 20 5 0 15 -9 22 -20z
m-958 6 c0 -3 -4 -8 -10 -11 -5 -3 -10 -1 -10 4 0 6 5 11 10 11 6 0 10 -2 10
-4z m117 -32 c-3 -3 -12 -4 -19 -1 -8 3 -5 6 6 6 11 1 17 -2 13 -5z m794 -11
c13 -16 12 -17 -3 -4 -10 7 -18 15 -18 17 0 8 8 3 21 -13z m-58 -116 c4 3 7 1
7 -5 0 -7 -4 -12 -9 -12 -12 0 -111 82 -111 93 0 4 24 -12 53 -37 30 -25 57
-43 60 -39z m4721 62 c14 -7 32 -27 42 -47 15 -32 15 -41 -1 -121 -59 -305
-140 -525 -245 -666 -97 -131 -179 -178 -214 -122 -29 44 -29 160 -2 317 33
192 37 209 47 216 5 3 9 14 9 25 0 34 153 271 209 325 21 20 117 83 128 84 1
0 13 -5 27 -11z m-4893 -15 c11 -14 10 -15 -11 -12 -13 1 -25 9 -28 16 -5 17
23 15 39 -4z m309 -19 c13 -14 21 -25 18 -25 -2 0 -15 11 -28 25 -13 14 -21
25 -18 25 2 0 15 -11 28 -25z m-229 -22 c13 -15 12 -15 -11 -3 -34 17 -36 20
-18 20 9 0 22 -7 29 -17z m314 7 c3 -6 -1 -7 -9 -4 -18 7 -21 14 -7 14 6 0 13
-4 16 -10z m-365 -10 c0 -5 -2 -10 -4 -10 -3 0 -8 5 -11 10 -3 6 -1 10 4 10 6
0 11 -4 11 -10z m-494 -15 c10 -8 14 -15 8 -15 -5 0 -19 7 -30 15 -10 8 -14
15 -8 15 5 0 19 -7 30 -15z m554 -20 c7 -8 8 -15 2 -15 -5 0 -15 7 -22 15 -7
8 -8 15 -2 15 5 0 15 -7 22 -15z m84 -24 c-3 -3 -15 6 -27 18 l-22 24 27 -19
c14 -10 24 -21 22 -23z m36 29 c0 -5 -2 -10 -4 -10 -3 0 -8 5 -11 10 -3 6 -1
10 4 10 6 0 11 -4 11 -10z m-607 -17 c-7 -2 -19 -2 -25 0 -7 3 -2 5 12 5 14 0
19 -2 13 -5z m643 -15 c14 -1 44 -22 44 -31 0 -4 -9 -3 -20 3 -24 13 -26 7 -4
-15 9 -9 14 -18 12 -20 -3 -3 -25 14 -49 37 -24 22 -36 38 -26 35 10 -4 17 -1
17 6 0 9 3 8 9 -1 4 -8 12 -14 17 -14z m-642 -50 c-3 -4 2 -5 11 -2 10 4 14 2
10 -7 -4 -13 52 -46 93 -54 9 -2 19 -4 22 -5 3 -1 8 -2 13 -1 4 0 7 -3 7 -7 0
-5 25 -14 55 -21 30 -7 53 -16 50 -21 -5 -7 6 -14 30 -20 20 -4 45 -21 42 -28
-2 -4 10 -19 25 -34 15 -15 28 -22 28 -15 0 17 106 -98 131 -143 13 -22 28
-39 35 -36 6 2 22 -14 34 -37 13 -23 48 -66 78 -97 74 -76 113 -134 117 -177
2 -20 7 -39 12 -42 10 -8 13 -111 2 -111 -4 0 -10 6 -13 13 -8 17 1 -43 10
-67 5 -13 4 -17 -4 -12 -13 8 -6 -20 11 -41 6 -9 6 -13 -2 -13 -7 0 -11 -16
-11 -42 0 -24 0 -50 0 -58 -1 -8 2 -26 5 -40 5 -20 4 -22 -5 -10 -18 24 -4
-240 19 -372 11 -62 19 -138 18 -170 -1 -31 1 -54 5 -52 7 5 4 -45 -8 -136 -3
-25 -15 -64 -26 -88 -11 -24 -18 -45 -15 -48 2 -2 18 3 36 13 22 13 31 25 31
45 0 14 5 28 11 30 6 2 11 20 12 41 0 20 5 37 10 37 5 0 7 7 3 15 -3 9 0 15
10 15 68 0 -9 -284 -119 -435 -18 -24 -40 -47 -49 -50 -22 -8 -21 -7 -47 -225
-12 -96 -32 -217 -46 -267 -59 -220 -229 -467 -417 -606 -20 -15 -39 -27 -43
-27 -3 0 -58 -36 -123 -80 -125 -86 -241 -136 -273 -119 -10 5 -33 9 -53 9
-19 0 -37 4 -40 9 -3 5 -18 12 -33 16 -15 3 -32 13 -37 20 -17 23 -57 23 -70
0 -6 -11 -12 -21 -12 -23 -4 -10 -54 21 -54 33 0 9 -7 18 -15 21 -8 4 -15 17
-15 30 0 13 -4 24 -10 24 -5 0 -10 -5 -10 -11 0 -5 -5 -7 -12 -3 -9 6 -9 9 0
12 7 2 12 11 12 20 0 8 -3 13 -6 9 -9 -9 -44 26 -44 45 0 9 -5 20 -10 23 -6 3
-8 18 -5 33 3 15 2 21 -1 15 -3 -7 -10 -13 -15 -13 -16 0 -10 41 11 70 11 16
16 31 12 34 -5 3 -14 -6 -20 -19 -7 -14 -17 -25 -24 -25 -10 0 -10 3 1 9 7 5
10 14 6 21 -5 8 -11 5 -22 -9 -14 -21 -40 -30 -27 -10 3 6 0 16 -7 21 -11 7
-11 11 -1 15 6 2 12 11 12 18 0 15 27 45 41 45 5 0 9 -4 9 -10 0 -5 -7 -10
-15 -10 -8 0 -15 -4 -15 -9 0 -20 19 -20 44 0 15 12 33 18 41 15 8 -3 16 -2
19 2 2 4 27 6 55 5 27 -2 53 2 56 7 5 8 11 8 20 0 10 -8 17 -6 28 10 8 12 29
23 47 25 41 5 130 32 149 44 29 19 -2 47 -34 30 -23 -12 -41 -2 -57 31 -15 28
-18 31 -18 13 0 -12 -4 -25 -10 -28 -5 -3 -10 -1 -10 6 0 8 -4 8 -15 -1 -13
-11 -15 -8 -15 14 0 17 4 25 11 20 8 -5 8 -1 0 14 -14 26 -14 45 -1 37 6 -3
10 -2 10 3 0 5 12 10 28 10 52 2 77 9 132 34 30 15 89 32 130 39 41 7 88 19
104 27 34 17 83 9 102 -16 12 -16 14 -16 32 3 10 11 17 26 14 33 -2 6 2 12 9
12 8 0 6 7 -6 20 -23 25 -37 25 -105 -1 -49 -19 -62 -20 -120 -10 -210 35
-272 39 -278 21 -5 -13 -39 -13 -48 1 -4 8 -9 8 -17 0 -8 -8 -16 -6 -28 5 -9
8 -35 17 -57 20 -23 2 -56 11 -74 18 -18 7 -38 12 -44 9 -7 -2 -14 10 -16 29
-6 40 -1 58 18 58 8 0 14 8 14 18 0 9 11 29 25 44 14 15 25 34 25 42 0 9 10
21 23 27 12 7 22 11 22 10 0 -1 24 1 54 5 42 5 50 9 36 17 -16 8 -14 11 14 23
25 10 32 19 29 35 -3 22 -11 28 -60 48 -17 6 -34 26 -47 55 -18 39 -19 47 -6
72 10 22 13 61 9 169 -2 77 -6 234 -8 348 -2 114 -6 210 -10 214 -3 3 -1 12 5
20 9 9 8 13 0 13 -6 0 -11 7 -11 15 0 8 -5 15 -11 15 -6 0 -8 7 -5 17 9 24
-30 56 -71 58 -26 0 -39 7 -51 28 -9 15 -20 27 -24 27 -4 0 -35 17 -70 38 -35
20 -68 37 -73 37 -17 0 -94 25 -178 56 -43 17 -82 27 -86 24 -19 -11 3 41 25
63 13 13 24 29 24 37 0 8 5 15 10 15 6 0 10 9 10 20 0 14 6 20 18 18 14 -3 17
5 17 50 0 28 3 52 7 52 4 0 8 10 10 23 2 14 9 21 21 21 9 -1 17 2 17 7 0 5
-10 9 -22 10 -13 0 -17 3 -10 6 20 8 14 43 -8 43 -12 0 -21 7 -21 18 -1 9 -3
35 -4 57 -4 67 -4 68 -24 62 -13 -3 -18 0 -15 8 3 6 -2 18 -11 25 -17 14 -21
65 -5 75 6 3 10 24 10 45 0 27 6 42 17 49 24 13 10 25 -15 12 -21 -11 -32 -6
-32 18 0 12 3 12 12 3 19 -19 24 -14 24 24 0 32 -2 35 -23 29 -25 -6 -30 4
-11 23 7 7 8 12 3 12 -6 0 9 9 33 20 24 11 93 29 155 40 134 25 319 79 330 97
15 25 109 93 119 87 14 -9 -20 -43 -72 -70 -25 -14 -34 -22 -20 -18 28 7 97
51 108 69 16 27 62 45 130 51 40 4 72 10 72 14 0 5 9 6 20 3 11 -3 31 2 44 11
14 9 33 13 42 9 14 -5 16 -3 11 11 -6 14 -3 16 16 11 17 -6 19 -5 10 5 -9 10
-9 17 0 31 11 18 12 18 23 -4 7 -12 10 -25 8 -29z m439 25 c15 6 113 -75 170
-139 37 -42 50 -67 22 -44 -13 11 -14 10 -9 -5 6 -15 2 -14 -28 6 -60 42 -177
144 -168 147 5 2 -5 17 -23 33 -30 28 -30 29 -5 14 16 -10 34 -15 41 -12z
m138 -26 c10 -18 6 -17 -20 7 -36 34 -39 41 -11 26 11 -6 25 -20 31 -33z m-61
29 c0 -2 -7 -7 -16 -10 -8 -3 -12 -2 -9 4 6 10 25 14 25 6z m-717 -23 c-7 -2
-19 -2 -25 0 -7 3 -2 5 12 5 14 0 19 -2 13 -5z m124 1 c-3 -3 -12 -4 -19 -1
-8 3 -5 6 6 6 11 1 17 -2 13 -5z m-50 -10 c-3 -3 -12 -4 -19 -1 -8 3 -5 6 6 6
11 1 17 -2 13 -5z m883 -68 c0 -13 -49 34 -62 59 -6 12 4 6 26 -14 20 -19 36
-39 36 -45z m-953 28 c-3 -3 -12 -4 -19 -1 -8 3 -5 6 6 6 11 1 17 -2 13 -5z
m888 -74 c15 -22 25 -43 21 -47 -3 -3 -6 -1 -6 5 0 6 -6 17 -12 24 -7 8 -31
34 -53 58 -36 39 -37 41 -9 22 17 -11 43 -39 59 -62z m254 -20 c16 -33 25 -58
20 -54 -5 3 -23 33 -40 66 -17 33 -26 57 -20 54 5 -4 23 -33 40 -66z m-1429
10 c0 -14 -70 -57 -105 -64 l-30 -6 29 24 c17 14 34 22 39 19 12 -7 58 18 51
29 -3 4 0 8 5 8 6 0 11 -4 11 -10z m-130 -40 c-34 -28 -76 -47 -64 -29 3 5 -2
9 -10 9 -9 0 -16 -4 -16 -10 0 -13 -38 -32 -44 -22 -3 4 12 17 32 27 20 11 40
24 44 30 4 5 10 6 15 2 4 -5 1 -12 -7 -17 -8 -6 -10 -10 -5 -9 6 0 24 11 40
24 17 14 35 25 40 25 6 0 -6 -14 -25 -30z m1265 -29 c0 -3 10 -17 23 -31 12
-13 20 -30 18 -37 -3 -7 -2 -12 2 -11 18 4 40 -15 35 -30 -5 -12 -2 -14 11 -9
13 5 17 3 13 -6 -3 -7 4 -24 14 -38 10 -13 19 -31 18 -39 0 -11 -4 -10 -15 5
-8 11 -20 20 -27 20 -7 0 -13 6 -13 13 -1 6 -2 17 -3 22 0 6 -8 10 -16 10 -8
0 -20 10 -26 23 -7 12 -27 39 -45 60 -19 20 -34 43 -33 50 0 9 2 9 6 0 7 -19
23 -16 23 4 0 9 3 13 8 9 4 -4 7 -11 7 -15z m303 -46 c-3 -3 -9 2 -12 12 -6
14 -5 15 5 6 7 -7 10 -15 7 -18z m62 -82 c0 -3 -9 2 -20 12 -11 10 -20 28 -20
39 0 17 4 15 20 -12 11 -18 20 -35 20 -39z m-2045 -153 c-3 -5 -10 -10 -16
-10 -5 0 -9 5 -9 10 0 6 7 10 16 10 8 0 12 -4 9 -10z m-5 -190 c0 -5 -4 -10
-10 -10 -5 0 -10 5 -10 10 0 6 5 10 10 10 6 0 10 -4 10 -10z m57 -32 c-3 -8
-6 -5 -6 6 -1 11 2 17 5 13 3 -3 4 -12 1 -19z m-7 -68 c0 -5 -2 -10 -4 -10 -3
0 -8 5 -11 10 -3 6 -1 10 4 10 6 0 11 -4 11 -10z m30 -65 c0 -18 -2 -18 -20 5
-25 32 -25 43 0 28 11 -7 20 -22 20 -33z m6341 -334 c20 -16 24 -29 24 -73 0
-72 -23 -108 -70 -108 -24 0 -39 7 -54 27 -41 51 -39 106 4 149 29 29 64 31
96 5z m-4346 -209 c-3 -3 -11 0 -18 7 -9 10 -8 11 6 5 10 -3 15 -9 12 -12z
m-1989 -144 c4 -7 3 -8 -4 -4 -8 4 -12 0 -12 -11 -1 -17 -1 -17 -14 0 -7 9
-16 17 -19 17 -4 0 -4 -8 0 -17 5 -14 3 -15 -7 -6 -7 6 -9 16 -6 22 9 15 53
14 62 -1z m-117 -113 c6 -3 8 -13 5 -23 -4 -10 -2 -13 3 -7 10 13 133 18 133
5 0 -5 -16 -12 -35 -16 -19 -3 -35 -11 -35 -18 0 -6 -4 -6 -9 3 -6 9 -11 10
-15 2 -9 -14 -134 -3 -159 14 -17 12 -13 13 32 8 28 -2 51 -2 51 2 0 3 -7 19
-15 35 -9 17 -11 30 -6 30 5 0 7 10 5 23 -3 14 2 9 15 -15 12 -20 25 -39 30
-43z m211 45 c0 -10 -7 -20 -15 -24 -16 -6 -18 -2 -9 31 7 26 24 21 24 -7z
m-355 -60 c3 -6 -1 -7 -9 -4 -18 7 -21 14 -7 14 6 0 13 -4 16 -10z m461 -15
c4 -9 -3 -24 -17 -36 -16 -13 -25 -16 -27 -9 -3 9 -7 8 -13 -1 -8 -11 -11 -11
-20 4 -15 26 -30 21 -19 -7 7 -20 5 -25 -11 -29 -20 -5 -27 -37 -8 -37 6 0 9
6 6 14 -4 9 2 14 19 14 13 0 24 -6 23 -12 -3 -25 2 -37 13 -30 7 4 8 3 4 -5
-6 -9 -11 -9 -24 1 -13 11 -14 10 -8 -15 4 -18 3 -26 -3 -23 -6 4 -15 -3 -21
-15 -8 -15 -9 -19 -1 -15 6 4 11 2 11 -3 0 -6 -6 -11 -13 -11 -8 0 -20 -11
-27 -25 -7 -14 -17 -25 -21 -25 -5 0 -18 -19 -30 -42 -12 -24 -29 -48 -38 -55
-11 -8 -13 -15 -5 -23 8 -7 16 1 30 30 18 37 43 58 30 25 -3 -8 -3 -15 0 -15
12 0 34 30 35 47 0 17 1 17 8 -1 12 -30 1 -78 -16 -71 -13 4 -14 -2 -9 -32 5
-26 4 -33 -3 -24 -15 23 -24 -29 -18 -102 3 -34 2 -48 -2 -32 l-7 30 -7 -28
c-5 -18 -3 -34 3 -42 9 -11 4 -13 -27 -12 -29 2 -39 -2 -41 -16 -2 -9 1 -17 7
-17 6 0 11 6 11 13 1 7 8 4 18 -8 10 -12 29 -20 45 -20 29 1 38 -21 12 -31 -8
-4 -15 -13 -15 -21 0 -9 6 -13 15 -9 23 9 18 -7 -10 -28 -13 -10 -22 -22 -19
-27 4 -8 -61 -79 -72 -79 -2 0 -3 38 -1 85 1 47 6 85 10 85 5 0 2 7 -7 15 -8
8 -22 15 -30 15 -9 0 -16 5 -16 11 0 7 -11 8 -31 4 -22 -5 -34 -3 -41 6 -6 9
-7 2 -3 -21 5 -26 4 -31 -4 -20 -6 8 -11 25 -11 37 0 12 -7 28 -15 36 -8 8
-11 17 -8 21 3 3 -2 15 -12 26 -10 11 -15 20 -11 20 4 0 4 5 0 11 -4 8 -9 7
-15 -2 -8 -12 -11 -11 -19 1 -5 8 -10 23 -10 33 0 9 -5 17 -11 17 -6 0 -8 9
-4 20 4 11 2 20 -4 20 -6 0 -11 -5 -11 -11 0 -19 -25 -3 -26 17 -2 29 -15 64
-25 64 -5 0 -9 -5 -9 -12 0 -9 -3 -9 -11 -1 -8 8 -9 22 -3 40 4 15 8 33 9 39
0 6 6 19 14 27 10 13 18 14 32 6 16 -8 19 -6 19 11 0 12 4 19 9 16 13 -8 101
5 101 15 0 5 -8 6 -17 2 -10 -3 -15 -3 -11 2 4 4 18 9 32 10 51 6 85 17 83 27
-2 11 82 40 95 32 4 -3 8 -1 8 4 0 6 11 13 25 16 14 4 25 11 25 17 0 6 -9 7
-22 3 -13 -4 -30 -7 -38 -7 -8 0 -21 -5 -29 -11 -11 -8 -13 -8 -8 1 4 6 1 13
-8 15 -25 5 0 30 34 34 18 2 42 10 53 18 15 11 26 12 40 5 12 -6 18 -6 18 1 0
10 -7 12 -44 14 -11 1 -21 6 -23 12 -5 14 39 26 61 18 9 -3 16 -1 16 5 0 11
60 9 80 -4 5 -3 10 1 10 9 0 20 19 21 26 1z m1928 -71 c5 -14 4 -15 -9 -4 -17
14 -19 20 -6 20 5 0 12 -7 15 -16z m-279 -14 c3 -5 -1 -10 -10 -10 -9 0 -13 5
-10 10 3 6 8 10 10 10 2 0 7 -4 10 -10z m-3143 -142 c-7 -7 -12 -8 -12 -2 0
14 12 26 19 19 2 -3 -1 -11 -7 -17z m-47 -64 c-9 -16 -14 -21 -11 -11 3 10 6
28 6 40 0 15 3 18 11 10 8 -8 6 -19 -6 -39z m941 9 c-10 -10 -19 5 -10 18 6
11 8 11 12 0 2 -7 1 -15 -2 -18z m-863 -4 c-8 -8 -13 -7 -18 2 -5 8 -4 10 3 5
7 -4 12 -2 12 5 0 7 3 9 7 6 4 -4 2 -12 -4 -18z m-33 -44 c0 -11 -9 -43 -19
-70 -10 -28 -23 -73 -27 -100 l-8 -50 -7 35 c-15 67 3 181 33 218 14 16 28 -1
28 -33z m1397 23 c-3 -8 -6 -5 -6 6 -1 11 2 17 5 13 3 -3 4 -12 1 -19z m-502
2 c3 -5 1 -10 -4 -10 -6 0 -11 5 -11 10 0 6 2 10 4 10 3 0 8 -4 11 -10z m-841
-100 c19 -47 20 -64 5 -54 -8 4 -7 0 1 -15 6 -12 9 -34 7 -49 -2 -15 1 -63 8
-107 7 -43 10 -88 6 -99 -7 -17 -9 -16 -29 12 -12 16 -22 34 -22 39 0 6 -9 18
-19 27 -49 44 -56 156 -18 249 21 48 41 47 61 -3z m1331 -140 c3 -5 2 -10 -4
-10 -5 0 -13 5 -16 10 -3 6 -2 10 4 10 5 0 13 -4 16 -10z m-30 -37 c0 -15 6
-28 14 -31 10 -3 12 0 7 14 -6 15 -5 17 5 6 11 -10 10 -15 -4 -29 -13 -13 -17
-14 -17 -3 0 9 -5 8 -14 -6 -21 -28 -31 -10 -15 28 8 18 12 40 10 48 -1 8 1
11 6 7 4 -5 8 -20 8 -34z m-158 -115 c-3 -8 -6 -5 -6 6 -1 11 2 17 5 13 3 -3
4 -12 1 -19z m2159 -138 c-3 -32 -2 -49 4 -45 6 3 10 21 10 38 0 18 5 39 10
47 7 11 10 -3 10 -47 0 -35 4 -63 10 -63 6 0 10 8 10 18 0 9 5 24 10 32 12 17
4 -34 -12 -88 -6 -19 -10 -58 -9 -87 0 -30 -4 -57 -9 -60 -5 -3 -7 -19 -3 -36
5 -25 -3 -43 -43 -102 -26 -40 -61 -88 -76 -107 -15 -19 -28 -40 -28 -46 0
-18 -78 -96 -89 -89 -6 3 -9 0 -6 -8 7 -18 -91 -101 -107 -91 -7 4 -10 4 -6
-1 10 -11 -27 -42 -87 -72 -27 -14 -62 -34 -77 -44 -29 -21 -38 -23 -38 -10 0
5 26 26 58 47 31 21 73 55 93 74 20 19 59 55 88 79 71 62 151 181 181 271 14
41 37 95 52 120 14 25 29 63 32 85 4 22 9 53 12 69 4 19 3 26 -5 22 -6 -4 -11
-15 -11 -24 0 -21 -17 -48 -25 -41 -8 9 41 209 51 209 3 0 3 -23 0 -50z
m-2251 -428 c-5 -14 -7 -14 -15 -2 -5 9 -4 20 3 28 14 17 22 0 12 -26z m575
-27 c0 -14 -4 -25 -10 -25 -11 0 -14 33 -3 43 11 11 13 8 13 -18z m79 1 c1 7
7 14 15 17 11 4 17 -9 24 -51 6 -34 7 -61 1 -66 -6 -6 -9 -5 -9 5 0 12 -1 12
-9 0 -10 -15 -14 -4 -24 59 -3 17 -5 13 -6 -12 -1 -33 -4 -37 -23 -34 -14 2
-24 11 -25 22 -2 10 0 13 3 7 10 -22 26 -14 22 10 -2 12 -9 21 -17 19 -7 -1
-11 5 -9 15 2 10 8 18 15 18 6 0 15 4 19 8 5 4 12 0 15 -10 4 -10 8 -13 8 -7z
m79 -46 c0 -28 -3 -50 -8 -50 -10 0 -23 87 -15 100 13 21 24 -2 23 -50z m-201
28 c-3 -8 -6 -5 -6 6 -1 11 2 17 5 13 3 -3 4 -12 1 -19z m1648 -108 c-3 -5
-16 -15 -28 -21 -19 -9 -19 -8 3 10 28 23 34 26 25 11z m3074 -879 c19 -19 45
-136 35 -153 -4 -5 -6 -49 -5 -97 0 -93 21 -160 60 -195 10 -10 25 -31 32 -47
10 -26 9 -34 -8 -57 -11 -15 -35 -32 -54 -39 -75 -26 -194 -6 -217 37 -16 31
-11 58 22 137 30 70 37 128 27 215 -8 65 6 161 29 196 18 27 53 29 79 3z
m-939 -770 c0 -40 -43 -83 -78 -79 -16 2 -28 10 -30 21 -5 28 39 86 68 89 35
5 40 1 40 -31z m1398 -61 c34 -43 53 -118 53 -204 0 -115 -31 -173 -113 -214
-18 -10 -34 -24 -36 -32 -1 -9 14 -36 35 -60 38 -44 38 -45 38 -130 -1 -62 -5
-92 -17 -110 -17 -25 -35 -85 -45 -147 -3 -18 -9 -33 -14 -33 -5 0 -9 -10 -9
-22 0 -22 -25 -101 -38 -122 -3 -6 -7 -19 -7 -29 -2 -20 -18 -34 -51 -43 -28
-7 -94 27 -136 70 -57 60 -68 76 -68 101 0 13 -5 27 -10 30 -6 4 -8 10 -6 14
3 4 -38 29 -89 55 -52 26 -105 61 -119 76 l-24 29 33 66 c35 72 35 92 0 125
-23 21 -24 47 -2 61 5 4 5 21 -1 42 -6 22 -6 39 0 45 6 6 -7 26 -36 55 -51 50
-53 60 -35 164 16 93 57 126 175 142 39 6 95 23 132 42 49 24 90 35 166 44
148 19 200 15 224 -15z m-7370 -1993 c12 -29 22 -56 22 -60 0 -4 -23 -39 -51
-78 -39 -52 -56 -68 -68 -63 -58 24 -118 44 -134 44 -10 0 -32 8 -50 17 -21
11 -50 16 -84 14 l-53 -2 5 40 c6 50 19 84 36 98 8 5 81 16 164 22 82 7 152
14 154 17 17 17 40 -2 59 -49z m6958 -8 c19 -11 34 -24 34 -29 0 -5 8 -11 19
-15 15 -4 19 -20 25 -98 3 -50 9 -117 12 -148 5 -43 3 -59 -10 -71 -18 -18
-22 -48 -6 -48 16 0 12 -30 -6 -48 -20 -19 -76 -21 -98 -3 -10 8 -14 22 -10
35 4 18 -4 28 -46 57 -47 31 -51 37 -45 64 10 52 7 85 -14 138 -26 67 1 139
64 171 40 20 42 19 81 -5z m1224 -1629 c0 -5 -4 -10 -10 -10 -5 0 -10 5 -10
10 0 6 5 10 10 10 6 0 10 -4 10 -10z m-680 -104 c0 -9 -3 -15 -7 -14 -5 1 -19
-5 -33 -14 -49 -32 -403 -94 -470 -83 -22 4 -54 0 -81 -9 -40 -14 -123 -27
-309 -52 -25 -3 -76 -19 -114 -36 -66 -30 -70 -30 -124 -17 -43 10 -57 10 -60
1 -2 -7 -13 -12 -25 -12 -11 0 -34 -4 -51 -9 -17 -5 -60 -15 -96 -21 -103 -17
-109 -19 -120 -25 -14 -9 -23 20 -16 49 4 17 13 24 28 23 13 0 61 5 108 11 46
7 106 12 133 12 36 0 49 4 53 17 24 70 19 68 118 71 50 2 109 8 131 13 64 16
317 48 331 42 8 -3 28 0 46 7 57 21 318 56 441 59 101 2 117 0 117 -13z"/>
<path d="M2290 7223 c0 -12 5 -25 10 -28 13 -8 13 15 0 35 -8 12 -10 11 -10
-7z"/>
<path d="M7330 8220 c0 -5 5 -10 10 -10 6 0 10 5 10 10 0 6 -4 10 -10 10 -5 0
-10 -4 -10 -10z"/>
<path d="M7969 8161 c-34 -34 -35 -64 -3 -69 26 -4 74 34 74 58 0 11 -9 24
-20 30 -17 9 -25 6 -51 -19z"/>
<path d="M7950 7690 c-8 -5 -39 -10 -67 -10 -53 0 -68 -11 -35 -26 47 -21 172
-6 172 21 0 8 -6 15 -14 15 -8 0 -20 2 -28 5 -7 3 -20 0 -28 -5z"/>
<path d="M5120 9201 c0 -5 7 -12 16 -15 27 -10 36 -7 20 9 -16 17 -36 20 -36
6z"/>
<path d="M5410 8916 c0 -2 8 -10 18 -17 15 -13 16 -12 3 4 -13 16 -21 21 -21
13z"/>
<path d="M3658 8583 c7 -3 16 -2 19 1 4 3 -2 6 -13 5 -11 0 -14 -3 -6 -6z"/>
<path d="M3726 8178 c-3 -13 -1 -27 4 -32 7 -7 10 1 10 22 0 37 -5 41 -14 10z"/>
<path d="M4883 7749 c-6 -6 -62 -12 -124 -14 -81 -2 -123 -7 -144 -19 -16 -9
-37 -16 -46 -16 -18 0 -75 -57 -66 -66 4 -4 13 -1 22 6 13 11 14 10 8 -5 -5
-14 -3 -17 10 -12 9 3 17 2 17 -3 0 -6 9 -6 24 0 13 5 26 6 29 3 3 -2 29 2 59
11 29 8 94 24 143 36 50 11 122 28 160 38 l70 19 -55 12 c-92 20 -96 21 -107
10z"/>
<path d="M5073 7723 c9 -2 23 -2 30 0 6 3 -1 5 -18 5 -16 0 -22 -2 -12 -5z"/>
<path d="M5130 7711 c23 -12 86 -23 75 -12 -6 4 -28 11 -50 14 -23 4 -34 3
-25 -2z"/>
<path d="M4770 7632 c-53 -7 -100 -23 -95 -32 8 -13 -2 -12 -28 2 -20 10 -21
10 -8 -5 12 -15 11 -17 -7 -17 -12 0 -24 -5 -28 -12 -5 -8 5 -9 37 -4 130 22
168 24 238 16 107 -14 181 -55 227 -125 21 -32 29 -31 32 3 2 28 -45 92 -67
92 -6 0 -11 4 -11 9 0 5 -8 11 -17 14 -10 3 -47 18 -83 32 -60 26 -129 35
-190 27z"/>
<path d="M4722 7560 c-18 -4 -51 -20 -75 -35 -80 -54 -197 -192 -144 -172 9 3
12 -3 9 -22 -5 -34 23 -67 43 -51 10 8 14 7 18 -2 4 -10 7 -10 15 1 8 11 12
10 21 -5 9 -16 12 -17 20 -4 5 8 8 17 6 21 -3 4 10 10 28 14 30 6 31 7 10 15
-26 10 -31 40 -8 40 8 0 15 4 15 8 0 12 72 58 102 65 22 6 24 3 27 -36 2 -47
20 -79 54 -102 49 -32 147 30 147 93 0 19 3 23 9 13 5 -7 6 -22 4 -32 -6 -23
25 -27 33 -4 5 11 10 13 19 5 9 -7 16 -6 25 5 7 8 24 16 39 16 l26 2 -25 4
c-14 3 -33 13 -43 24 -10 10 -22 19 -27 19 -5 0 -7 7 -3 15 3 9 2 15 -3 14 -5
-1 -18 -1 -29 0 -20 2 -20 2 -1 16 22 17 16 18 -151 17 -60 0 -83 4 -87 14 -3
8 1 14 9 14 8 0 15 6 15 14 0 10 13 16 38 19 20 2 6 4 -33 4 -38 1 -85 -3
-103 -7z m218 -146 c0 -13 -3 -14 -14 -5 -9 8 -16 8 -20 2 -7 -10 -46 -11 -46
-1 0 14 15 20 47 20 24 0 33 -5 33 -16z m-390 -75 c0 -6 9 -8 20 -4 14 5 20 2
20 -9 0 -12 -10 -16 -35 -16 -33 0 -46 16 -28 33 10 11 23 8 23 -4z"/>
<path d="M4444 7391 c1 -17 7 -27 16 -27 20 0 19 44 -1 49 -12 3 -16 -3 -15
-22z"/>
<path d="M4701 7364 c0 -11 3 -14 6 -6 3 7 2 16 -1 19 -3 4 -6 -2 -5 -13z"/>
<path d="M4640 7255 c0 -14 -13 -20 -34 -16 -5 1 -13 -4 -17 -11 -6 -9 -11 -6
-18 12 -5 14 -10 19 -10 12 -1 -7 -5 -11 -10 -7 -5 3 -11 -3 -13 -12 -3 -18
25 -55 40 -51 4 1 22 -6 41 -16 18 -10 59 -20 90 -22 l56 -5 -52 21 c-29 12
-53 26 -53 32 0 5 6 8 14 5 7 -3 18 -1 23 4 10 10 64 13 107 7 10 -2 21 3 24
11 3 10 -3 11 -28 6 -25 -5 -31 -4 -28 6 3 9 -10 18 -41 26 -63 17 -91 16 -91
-2z"/>
<path d="M4956 7252 c-2 -4 4 -9 15 -9 10 -1 19 2 19 8 0 11 -27 12 -34 1z"/>
<path d="M4900 7230 c0 -5 5 -10 11 -10 5 0 7 5 4 10 -3 6 -8 10 -11 10 -2 0
-4 -4 -4 -10z"/>
<path d="M4930 7230 c0 -5 5 -10 11 -10 5 0 7 5 4 10 -3 6 -8 10 -11 10 -2 0
-4 -4 -4 -10z"/>
<path d="M4865 7220 c-3 -5 -4 -10 -1 -10 2 0 12 -3 20 -6 12 -5 15 -2 10 10
-7 18 -20 21 -29 6z"/>
<path d="M4648 6629 c10 -25 93 -111 101 -103 3 3 -2 10 -12 15 -9 6 -17 17
-17 25 0 8 -7 17 -15 20 -8 4 -15 11 -15 16 0 9 -38 48 -46 48 -2 0 0 -9 4
-21z"/>
<path d="M4425 6558 l-28 -22 39 -11 c34 -10 41 -9 52 7 32 45 -15 64 -63 26z"/>
<path d="M4245 6410 c3 -5 10 -10 16 -10 5 0 9 5 9 10 0 6 -7 10 -16 10 -8 0
-12 -4 -9 -10z"/>
<path d="M4445 5860 c-3 -5 -1 -10 4 -10 6 0 11 5 11 10 0 6 -2 10 -4 10 -3 0
-8 -4 -11 -10z"/>
<path d="M4015 5620 c-3 -5 -1 -10 4 -10 6 0 11 5 11 10 0 6 -2 10 -4 10 -3 0
-8 -4 -11 -10z"/>
<path d="M3690 6960 c0 -5 5 -10 11 -10 5 0 7 5 4 10 -3 6 -8 10 -11 10 -2 0
-4 -4 -4 -10z"/>
<path d="M3701 6714 c0 -11 3 -14 6 -6 3 7 2 16 -1 19 -3 4 -6 -2 -5 -13z"/>
<path d="M3506 6675 c-3 -8 -1 -15 4 -15 6 0 10 7 10 15 0 8 -2 15 -4 15 -2 0
-6 -7 -10 -15z"/>
<path d="M3615 6620 c3 -5 8 -10 11 -10 2 0 4 5 4 10 0 6 -5 10 -11 10 -5 0
-7 -4 -4 -10z"/>
<path d="M3675 6530 c3 -5 8 -10 11 -10 2 0 4 5 4 10 0 6 -5 10 -11 10 -5 0
-7 -4 -4 -10z"/>
<path d="M5750 6125 c-5 -14 -12 -38 -15 -53 l-6 -27 14 25 c16 28 30 80 22
80 -3 0 -10 -11 -15 -25z"/>
<path d="M5519 5753 c-13 -16 -12 -17 4 -4 16 13 21 21 13 21 -2 0 -10 -8 -17
-17z"/>
<path d="M1018 9663 c7 -3 16 -2 19 1 4 3 -2 6 -13 5 -11 0 -14 -3 -6 -6z"/>
<path d="M805 9644 c-16 -7 -42 -13 -57 -14 -18 0 -28 -5 -28 -15 0 -21 58
-20 111 2 23 9 67 22 98 29 l56 12 -75 0 c-41 -1 -88 -7 -105 -14z"/>
<path d="M260 9607 c-28 -23 -76 -92 -104 -149 -32 -66 -31 -107 8 -198 13
-30 30 -74 37 -97 7 -24 16 -43 21 -43 4 0 8 -17 9 -37 0 -21 4 -47 9 -58 7
-16 9 -12 9 20 1 22 8 53 16 69 8 15 15 33 15 38 0 14 43 116 96 223 47 98 80
136 151 175 26 14 48 31 50 37 8 23 -290 42 -317 20z"/>
<path d="M320 7263 c-1 -10 -5 -79 -10 -153 -12 -167 -12 -380 0 -474 5 -39
10 -95 10 -124 0 -29 5 -58 10 -65 6 -7 17 -21 25 -32 13 -18 14 -6 15 108 0
83 -4 126 -10 122 -6 -4 -10 10 -10 34 0 23 5 41 10 41 6 0 10 18 10 40 0 22
-4 40 -10 40 -15 0 -12 78 3 83 9 3 7 13 -7 37 -11 19 -20 53 -20 77 -1 24 -5
43 -10 43 -5 0 -6 50 -3 120 4 66 5 120 2 120 -3 0 -5 -8 -5 -17z"/>
<path d="M10195 243 c-16 -2 -84 -12 -150 -23 -136 -21 -197 -30 -264 -36 -99
-9 -298 -37 -476 -68 -126 -22 -239 -35 -387 -46 -71 -5 -136 -11 -145 -14
-10 -3 -75 -10 -145 -15 -78 -6 -137 -15 -155 -25 -25 -14 58 -15 870 -16
l897 0 0 125 c0 69 -3 124 -7 124 -5 -1 -21 -4 -38 -6z"/>
</g>
</svg>
