<?xml version="1.0" standalone="no"?>
<!DOCTYPE svg PUBLIC "-//W3C//DTD SVG 20010904//EN"
 "http://www.w3.org/TR/2001/REC-SVG-20010904/DTD/svg10.dtd">
<svg version="1.0" xmlns="http://www.w3.org/2000/svg"
 width="1024.000000pt" height="1024.000000pt" viewBox="0 0 1024.000000 1024.000000"
 preserveAspectRatio="xMidYMid meet">

<g transform="translate(0.000000,1024.000000) scale(0.100000,-0.100000)"
fill="#000000" stroke="none">
<path d="M0 5120 l0 -5120 1234 0 1235 0 308 307 c305 303 586 574 778 749 55
49 132 124 170 164 39 41 79 82 90 91 11 9 39 35 61 57 23 22 45 41 50 43 28
12 84 56 84 66 0 6 8 14 19 18 19 6 71 76 71 95 0 5 4 10 8 10 5 0 24 24 43
52 33 52 233 321 287 386 34 42 40 59 53 146 6 47 6 117 -1 216 -22 295 -44
436 -156 995 -8 39 -28 108 -44 154 -36 101 -37 111 -6 111 29 0 94 -26 113
-46 8 -8 20 -14 27 -14 7 0 21 -9 31 -20 14 -16 20 -17 27 -8 5 8 8 1 8 -19 0
-18 8 -47 18 -65 10 -18 22 -62 25 -97 4 -35 12 -70 18 -77 6 -8 9 -23 6 -33
-5 -22 11 -40 61 -65 22 -12 35 -26 39 -46 3 -17 9 -30 13 -30 5 0 11 -13 15
-30 4 -16 12 -33 18 -37 21 -14 41 -57 28 -61 -6 -2 -11 -10 -11 -17 0 -10 8
-11 28 -6 23 6 27 13 30 49 2 23 7 42 13 42 5 0 9 15 9 33 0 17 5 49 11 70 8
32 7 49 -11 103 -22 66 -22 141 0 198 4 12 8 25 8 29 0 5 11 23 24 40 13 18
30 51 37 74 10 30 22 45 43 54 15 6 33 19 38 28 9 14 11 14 21 -2 10 -17 12
-16 35 9 14 14 28 24 31 21 8 -8 -27 -95 -59 -147 -82 -134 -134 -280 -99
-280 6 0 24 29 41 65 17 36 35 65 40 65 14 0 60 49 60 65 0 8 5 17 12 21 7 4
8 3 4 -4 -4 -7 -2 -12 3 -12 6 0 11 5 11 10 0 6 5 10 11 10 20 0 59 49 53 68
-4 11 -3 13 3 5 6 -8 20 -9 46 -3 28 6 37 5 34 -3 -20 -47 -20 -47 6 -47 40 0
57 10 57 35 0 13 7 25 15 29 20 7 19 26 -2 26 -14 0 -15 2 -4 13 11 10 14 10
18 0 3 -7 12 -13 20 -13 10 0 14 -6 10 -19 -3 -13 1 -21 15 -24 11 -3 17 -10
13 -16 -3 -6 -11 -9 -16 -6 -5 4 -9 -1 -9 -10 0 -9 -6 -23 -12 -30 -7 -7 -33
-37 -58 -66 -25 -29 -58 -65 -74 -80 -30 -28 -28 -49 5 -49 22 0 24 -11 7 -28
-9 -9 -8 -12 4 -12 9 0 34 21 57 47 22 26 41 42 41 36 0 -7 -4 -15 -10 -18 -6
-3 -10 -14 -10 -23 0 -10 22 8 58 47 36 39 64 61 70 57 7 -4 12 -3 12 2 0 10
49 26 57 19 6 -6 -47 -103 -68 -126 -32 -34 -69 -100 -63 -114 4 -13 -25 -67
-56 -104 -22 -26 9 -12 50 22 47 39 62 39 36 1 -24 -38 -19 -54 6 -19 13 16
51 60 84 96 64 70 92 86 73 43 -9 -20 -8 -27 11 -46 20 -20 21 -23 5 -40 -12
-13 -13 -20 -5 -25 7 -4 16 -1 21 6 6 10 11 11 19 3 8 -8 5 -21 -10 -48 -12
-20 -18 -36 -13 -36 12 1 43 26 43 36 0 5 11 14 24 20 20 9 23 9 19 -2 -3 -8
-9 -14 -14 -14 -6 0 -8 -19 -6 -42 3 -33 -3 -56 -25 -96 -15 -29 -23 -50 -18
-47 6 4 17 1 25 -5 11 -9 23 1 60 52 26 35 48 64 50 66 1 1 0 -10 -2 -25 -4
-26 0 -23 45 26 34 38 53 52 62 46 10 -6 12 -4 6 11 -6 15 -5 17 5 7 10 -10
17 -9 35 8 14 13 24 17 29 10 3 -6 1 -11 -4 -11 -6 0 -11 -7 -11 -15 0 -23 13
-18 45 15 20 21 38 30 60 30 21 0 46 11 70 30 37 30 62 40 50 20 -3 -6 -4 -10
0 -10 9 0 50 24 57 35 5 7 8 6 8 -1 0 -5 -6 -16 -12 -23 -11 -11 -10 -12 6 -4
25 14 56 5 49 -13 -7 -19 -21 -18 -26 4 -4 13 -5 11 -6 -5 -1 -14 5 -23 13
-23 8 0 18 -9 21 -20 3 -11 14 -20 23 -21 11 0 12 -3 5 -6 -7 -2 -13 -12 -13
-20 0 -11 6 -14 21 -10 21 6 21 5 3 -12 -11 -9 -28 -23 -39 -29 -20 -11 -20
-11 0 -12 11 0 27 -5 35 -10 13 -9 13 -11 0 -20 -12 -9 -10 -10 10 -8 14 2 24
9 22 16 -3 18 13 14 33 -8 18 -20 18 -21 0 -14 -14 6 -17 4 -12 -9 5 -13 1
-15 -22 -11 -19 4 -30 1 -34 -9 -3 -8 0 -14 6 -14 48 1 76 -6 96 -24 13 -13
30 -19 42 -16 12 3 19 1 16 -6 -4 -14 -58 -29 -77 -21 -28 12 -70 14 -70 3 0
-5 4 -8 9 -4 5 3 12 1 16 -4 3 -6 12 -8 20 -4 8 3 15 0 15 -5 0 -6 7 -12 17
-14 15 -3 15 -4 0 -17 -15 -12 -17 -11 -17 3 0 12 -7 14 -32 9 -24 -5 -34 -2
-45 13 -13 18 -14 17 -8 -9 6 -22 4 -26 -8 -21 -12 4 -14 1 -11 -14 4 -14 -2
-22 -28 -32 -18 -8 -35 -17 -38 -20 -6 -8 -104 -40 -123 -40 -8 0 -17 -6 -20
-14 -3 -8 -24 -17 -46 -21 -23 -4 -41 -11 -41 -15 0 -5 -12 -10 -27 -12 -16
-2 -27 -8 -25 -16 1 -9 -6 -11 -25 -7 -28 5 -28 5 -3 -5 29 -13 18 -24 -42
-40 -23 -7 -38 -17 -38 -26 0 -12 -8 -13 -34 -9 -20 4 -36 2 -40 -4 -4 -6 -19
-11 -34 -11 -41 0 -72 -11 -72 -24 0 -7 -12 -13 -27 -13 -34 0 -192 -67 -169
-71 20 -4 21 -22 1 -22 -7 0 -18 -6 -22 -13 -4 -7 -28 -19 -53 -27 -52 -16
-140 -67 -140 -81 0 -15 14 -11 76 21 67 34 82 36 110 16 18 -14 18 -15 -9
-25 -16 -6 -36 -18 -44 -27 -9 -8 -27 -14 -42 -14 -14 1 -34 2 -44 1 -16 -1
-17 -3 -3 -16 8 -8 19 -15 23 -15 22 0 93 -42 93 -54 0 -7 -14 -20 -32 -27
l-32 -13 39 -9 c39 -9 79 -14 122 -16 24 -1 29 -37 6 -45 -7 -3 -13 -20 -13
-39 0 -23 -8 -41 -28 -60 -16 -15 -31 -24 -35 -21 -7 8 -37 -14 -37 -27 0 -5
10 -9 22 -9 16 0 19 -3 11 -11 -14 -14 -6 -39 12 -39 21 0 28 19 15 35 -9 11
-9 15 -1 15 6 0 10 3 9 8 -4 12 47 61 75 71 24 9 27 8 27 -9 0 -11 6 -20 13
-20 7 0 22 -6 33 -14 28 -21 6 -42 -32 -29 -41 14 -69 -18 -69 -77 l0 -45 -40
-3 c-40 -3 -75 -25 -75 -47 0 -12 29 -29 68 -40 12 -4 22 -13 22 -21 0 -15 7
-17 57 -14 55 3 57 -63 2 -74 -39 -7 -36 -16 12 -46 39 -24 39 -25 17 -32 -18
-6 -16 -7 8 -3 22 3 38 -2 52 -16 24 -22 20 -41 -13 -63 -20 -13 -29 -14 -50
-4 -34 15 -55 -2 -34 -28 13 -16 12 -17 -8 -12 -15 4 -20 2 -16 -8 4 -10 10
-11 23 -4 10 6 23 10 29 10 17 0 13 -52 -6 -72 -16 -18 -16 -21 7 -63 14 -26
29 -41 37 -38 27 11 12 -26 -17 -41 -28 -14 -30 -13 -30 6 0 12 -5 17 -12 14
-7 -3 -21 -9 -30 -12 -10 -4 -18 -15 -18 -26 0 -11 -8 -22 -19 -25 -16 -4 -18
-8 -9 -22 9 -14 6 -25 -12 -49 -13 -17 -20 -38 -17 -46 4 -10 1 -16 -7 -16
-17 0 -48 -35 -39 -43 3 -4 15 -7 25 -7 10 0 18 -5 18 -10 0 -6 11 -15 24 -21
20 -10 31 -8 60 11 l36 22 0 -35 c0 -26 -5 -36 -20 -40 -11 -3 -20 -12 -20
-21 0 -18 -17 -20 -54 -6 -16 6 -26 6 -26 0 0 -14 -81 -120 -92 -120 -14 0 -5
-43 10 -48 7 -2 16 5 19 17 6 23 18 27 28 11 4 -6 13 -9 20 -8 8 2 13 0 12 -3
-1 -3 4 -14 12 -23 11 -13 11 -20 3 -28 -26 -26 -14 -41 28 -35 37 5 42 3 55
-24 9 -16 11 -29 6 -29 -5 0 -11 5 -13 12 -3 7 -12 4 -27 -11 -24 -24 -22 -56
5 -77 8 -6 14 -21 14 -34 0 -22 -3 -23 -54 -17 -30 3 -57 3 -60 0 -7 -8 14
-46 30 -56 20 -11 17 -23 -11 -51 -33 -33 -32 -39 10 -59 39 -19 85 -22 85 -7
0 6 7 10 15 10 12 0 14 -8 9 -37 -7 -46 -5 -44 -46 -52 -38 -8 -49 -39 -24
-64 9 -9 16 -20 16 -26 0 -6 7 -11 15 -11 18 0 19 -14 3 -40 -11 -17 -10 -22
2 -30 9 -6 908 -10 2413 -10 l2397 0 0 5120 0 5120 -5120 0 -5120 0 0 -5120z
m4120 4467 c0 -2 -10 -12 -22 -23 l-23 -19 19 23 c18 21 26 27 26 19z m-76
-104 c-19 -31 -34 -61 -34 -67 0 -5 -3 -7 -6 -4 -6 7 19 59 48 101 33 46 28
30 -8 -30z m433 31 c-3 -3 -12 -4 -19 -1 -8 3 -5 6 6 6 11 1 17 -2 13 -5z
m-97 -29 c0 -2 -10 -9 -22 -15 -22 -11 -22 -10 -4 4 21 17 26 19 26 11z m-50
-29 c0 -2 -8 -10 -17 -17 -16 -13 -17 -12 -4 4 13 16 21 21 21 13z m-333 -78
c-3 -8 -6 -5 -6 6 -1 11 2 17 5 13 3 -3 4 -12 1 -19z m-10 -65 c-3 -10 -5 -2
-5 17 0 19 2 27 5 18 2 -10 2 -26 0 -35z m-503 19 c3 -5 -23 -6 -57 -4 -87 5
-94 10 -15 11 37 1 69 -3 72 -7z m64 -37 c-3 -3 -9 2 -12 12 -6 14 -5 15 5 6
7 -7 10 -15 7 -18z m-27 -12 c13 -16 12 -17 -3 -4 -10 7 -18 15 -18 17 0 8 8
3 21 -13z m-185 -22 c-3 -5 -32 -11 -63 -14 -32 -3 -69 -8 -83 -12 -17 -6 -22
-5 -15 3 22 23 174 45 161 23z m24 -49 c0 -4 14 -13 31 -21 16 -7 28 -15 25
-18 -3 -3 -18 2 -35 10 -18 9 -33 11 -37 6 -3 -5 2 -9 11 -9 9 0 13 -4 10 -10
-4 -6 1 -7 12 -3 12 4 15 3 8 -4 -6 -7 -30 -8 -61 -4 -59 8 -74 5 -74 -15 0
-9 10 -14 28 -14 15 0 51 -6 80 -14 44 -11 52 -11 48 0 -3 8 0 11 9 8 8 -3 17
-14 20 -25 4 -10 11 -19 16 -19 5 0 9 -7 9 -15 0 -12 -6 -11 -31 7 -29 21 -40
23 -177 23 -128 0 -152 -3 -187 -20 -22 -11 -39 -26 -38 -32 2 -7 -7 -18 -19
-24 -45 -24 -136 -114 -180 -177 -17 -24 -34 -39 -40 -36 -7 4 -8 2 -4 -5 4
-6 3 -17 -2 -24 -6 -7 -25 -59 -42 -117 -51 -167 -48 -162 -49 -105 0 28 3 56
8 64 10 16 4 41 -10 41 -5 0 -12 -12 -15 -27 -7 -25 -8 -26 -15 -8 -6 13 -7 8
-3 -15 3 -23 -2 -55 -15 -90 -29 -79 -43 -210 -44 -410 -1 -96 -3 -154 -5
-128 -2 34 -9 51 -21 58 -10 5 -21 6 -25 3 -3 -3 -6 18 -6 48 0 30 4 49 8 42
11 -17 36 1 29 20 -3 8 -1 75 4 149 5 73 11 172 14 220 5 97 19 133 118 298
27 45 139 194 150 198 4 2 3 10 -3 17 -13 16 60 71 163 121 88 43 87 42 220
43 69 1 106 5 102 11 -3 6 -1 10 4 10 6 0 11 -3 11 -8z m280 -7 c7 -9 8 -15 2
-15 -5 0 -12 7 -16 15 -3 8 -4 15 -2 15 2 0 9 -7 16 -15z m-610 -20 c0 -3 -28
-19 -62 -36 -35 -17 -84 -47 -111 -65 -56 -41 -76 -45 -28 -6 72 57 201 126
201 107z m2231 -72 c13 -17 13 -17 -6 -3 -11 8 -22 16 -24 17 -2 2 0 3 6 3 6
0 17 -8 24 -17z m-1766 -53 c3 -6 -1 -7 -9 -4 -18 7 -21 14 -7 14 6 0 13 -4
16 -10z m512 -44 c-10 -24 18 -39 37 -21 9 9 16 13 16 8 0 -12 70 -42 115 -48
l40 -5 -40 13 c-67 23 -100 43 -85 52 8 5 15 4 18 -3 2 -6 9 -9 17 -6 7 3 27
-2 43 -10 17 -9 37 -14 44 -11 7 2 31 -4 53 -15 l40 -20 -37 3 c-21 2 -38 0
-38 -4 0 -5 178 -23 222 -21 10 0 20 -3 23 -8 3 -4 14 -6 25 -3 21 6 29 -12 8
-19 -7 -3 -6 -7 5 -11 11 -4 17 -1 17 8 0 8 7 15 15 15 8 0 14 -6 13 -12 -2
-7 7 -14 19 -16 14 -2 20 -8 16 -18 -4 -10 -9 -12 -18 -4 -9 8 -14 7 -18 -3
-4 -12 12 -17 66 -20 9 -1 17 -2 17 -3 0 -1 -14 -17 -30 -34 -33 -36 -34 -53
-4 -58 15 -3 16 -1 4 7 -8 5 -12 12 -10 15 9 8 90 -6 90 -16 0 -5 -9 -6 -20
-3 -14 5 -20 2 -20 -9 0 -9 -7 -16 -17 -16 -15 0 -10 -15 5 -15 18 -1 32 -18
32 -40 0 -14 7 -25 18 -28 16 -4 16 -5 0 -6 -10 0 -23 5 -30 12 -7 8 -20 12
-30 9 -16 -4 -15 -7 7 -24 14 -11 23 -23 20 -28 -3 -5 2 -16 11 -24 8 -9 11
-16 6 -16 -11 0 -25 -36 -23 -60 0 -8 -5 -3 -12 13 -14 28 -27 27 -27 -3 0
-10 10 -25 23 -34 13 -9 16 -15 7 -13 -9 1 -15 -6 -16 -18 -3 -61 -5 -65 -23
-65 -10 0 -21 -8 -25 -17 -3 -10 -9 -25 -12 -33 -3 -8 4 -4 15 10 11 14 23 21
28 16 4 -5 2 -11 -4 -13 -7 -3 -13 -11 -13 -19 0 -8 -7 -14 -15 -14 -8 0 -19
-10 -26 -21 -9 -17 -8 -20 2 -14 9 6 11 2 6 -14 -4 -15 2 -29 21 -46 27 -25
27 -25 4 -25 -25 0 -27 -27 -3 -46 16 -12 11 -46 -8 -52 -10 -3 -11 2 -6 19 4
16 3 20 -3 11 -5 -8 -12 -13 -16 -13 -36 5 -56 -1 -56 -16 0 -14 -2 -15 -9 -5
-7 11 -9 11 -14 -2 -4 -9 -18 -16 -33 -16 -53 0 -15 -11 41 -12 31 -1 58 -5
61 -9 2 -4 16 -6 29 -3 15 3 25 0 25 -7 0 -7 8 -18 18 -25 16 -12 16 -13 -3
-19 -56 -19 -58 -25 -8 -21 66 5 79 -9 17 -19 -51 -7 -87 -35 -69 -52 11 -11
73 -12 90 -1 6 3 19 2 30 -3 11 -4 16 -8 10 -9 -5 -1 -14 -3 -20 -4 -40 -6
-75 -19 -75 -27 0 -11 3 -11 34 1 14 5 26 6 26 1 0 -5 10 -7 23 -5 20 4 20 4
2 -5 -11 -4 -23 -7 -27 -4 -5 2 -8 1 -8 -4 0 -16 47 -30 71 -21 21 7 22 7 7
-5 -11 -9 -39 -13 -78 -11 -33 1 -63 -3 -67 -9 -4 -7 5 -8 25 -4 33 7 40 -1
21 -20 -8 -8 -8 -13 0 -17 6 -4 11 -1 11 6 1 8 7 5 18 -8 10 -11 23 -19 30
-16 8 2 12 -7 12 -28 0 -26 -3 -31 -17 -26 -15 6 -15 5 1 -13 12 -13 14 -21 6
-26 -6 -4 -8 -15 -5 -26 8 -25 -3 -24 -26 4 -17 20 -18 20 -12 2 3 -11 3 -17
-2 -13 -4 4 -14 0 -22 -10 -12 -16 -14 -16 -29 3 -16 20 -16 20 -9 -2 6 -21 3
-23 -34 -23 -34 0 -39 -3 -34 -17 6 -16 5 -16 -10 -4 -15 12 -17 12 -11 -3 5
-12 2 -15 -12 -9 -13 5 -15 3 -9 -7 6 -10 3 -12 -14 -7 -17 4 -21 2 -17 -9 3
-8 1 -14 -4 -14 -6 0 -10 5 -10 10 0 6 -7 10 -16 10 -12 0 -14 -3 -6 -13 9
-11 2 -14 -36 -15 -55 -2 -57 -2 -144 -27 -43 -13 -68 -25 -68 -34 0 -8 -3
-11 -7 -8 -3 4 -15 -5 -25 -20 -10 -16 -18 -24 -18 -19 0 6 -7 1 -16 -10 -12
-14 -11 -11 2 11 9 16 27 37 38 47 12 10 16 17 8 18 -18 0 -68 -51 -77 -79 -7
-24 -8 -24 -22 -5 -13 18 -14 17 -8 -9 4 -15 4 -44 0 -65 l-8 -37 -13 30 c-18
40 -18 8 0 -47 23 -70 27 -98 16 -98 -6 0 -16 -11 -22 -25 -9 -19 -16 -24 -32
-19 -17 5 -19 4 -8 -7 17 -18 15 -30 -3 -23 -8 4 -17 -1 -21 -10 -3 -9 -10
-16 -16 -16 -5 0 -7 3 -5 8 3 4 -5 7 -18 7 -19 0 -21 -3 -13 -19 6 -11 13 -15
17 -8 4 7 13 6 25 -4 18 -13 15 -19 -7 -15 -5 1 -6 -3 -3 -8 4 -5 -1 -16 -9
-24 -8 -9 -15 -21 -15 -27 0 -6 -4 -8 -10 -5 -5 3 -10 -1 -10 -10 0 -21 -22
-43 -37 -38 -6 2 -14 -1 -18 -6 -3 -7 3 -11 16 -11 22 0 22 -1 4 -13 -10 -8
-15 -19 -11 -26 4 -6 0 -14 -9 -17 -10 -4 -13 -13 -10 -25 6 -18 -6 -46 -35
-83 -9 -11 -10 -16 -3 -12 9 5 11 2 7 -8 -3 -8 -12 -17 -20 -20 -8 -3 -14 -15
-14 -26 0 -11 -7 -23 -15 -26 -8 -4 -15 -12 -15 -20 0 -8 -5 -14 -11 -14 -6 0
-9 -6 -6 -14 3 -8 -1 -20 -9 -27 -8 -7 -13 -18 -10 -26 3 -7 2 -13 -2 -13 -4
0 -23 -30 -42 -67 -19 -38 -46 -86 -61 -108 -20 -31 -24 -45 -18 -63 11 -29 2
-45 -21 -39 -13 3 -16 0 -12 -16 3 -12 -2 -25 -12 -33 -12 -8 -16 -19 -12 -32
4 -11 2 -23 -3 -27 -13 -7 -40 -63 -46 -93 -2 -12 -7 -28 -11 -34 -5 -7 -9
-19 -10 -28 -8 -51 -27 -110 -35 -110 -6 0 -8 -9 -4 -20 3 -11 3 -25 -1 -32
-12 -19 -13 -50 -4 -83 5 -16 11 -52 12 -79 3 -47 4 -49 46 -67 24 -11 62 -35
85 -54 30 -26 50 -35 76 -35 74 0 91 -2 91 -11 0 -5 8 -9 18 -9 9 0 23 -4 31
-9 13 -8 13 -12 0 -27 -13 -16 -12 -16 7 -6 26 14 37 6 24 -18 -8 -15 -6 -17
9 -13 10 3 22 0 25 -6 4 -6 2 -11 -3 -11 -6 0 -11 -4 -11 -10 0 -5 11 -10 25
-10 14 0 25 5 25 11 0 5 5 7 10 4 8 -5 7 -11 -1 -21 -9 -11 -7 -14 10 -14 27
0 27 -27 0 -35 -11 -4 -18 -10 -14 -13 11 -11 79 -1 96 14 15 13 17 13 23 -2
4 -10 2 -22 -4 -28 -8 -8 -9 -5 -5 9 7 20 6 20 -9 1 -9 -11 -16 -16 -16 -10 0
5 -4 2 -9 -5 -6 -9 -6 -22 0 -33 6 -10 7 -22 4 -27 -3 -5 0 -11 7 -13 10 -4
10 -10 0 -29 -7 -13 -10 -16 -8 -6 3 9 1 17 -4 17 -6 0 -10 -6 -10 -13 0 -8
-7 -14 -15 -14 -8 0 -15 3 -15 7 0 11 -204 4 -233 -8 -16 -7 -35 -12 -44 -12
-9 0 -13 -6 -9 -15 3 -9 -1 -18 -9 -21 -12 -5 -11 -9 5 -26 24 -26 31 -54 16
-72 -10 -14 -16 -13 -53 3 -27 13 -57 18 -87 16 -45 -4 -71 10 -46 25 7 4 10
15 7 24 -4 9 -2 16 3 16 6 0 10 -4 10 -9 0 -5 9 -11 20 -14 24 -6 26 6 4 27
-21 22 4 21 28 -1 17 -15 18 -15 18 4 0 10 -6 28 -14 38 -12 17 -16 18 -32 5
-16 -13 -17 -13 -12 1 5 13 2 16 -12 12 -10 -3 -21 -12 -24 -20 -4 -9 -13 -12
-26 -8 -16 5 -20 2 -20 -14 0 -12 -3 -21 -7 -21 -17 0 -29 -46 -19 -71 14 -34
14 -34 36 -14 19 17 21 17 40 0 21 -19 156 -65 198 -68 12 -1 22 -5 22 -9 0
-4 6 -5 14 -2 8 3 23 1 34 -5 15 -8 23 -6 37 9 19 21 75 28 75 10 0 -5 -3 -9
-7 -9 -24 4 -43 -2 -38 -11 4 -7 11 -7 18 -2 7 5 20 8 29 7 9 -2 19 4 23 12 5
14 8 13 27 -3 12 -11 18 -13 14 -6 -9 15 3 15 29 -1 21 -12 26 -29 12 -43 -4
-5 -12 -2 -17 6 -8 13 -10 12 -10 -2 0 -11 -6 -16 -19 -13 -15 3 -18 -1 -14
-12 5 -12 2 -15 -13 -11 -11 3 -25 -1 -31 -7 -9 -10 -7 -14 8 -18 22 -6 26
-24 4 -24 -8 0 -12 4 -9 9 3 4 0 8 -5 8 -6 0 -11 -5 -11 -10 0 -6 -7 -10 -16
-8 -11 2 -18 -5 -20 -21 -3 -17 0 -22 11 -17 8 3 15 0 15 -6 0 -7 7 -3 15 8
14 19 14 19 15 -1 1 -20 1 -20 15 -1 8 11 15 14 15 7 0 -7 4 -9 10 -6 6 3 7
-1 4 -9 -4 -11 0 -16 10 -16 14 0 14 -3 4 -20 -7 -10 -15 -16 -18 -12 -8 11
-34 8 -43 -6 -4 -6 -14 -12 -22 -12 -9 0 -12 -6 -9 -17 4 -11 2 -14 -3 -8 -27
32 -41 36 -71 21 -22 -11 -38 -13 -61 -6 -27 7 -31 6 -31 -11 0 -20 0 -20 105
-23 22 0 42 -4 45 -8 6 -8 71 21 82 37 5 6 8 5 8 -3 0 -10 9 -12 33 -7 l32 8
-25 -22 -25 -22 53 4 c29 2 55 0 58 -4 7 -13 44 -11 44 2 0 5 -4 7 -10 4 -6
-3 -7 1 -4 10 5 13 9 12 25 -6 11 -13 17 -30 13 -41 -3 -12 0 -18 10 -18 9 0
16 -7 16 -15 0 -8 5 -15 10 -15 6 0 10 -7 10 -15 0 -9 6 -12 16 -8 13 5 15 2
9 -18 -7 -21 -6 -22 8 -11 12 10 16 10 19 0 4 -10 8 -10 21 1 20 16 22 8 5
-22 -10 -20 -10 -21 5 -8 21 17 44 1 49 -32 3 -20 5 -19 18 10 15 34 32 36 23
3 -7 -26 1 -25 26 1 l19 21 7 -21 c3 -11 1 -29 -4 -40 -19 -35 -12 -47 9 -16
11 17 20 24 20 18 0 -7 0 -15 0 -18 0 -3 -3 -4 -6 -2 -3 1 -14 -14 -25 -33
-14 -26 -18 -30 -19 -15 0 11 -5 27 -11 35 -8 12 -9 12 -8 -5 4 -31 -10 -63
-31 -70 -10 -3 -17 -12 -14 -19 3 -7 -2 -16 -10 -19 -10 -4 -16 -1 -16 8 0 8
-5 15 -11 15 -6 0 -9 -6 -6 -12 2 -7 8 -24 12 -38 7 -23 7 -23 -9 -7 -10 9
-22 17 -27 17 -5 0 -9 8 -9 18 0 14 -2 15 -10 2 -5 -8 -6 -26 -3 -39 4 -16 2
-22 -5 -17 -7 4 -22 2 -34 -5 -19 -9 -21 -9 -10 2 6 7 12 20 12 29 0 22 -30
-39 -31 -64 0 -11 -3 -15 -6 -8 -2 6 -9 12 -14 12 -5 0 -4 -9 3 -19 9 -15 16
-17 25 -9 7 5 10 15 6 21 -3 6 -1 7 5 3 7 -4 12 -11 12 -16 0 -14 -31 -41 -41
-34 -5 3 -12 -2 -15 -10 -3 -9 -11 -13 -17 -9 -6 4 -8 -2 -5 -15 4 -12 2 -20
-3 -16 -5 3 -9 -2 -9 -10 0 -22 28 -20 33 2 2 9 3 -2 3 -25 -1 -24 -5 -43 -9
-43 -4 0 -6 -20 -3 -45 3 -25 2 -45 -3 -45 -5 0 -12 -16 -15 -35 -5 -24 -11
-33 -21 -28 -9 3 -15 -1 -15 -11 0 -25 -44 -30 -87 -10 -42 20 -123 92 -123
110 0 7 -13 14 -30 16 -28 4 -30 2 -30 -26 0 -17 -4 -47 -10 -65 -7 -25 -6
-39 3 -50 10 -12 9 -14 -7 -8 -16 7 -17 5 -5 -9 12 -15 10 -15 -26 0 -94 40
-163 108 -197 198 -10 28 -28 121 -39 207 -22 169 -35 209 -113 336 -119 194
-145 252 -201 435 -26 85 -71 211 -101 280 -108 254 -130 387 -121 720 7 234
19 301 73 415 32 68 38 94 44 176 4 53 11 102 15 108 4 8 18 10 36 6 16 -4 29
-2 29 3 0 5 -13 12 -30 15 -40 8 -30 37 12 37 27 0 30 3 24 23 -33 121 -13
163 79 168 44 2 49 0 37 -13 -17 -22 -17 -62 1 -88 9 -13 17 -31 17 -39 0 -33
59 -59 117 -52 7 1 28 -5 47 -13 31 -13 35 -13 41 2 5 14 7 14 15 2 8 -12 10
-11 11 5 0 11 3 14 6 8 2 -7 11 -13 19 -13 8 0 14 -5 14 -11 0 -6 13 0 30 14
16 14 35 27 42 29 9 3 10 15 2 51 -6 25 -8 44 -4 42 5 -3 10 2 14 10 3 8 1 14
-5 12 -5 -1 -17 12 -27 28 -9 17 -21 33 -27 37 -6 5 -5 8 4 8 11 0 11 3 1 15
-10 12 -7 13 22 5 18 -6 34 -10 36 -10 2 0 1 -3 -1 -7 -2 -5 5 -17 16 -27 20
-19 20 -19 13 8 -8 31 -36 67 -48 60 -4 -3 -8 2 -8 12 0 11 -6 15 -19 11 -15
-3 -18 0 -14 17 4 17 3 18 -6 6 -10 -13 -13 -13 -21 2 -9 14 -15 15 -35 6 -13
-6 -22 -14 -20 -19 3 -4 0 -11 -6 -15 -8 -5 -9 -3 -4 6 6 10 4 12 -7 7 -9 -3
-25 1 -37 9 -11 8 -52 22 -90 30 -65 13 -76 13 -160 -7 -101 -23 -134 -44
-157 -97 l-15 -37 -14 25 c-7 14 -17 63 -21 110 -10 112 -10 108 -1 160 19
112 51 128 150 76 36 -18 107 -48 158 -66 52 -18 99 -36 104 -40 6 -4 24 -11
40 -15 17 -5 33 -9 38 -10 4 -2 8 -4 10 -5 1 -2 18 -4 39 -5 33 -2 36 0 34 21
-2 13 -12 32 -24 43 -12 10 -22 26 -22 35 0 9 -3 16 -7 16 -5 1 -21 12 -38 26
-16 15 -24 23 -17 20 6 -4 12 -3 12 3 0 5 -9 13 -20 16 -11 3 -26 12 -32 19
-18 17 -111 61 -122 58 -5 -2 -4 4 4 12 10 13 10 16 -3 16 -8 0 -24 3 -34 6
-16 6 -16 5 2 -10 19 -16 17 -16 -20 -1 -55 23 -72 26 -133 29 -29 2 -55 6
-58 8 -3 3 7 52 22 109 14 57 30 122 35 144 33 137 125 458 154 539 37 107
120 262 165 314 16 19 39 47 52 64 45 61 103 118 121 118 9 0 17 7 17 15 0 8
5 15 10 15 6 0 24 14 40 30 16 17 33 30 38 30 4 0 17 8 28 18 20 18 99 69 99
63 0 -5 60 23 66 32 3 5 10 9 15 8 22 -1 54 12 54 22 0 6 3 7 6 4 4 -4 2 -12
-4 -19 -8 -11 -2 -14 31 -14 l41 -2 -30 16 -29 16 33 7 c19 4 39 12 45 18 15
15 20 14 14 -3z m228 -4 c-3 -3 -11 0 -18 7 -9 10 -8 11 6 5 10 -3 15 -9 12
-12z m61 -17 c1 -8 -2 -15 -8 -15 -6 0 -8 7 -4 15 3 8 1 15 -4 15 -6 0 -10 5
-10 12 0 17 23 -7 26 -27z m-1526 11 c0 -2 -8 -10 -17 -17 -16 -13 -17 -12 -4
4 13 16 21 21 21 13z m40 -16 c-14 -26 -60 -75 -60 -64 0 10 58 84 66 84 3 0
0 -9 -6 -20z m2481 3 c13 -16 12 -17 -3 -4 -10 7 -18 15 -18 17 0 8 8 3 21
-13z m103 -63 c5 -29 3 -27 -14 15 -24 59 -25 66 -6 40 7 -11 16 -36 20 -55z
m-1013 35 c49 -9 48 -15 -2 -15 -42 0 -69 13 -69 32 0 5 8 4 19 -1 10 -6 33
-13 52 -16z m-771 -21 c0 -2 -13 2 -30 11 -16 9 -30 18 -30 21 0 2 14 -2 30
-11 17 -9 30 -18 30 -21z m920 -5 c10 -6 3 -7 -20 -4 -19 2 -39 4 -43 4 -5 1
-5 6 -2 11 7 11 36 6 65 -11z m56 -7 c-10 -2 -22 0 -28 6 -6 6 0 7 19 4 21 -5
23 -7 9 -10z m744 -2 c6 -11 8 -20 6 -20 -3 0 -10 9 -16 20 -6 11 -8 20 -6 20
3 0 10 -9 16 -20z m-693 4 c-3 -3 -12 -4 -19 -1 -8 3 -5 6 6 6 11 1 17 -2 13
-5z m740 -116 c-2 -13 -4 -5 -4 17 -1 22 1 32 4 23 2 -10 2 -28 0 -40z m-37
-13 c0 -5 -5 -3 -10 5 -5 8 -10 20 -10 25 0 6 5 3 10 -5 5 -8 10 -19 10 -25z
m28 -95 c0 -8 -6 1 -13 20 -7 19 -13 42 -13 50 0 8 6 -1 13 -20 7 -19 13 -42
13 -50z m29 28 c-3 -8 -6 -5 -6 6 -1 11 2 17 5 13 3 -3 4 -12 1 -19z m103 -63
c0 -5 -5 -3 -10 5 -5 8 -10 20 -10 25 0 6 5 3 10 -5 5 -8 10 -19 10 -25z
m-109 -37 c5 -24 12 -51 15 -62 5 -13 3 -16 -7 -11 -9 6 -10 3 -4 -11 14 -33
16 -68 7 -114 -9 -44 -9 -43 -11 30 -1 41 -2 93 -2 115 1 22 -3 35 -7 28 -4
-6 -7 8 -7 32 0 52 4 51 16 -7z m-44 10 c-3 -8 -6 -5 -6 6 -1 11 2 17 5 13 3
-3 4 -12 1 -19z m1 -43 c-3 -3 -9 2 -12 12 -6 14 -5 15 5 6 7 -7 10 -15 7 -18z
m-628 -25 c0 -5 -5 -10 -11 -10 -5 0 -7 5 -4 10 3 6 8 10 11 10 2 0 4 -4 4
-10z m-2049 -183 c-6 -6 -11 -22 -10 -36 l1 -26 8 25 c7 21 8 19 9 -17 1 -57
-15 -63 -23 -9 -6 41 13 115 22 86 2 -6 -1 -17 -7 -23z m2039 9 c0 -3 -4 -8
-10 -11 -5 -3 -10 -1 -10 4 0 6 5 11 10 11 6 0 10 -2 10 -4z m697 -48 c-3 -7
-5 -2 -5 12 0 14 2 19 5 13 2 -7 2 -19 0 -25z m-811 -113 c3 -17 -5 -19 -25
-6 -9 6 -10 11 -2 15 6 4 8 13 5 19 -5 8 -3 8 6 0 8 -7 15 -20 16 -28z m-1929
3 c-3 -8 -6 -5 -6 6 -1 11 2 17 5 13 3 -3 4 -12 1 -19z m1883 -168 c0 -5 -7
-7 -15 -4 -8 4 -15 8 -15 10 0 2 7 4 15 4 8 0 15 -4 15 -10z m95 -50 c3 -6 -1
-7 -9 -4 -18 7 -21 14 -7 14 6 0 13 -4 16 -10z m15 -30 c-8 -5 -19 -10 -25
-10 -5 0 -3 5 5 10 8 5 20 10 25 10 6 0 3 -5 -5 -10z m-50 -80 c0 -6 -13 -9
-29 -8 -16 1 -27 6 -25 10 7 12 54 10 54 -2z m107 -76 c-3 -3 -12 -4 -19 -1
-8 3 -5 6 6 6 11 1 17 -2 13 -5z m43 -24 c0 -5 -4 -10 -10 -10 -5 0 -10 5 -10
10 0 6 5 10 10 10 6 0 10 -4 10 -10z m-30 -30 c0 -5 -5 -10 -11 -10 -5 0 -7 5
-4 10 3 6 8 10 11 10 2 0 4 -4 4 -10z m-36 -8 c2 -4 -7 -12 -20 -19 -21 -10
-24 -9 -24 8 0 19 33 28 44 11z m30 -117 c4 -20 3 -25 -3 -16 -7 11 -10 10
-15 -5 -3 -11 -4 -7 -2 9 2 15 0 27 -3 27 -3 0 -7 14 -7 32 -1 31 -1 31 11 7
7 -13 15 -37 19 -54z m-1859 45 c3 -5 1 -10 -4 -10 -6 0 -11 5 -11 10 0 6 2
10 4 10 3 0 8 -4 11 -10z m1885 -25 c0 -8 -4 -15 -10 -15 -5 0 -7 7 -4 15 4 8
8 15 10 15 2 0 4 -7 4 -15z m-1796 -37 c16 -14 17 -18 5 -18 -9 0 -26 11 -40
26 -21 22 -21 24 -4 18 11 -5 29 -16 39 -26z m36 -314 c0 -2 -9 -4 -21 -4 -11
0 -18 4 -14 10 5 8 35 3 35 -6z m1695 -14 c-17 -6 -17 -7 4 -13 13 -3 20 -10
17 -16 -4 -5 -1 -13 5 -17 8 -4 9 -3 5 4 -4 7 -1 12 7 12 19 0 30 -27 14 -34
-9 -3 -9 -5 0 -5 6 -1 15 4 18 9 3 6 14 10 23 10 15 0 15 -2 2 -10 -21 -13
-22 -50 -1 -43 11 4 9 1 -4 -10 -11 -8 -21 -20 -21 -26 -1 -6 -2 -15 -3 -21
-2 -17 -39 -11 -44 8 -4 13 -5 12 -6 -5 0 -13 8 -28 19 -35 11 -7 20 -15 20
-18 0 -3 -71 -6 -157 -6 -148 1 -161 -1 -208 -24 -27 -14 -54 -23 -58 -22 -5
1 -6 -1 -3 -6 3 -5 -10 -24 -29 -42 -19 -19 -35 -40 -35 -47 0 -8 -16 -21 -35
-29 -44 -18 -56 -18 -31 1 15 11 16 15 5 16 -8 0 -6 4 6 9 17 7 17 9 3 9 -21
1 -24 31 -6 49 9 9 9 12 -1 12 -9 0 -8 5 3 16 9 8 16 22 16 29 0 8 14 22 30
32 17 9 30 21 30 25 0 4 9 8 20 8 11 0 20 6 20 13 0 22 32 42 65 42 22 0 33 7
43 25 l12 25 -3 -26 c-2 -15 1 -26 8 -26 7 0 10 10 7 25 -4 20 -2 24 12 19 10
-4 16 -1 16 8 0 17 34 38 70 43 14 2 27 7 28 13 2 5 10 9 18 9 8 0 14 5 14 10
0 6 4 10 10 10 5 0 7 -7 4 -15 -4 -10 0 -15 15 -15 15 0 19 4 14 17 -4 11 -3
14 5 9 7 -4 12 -3 12 2 0 6 10 8 22 4 20 -5 21 -6 3 -12z m137 -12 c-7 -7 -16
-7 -28 0 -14 8 -13 10 10 10 18 0 24 -4 18 -10z m-22 -23 c11 -13 10 -14 -4
-9 -9 3 -16 10 -16 15 0 13 6 11 20 -6z m-1950 -35 c0 -5 -4 -10 -10 -10 -5 0
-10 5 -10 10 0 6 5 10 10 10 6 0 10 -4 10 -10z m1963 -41 c5 -19 4 -19 -17 3
-12 13 -21 27 -18 31 6 12 29 -11 35 -34z m-1968 -9 c3 -5 -1 -10 -10 -10 -9
0 -13 5 -10 10 3 6 8 10 10 10 2 0 7 -4 10 -10z m19 -170 c6 -50 5 -53 -9 -36
-10 14 -15 41 -14 90 1 59 2 65 9 36 4 -19 11 -60 14 -90z m1696 5 c0 -5 -5
-3 -10 5 -7 11 -10 11 -10 2 0 -7 -4 -10 -10 -7 -5 3 -10 2 -10 -4 0 -5 -9 -9
-20 -8 -11 1 -20 5 -20 10 0 4 -4 6 -9 3 -5 -4 -12 0 -15 6 -3 7 -3 1 0 -14 5
-24 3 -28 -15 -28 -12 0 -21 -5 -21 -11 0 -5 -5 -7 -10 -4 -6 4 -17 1 -25 -5
-8 -6 -19 -9 -25 -5 -15 9 -12 32 6 39 8 3 13 2 10 -3 -3 -5 5 -8 19 -7 28 1
35 16 8 16 -11 1 -2 9 20 21 29 15 49 19 78 14 29 -5 39 -3 39 7 0 10 3 9 10
-2 5 -8 10 -19 10 -25z m-1302 -10 c2 -24 0 -25 -38 -21 -22 3 -40 1 -40 -5 0
-15 -44 -10 -69 7 -18 13 -20 18 -10 25 21 13 83 11 97 -3 9 -9 12 -8 12 5 0
11 8 17 23 17 17 0 23 -6 25 -25z m1332 15 c0 -5 -4 -10 -10 -10 -5 0 -10 5
-10 10 0 6 5 10 10 10 6 0 10 -4 10 -10z m-1290 -44 c0 -6 -7 -2 -15 8 -8 11
-15 25 -15 30 0 6 7 2 15 -8 8 -11 15 -25 15 -30z m195 14 c3 -6 3 -10 -2 -10
-11 1 -43 26 -43 34 0 9 37 -11 45 -24z m-395 -10 l25 -20 -37 0 c-21 0 -38
-4 -38 -10 0 -5 -4 -10 -10 -10 -15 0 -12 27 6 44 20 20 24 20 54 -4z m375
-10 c3 -5 1 -10 -4 -10 -6 0 -11 5 -11 10 0 6 2 10 4 10 3 0 8 -4 11 -10z
m1065 -55 c-7 -8 -8 -15 -3 -15 5 0 9 -15 10 -34 1 -18 8 -44 17 -58 8 -13 18
-40 20 -60 6 -42 -4 -47 -71 -37 -24 3 -43 2 -43 -2 0 -5 -7 -6 -15 -3 -8 4
-12 10 -9 15 4 8 -24 13 -63 12 -7 -1 -10 3 -7 8 3 5 1 9 -5 9 -14 0 -6 97 10
116 12 14 81 54 94 54 3 0 3 -6 0 -12 -3 -7 0 -5 7 5 7 9 26 17 42 17 24 0 27
-2 16 -15z m-1230 -35 c0 -5 -5 -10 -11 -10 -5 0 -7 5 -4 10 3 6 8 10 11 10 2
0 4 -4 4 -10z m1030 -99 c0 -10 -24 -21 -46 -21 -9 0 -12 5 -9 10 4 6 11 8 16
5 5 -4 9 -1 9 4 0 6 7 11 15 11 8 0 15 -4 15 -9z m-145 -38 c-4 -10 -11 -31
-16 -47 -8 -27 -7 -28 9 -12 10 9 33 19 50 22 17 4 29 11 26 16 -4 6 2 7 16 3
13 -4 20 -3 17 2 -4 5 0 10 8 10 8 0 15 -4 15 -8 0 -4 7 -10 16 -13 8 -3 12
-2 9 4 -3 6 -2 10 4 10 15 0 23 -18 11 -25 -5 -3 -10 -11 -10 -18 0 -6 7 -1
16 11 11 15 22 21 33 17 28 -12 55 -17 79 -17 12 0 22 -4 22 -8 0 -13 59 -17
71 -6 8 8 10 7 7 -4 -3 -10 -17 -15 -40 -15 -35 0 -68 -18 -68 -37 0 -6 12 -2
27 7 20 14 25 14 20 3 -4 -11 2 -14 24 -13 16 1 27 0 25 -2 -2 -3 0 -18 6 -35
7 -19 13 -26 18 -18 5 9 11 7 21 -6 8 -11 20 -19 27 -20 34 -3 35 -6 9 -23
-16 -10 -41 -17 -58 -15 -16 2 -29 0 -29 -4 0 -4 -9 -8 -20 -9 -11 -1 -20 3
-20 8 0 5 -6 9 -12 8 -31 -4 -59 2 -53 11 3 6 -1 10 -10 10 -9 0 -13 -5 -10
-10 4 -6 3 -10 -2 -9 -31 5 -33 -4 -3 -23 43 -27 184 -75 242 -82 81 -11 238
-16 238 -7 0 5 -12 9 -26 9 -14 0 -31 5 -37 12 -10 10 -4 11 28 6 22 -4 48 -9
58 -12 11 -4 17 0 18 13 1 17 2 17 6 0 4 -14 11 -16 41 -11 20 4 39 8 41 10 2
2 12 -1 22 -6 12 -7 20 -7 24 0 3 5 1 10 -5 10 -14 0 -44 29 -37 36 2 3 22 -5
42 -16 27 -15 41 -18 48 -11 6 6 20 11 32 12 15 0 12 4 -12 15 -18 8 -33 15
-33 17 0 8 93 -3 130 -17 25 -8 49 -16 55 -16 16 0 -28 27 -55 33 -14 3 -34
13 -45 21 -19 14 -19 15 10 12 17 -2 30 -5 30 -6 0 -1 9 -3 20 -5 18 -3 17 -1
-5 17 l-25 21 25 -8 c14 -4 31 -12 37 -17 7 -6 24 -7 38 -4 14 4 35 2 46 -5
21 -11 18 -23 -4 -25 -7 0 -21 -2 -32 -3 -18 -1 -18 -2 4 -14 28 -14 44 -44
17 -34 -52 22 -52 22 -38 5 10 -13 10 -17 0 -21 -10 -4 -10 -8 2 -16 13 -9 12
-11 -3 -11 -10 0 -15 -4 -12 -10 11 -17 -16 -11 -47 11 -16 12 -32 19 -35 15
-3 -3 2 -8 11 -12 9 -3 16 -16 16 -28 0 -17 2 -18 10 -6 5 8 10 11 11 5 4 -48
8 -58 20 -66 8 -5 9 -9 4 -9 -6 0 -17 6 -24 13 -11 10 -13 8 -8 -10 6 -26 4
-28 -15 -10 -28 28 -129 107 -136 107 -4 -1 11 -16 32 -34 24 -21 40 -44 42
-60 2 -16 -1 -24 -7 -20 -13 8 12 -38 26 -48 6 -5 6 -8 0 -8 -5 0 -24 15 -43
33 -19 19 -30 25 -26 14 5 -14 3 -16 -12 -10 -18 7 -18 6 -2 -19 11 -17 13
-25 5 -25 -42 1 -47 -3 -41 -30 l5 -28 -19 23 c-28 31 -35 28 -30 -12 4 -32 2
-34 -17 -24 -16 9 -18 8 -7 -3 17 -19 15 -29 -5 -22 -15 5 -16 3 -5 -8 15 -16
16 -29 1 -29 -12 0 -59 -50 -59 -62 0 -5 -8 -8 -19 -8 -10 0 -24 -7 -31 -15
-10 -12 -10 -15 4 -15 9 0 16 -2 16 -4 0 -2 3 -11 6 -19 4 -12 0 -14 -14 -10
-13 3 -25 -3 -35 -17 -17 -25 -12 -50 9 -50 8 0 14 -9 14 -20 0 -11 -5 -20
-11 -20 -5 0 -7 5 -4 10 3 6 4 10 1 10 -2 0 -12 3 -20 6 -14 5 -15 2 -6 -21
13 -35 13 -42 -2 -27 -18 18 -28 15 -28 -9 0 -17 -5 -20 -25 -16 -31 5 -29
-13 3 -28 25 -11 41 -41 17 -31 -19 7 -19 -11 0 -31 8 -8 12 -20 8 -26 -4 -7
-9 -4 -14 9 -7 17 -8 17 -8 -4 -1 -13 -5 -20 -11 -17 -5 3 -8 18 -6 33 2 15 1
20 -1 12 -3 -8 -9 -19 -14 -25 -12 -12 -12 -28 0 -21 10 7 24 -52 15 -66 -3
-5 -20 -6 -36 -3 -23 6 -29 4 -26 -6 3 -8 15 -13 26 -12 15 2 20 -2 16 -12 -4
-8 -13 -15 -21 -15 -10 0 -12 -6 -8 -21 5 -14 1 -25 -12 -34 -17 -13 -17 -14
0 -20 21 -9 23 -25 2 -25 -8 0 -15 -5 -15 -11 0 -6 7 -9 15 -5 12 4 14 0 9
-19 -5 -19 -2 -25 10 -25 9 0 16 -4 16 -10 0 -5 -7 -10 -16 -10 -11 0 -9 -8
11 -34 19 -25 22 -35 13 -39 -8 -3 -4 -9 12 -15 22 -9 22 -11 5 -12 -19 -1
-19 -2 -1 -9 18 -7 18 -8 2 -14 -19 -8 -13 -29 7 -22 7 3 21 -2 32 -11 17 -13
18 -16 5 -24 -8 -5 -10 -10 -5 -10 6 0 3 -5 -5 -11 -12 -8 -10 -9 8 -4 13 4
22 2 22 -4 0 -6 -6 -11 -12 -12 -10 0 -10 -2 0 -6 10 -4 10 -8 0 -21 -11 -13
-11 -15 2 -10 9 3 25 -1 35 -9 16 -13 17 -14 3 -10 -10 3 -20 2 -23 -3 -4 -6
-2 -10 4 -10 9 0 21 -27 27 -56 3 -19 44 -55 54 -49 6 4 10 -1 10 -9 0 -9 -8
-16 -17 -16 -11 0 -14 -3 -7 -8 6 -4 14 -18 18 -32 5 -17 4 -21 -2 -12 -6 9
-10 -5 -10 -45 0 -41 2 -52 8 -38 5 11 9 15 9 8 1 -6 4 -19 8 -29 4 -12 3 -15
-5 -10 -7 4 -12 5 -12 2 0 -2 -3 -12 -7 -22 -4 -12 -3 -15 5 -10 7 4 12 2 12
-4 0 -7 7 -27 16 -45 13 -28 13 -37 3 -57 -7 -13 -12 -40 -10 -60 3 -38 -9
-68 -37 -96 -19 -19 -72 -23 -65 -5 3 7 -2 10 -14 7 -25 -7 -56 27 -47 51 6
15 9 15 21 -6 l14 -24 -7 25 c-3 14 -10 29 -15 34 -13 14 -11 38 2 30 9 -5 10
4 4 32 -4 21 -8 46 -8 54 0 8 -3 17 -6 20 -3 3 -15 22 -25 43 -11 20 -23 37
-28 37 -4 0 -8 9 -8 19 0 11 -4 23 -10 26 -5 3 -10 0 -10 -7 0 -9 -3 -9 -10 2
-7 10 -5 18 4 26 11 8 6 10 -20 10 -22 0 -34 -5 -34 -14 0 -7 -4 -11 -9 -8 -5
4 -11 1 -13 -5 -4 -11 -58 34 -58 48 0 4 5 2 12 -5 17 -17 29 -15 26 5 -2 10
4 19 15 21 9 2 17 -1 17 -7 0 -6 -8 -8 -17 -5 -14 5 -15 4 -4 -4 9 -7 10 -12
2 -16 -14 -9 -14 -26 -1 -26 6 0 10 7 10 15 0 9 6 18 14 21 8 3 12 12 9 20 -6
16 20 10 46 -10 10 -7 16 -6 26 7 7 9 18 17 26 17 11 0 11 2 -1 10 -13 8 -12
10 3 10 10 0 15 5 12 10 -4 6 -2 16 3 23 10 12 9 40 -3 99 -7 34 -55 118 -67
118 -4 0 -12 9 -18 20 -9 17 -8 19 7 14 13 -5 11 -1 -5 10 -12 10 -27 14 -32
11 -6 -3 -13 1 -16 9 -3 8 -15 18 -25 21 -11 4 -31 17 -44 31 -30 30 -45 32
-19 3 14 -16 15 -23 7 -26 -7 -3 -13 -9 -13 -15 0 -6 7 -8 15 -4 9 3 15 0 15
-10 0 -8 -4 -13 -9 -9 -5 3 -12 1 -15 -4 -4 -5 3 -12 14 -16 11 -3 19 -9 19
-13 -3 -22 2 -32 14 -26 6 4 9 4 5 -1 -4 -4 -3 -14 4 -22 8 -11 7 -12 -6 -7
-9 3 -16 1 -16 -5 0 -6 5 -11 11 -11 6 0 17 -7 25 -15 14 -13 13 -15 -3 -16
-16 -1 -16 -2 -1 -6 10 -2 15 -10 11 -19 -3 -9 1 -14 12 -14 11 0 15 -5 11
-15 -3 -9 0 -15 10 -15 12 0 15 -7 12 -24 -4 -17 -1 -23 9 -19 7 3 10 9 7 14
-3 5 -1 9 5 9 5 0 13 -4 16 -10 3 -5 1 -10 -4 -10 -6 0 -11 -6 -11 -14 0 -8
-9 -13 -22 -12 -13 1 -22 7 -20 14 1 7 -6 12 -15 13 -15 0 -15 2 2 8 17 7 15
10 -18 21 -23 9 -36 20 -34 29 1 9 -8 20 -20 26 -25 11 -31 40 -10 49 6 4 2 4
-10 2 -15 -3 -23 1 -23 9 0 8 -8 18 -17 24 -10 5 -18 13 -18 18 0 4 -3 7 -7 6
-5 -2 -8 2 -8 7 0 6 5 10 11 10 7 0 0 9 -14 20 -14 11 -30 20 -36 20 -12 0
-45 60 -34 61 5 0 -1 4 -12 9 -16 7 -17 9 -3 9 9 1 20 6 24 12 5 8 -3 10 -24
7 -27 -4 -30 -2 -29 19 2 21 -17 34 -19 13 -1 -5 -3 -13 -4 -17 -1 -5 -2 -12
-1 -16 1 -5 -3 -6 -9 -2 -8 5 -7 11 1 21 10 13 6 18 -12 16 -4 -1 -10 9 -13
22 -6 24 -59 57 -54 33 4 -16 -39 -59 -47 -47 -4 6 -1 10 4 10 6 0 11 4 11 10
0 6 -9 6 -25 0 -16 -6 -25 -6 -25 0 0 9 27 14 60 11 11 -1 10 3 -4 14 -21 16
-30 55 -13 52 14 -3 38 44 30 57 -7 11 -23 -25 -16 -36 2 -5 -3 -8 -12 -8 -14
0 -14 3 1 33 9 17 22 35 28 39 6 4 1 6 -12 5 -12 -1 -22 -8 -22 -16 0 -12 -2
-13 -12 -2 -11 10 -10 14 5 22 9 6 17 15 17 20 0 6 -4 7 -10 4 -5 -3 -10 2
-10 12 0 11 -5 24 -12 31 -15 15 -4 15 25 1 20 -9 20 -9 5 4 -19 15 -24 47 -8
47 6 0 10 7 10 15 0 8 10 19 21 26 15 8 19 8 15 0 -4 -6 -3 -11 3 -11 23 0 14
81 -11 100 -4 3 -9 15 -11 26 -3 21 -16 40 -56 80 -13 13 -19 24 -12 24 6 0
-5 22 -24 50 -20 28 -32 56 -29 65 4 9 1 15 -9 15 -10 0 -13 7 -10 20 3 11 11
20 19 20 7 0 16 4 19 10 3 6 -1 7 -9 4 -20 -8 -20 0 0 20 8 9 11 16 5 16 -6 0
-11 5 -11 10 0 6 6 10 14 10 8 0 17 7 20 16 4 11 2 15 -7 11 -18 -7 -14 41 8
84 16 30 16 32 2 20 -15 -12 -17 -11 -17 3 0 9 4 16 9 16 4 0 9 12 9 28 1 15
3 48 5 74 3 41 2 45 -9 30 -12 -16 -13 -15 -14 5 0 12 5 23 10 25 7 2 7 19 1
51 -5 26 -5 47 0 47 5 0 9 -13 9 -30 0 -16 4 -30 8 -30 14 0 0 71 -14 77 -8 3
-11 10 -7 16 3 6 1 7 -5 3 -16 -10 -34 3 -25 17 11 17 10 31 -2 39 -6 5 -6 8
3 8 6 0 12 7 12 15 0 8 7 15 16 15 8 0 12 5 9 10 -3 6 1 10 10 10 12 0 15 -5
10 -17z m-48 -155 c-3 -7 -5 -2 -5 12 0 14 2 19 5 13 2 -7 2 -19 0 -25z m1326
25 c-7 -2 -21 -2 -30 0 -10 3 -4 5 12 5 17 0 24 -2 18 -5z m-63 -48 c0 -8 5
-15 12 -15 8 0 9 -3 2 -10 -11 -11 -54 -2 -54 11 0 5 -6 6 -14 3 -8 -3 -17 -1
-21 5 -4 7 4 11 19 11 13 0 27 -6 29 -12 3 -8 6 -6 6 5 1 21 21 23 21 2z
m-1230 -133 c0 -15 -2 -15 -10 -2 -13 20 -13 33 0 25 6 -3 10 -14 10 -23z
m1188 -37 c-3 -3 -9 2 -12 12 -6 14 -5 15 5 6 7 -7 10 -15 7 -18z m-418 -399
c0 -11 -19 -15 -25 -6 -3 5 1 10 9 10 9 0 16 -2 16 -4z m-34 -81 c-13 -10 -15
-15 -6 -15 7 0 11 -2 8 -5 -3 -3 -13 -3 -22 1 -13 5 -14 9 -5 20 6 8 19 14 28
14 13 -1 13 -3 -3 -15z m-56 -145 c0 -5 -2 -10 -4 -10 -3 0 -8 5 -11 10 -3 6
-1 10 4 10 6 0 11 -4 11 -10z m-664 -319 c0 -19 -30 -18 -43 2 -3 5 -2 7 3 4
6 -3 16 -2 24 4 8 5 15 9 15 9 1 0 1 -8 1 -19z m119 -41 c3 -5 2 -10 -4 -10
-5 0 -13 5 -16 10 -3 6 -2 10 4 10 5 0 13 -4 16 -10z m-105 -40 c0 -5 -2 -10
-4 -10 -3 0 -8 5 -11 10 -3 6 -1 10 4 10 6 0 11 -4 11 -10z m-302 -42 c11 -14
10 -16 -7 -11 -12 3 -17 11 -14 19 3 8 6 14 7 12 1 -2 7 -11 14 -20z m112 -9
c12 -8 11 -9 -5 -7 -16 2 -20 -3 -20 -26 0 -17 -6 -31 -15 -34 -13 -4 -13 -3
-2 11 8 9 11 20 8 26 -7 10 3 41 13 41 3 0 13 -5 21 -11z m210 -3 c0 -3 -4 -8
-10 -11 -5 -3 -10 -1 -10 4 0 6 5 11 10 11 6 0 10 -2 10 -4z m-146 -21 c-4 -8
-8 -15 -10 -15 -2 0 -4 7 -4 15 0 8 4 15 10 15 5 0 7 -7 4 -15z m-14 -34 c0
-5 -7 -11 -14 -14 -10 -4 -13 -1 -9 9 6 15 23 19 23 5z m-62 -21 c-7 -10 -14
-17 -17 -15 -4 4 18 35 25 35 2 0 -1 -9 -8 -20z m-58 -4 c0 -8 -4 -18 -10 -21
-5 -3 -10 3 -10 14 0 12 5 21 10 21 6 0 10 -6 10 -14z m23 -26 c3 -11 1 -20
-4 -20 -5 0 -9 9 -9 20 0 11 2 20 4 20 2 0 6 -9 9 -20z m61 -4 c-3 -9 -10 -16
-16 -16 -5 0 -6 -5 -2 -12 4 -7 3 -8 -4 -4 -9 5 -7 14 5 31 20 26 27 26 17 1z
m726 -263 c0 -1 -9 -7 -20 -13 -21 -11 -44 -5 -35 10 4 7 55 9 55 3z m-800
-66 c0 -20 -25 1 -28 24 -2 23 -2 23 13 5 8 -11 15 -24 15 -29z m750 -52 c0
-5 -5 -3 -10 5 -5 8 -10 20 -10 25 0 6 5 3 10 -5 5 -8 10 -19 10 -25z m-91
-22 c0 -25 -1 -26 -9 -8 -5 11 -9 16 -9 12 -1 -5 -6 -5 -11 -2 -13 8 -3 25 16
25 9 0 14 -10 13 -27z m-19 -17 c0 -9 -30 -14 -35 -6 -4 6 3 10 14 10 12 0 21
-2 21 -4z m-16 -37 c-6 -11 -44 8 -44 21 0 6 10 5 25 -2 13 -6 22 -15 19 -19z
m-678 -1 c4 4 2 -1 -5 -10 -10 -14 -16 -15 -26 -5 -16 15 -8 32 9 18 7 -6 17
-7 22 -3z m649 -18 c3 -5 1 -10 -4 -10 -6 0 -11 5 -11 10 0 6 2 10 4 10 3 0 8
-4 11 -10z m-605 -80 c0 -5 -2 -10 -4 -10 -3 0 -8 5 -11 10 -3 6 -1 10 4 10 6
0 11 -4 11 -10z m1251 -73 c-10 -9 -11 -8 -5 6 3 10 9 15 12 12 3 -3 0 -11 -7
-18z m-861 -117 c0 -5 -2 -10 -4 -10 -3 0 -8 5 -11 10 -3 6 -1 10 4 10 6 0 11
-4 11 -10z m-52 -169 c-7 -11 -16 -17 -21 -14 -4 3 0 11 10 19 24 18 25 17 11
-5z m-183 -221 c3 -5 1 -10 -4 -10 -6 0 -11 5 -11 10 0 6 2 10 4 10 3 0 8 -4
11 -10z m2132 -952 c-3 -8 -6 -5 -6 6 -1 11 2 17 5 13 3 -3 4 -12 1 -19z m36
-105 c-7 -2 -19 -2 -25 0 -7 3 -2 5 12 5 14 0 19 -2 13 -5z m62 -2 c3 -5 1
-12 -4 -15 -5 -3 -11 1 -15 9 -6 16 9 21 19 6z m60 -41 c3 -5 -3 -10 -14 -10
-12 0 -21 5 -21 10 0 6 6 10 14 10 8 0 18 -4 21 -10z m2 -46 c-3 -3 -12 -4
-19 -1 -8 3 -5 6 6 6 11 1 17 -2 13 -5z m-12 -24 c3 -5 1 -10 -4 -10 -6 0 -11
5 -11 10 0 6 2 10 4 10 3 0 8 -4 11 -10z m-101 -115 c-4 -8 -10 -15 -15 -15
-4 0 -6 7 -3 15 4 8 10 15 15 15 4 0 6 -7 3 -15z m-104 -55 c0 -5 -5 -10 -11
-10 -5 0 -7 5 -4 10 3 6 8 10 11 10 2 0 4 -4 4 -10z m265 -40 c8 -13 -5 -13
-25 0 -13 8 -13 10 2 10 9 0 20 -4 23 -10z m-518 -76 c-3 -3 -12 -4 -19 -1 -8
3 -5 6 6 6 11 1 17 -2 13 -5z m-22 -74 c-3 -5 -12 -7 -20 -3 -21 7 -19 13 6
13 11 0 18 -4 14 -10z m-278 -153 c-4 -12 -82 -37 -114 -37 -24 0 -28 7 -15
27 12 19 136 29 129 10z m-112 -159 c35 -16 26 -33 -16 -31 -19 1 -53 3 -76 4
-48 3 -60 19 -14 19 17 0 33 5 36 10 8 13 38 13 70 -2z m-128 -114 c-3 -3 -12
-4 -19 -1 -8 3 -5 6 6 6 11 1 17 -2 13 -5z m120 -99 c-13 -27 -27 -33 -27 -12
0 14 19 37 31 37 4 0 2 -11 -4 -25z m93 15 c0 -5 -7 -10 -15 -10 -8 0 -15 5
-15 10 0 6 7 10 15 10 8 0 15 -4 15 -10z m-67 -221 c16 -9 22 -9 25 0 2 6 10
11 18 11 12 0 12 -4 2 -20 -7 -11 -19 -20 -26 -20 -7 0 -15 -6 -18 -14 -5 -12
-9 -12 -25 2 -20 18 -26 52 -8 52 6 0 20 -5 32 -11z m-1 -73 c10 -9 25 -16 33
-16 7 0 17 -4 20 -10 3 -5 -3 -10 -15 -10 -11 0 -23 -6 -26 -14 -3 -8 -12 -17
-20 -20 -8 -3 -13 -2 -9 3 6 10 -62 37 -82 33 -8 -2 -13 8 -13 26 0 29 1 30
46 27 26 -2 55 -10 66 -19z"/>
<path d="M2695 8720 c-9 -16 -13 -30 -11 -30 3 0 12 14 21 30 9 17 13 30 11
30 -3 0 -12 -13 -21 -30z"/>
<path d="M4622 8574 c9 -9 21 -15 27 -13 6 2 -2 10 -17 17 -25 11 -25 11 -10
-4z"/>
<path d="M4570 8475 c7 -8 16 -12 21 -9 13 8 1 24 -18 24 -13 0 -13 -3 -3 -15z"/>
<path d="M4550 8020 c0 -5 5 -10 11 -10 5 0 7 5 4 10 -3 6 -8 10 -11 10 -2 0
-4 -4 -4 -10z"/>
<path d="M4588 8003 c7 -3 16 -2 19 1 4 3 -2 6 -13 5 -11 0 -14 -3 -6 -6z"/>
<path d="M4520 7890 c0 -5 5 -10 11 -10 5 0 7 5 4 10 -3 6 -8 10 -11 10 -2 0
-4 -4 -4 -10z"/>
<path d="M4560 7830 c-23 -7 -23 -8 -3 -9 12 -1 25 4 28 9 3 6 5 10 3 9 -2 -1
-14 -5 -28 -9z"/>
<path d="M4580 7610 c0 -5 5 -10 10 -10 6 0 10 5 10 10 0 6 -4 10 -10 10 -5 0
-10 -4 -10 -10z"/>
<path d="M4026 7413 c-6 -14 -5 -15 5 -6 7 7 10 15 7 18 -3 3 -9 -2 -12 -12z"/>
<path d="M3940 7385 c0 -5 5 -17 10 -25 5 -8 10 -10 10 -5 0 6 -5 17 -10 25
-5 8 -10 11 -10 5z"/>
<path d="M3360 7372 c0 -4 10 -13 23 -21 22 -14 22 -14 3 8 -20 22 -26 25 -26
13z"/>
<path d="M3920 7341 c0 -5 9 -19 20 -32 l21 -24 -16 33 c-15 31 -25 41 -25 23z"/>
<path d="M4002 7320 c0 -14 2 -19 5 -12 2 6 2 18 0 25 -3 6 -5 1 -5 -13z"/>
<path d="M3960 7268 c0 -9 5 -20 10 -23 13 -8 13 5 0 25 -8 13 -10 13 -10 -2z"/>
<path d="M3986 7217 c3 -10 9 -15 12 -12 3 3 0 11 -7 18 -10 9 -11 8 -5 -6z"/>
<path d="M3293 6693 c-11 -10 -22 -29 -26 -41 -5 -23 -5 -23 13 -7 10 9 23 14
28 11 11 -6 60 29 52 37 -17 16 -49 15 -67 0z"/>
<path d="M3390 6684 c0 -8 5 -12 10 -9 6 3 10 10 10 16 0 5 -4 9 -10 9 -5 0
-10 -7 -10 -16z"/>
<path d="M3225 6666 c-11 -8 -14 -15 -8 -19 6 -4 16 0 23 8 17 21 8 28 -15 11z"/>
<path d="M3436 6654 c-3 -9 -13 -14 -20 -11 -8 3 -17 -1 -20 -10 -4 -8 -13
-13 -21 -10 -8 4 -12 1 -10 -6 3 -7 -13 -21 -35 -31 -22 -10 -47 -28 -57 -40
-10 -12 -11 -16 -4 -9 7 6 20 9 29 6 10 -4 13 -2 8 5 -4 8 0 12 11 12 10 0 36
12 57 26 21 14 43 27 49 29 30 6 45 18 43 33 -4 22 -22 26 -30 6z"/>
<path d="M3870 5280 c8 -5 20 -10 25 -10 6 0 3 5 -5 10 -8 5 -19 10 -25 10 -5
0 -3 -5 5 -10z"/>
<path d="M3878 5253 c7 -3 16 -2 19 1 4 3 -2 6 -13 5 -11 0 -14 -3 -6 -6z"/>
<path d="M3840 5239 c0 -5 5 -7 10 -4 6 3 10 8 10 11 0 2 -4 4 -10 4 -5 0 -10
-5 -10 -11z"/>
<path d="M3190 5151 c0 -5 5 -13 10 -16 6 -3 10 -2 10 4 0 5 -4 13 -10 16 -5
3 -10 2 -10 -4z"/>
<path d="M4167 4466 c-4 -10 -1 -13 9 -9 7 3 14 9 14 14 0 14 -17 10 -23 -5z"/>
<path d="M4180 4434 c0 -8 5 -12 10 -9 6 4 8 11 5 16 -9 14 -15 11 -15 -7z"/>
<path d="M4277 4436 c-21 -16 -22 -26 -3 -26 8 0 17 7 20 16 9 23 4 25 -17 10z"/>
<path d="M4210 4390 c0 -11 4 -20 9 -20 5 0 7 9 4 20 -3 11 -7 20 -9 20 -2 0
-4 -9 -4 -20z"/>
<path d="M4231 4403 c0 -4 4 -17 9 -28 8 -19 9 -19 9 2 1 12 -3 25 -9 28 -5 3
-10 3 -9 -2z"/>
<path d="M4180 4341 c0 -6 4 -13 10 -16 6 -3 7 1 4 9 -7 18 -14 21 -14 7z"/>
<path d="M3936 4124 c-9 -24 -2 -26 12 -4 7 11 8 20 3 20 -5 0 -12 -7 -15 -16z"/>
<path d="M3971 4075 c0 -12 -5 -26 -11 -33 -5 -7 -3 -6 6 2 9 7 14 22 11 32
-4 17 -5 17 -6 -1z"/>
<path d="M4665 7290 c3 -5 8 -10 11 -10 2 0 4 5 4 10 0 6 -5 10 -11 10 -5 0
-7 -4 -4 -10z"/>
<path d="M4480 7249 c0 -5 5 -7 10 -4 6 3 10 8 10 11 0 2 -4 4 -10 4 -5 0 -10
-5 -10 -11z"/>
<path d="M4328 7153 c7 -3 16 -2 19 1 4 3 -2 6 -13 5 -11 0 -14 -3 -6 -6z"/>
<path d="M4404 6698 c4 -18 28 -16 34 2 4 13 3 13 -10 2 -11 -9 -18 -9 -21 -2
-3 6 -4 5 -3 -2z"/>
<path d="M4450 6685 c0 -8 4 -15 10 -15 5 0 7 7 4 15 -4 8 -8 15 -10 15 -2 0
-4 -7 -4 -15z"/>
<path d="M4227 6653 c-9 -9 -9 -41 1 -46 4 -3 7 8 7 24 0 16 0 29 -1 29 0 0
-4 -3 -7 -7z"/>
<path d="M4260 6641 c0 -7 -4 -9 -10 -6 -6 4 -7 -1 -3 -11 6 -15 7 -15 15 1 6
9 7 19 4 22 -3 4 -6 1 -6 -6z"/>
<path d="M4260 6589 c-7 -11 -10 -23 -7 -25 2 -2 9 7 15 21 14 30 7 33 -8 4z"/>
<path d="M4300 6600 c0 -5 5 -10 10 -10 6 0 10 5 10 10 0 6 -4 10 -10 10 -5 0
-10 -4 -10 -10z"/>
<path d="M4345 6580 c-6 -10 -5 -11 18 -14 6 -1 11 -7 10 -14 -4 -14 16 -15
37 -2 13 8 11 11 -7 16 -13 4 -23 10 -23 15 0 12 -27 11 -35 -1z"/>
<path d="M5298 6513 c7 -3 16 -2 19 1 4 3 -2 6 -13 5 -11 0 -14 -3 -6 -6z"/>
<path d="M5090 6420 c0 -5 5 -10 10 -10 6 0 10 5 10 10 0 6 -4 10 -10 10 -5 0
-10 -4 -10 -10z"/>
<path d="M4920 6410 c0 -5 8 -10 18 -10 10 0 28 -7 40 -16 12 -8 22 -11 22 -6
0 4 -16 16 -35 25 -42 20 -45 20 -45 7z"/>
<path d="M5070 6336 c0 -2 7 -7 16 -10 8 -3 12 -2 9 4 -6 10 -25 14 -25 6z"/>
<path d="M4970 6130 c0 -5 5 -10 11 -10 5 0 7 5 4 10 -3 6 -8 10 -11 10 -2 0
-4 -4 -4 -10z"/>
<path d="M4930 6085 c0 -8 4 -15 10 -15 5 0 7 7 4 15 -4 8 -8 15 -10 15 -2 0
-4 -7 -4 -15z"/>
<path d="M4828 5873 c7 -3 16 -2 19 1 4 3 -2 6 -13 5 -11 0 -14 -3 -6 -6z"/>
<path d="M4805 5840 c-3 -5 -2 -10 4 -10 5 0 13 5 16 10 3 6 2 10 -4 10 -5 0
-13 -4 -16 -10z"/>
<path d="M4780 5640 c0 -5 5 -10 10 -10 6 0 10 5 10 10 0 6 -4 10 -10 10 -5 0
-10 -4 -10 -10z"/>
<path d="M4245 5490 c-3 -5 -1 -10 4 -10 6 0 11 5 11 10 0 6 -2 10 -4 10 -3 0
-8 -4 -11 -10z"/>
<path d="M4441 5324 c0 -11 3 -14 6 -6 3 7 2 16 -1 19 -3 4 -6 -2 -5 -13z"/>
<path d="M4605 5140 c-3 -5 -1 -10 4 -10 6 0 11 5 11 10 0 6 -2 10 -4 10 -3 0
-8 -4 -11 -10z"/>
<path d="M4970 4700 c0 -5 5 -10 10 -10 6 0 10 5 10 10 0 6 -4 10 -10 10 -5 0
-10 -4 -10 -10z"/>
<path d="M6218 2923 c7 -3 16 -2 19 1 4 3 -2 6 -13 5 -11 0 -14 -3 -6 -6z"/>
<path d="M6297 2916 c-12 -10 -15 -16 -7 -21 13 -8 23 0 26 20 3 18 4 18 -19
1z"/>
<path d="M4755 2834 c-49 -25 -88 -147 -91 -284 -1 -47 -3 -89 -5 -95 -1 -5 1
-37 6 -70 5 -33 8 -75 7 -92 -1 -18 1 -33 6 -33 20 0 82 63 82 84 0 13 10 31
21 42 41 36 70 122 69 199 -1 38 -1 81 -1 95 1 13 -4 29 -9 34 -6 6 -10 21
-10 36 0 14 -7 34 -15 44 -8 11 -15 28 -15 38 0 21 -5 22 -45 2z"/>
<path d="M5308 2403 c7 -3 16 -2 19 1 4 3 -2 6 -13 5 -11 0 -14 -3 -6 -6z"/>
<path d="M5167 2129 c-10 -6 -25 -8 -33 -5 -12 5 -20 -17 -15 -46 2 -14 -11
-9 -24 9 -8 10 -14 12 -19 5 -11 -17 23 -42 59 -42 18 0 43 9 56 20 24 20 24
20 5 35 -19 14 -19 15 7 15 15 0 27 5 27 10 0 13 -40 12 -63 -1z"/>
<path d="M5300 2045 c0 -8 2 -15 4 -15 2 0 11 -3 20 -6 12 -4 16 0 16 15 0 14
-6 21 -20 21 -11 0 -20 -7 -20 -15z"/>
<path d="M3817 1056 c-18 -19 -22 -36 -8 -36 13 0 33 28 29 41 -3 8 -9 6 -21
-5z"/>
<path d="M3765 970 c-3 -5 -3 -15 1 -21 6 -11 23 6 24 24 0 10 -18 9 -25 -3z"/>
<path d="M3717 902 c-10 -10 -14 -22 -10 -25 3 -4 1 -7 -6 -7 -17 0 -89 -79
-108 -117 -8 -18 -20 -33 -25 -33 -5 0 -6 -5 -3 -11 4 -6 -2 -17 -14 -25 -12
-8 -21 -22 -21 -31 0 -13 7 -10 30 12 17 16 30 34 30 39 0 6 16 24 35 41 19
16 35 34 35 38 0 5 7 15 15 24 8 8 13 19 10 24 -4 5 1 9 9 9 8 0 18 10 22 23
3 12 13 30 22 40 8 9 11 17 5 17 -5 0 -17 -8 -26 -18z"/>
<path d="M5311 588 c-32 -86 -30 -108 7 -108 11 0 13 9 9 35 -3 19 -1 37 4 40
12 8 12 55 -1 55 -6 0 -14 -10 -19 -22z"/>
<path d="M5351 206 c-8 -9 -11 -19 -7 -23 9 -9 29 13 24 27 -2 8 -8 7 -17 -4z"/>
</g>
</svg>
