<?xml version="1.0" standalone="no"?>
<!DOCTYPE svg PUBLIC "-//W3C//DTD SVG 20010904//EN"
 "http://www.w3.org/TR/2001/REC-SVG-20010904/DTD/svg10.dtd">
<svg version="1.0" xmlns="http://www.w3.org/2000/svg"
 width="1024.000000pt" height="1024.000000pt" viewBox="0 0 1024.000000 1024.000000"
 preserveAspectRatio="xMidYMid meet">

<g transform="translate(0.000000,1024.000000) scale(0.100000,-0.100000)"
fill="#000000" stroke="none">
<path d="M0 5390 c0 -4190 2 -4850 14 -4850 8 0 56 9 108 20 229 51 280 61
383 75 159 23 533 55 731 62 242 9 255 17 273 173 5 45 15 88 23 95 20 20 104
45 146 45 95 -1 216 -59 245 -117 20 -40 58 -195 59 -245 3 -69 -12 -460 -18
-491 -11 -54 41 -89 168 -111 146 -26 272 -30 383 -12 111 18 298 45 360 51
22 3 76 9 120 15 44 5 103 12 130 14 28 3 77 10 110 15 33 6 86 14 118 17 31
4 57 11 57 16 0 6 11 7 28 3 15 -4 35 -7 45 -7 9 0 17 -7 18 -16 1 -26 17 19
41 115 18 73 19 84 5 97 -12 13 -16 13 -20 2 -4 -9 -38 -15 -116 -21 -61 -3
-111 -11 -111 -16 0 -5 -12 -6 -26 -3 -28 7 -381 -10 -558 -27 -85 -9 -114 -8
-132 2 -13 7 -24 16 -24 21 0 5 -9 18 -20 30 -28 30 -37 87 -34 206 4 147 26
202 96 238 35 18 307 18 427 0 47 -7 101 -11 120 -10 121 8 298 3 368 -12 43
-9 87 -17 98 -18 12 -1 25 -5 31 -8 17 -11 29 4 52 62 37 95 159 479 201 635
22 83 61 222 86 310 89 312 145 543 199 815 32 161 67 311 86 363 40 110 110
218 198 305 37 37 112 115 166 174 161 177 237 224 551 345 50 19 107 42 128
53 44 21 70 17 86 -13 8 -16 9 24 5 158 -3 99 -7 192 -10 208 -4 20 -2 27 10
27 8 0 20 8 25 18 9 15 10 15 11 1 0 -15 27 -50 82 -107 19 -20 20 -25 8 -33
-12 -8 -12 -12 -2 -16 7 -3 25 -16 39 -29 14 -13 30 -21 35 -18 5 3 15 -2 23
-12 10 -14 17 -16 25 -8 17 17 -19 58 -37 42 -10 -8 -13 -6 -13 6 0 9 7 16 16
16 14 0 14 1 0 16 -21 20 -20 22 6 43 12 11 18 23 14 30 -6 9 -11 9 -21 1 -9
-8 -14 -6 -19 6 -9 23 -8 24 17 24 27 0 54 16 44 26 -3 4 -13 2 -21 -5 -11
-10 -18 -6 -36 19 -12 16 -28 30 -36 30 -8 0 -19 11 -24 25 -5 14 -14 25 -20
25 -25 0 -7 15 20 17 19 1 30 -3 30 -11 0 -7 10 -21 22 -32 12 -10 18 -14 14
-7 -11 20 16 53 44 53 20 0 22 2 10 11 -12 9 -11 10 7 6 12 -3 27 1 34 9 6 8
18 14 25 14 8 0 14 3 14 8 0 4 15 16 34 26 19 10 37 29 40 42 4 14 24 42 46
64 44 44 76 54 65 20 -6 -18 -3 -20 19 -14 21 5 26 3 26 -12 1 -17 2 -17 13
-4 13 17 51 15 41 -1 -6 -11 13 -39 27 -39 5 0 9 7 9 15 0 8 5 15 10 15 6 0
10 -5 10 -11 0 -11 60 -69 72 -69 5 0 8 5 8 12 0 9 3 9 12 0 8 -8 8 -15 -2
-27 -17 -21 -7 -29 35 -27 39 2 42 -2 20 -24 -19 -20 -19 -34 0 -34 20 0 19
-6 -6 -42 -24 -33 -18 -49 9 -25 10 10 35 17 55 17 20 0 39 5 42 10 4 6 11 7
17 4 6 -4 8 -2 4 4 -3 6 -2 13 4 17 5 3 10 -1 10 -9 0 -9 4 -16 10 -16 5 0 7
8 4 18 -5 14 -4 14 4 2 6 -8 8 -18 5 -23 -3 -5 -1 -12 4 -16 5 -3 23 -30 39
-60 16 -30 48 -75 71 -101 40 -45 134 -100 170 -100 31 0 90 25 86 36 -2 5 8
21 22 34 23 22 29 23 57 12 25 -9 34 -9 41 1 7 9 10 9 14 0 3 -8 22 -13 46
-12 l42 1 -35 10 c-19 5 -41 13 -49 17 -22 11 -22 44 1 68 13 14 16 23 9 23
-7 0 -9 5 -5 12 5 7 3 8 -6 3 -10 -6 -11 -1 -6 21 4 16 8 37 9 46 1 16 3 16
19 1 17 -15 20 -15 40 3 19 17 21 17 15 2 -3 -10 -3 -17 1 -16 4 1 14 -1 22
-4 17 -7 172 -56 211 -68 15 -4 33 -4 40 1 7 4 22 3 32 -3 14 -7 18 -7 12 1
-5 8 5 11 32 10 21 -1 58 2 83 5 45 7 45 7 -15 -15 -121 -45 -290 -146 -417
-251 -108 -89 -400 -353 -458 -414 -30 -31 1 -6 70 57 69 63 153 137 185 164
33 28 83 71 110 96 28 26 75 68 105 93 87 74 162 112 92 47 -15 -14 -40 -45
-56 -69 -26 -38 -28 -45 -16 -67 7 -14 21 -25 31 -25 22 0 34 16 17 23 -7 3
-1 6 15 6 15 1 27 6 27 11 0 6 7 10 15 10 8 0 14 3 13 8 -4 10 101 117 108
110 3 -4 -8 -31 -26 -62 -25 -46 -29 -60 -20 -77 8 -15 8 -24 0 -33 -8 -10 -7
-15 5 -20 8 -3 15 -1 15 5 0 6 4 8 9 4 5 -3 22 12 38 32 15 21 31 40 36 41 4
2 7 9 7 16 0 7 9 21 20 31 11 10 20 24 20 30 0 16 50 66 60 60 4 -3 13 2 20
10 25 30 31 14 10 -22 -48 -80 -60 -104 -60 -118 0 -8 -4 -15 -9 -15 -5 0 -11
-9 -14 -19 -5 -21 28 -37 39 -19 3 5 13 7 21 4 8 -3 12 -2 9 3 -3 5 4 11 16
14 12 4 19 9 16 13 -7 6 25 40 80 82 41 31 49 24 23 -19 -12 -19 -25 -43 -30
-54 -10 -23 -96 -106 -221 -216 -91 -79 -150 -139 -150 -152 0 -9 68 -1 104
13 39 14 66 12 66 -5 0 -9 10 -15 26 -15 15 0 24 -5 22 -12 -2 -6 13 -27 34
-46 21 -19 36 -37 33 -40 -2 -3 0 -11 6 -18 5 -6 12 -39 14 -73 2 -33 6 -65
10 -71 3 -5 -4 -19 -15 -30 -18 -18 -19 -22 -6 -36 10 -9 12 -22 8 -34 -4 -11
-6 -40 -4 -65 4 -45 4 -45 42 -45 21 0 40 5 42 11 5 15 86 19 98 4 6 -8 1 -23
-16 -49 -29 -43 -26 -66 10 -66 26 0 43 -15 27 -24 -5 -4 -12 -2 -16 4 -3 5
-11 10 -16 10 -6 0 -4 -6 3 -14 15 -14 78 -10 78 6 0 5 4 7 9 4 5 -3 29 1 55
10 25 9 53 13 61 10 21 -8 36 -50 44 -121 7 -54 8 -57 16 -31 5 20 3 51 -9 94
-9 35 -16 66 -14 68 2 2 22 6 45 10 51 8 51 9 58 -156 3 -69 12 -159 20 -200
9 -41 17 -82 19 -90 1 -8 5 -22 8 -30 4 -8 14 -42 24 -75 36 -123 44 -86 19
84 -9 56 -22 126 -29 155 -8 28 -14 97 -15 152 -1 56 -6 116 -11 135 -13 44
-13 42 10 36 10 -3 21 0 23 7 3 8 12 8 33 1 37 -13 53 -57 53 -150 1 -39 7
-124 15 -190 15 -122 27 -272 46 -585 6 -96 12 -190 14 -209 1 -20 -3 -35 -11
-38 -7 -3 -13 -12 -13 -20 0 -8 4 -12 9 -9 5 3 12 -4 15 -17 8 -28 21 -273 21
-387 0 -183 -27 -587 -55 -815 -18 -150 -41 -340 -46 -390 -3 -27 -7 -67 -10
-87 l-6 -38 60 0 c75 0 72 -7 87 175 5 57 13 94 22 100 7 6 16 35 19 65 4 30
12 65 20 76 7 12 10 31 7 43 -3 13 -1 21 7 21 7 0 10 7 6 16 -4 9 -2 22 2 28
18 22 24 69 10 77 -10 7 -10 11 0 21 6 6 12 23 12 38 0 14 4 32 10 40 6 9 5
17 -2 21 -8 5 -7 16 1 39 6 18 11 64 11 101 0 37 4 71 10 74 5 3 8 21 5 40 -3
23 1 37 10 42 7 5 14 13 14 18 0 6 6 11 13 13 10 2 12 -16 8 -83 -3 -47 -1
-85 4 -85 4 0 6 -15 2 -32 -3 -18 -2 -55 2 -83 4 -27 4 -83 -1 -124 -6 -54 -5
-76 3 -81 7 -5 9 -16 5 -29 -8 -27 -8 -127 1 -163 4 -18 2 -28 -5 -28 -6 0
-14 14 -18 31 -5 27 -7 29 -21 15 -13 -13 -13 -17 -2 -32 12 -14 12 -18 0 -28
-11 -8 -16 -38 -18 -111 -1 -55 -7 -116 -12 -135 -6 -19 -10 -45 -10 -57 l0
-23 945 0 945 0 0 1910 c0 1267 -3 1910 -10 1910 -5 0 -10 9 -10 20 0 13 -10
24 -25 30 -14 5 -25 11 -25 12 0 2 4 18 9 36 8 26 7 34 -5 39 -7 3 -14 12 -14
19 0 15 5 22 53 74 25 28 27 36 27 118 0 74 -3 89 -18 99 -10 6 -29 38 -41 72
-23 64 -31 71 -51 45 -8 -8 -22 -20 -32 -25 -15 -8 -18 -6 -18 16 0 15 6 25
14 25 8 0 16 10 18 22 2 17 9 23 26 22 12 0 22 3 22 8 0 4 7 8 15 8 8 0 26 5
40 12 l25 11 0 2879 0 2878 -2010 0 -2010 0 1 -152 c0 -84 4 -177 8 -205 5
-36 4 -53 -3 -53 -6 0 -5 -4 3 -9 11 -7 10 -10 -5 -14 -16 -4 -16 -5 4 -6 12
0 22 -5 22 -9 0 -11 -101 3 -129 17 -22 12 -27 27 -12 33 8 2 15 212 12 356
l-1 42 -1680 0 -1680 0 -17 -60 c-9 -33 -20 -60 -24 -60 -5 0 -11 -17 -15 -37
-4 -20 -18 -63 -30 -95 -13 -32 -24 -65 -24 -74 0 -9 -6 -30 -14 -47 -7 -18
-24 -59 -36 -92 -13 -33 -27 -65 -32 -72 -6 -7 -7 -17 -3 -23 3 -5 2 -10 -4
-10 -5 0 -12 -15 -16 -32 -3 -18 -10 -42 -15 -53 -64 -143 -83 -180 -113 -222
-19 -28 -45 -69 -57 -92 -11 -24 -37 -59 -56 -79 -69 -73 -74 -79 -74 -86 0
-4 -10 -17 -21 -29 -12 -12 -18 -15 -14 -7 5 9 4 12 -1 7 -5 -5 -9 -12 -9 -15
-1 -21 -28 -53 -41 -48 -9 4 -20 -7 -32 -32 -9 -20 -29 -43 -44 -50 -15 -7
-34 -27 -43 -45 -9 -19 -28 -37 -45 -44 -17 -6 -30 -18 -30 -27 0 -12 -10 -16
-34 -16 -19 0 -36 -5 -38 -11 -5 -16 -156 -19 -198 -3 -34 12 -34 13 -7 13 15
1 26 4 26 9 -4 22 8 32 80 66 44 21 85 44 92 52 6 8 20 14 29 14 10 0 20 4 22
8 2 4 20 21 41 36 20 16 37 35 37 42 0 8 7 14 15 14 8 0 15 4 15 10 0 5 16 27
35 47 19 20 35 41 35 45 0 4 13 27 30 51 17 25 30 50 30 56 0 6 5 11 10 11 6
0 10 9 10 20 0 11 5 20 10 20 6 0 24 30 41 68 16 37 34 74 40 82 5 8 14 26 19
40 6 14 14 33 20 42 5 10 7 24 4 31 -3 8 2 21 10 30 9 9 16 20 16 26 0 6 12
37 28 68 15 32 34 78 42 103 7 25 17 50 20 55 4 6 17 39 29 75 12 36 26 74 31
85 9 19 60 211 60 228 0 4 -574 7 -1275 7 l-1275 0 0 -4850z m3535 3851 c3 -5
1 -12 -5 -16 -5 -3 -10 1 -10 9 0 18 6 21 15 7z m65 -31 c0 -5 -9 -10 -21 -10
-11 0 -17 5 -14 10 3 6 13 10 21 10 8 0 14 -4 14 -10z m955 -12 c-11 -6 -28
-18 -37 -26 -10 -8 -18 -11 -18 -6 0 10 50 43 65 43 6 0 1 -5 -10 -11z m-195
-118 c0 -5 -4 -10 -10 -10 -5 0 -10 5 -10 10 0 6 5 10 10 10 6 0 10 -4 10 -10z
m-249 -164 c-6 -7 -9 -15 -6 -18 3 -3 0 -10 -8 -16 -10 -8 -13 -7 -14 8 -1 10
5 21 13 24 9 3 12 11 8 17 -4 8 -3 9 5 5 8 -6 9 -12 2 -20z m39 -20 c0 -2 -8
-10 -17 -17 -16 -13 -17 -12 -4 4 13 16 21 21 21 13z m-101 -42 l-24 -26 23 7
c20 6 17 0 -17 -35 -44 -45 -49 -70 -6 -30 14 13 25 19 25 13 0 -6 -12 -19
-27 -28 -41 -26 -64 -53 -53 -60 6 -4 -5 -24 -25 -48 -36 -42 -95 -155 -95
-181 0 -8 -5 -18 -10 -21 -6 -4 -8 -11 -4 -16 3 -5 10 -7 15 -4 5 3 6 -1 3 -9
-3 -8 -12 -12 -20 -9 -12 4 -13 0 -5 -20 5 -14 8 -27 6 -29 -14 -14 -25 -239
-12 -231 6 4 7 -14 3 -48 -5 -40 -4 -50 4 -39 9 12 10 10 5 -10 -8 -28 -8 -26
-6 -58 0 -13 5 -21 10 -18 9 6 6 -88 -4 -104 -3 -5 4 -45 16 -88 25 -89 39
-173 27 -166 -4 3 -8 20 -8 37 0 37 -34 134 -43 120 -8 -13 0 -132 12 -172 8
-26 8 -37 -2 -43 -9 -6 -9 -8 2 -8 10 0 12 -12 7 -54 -5 -36 -3 -56 4 -61 11
-7 5 -58 -9 -80 -5 -9 -16 66 -24 169 -1 16 -7 31 -14 33 -15 5 -34 -63 -36
-128 -1 -27 -6 -49 -11 -49 -5 0 -6 -21 -2 -46 4 -33 0 -67 -14 -116 -12 -37
-18 -73 -15 -78 3 -6 1 -10 -6 -10 -6 0 -9 -8 -6 -20 3 -11 1 -18 -4 -14 -5 3
-9 -9 -9 -25 0 -32 8 -39 27 -20 7 7 7 -2 -1 -31 -9 -37 -11 -39 -17 -19 -5
23 -6 22 -11 -6 -4 -16 -9 -41 -13 -55 -5 -21 -4 -20 9 5 l16 30 -6 -45 c-4
-25 -21 -83 -39 -130 -19 -47 -30 -86 -25 -88 5 -2 6 -10 3 -18 -3 -7 -9 -11
-14 -8 -5 3 -9 -3 -9 -13 0 -14 -2 -15 -9 -5 -7 11 -9 10 -14 -3 -4 -9 -3 -13
3 -10 14 9 12 -6 -4 -24 -7 -9 -24 -42 -36 -73 -13 -32 -28 -58 -32 -58 -5 0
-6 -4 -3 -10 3 -5 2 -10 -3 -10 -5 0 -21 -21 -36 -47 -15 -27 -52 -86 -82
-133 -30 -47 -68 -111 -84 -142 -31 -60 -48 -79 -27 -30 7 15 32 62 55 105 24
43 45 83 46 90 1 7 18 46 38 87 27 54 34 77 25 82 -8 5 -7 8 4 8 11 0 22 19
34 58 9 31 26 85 37 120 11 35 18 66 15 69 -4 3 -9 -6 -13 -21 -3 -14 -11 -23
-17 -19 -6 3 -7 1 -3 -6 4 -6 3 -17 -2 -24 -5 -7 -17 -36 -27 -65 -21 -67 -30
-63 -10 4 18 58 18 64 5 64 -6 0 -9 -3 -9 -7 3 -17 -2 -24 -11 -18 -7 4 -7 13
0 26 6 11 15 17 20 14 6 -4 7 1 3 11 -4 11 -2 15 4 11 6 -4 13 2 16 13 3 12 1
18 -5 14 -5 -3 -2 8 7 26 9 17 14 34 11 38 -3 3 -2 10 3 16 9 10 32 84 36 116
3 20 24 110 32 135 5 16 3 18 -9 8 -8 -7 -29 -47 -47 -90 -18 -43 -43 -98 -54
-123 -36 -77 -40 -88 -18 -61 19 25 44 22 35 -4 -3 -8 -9 -13 -12 -12 -4 1
-19 -10 -35 -25 -19 -18 -25 -31 -20 -43 5 -13 3 -16 -7 -10 -8 5 -11 3 -8 -6
3 -8 1 -22 -4 -32 -5 -10 -7 -21 -4 -24 3 -3 17 20 31 52 15 31 29 54 32 51 8
-8 -167 -356 -179 -356 -5 0 -6 -10 -3 -22 4 -15 3 -19 -3 -10 -6 9 -22 -19
-52 -88 -23 -55 -45 -99 -48 -96 -2 3 3 22 13 42 10 21 30 68 46 106 15 38 37
81 48 96 12 18 18 38 15 57 -4 25 -3 26 5 10 8 -17 9 -15 8 12 -1 17 -5 29 -8
27 -15 -9 -39 -74 -33 -91 4 -13 3 -15 -4 -4 -7 10 -18 -2 -46 -50 -19 -35
-36 -59 -36 -52 0 6 8 24 17 41 10 18 14 36 9 48 -7 19 -8 19 -22 0 -21 -30
-17 -11 11 47 14 29 20 44 12 35 -8 -10 -17 -15 -20 -11 -4 3 -16 -14 -27 -38
-11 -24 -36 -69 -55 -99 -19 -30 -46 -77 -59 -105 -14 -27 -25 -44 -25 -37 -1
14 57 129 89 177 11 17 20 35 20 42 0 15 -33 10 -38 -7 -3 -8 0 -10 8 -5 9 5
11 4 6 -4 -4 -6 -12 -9 -17 -6 -5 4 -9 2 -9 -3 0 -5 -9 -19 -20 -32 -33 -38
-23 -5 17 57 47 73 50 89 10 61 -17 -12 -25 -24 -19 -26 17 -5 15 -22 -3 -22
-8 0 -15 -6 -15 -12 0 -9 -4 -8 -11 2 -9 13 -10 12 -5 -3 3 -11 -3 -30 -15
-47 -13 -16 -19 -36 -15 -45 3 -9 2 -14 -3 -10 -5 3 -12 -1 -15 -7 -3 -7 -4 0
-1 15 4 19 2 26 -5 22 -6 -4 -6 3 1 19 7 14 16 23 20 20 4 -2 6 5 4 16 -2 11
9 45 25 74 15 30 26 57 23 59 -2 3 3 17 13 31 24 38 12 42 -15 6 -12 -17 -19
-36 -15 -42 4 -7 3 -8 -4 -4 -8 5 -14 -7 -18 -34 -7 -43 -18 -58 -30 -39 -5 8
-3 9 6 4 10 -6 12 -4 7 8 -4 10 -2 29 4 43 17 46 1 38 -21 -10 -33 -74 -42
-99 -45 -127 -1 -14 -10 -41 -18 -60 -9 -19 -23 -62 -31 -97 -12 -52 -12 -61
-1 -52 11 9 12 7 8 -9 -3 -12 -9 -19 -13 -16 -5 3 -9 -14 -9 -37 0 -24 -2 -68
-5 -98 -3 -30 -8 -80 -11 -110 -3 -33 1 -82 11 -125 19 -86 42 -215 37 -216
-2 -1 -7 -2 -12 -3 -5 0 -12 -4 -16 -8 -4 -3 -21 -2 -38 3 -17 5 -33 5 -36 1
-4 -4 -16 -12 -28 -17 -12 -6 -54 -41 -95 -79 -80 -76 -113 -94 -179 -97 -64
-3 -102 8 -178 52 -92 53 -103 51 -136 -16 -41 -84 -34 -96 75 -130 103 -31
145 -61 171 -121 24 -54 12 -133 -32 -212 -55 -98 -89 -166 -89 -183 0 -26
-31 -92 -49 -105 -32 -24 -79 -26 -124 -4 -55 27 -86 45 -100 59 -22 22 -68
12 -109 -24 -59 -54 -100 -70 -145 -59 -34 8 -41 16 -66 69 -21 43 -53 84
-117 145 -103 100 -116 118 -130 187 -10 45 -9 58 8 97 23 51 45 67 121 92 45
14 66 16 125 7 93 -12 112 -8 125 30 33 92 -9 277 -79 352 -53 56 -74 105 -74
170 -1 81 34 135 111 172 50 23 89 75 108 140 33 118 59 154 131 179 83 29
138 9 188 -71 19 -29 39 -56 46 -60 6 -4 43 0 83 9 40 8 98 20 131 25 69 13
77 18 123 89 62 97 75 145 68 238 -6 66 -4 87 10 113 42 83 201 76 220 -9 4
-17 11 -27 17 -24 6 4 8 -1 3 -15 -4 -13 -2 -21 5 -21 6 0 8 -10 4 -25 -3 -14
-4 -25 0 -25 8 0 48 80 57 115 15 58 38 110 48 108 5 -2 10 5 9 15 0 21 24 85
35 93 5 3 9 12 11 20 1 8 13 37 26 64 38 80 41 87 30 80 -6 -3 -10 -1 -10 5 0
6 7 13 15 17 16 6 75 112 75 135 0 7 -16 -19 -35 -57 -35 -72 -37 -46 -2 35
30 71 88 202 105 238 8 18 12 35 9 39 -3 3 9 26 28 51 19 25 35 52 35 60 0 9
-20 -14 -45 -51 -25 -37 -45 -72 -45 -77 0 -6 -4 -10 -9 -10 -5 0 -11 -8 -14
-17 -14 -46 -115 -312 -125 -329 -19 -32 -13 -10 17 73 16 43 47 126 69 185
40 107 67 158 129 242 17 23 40 62 51 87 54 120 71 161 71 167 -2 14 13 52 21
52 4 0 12 18 19 39 23 79 62 153 78 147 8 -3 11 -2 8 4 -3 5 -2 17 3 27 21 41
53 135 48 140 -10 10 -55 -63 -72 -116 -13 -41 -23 -59 -32 -56 -9 3 -11 -1
-7 -15 4 -13 -1 -25 -14 -37 -12 -9 -33 -37 -48 -60 -15 -24 -31 -43 -35 -43
-13 0 -9 17 7 30 8 7 15 16 15 21 0 5 15 32 34 61 18 29 50 87 71 128 38 75
70 114 86 104 5 -3 9 0 9 6 0 5 9 29 19 53 11 23 36 82 57 132 21 49 50 108
64 130 15 22 38 62 50 88 16 32 28 46 38 42 12 -4 14 2 9 32 -3 21 -3 32 0 25
4 -10 8 -10 19 -1 8 6 11 15 8 20 -3 5 13 31 35 58 23 27 41 53 41 58 0 11 38
53 47 53 4 0 -4 -12 -18 -26z m61 6 c0 -5 -5 -10 -11 -10 -5 0 -7 5 -4 10 3 6
8 10 11 10 2 0 4 -4 4 -10z m1175 -150 c-5 -17 -2 -20 23 -20 17 0 32 5 34 11
2 5 11 7 20 4 9 -4 14 -13 11 -21 -3 -8 -9 -11 -14 -8 -5 3 -9 1 -9 -5 0 -6
19 -8 45 -6 25 3 45 1 45 -4 0 -4 10 -13 23 -19 21 -10 21 -11 2 -11 -12 -1
-26 4 -33 11 -9 10 -16 8 -29 -5 -21 -21 -11 -32 15 -18 25 13 33 -3 21 -37
-6 -15 -5 -21 1 -17 6 3 10 -1 10 -10 0 -8 -7 -18 -15 -21 -12 -5 -13 -9 -4
-20 7 -8 9 -17 6 -21 -4 -3 -2 -12 4 -20 9 -9 8 -17 0 -27 -9 -11 -6 -12 15
-8 24 4 25 3 15 -15 -17 -33 -2 -33 30 -1 16 17 29 26 29 20 0 -6 -7 -17 -15
-25 -13 -13 -13 -16 1 -21 9 -3 21 -3 27 1 7 4 6 -1 -2 -10 -8 -10 -21 -15
-30 -13 -9 3 -32 1 -51 -3 -34 -9 -28 -12 25 -15 16 -1 19 -7 17 -30 -3 -26
-1 -28 13 -16 8 7 18 10 22 6 3 -3 1 -6 -5 -6 -7 0 -12 -6 -12 -14 0 -8 -6
-17 -12 -19 -7 -3 -2 -6 12 -6 18 -1 21 -4 13 -12 -6 -6 -9 -18 -6 -27 4 -10
2 -13 -5 -8 -16 10 -27 -15 -11 -25 12 -7 12 -10 1 -18 -8 -4 -14 -12 -14 -17
1 -5 -9 -14 -21 -21 -15 -9 -18 -13 -7 -14 8 -1 25 -3 38 -4 24 -2 44 -15 24
-15 -7 0 -12 -5 -12 -11 0 -6 9 -8 23 -3 12 3 19 3 15 -1 -4 -4 -22 -9 -39
-11 -45 -5 -52 -16 -9 -14 37 3 70 -7 70 -20 0 -5 -13 -5 -30 0 -18 5 -30 5
-30 -1 0 -5 5 -9 10 -9 6 0 10 -4 10 -10 0 -5 -7 -10 -15 -10 -8 0 -15 -4 -15
-9 0 -4 11 -6 23 -4 22 4 23 2 19 -26 -2 -19 0 -31 7 -31 6 0 11 5 11 11 0 8
5 8 15 -1 8 -7 15 -20 14 -29 0 -10 -2 -11 -6 -3 -8 20 -25 14 -18 -7 3 -11 1
-22 -5 -26 -19 -12 -11 -26 9 -15 13 6 20 7 23 0 2 -6 17 -13 33 -16 17 -3 33
-8 36 -12 11 -11 -2 -72 -15 -72 -8 0 -8 -2 1 -8 22 -14 -12 -41 -60 -47 -26
-4 -70 -16 -99 -27 -29 -11 -68 -24 -86 -30 -19 -5 -48 -18 -65 -28 -18 -11
-40 -24 -51 -31 -15 -9 -17 -8 -11 3 5 7 -3 2 -18 -11 -14 -12 -31 -20 -37
-16 -7 4 -18 -2 -27 -14 -14 -21 -16 -21 -29 -4 -12 17 -14 16 -15 -12 -1 -16
-1 -39 0 -50 2 -20 2 -20 -13 0 -11 14 -15 16 -16 5 0 -11 -3 -11 -12 -2 -19
19 -27 14 -20 -10 5 -21 4 -22 -13 -8 -17 14 -18 13 -11 -20 5 -27 4 -32 -6
-22 -16 16 -33 15 -19 -1 6 -8 8 -17 4 -21 -4 -4 -1 -11 7 -16 12 -8 9 -10
-10 -10 -18 0 -21 -3 -11 -9 18 -12 5 -32 -17 -25 -14 5 -14 4 -2 -4 8 -6 18
-8 22 -6 4 3 8 0 8 -5 0 -6 -5 -11 -11 -11 -5 0 -8 -4 -5 -9 4 -5 0 -12 -6
-14 -10 -4 -10 -8 1 -15 10 -7 10 -11 1 -17 -9 -6 -9 -10 1 -16 12 -8 12 -10
0 -18 -9 -6 -14 -24 -13 -51 1 -23 -3 -50 -8 -61 -8 -14 -7 -19 1 -19 8 0 8
-4 -1 -15 -7 -8 -10 -26 -8 -40 3 -14 2 -28 -3 -31 -4 -2 -6 -11 -3 -19 3 -7
-1 -29 -9 -47 -24 -52 -39 -108 -42 -152 -2 -23 -8 -54 -14 -69 -11 -29 -14
-110 -9 -242 2 -51 -1 -74 -12 -86 -74 -79 -75 -80 -60 -90 11 -8 9 -8 -10 -3
-22 6 -23 5 -12 -9 8 -9 9 -18 3 -21 -5 -4 -12 -2 -16 4 -13 21 -24 9 -21 -22
3 -24 18 -46 57 -82 52 -48 79 -86 79 -111 0 -19 36 -46 53 -39 9 3 19 14 22
25 4 10 13 19 21 19 8 0 14 4 14 10 0 5 7 7 15 4 8 -4 15 -12 15 -20 0 -8 4
-14 9 -14 5 0 22 -13 38 -30 29 -31 53 -39 54 -17 0 6 4 2 10 -11 5 -13 12
-21 17 -18 4 2 9 -11 9 -31 1 -27 -3 -37 -18 -40 -14 -4 -16 -9 -9 -23 6 -10
7 -27 4 -37 -3 -10 -2 -14 3 -8 11 13 73 18 73 5 0 -5 0 -13 0 -17 0 -13 -44
-12 -52 1 -4 6 -8 7 -8 1 0 -5 -15 -11 -33 -12 -18 -1 -60 -10 -93 -21 -60
-20 -106 -21 -195 -7 -36 6 -56 3 -100 -16 -30 -12 -65 -33 -80 -46 -26 -24
-54 -30 -64 -13 -10 16 -23 12 -39 -12 -24 -39 -26 -62 -8 -86 l18 -24 39 22
c29 16 44 19 55 12 9 -5 29 -8 46 -6 30 5 162 7 179 4 6 -1 13 -2 18 -1 4 0 7
-3 7 -8 0 -4 12 -6 26 -3 16 3 30 -1 35 -9 8 -12 11 -12 19 1 8 13 11 12 24
-5 14 -18 15 -18 16 -2 0 15 18 23 44 18 5 -1 13 4 17 11 7 10 9 10 9 1 0 -8
13 -13 30 -13 17 0 30 -3 31 -7 0 -5 2 -15 4 -24 3 -18 -40 -43 -56 -34 -5 4
-9 -1 -9 -9 0 -21 -17 -20 -29 2 -14 23 -14 -3 0 -29 9 -18 8 -20 -17 -17 -15
2 -30 9 -32 17 -3 8 0 11 7 7 7 -5 9 -1 5 8 -10 26 -32 18 -37 -11 -3 -25 -4
-24 -6 7 l-2 35 -15 -27 c-19 -35 -26 -36 -18 -2 5 19 4 25 -5 20 -6 -4 -9
-11 -6 -16 3 -5 1 -11 -4 -14 -5 -3 -12 4 -16 17 l-8 22 -4 -22 c-2 -13 -9
-23 -14 -23 -6 0 -7 6 -4 13 4 6 -1 3 -9 -7 -13 -16 -16 -17 -16 -4 0 9 -7 19
-16 22 -24 9 -32 -3 -11 -18 23 -18 22 -29 -2 -16 -12 6 -22 6 -25 1 -3 -5 5
-12 19 -15 42 -11 28 -26 -22 -23 -52 2 -66 -16 -28 -37 11 -6 29 -20 41 -31
50 -48 191 -101 168 -63 -5 7 -3 8 6 3 24 -15 82 -17 91 -4 6 10 10 10 23 0 9
-7 23 -10 32 -7 9 4 23 1 30 -5 11 -9 14 -8 14 6 0 14 3 15 15 5 18 -15 93
-20 99 -6 3 7 9 5 15 -4 9 -13 11 -12 12 5 0 11 3 14 6 8 2 -7 11 -13 19 -13
8 0 14 6 15 13 0 9 2 9 6 0 2 -7 11 -13 19 -13 8 0 14 -9 14 -19 0 -22 34 -26
59 -7 12 9 13 5 8 -28 -5 -31 -4 -36 6 -25 7 8 22 23 35 33 33 28 27 2 -8 -31
-16 -15 -30 -35 -30 -44 0 -20 -24 -42 -35 -31 -4 4 -4 -3 -1 -15 4 -13 5 -23
1 -23 -3 0 -10 10 -16 23 -8 18 -9 14 -5 -18 3 -22 2 -35 -2 -30 -9 13 -42 16
-42 3 0 -5 -4 -6 -10 -3 -6 3 -7 -1 -4 -9 4 -11 0 -16 -15 -16 -12 0 -21 -4
-21 -10 0 -5 -6 -7 -14 -4 -19 7 -32 -16 -15 -27 7 -4 10 -12 5 -16 -5 -4 -11
-2 -13 4 -3 9 -14 11 -31 6 -25 -6 -26 -5 -12 12 14 17 14 17 -7 5 -18 -12
-20 -17 -10 -29 10 -12 9 -13 -12 -2 -23 13 -23 12 -17 -13 5 -19 2 -26 -8
-26 -7 0 -16 -9 -19 -20 -3 -11 -1 -20 4 -20 5 0 4 -9 -3 -20 -7 -12 -22 -20
-33 -19 -34 2 -41 -1 -25 -12 12 -8 9 -9 -12 -5 -18 4 -28 2 -28 -5 0 -20 -29
10 -32 34 -4 28 -49 35 -69 11 -11 -13 -11 -18 -1 -21 6 -3 12 -9 12 -15 0 -5
-9 -6 -21 -3 -19 6 -20 5 -9 -16 11 -19 10 -21 -5 -15 -10 3 -25 1 -33 -6 -13
-10 -14 -10 -8 0 5 8 -2 14 -24 18 -17 4 -33 10 -36 15 -2 4 -10 6 -17 4 -20
-8 -101 84 -159 180 -73 122 -158 299 -158 330 0 8 -4 15 -10 15 -5 0 -9 3 -8
8 3 12 -24 84 -30 78 -6 -7 -40 84 -48 129 -3 17 -14 55 -24 85 -9 30 -20 75
-24 99 -4 24 -13 56 -21 71 -8 15 -22 67 -30 116 -9 49 -21 97 -26 106 -5 10
-9 27 -9 38 0 11 -5 20 -11 20 -6 0 -9 6 -6 13 4 12 -10 62 -36 127 -13 34
-22 88 -22 140 0 30 -4 58 -9 62 -6 4 -4 13 3 22 8 9 9 16 4 16 -12 0 -7 119
7 182 5 24 12 57 15 73 14 64 25 76 74 75 78 -2 156 8 198 25 22 9 46 15 54
13 8 -2 13 3 11 11 -2 8 3 11 12 8 9 -4 19 0 23 7 5 7 20 21 36 31 29 18 37
38 12 29 -8 -4 -15 -2 -15 3 0 5 -13 8 -29 5 -16 -2 -32 1 -35 7 -13 20 18 38
62 35 29 -1 49 3 64 16 21 16 21 20 8 46 -8 16 -16 33 -18 38 -3 4 6 5 18 1
20 -6 21 -5 10 14 -6 12 -8 27 -4 33 14 22 11 82 -3 100 -8 9 -13 22 -11 30 5
22 -23 78 -39 78 -9 0 -13 6 -10 14 4 9 1 13 -6 10 -7 -2 -30 13 -52 34 -22
21 -53 44 -70 50 -35 14 -187 42 -196 36 -4 -2 -31 1 -60 7 -30 6 -62 11 -71
11 -10 -1 -18 5 -18 13 0 7 -6 20 -14 28 -13 13 -13 21 -1 68 8 30 15 66 15
82 0 15 4 27 10 27 5 0 7 13 3 31 -3 18 -1 34 5 38 6 3 12 37 13 75 1 41 8 73
16 81 16 17 17 45 1 46 -10 0 -10 2 0 6 6 2 10 8 7 12 -2 5 0 23 6 42 5 19 12
45 14 59 9 62 25 114 37 121 7 5 10 9 6 9 -7 0 -2 8 45 62 22 27 22 31 -3 18
-17 -9 -16 -4 9 35 28 44 88 105 104 105 4 0 12 11 17 25 7 18 21 28 55 36 25
6 45 15 45 20 0 5 7 9 16 9 8 0 13 4 9 9 -3 5 0 13 6 17 8 4 9 3 5 -4 -10 -17
9 -15 24 3 7 8 22 13 34 11 11 -2 29 1 39 6 12 6 17 5 17 -3 0 -7 11 -2 25 11
23 22 25 22 26 4 0 -14 4 -11 14 11 13 28 14 28 15 6 0 -19 3 -21 14 -12 11
10 17 8 25 -6 9 -17 10 -17 16 0 11 27 28 20 21 -9 -5 -17 -3 -23 4 -19 5 3
10 13 10 21 0 9 5 12 12 8 8 -5 9 -2 5 9 -3 10 -2 17 4 17 7 0 10 -18 7 -45
-3 -39 -1 -43 9 -28 7 9 13 20 13 25 0 16 19 8 22 -9 3 -14 7 -12 21 12 9 17
16 24 17 16 0 -11 3 -11 15 -1 8 7 15 9 15 4 0 -4 6 1 14 11 13 18 14 18 9 -8
-3 -15 -8 -25 -12 -23 -4 3 -7 -4 -7 -15 0 -11 5 -17 11 -15 5 2 9 7 9 12 -1
5 6 17 16 27 13 14 20 15 26 6 4 -8 3 -10 -4 -5 -7 4 -12 2 -12 -3 0 -12 13
-14 24 -4 3 4 16 8 28 10 12 2 27 8 34 14 8 7 14 7 19 -1 12 -20 43 -11 49 15
4 14 9 25 12 25 3 0 2 -9 -1 -20z m-284 -17 c-12 -20 -14 -14 -5 12 4 9 9 14
11 11 3 -2 0 -13 -6 -23z m473 -15 c3 -16 2 -28 -3 -28 -11 0 -22 40 -15 52 8
12 10 9 18 -24z m-60 8 c-10 -8 -21 -12 -24 -10 -5 6 21 24 34 24 6 0 1 -6
-10 -14z m99 -56 c-3 -11 -9 -20 -14 -20 -14 0 -11 28 4 33 6 3 13 6 14 6 0 1
-1 -8 -4 -19z m-30 -39 c5 -22 -1 -33 -14 -25 -12 7 -12 44 0 44 5 0 11 -9 14
-19z m-1644 -18 c-8 -10 -17 -22 -22 -28 -25 -33 -47 -57 -47 -51 0 12 64 95
74 96 5 0 2 -8 -5 -17z m1698 -19 c-3 -3 -12 -4 -19 -1 -8 3 -5 6 6 6 11 1 17
-2 13 -5z m-47 -14 c0 -5 -4 -10 -10 -10 -5 0 -10 5 -10 10 0 6 5 10 10 10 6
0 10 -4 10 -10z m-24 -32 c4 -13 12 -27 18 -31 7 -5 3 -7 -9 -5 -12 2 -19 11
-19 21 1 9 -2 17 -7 17 -5 0 -9 5 -9 10 0 19 19 10 26 -12z m-1772 -83 c-9
-14 -18 -25 -20 -25 -7 0 10 35 20 42 17 12 17 9 0 -17z m-39 -94 c-3 -11 -1
-22 4 -26 6 -3 4 -13 -7 -24 -9 -10 -28 -33 -42 -52 -14 -18 -46 -60 -72 -92
-26 -33 -44 -65 -41 -73 3 -8 -1 -14 -8 -14 -8 -1 -27 -11 -43 -24 -16 -14
-35 -22 -43 -19 -8 3 -13 1 -11 -3 2 -5 -7 -22 -19 -38 -16 -19 -23 -24 -23
-13 0 9 6 20 13 24 7 4 24 30 37 56 26 51 80 118 80 100 0 -10 -31 -54 -57
-81 -13 -13 -18 -32 -9 -32 12 0 61 54 95 106 22 33 53 75 70 94 17 19 34 40
38 45 5 6 14 18 21 27 11 13 11 18 0 24 -7 4 -10 4 -6 -1 4 -4 -4 -17 -18 -28
-15 -11 -34 -33 -44 -49 -15 -25 -19 -27 -30 -13 -11 13 -10 14 5 9 13 -5 16
-4 11 5 -5 8 9 30 40 62 52 52 69 61 59 30z m33 -1 c-7 -10 -14 -18 -15 -16
-6 6 9 36 18 36 5 0 4 -9 -3 -20z m-82 -177 c-3 -4 -6 -1 -6 6 0 7 -4 9 -10 6
-6 -4 -7 1 -3 11 6 15 7 15 15 -1 6 -9 7 -19 4 -22z m1944 5 c0 -4 -4 -8 -9
-8 -6 0 -12 4 -15 8 -3 5 1 9 9 9 8 0 15 -4 15 -9z m-2075 -168 c-9 -18 -19
-30 -21 -27 -3 3 2 19 11 37 9 18 19 30 21 27 3 -3 -2 -19 -11 -37z m5309 -36
c9 -3 16 -15 16 -25 0 -10 7 -19 15 -19 9 0 18 -8 21 -17 13 -39 48 -103 65
-119 11 -10 19 -23 19 -31 0 -8 12 -26 26 -40 15 -15 33 -40 40 -57 16 -34 33
-64 49 -82 6 -6 24 -28 40 -49 17 -21 38 -45 49 -54 10 -9 24 -22 30 -29 31
-36 66 -66 111 -96 28 -19 59 -43 69 -55 11 -12 27 -21 37 -21 10 0 23 -8 28
-19 6 -10 25 -22 43 -26 22 -5 27 -9 16 -12 -10 -2 -18 -13 -18 -23 0 -23 -19
-30 -110 -37 -72 -5 -77 -4 -125 26 -28 17 -59 37 -70 43 -22 14 -179 172
-238 239 -21 23 -35 49 -33 56 3 7 2 13 -3 13 -15 0 -80 144 -90 200 -13 74
-18 240 -7 240 2 0 11 -3 20 -6z m-5360 -177 c-15 -29 -30 -53 -35 -55 -5 -2
-9 -11 -9 -19 0 -9 -3 -13 -6 -10 -8 8 12 59 41 107 12 19 20 44 18 55 -2 16
-1 16 7 -3 8 -18 4 -34 -16 -75z m423 51 c-3 -8 -6 -5 -6 6 -1 11 2 17 5 13 3
-3 4 -12 1 -19z m1858 -38 c3 -5 -1 -10 -9 -10 -9 0 -16 5 -16 10 0 6 4 10 9
10 6 0 13 -4 16 -10z m-2338 -144 c-15 -31 -20 -27 -11 8 3 14 10 24 14 21 5
-3 3 -16 -3 -29z m-24 -51 c-3 -9 -8 -14 -10 -11 -3 3 -2 9 2 15 9 16 15 13 8
-4z m45 -5 c-7 -10 -14 -18 -15 -16 -6 6 9 36 18 36 5 0 4 -9 -3 -20z m2448 8
c5 -8 2 -9 -9 -5 -11 4 -17 1 -17 -7 0 -7 -12 -13 -29 -13 -19 0 -27 5 -24 13
8 22 67 31 79 12z m-2475 -75 c-12 -20 -14 -14 -5 12 4 9 9 14 11 11 3 -2 0
-13 -6 -23z m2384 2 c-24 -11 -26 -14 -10 -15 11 -1 15 -4 7 -7 -7 -3 -18 0
-25 6 -7 5 -22 8 -34 5 -11 -3 -23 -2 -26 4 -4 5 12 9 35 10 23 1 44 4 46 7 3
3 12 5 21 4 9 0 3 -7 -14 -14z m-105 -15 c0 -5 -5 -10 -11 -10 -5 0 -7 5 -4
10 3 6 8 10 11 10 2 0 4 -4 4 -10z m-1839 -102 c-7 -54 -16 -27 -12 34 4 53 6
58 10 28 4 -19 5 -47 2 -62z m482 51 c34 -11 66 -25 72 -30 5 -5 17 -9 27 -9
15 0 14 -3 -6 -25 -13 -14 -28 -25 -34 -25 -6 0 -36 -12 -66 -26 -49 -23 -59
-25 -90 -14 -30 10 -36 17 -41 48 -3 20 -8 48 -11 60 -3 13 -1 21 5 18 5 -3
11 1 15 9 8 21 55 19 129 -6z m1407 -44 c1 15 3 16 7 5 3 -8 11 -19 17 -23 7
-6 4 -7 -6 -3 -10 3 -18 2 -18 -2 0 -4 -9 -8 -20 -8 -11 0 -20 4 -20 8 0 4 5
8 10 8 6 0 10 8 11 18 0 14 2 14 9 -3 l9 -20 1 20z m-60 -27 c0 -15 -5 -18
-16 -14 -10 4 -22 -1 -29 -11 -10 -14 -16 -15 -28 -5 -12 10 -16 9 -20 -9 -5
-19 -8 -20 -21 -9 -16 12 -17 11 -20 -12 -2 -18 -26 -22 -26 -3 0 13 -2 14
-14 3 -8 -7 -10 -15 -5 -16 5 -2 7 -8 4 -12 -3 -5 -12 -6 -21 -3 -13 5 -11 9
7 29 12 13 28 24 36 24 7 0 13 5 13 10 0 6 8 10 18 8 9 -2 16 2 15 7 -1 6 10
16 24 22 20 10 23 10 13 -2 -7 -8 -7 -15 -1 -19 5 -4 13 3 16 15 7 20 7 20 27
2 21 -18 21 -18 9 4 -10 19 -9 22 4 17 8 -4 15 -15 15 -26z m-1836 -70 c-7
-56 -14 -62 -14 -11 0 34 6 53 16 53 2 0 1 -19 -2 -42z m73 0 c-3 -7 -5 -2 -5
12 0 14 2 19 5 13 2 -7 2 -19 0 -25z m571 -10 c5 -24 -10 -23 -39 2 l-24 20
30 -2 c19 -2 31 -9 33 -20z m-590 -50 c-1 -35 -3 -54 -5 -43 -2 11 -9 31 -16
44 -9 19 -9 25 1 28 6 3 12 11 12 19 0 8 2 14 4 14 3 0 4 -28 4 -62z m521 48
c9 -11 8 -15 -5 -20 -9 -3 -20 -4 -25 0 -5 3 -9 0 -9 -6 0 -7 -6 -7 -22 1
l-21 12 24 13 c31 17 44 17 58 0z m1274 -15 c30 4 47 -2 47 -15 0 -13 -4 -13
-34 -1 -43 18 -50 9 -36 -44 12 -47 60 -101 89 -101 12 0 21 -5 21 -11 0 -5 5
-7 10 -4 6 3 10 1 10 -5 0 -7 -6 -10 -14 -7 -8 3 -17 3 -21 -1 -4 -4 -46 -8
-93 -8 -48 -1 -95 -2 -105 -3 -21 -1 -18 -26 3 -26 7 0 15 -5 17 -12 3 -8 -4
-11 -19 -8 -13 3 -24 9 -26 15 -5 15 -32 12 -32 -4 0 -8 -5 -18 -10 -21 -6 -4
-10 -3 -9 2 1 4 1 15 0 23 -1 12 -3 12 -11 -2 -18 -30 -2 -43 55 -46 30 -2 66
-9 81 -17 15 -7 32 -11 39 -9 7 3 16 1 20 -5 3 -6 -1 -11 -11 -11 -29 0 -10
-10 50 -25 94 -25 324 -18 352 9 10 10 23 14 33 10 9 -3 22 -7 29 -7 6 0 12
-9 12 -19 0 -22 16 -24 24 -2 5 14 7 14 22 -1 9 -8 14 -24 11 -35 -3 -10 -2
-20 2 -22 5 -2 11 -18 14 -36 4 -22 3 -31 -4 -27 -14 9 -40 -15 -31 -29 4 -6
7 -33 7 -59 0 -47 0 -48 -16 -28 -22 27 -29 26 -29 -1 0 -19 -2 -20 -11 -8 -8
12 -9 8 -5 -15 3 -16 3 -24 0 -17 -3 6 -9 12 -14 12 -12 0 -19 -39 -7 -43 5
-1 -6 -20 -26 -40 -41 -40 -47 -53 -18 -37 30 15 38 12 14 -5 -15 -10 -20 -21
-16 -33 6 -14 4 -15 -9 -4 -12 9 -18 10 -23 2 -4 -6 -5 -14 -1 -17 7 -7 -22
-35 -31 -30 -5 3 -9 -6 -9 -19 -1 -13 2 -24 6 -24 5 0 8 -9 7 -20 -1 -10 -3
-17 -6 -15 -6 7 -31 -16 -31 -29 0 -6 5 -4 10 4 5 8 10 10 10 4 0 -22 -75
-104 -95 -104 -12 0 -16 -3 -9 -8 16 -10 -2 -56 -17 -46 -9 5 -10 -1 -5 -20 5
-20 3 -26 -9 -26 -9 0 -13 5 -10 10 3 6 1 10 -4 10 -6 0 -11 -9 -11 -20 0 -11
-7 -20 -15 -20 -8 0 -15 -7 -15 -15 0 -8 -5 -15 -12 -15 -9 0 -9 -3 0 -12 17
-17 15 -28 -7 -28 -28 0 -36 -18 -10 -22 19 -3 17 -5 -10 -15 -26 -10 -34 -8
-56 9 -19 15 -24 16 -19 4 3 -9 10 -16 15 -16 5 0 9 -5 9 -11 0 -6 -7 -8 -16
-5 -9 3 -25 -1 -37 -9 -30 -21 -47 -19 -47 8 l0 22 -21 -25 c-11 -14 -18 -19
-14 -12 3 6 1 12 -4 12 -6 0 -11 7 -11 15 0 8 -4 15 -10 15 -5 0 -10 7 -10 15
0 8 -5 24 -12 35 -12 18 -13 18 -24 -8 -12 -26 -12 -26 -10 12 2 22 8 42 14
44 7 2 12 8 12 14 0 5 -9 7 -20 3 -15 -5 -18 -3 -14 9 3 9 10 14 14 11 17 -11
24 75 7 91 -4 4 -2 13 3 19 7 8 7 21 1 38 -7 16 -6 28 2 36 8 8 8 11 -2 11 -8
0 -11 6 -7 15 3 8 0 14 -5 12 -10 -2 -21 37 -20 76 0 9 -3 16 -7 13 -4 -2 -8
10 -8 26 -1 30 -1 30 11 8 12 -22 12 -22 11 8 0 16 -5 28 -10 24 -5 -3 -7 8
-3 25 4 20 0 38 -10 53 -15 22 -15 22 8 10 23 -13 23 -12 7 7 -10 10 -23 42
-29 71 -7 28 -15 50 -18 48 -3 -2 -6 23 -7 56 0 33 -5 63 -11 66 -12 8 -53
120 -53 145 0 10 -8 17 -19 17 -25 0 -31 28 -19 84 7 31 13 43 23 40 8 -3 11
-13 8 -22 -7 -19 30 19 55 56 25 38 25 17 0 -25 -13 -21 -25 -49 -26 -62 0
-13 -9 -32 -18 -42 -27 -30 -7 -22 27 11 26 24 38 29 66 25 18 -2 37 -6 41 -9
5 -3 20 1 35 9 15 8 27 10 27 5 0 -5 7 -7 16 -3 12 4 8 10 -15 24 -27 16 -29
21 -21 54 9 40 25 63 55 77 11 5 36 18 55 29 30 16 35 17 38 4 2 -9 9 -15 15
-14z m-1836 -63 c-2 -13 -4 -5 -4 17 -1 22 1 32 4 23 2 -10 2 -28 0 -40z m478
42 c3 -5 2 -10 -4 -10 -5 0 -13 5 -16 10 -3 6 -2 10 4 10 5 0 13 -4 16 -10z
m-508 -32 c-3 -8 -6 -5 -6 6 -1 11 2 17 5 13 3 -3 4 -12 1 -19z m463 2 c0 -5
-2 -10 -4 -10 -3 0 -8 5 -11 10 -3 6 -1 10 4 10 6 0 11 -4 11 -10z m168 -48
c-1 -29 7 -51 31 -85 33 -49 39 -51 107 -48 23 2 45 -2 49 -8 6 -10 -9 -15
-42 -14 -7 1 -13 -2 -13 -6 0 -4 -18 -5 -40 -3 -29 3 -40 0 -40 -9 0 -11 -2
-11 -8 -1 -9 13 -42 6 -42 -9 0 -5 -4 -9 -10 -9 -5 0 -7 6 -5 13 4 8 -8 12
-38 13 -24 1 -53 6 -63 12 -15 9 -11 10 21 5 39 -5 39 -5 18 11 -41 30 -50
126 -12 126 5 0 22 11 37 25 38 36 52 32 50 -13z m46 13 c-4 -8 -8 -15 -10
-15 -2 0 -4 7 -4 15 0 8 4 15 10 15 5 0 7 -7 4 -15z m-647 -107 c-2 -18 -4 -4
-4 32 0 36 2 50 4 33 2 -18 2 -48 0 -65z m-50 50 c-3 -7 -5 -2 -5 12 0 14 2
19 5 13 2 -7 2 -19 0 -25z m1678 12 c3 -5 1 -10 -4 -10 -6 0 -11 5 -11 10 0 6
2 10 4 10 3 0 8 -4 11 -10z m-1577 -107 c-4 -59 -12 -139 -18 -178 -5 -38 -12
-88 -15 -110 -3 -22 -14 -71 -26 -110 -11 -38 -22 -77 -24 -85 -1 -8 -5 -22
-8 -30 -3 -8 -29 -78 -57 -154 -28 -77 -58 -149 -66 -160 -19 -28 -18 -16 6
38 11 27 15 48 9 51 -5 4 -7 11 -3 16 3 5 10 6 16 3 6 -4 8 2 3 17 -4 16 -3
20 3 10 7 -10 13 -2 25 30 27 78 28 85 4 35 -18 -37 -25 -45 -30 -33 -3 10 -3
17 2 17 4 0 14 19 21 43 7 23 20 48 28 54 9 7 13 16 9 19 -3 4 3 24 14 46 11
22 18 45 15 51 -2 7 -5 4 -5 -5 -1 -9 -5 -19 -10 -23 -6 -3 4 32 20 77 35 94
54 194 69 353 10 104 15 135 22 135 2 0 0 -48 -4 -107z m877 47 c-3 -5 -10
-10 -16 -10 -5 0 -9 5 -9 10 0 6 7 10 16 10 8 0 12 -4 9 -10z m-988 -22 c-3
-8 -6 -5 -6 6 -1 11 2 17 5 13 3 -3 4 -12 1 -19z m1833 -50 c0 -6 -6 -5 -15 2
-8 7 -15 14 -15 16 0 2 7 1 15 -2 8 -4 15 -11 15 -16z m-90 8 c0 -3 -4 -8 -10
-11 -5 -3 -10 -1 -10 4 0 6 5 11 10 11 6 0 10 -2 10 -4z m-1740 -81 c-7 -25
-15 -43 -18 -41 -3 3 1 26 8 51 7 25 15 43 18 41 3 -3 -1 -26 -8 -51z m-204
-12 c-9 -26 -26 -64 -37 -83 -24 -42 -23 -37 16 62 33 83 47 98 21 21z m-442
-58 c-53 -107 -61 -103 -11 6 23 50 43 86 45 80 2 -6 -13 -44 -34 -86z m1402
63 c5 -7 2 -9 -8 -5 -9 3 -25 -1 -37 -10 -27 -18 -77 -33 -86 -25 -3 3 20 16
52 28 71 27 70 27 79 12z m-16 -32 c0 -3 -4 -8 -10 -11 -5 -3 -10 -1 -10 4 0
6 5 11 10 11 6 0 10 -2 10 -4z m-683 -38 c-3 -8 -6 -5 -6 6 -1 11 2 17 5 13 3
-3 4 -12 1 -19z m-10 -40 c-3 -8 -6 -5 -6 6 -1 11 2 17 5 13 3 -3 4 -12 1 -19z
m-71 -114 c-19 -60 -40 -122 -47 -139 -7 -16 -12 -33 -11 -37 1 -5 -2 -8 -8
-8 -5 0 -6 -7 -3 -17 5 -12 3 -14 -7 -8 -9 5 -11 4 -6 -3 9 -15 -69 -182 -84
-182 -6 0 -8 -5 -4 -12 4 -6 3 -8 -4 -5 -5 4 -8 16 -5 27 3 11 8 18 12 15 6
-3 61 96 61 111 0 2 -13 -10 -28 -28 -25 -29 -183 -321 -182 -337 0 -3 7 3 15
13 8 11 15 16 15 10 0 -5 -9 -20 -20 -34 -17 -20 -19 -21 -14 -5 16 47 -26
-13 -76 -110 -28 -55 -56 -104 -61 -110 -15 -15 67 160 95 203 13 20 61 107
106 192 45 85 100 181 122 214 44 64 89 165 133 295 41 121 42 85 1 -45z m51
49 c-8 -15 -24 -59 -37 -96 -12 -38 -24 -67 -26 -64 -2 2 9 41 25 88 39 112
44 125 48 112 3 -7 -2 -24 -10 -40z m2383 17 c0 -5 -2 -10 -4 -10 -3 0 -8 5
-11 10 -3 6 -1 10 4 10 6 0 11 -4 11 -10z m-2737 -239 c-21 -38 -39 -68 -41
-66 -5 5 67 135 74 135 3 0 -12 -31 -33 -69z m384 37 c-3 -8 -6 -5 -6 6 -1 11
2 17 5 13 3 -3 4 -12 1 -19z m-220 -50 c-3 -8 -6 -5 -6 6 -1 11 2 17 5 13 3
-3 4 -12 1 -19z m168 -148 c-15 -39 -29 -70 -31 -68 -2 2 9 36 24 75 15 39 29
69 31 67 2 -2 -8 -36 -24 -74z m-129 -82 c-9 -12 -16 -19 -16 -15 0 11 24 47
28 42 2 -2 -3 -14 -12 -27z m-596 -38 c-12 -23 -23 -40 -25 -38 -7 6 7 48 15
48 4 0 11 12 15 28 4 15 9 22 12 15 2 -6 -5 -30 -17 -53z m501 9 c-12 -11 -21
-26 -21 -33 0 -8 -7 -19 -14 -26 -9 -7 -5 9 10 40 14 29 29 48 35 44 7 -4 3
-13 -10 -25z m153 -58 c-15 -34 -28 -60 -30 -58 -2 2 8 31 23 65 15 33 29 59
31 57 2 -2 -9 -31 -24 -64z m2236 45 c0 -2 -7 -6 -15 -10 -8 -3 -15 -1 -15 4
0 6 7 10 15 10 8 0 15 -2 15 -4z m-2332 -41 c-6 -14 -13 -23 -15 -21 -5 5 15
46 22 46 3 0 -1 -11 -7 -25z m-597 -32 c-12 -20 -14 -14 -5 12 4 9 9 14 11 11
3 -2 0 -13 -6 -23z m480 -16 c-10 -9 -11 -8 -5 6 3 10 9 15 12 12 3 -3 0 -11
-7 -18z m-525 -33 c-4 -9 -9 -15 -11 -12 -3 3 -3 13 1 22 4 9 9 15 11 12 3 -3
3 -13 -1 -22z m673 -46 c-18 -35 -72 -118 -76 -118 -4 0 38 77 71 132 15 25
20 14 5 -14z m-96 -13 c-9 -19 -18 -33 -21 -31 -4 5 26 66 33 66 3 0 -3 -16
-12 -35z m2257 31 c0 -3 -4 -8 -10 -11 -5 -3 -10 -1 -10 4 0 6 5 11 10 11 6 0
10 -2 10 -4z m-373 -58 c-3 -8 -6 -5 -6 6 -1 11 2 17 5 13 3 -3 4 -12 1 -19z
m63 7 c0 -8 -2 -15 -4 -15 -2 0 -6 7 -10 15 -3 8 -1 15 4 15 6 0 10 -7 10 -15z
m-2199 -22 c-12 -20 -14 -14 -5 12 4 9 9 14 11 11 3 -2 0 -13 -6 -23z m-311
-4 c0 -5 -4 -9 -10 -9 -5 0 -10 7 -10 16 0 8 5 12 10 9 6 -3 10 -10 10 -16z
m370 1 c-6 -11 -13 -20 -16 -20 -2 0 0 9 6 20 6 11 13 20 16 20 2 0 0 -9 -6
-20z m63 -9 c-5 -3 -13 -15 -16 -25 -4 -10 -10 -16 -13 -13 -3 3 2 20 12 37
10 17 20 26 23 19 2 -6 -1 -14 -6 -18z m2084 -23 c-3 -8 -6 -5 -6 6 -1 11 2
17 5 13 3 -3 4 -12 1 -19z m-2544 -28 c-5 -20 -23 -38 -23 -23 1 22 13 52 20
48 5 -3 6 -14 3 -25z m2737 11 c0 -10 -67 -31 -74 -23 -13 12 -5 20 18 18 14
-2 27 3 30 11 6 14 26 9 26 -6z m-417 -33 c-1 -24 -2 -51 -2 -60 -1 -22 -21
-24 -21 -3 0 8 -5 15 -11 15 -6 0 -9 -7 -6 -15 4 -8 2 -17 -2 -20 -5 -3 -12 3
-15 12 -8 19 20 47 36 37 5 -3 6 6 2 20 -4 16 -1 32 6 41 7 8 13 15 14 15 0 0
0 -19 -1 -42z m20 2 c3 -11 1 -20 -4 -20 -5 0 -9 9 -9 20 0 11 2 20 4 20 2 0
6 -9 9 -20z m47 -20 c0 -11 -4 -20 -10 -20 -5 0 -10 9 -10 20 0 11 5 20 10 20
6 0 10 -9 10 -20z m35 -19 c-3 -6 -11 -11 -16 -11 -5 0 -4 6 3 14 14 16 24 13
13 -3z m-43 -51 c9 -22 12 -40 7 -40 -5 0 -9 6 -9 14 0 8 -9 22 -21 30 -12 8
-18 19 -14 25 11 19 19 12 37 -29z m15 8 c-3 -8 -6 -5 -6 6 -1 11 2 17 5 13 3
-3 4 -12 1 -19z m-33 -34 c3 -8 2 -12 -4 -9 -6 3 -10 10 -10 16 0 14 7 11 14
-7z m-2024 2 c0 -3 -4 -8 -10 -11 -5 -3 -10 -1 -10 4 0 6 5 11 10 11 6 0 10
-2 10 -4z m-49 -93 c-12 -20 -14 -14 -5 12 4 9 9 14 11 11 3 -2 0 -13 -6 -23z
m2634 -3 c10 0 11 -9 5 -37 -6 -24 -5 -42 2 -51 8 -9 8 -16 0 -24 -17 -17 -15
-28 6 -28 13 0 14 -2 3 -9 -8 -5 -10 -14 -6 -21 4 -7 2 -16 -6 -20 -10 -7 -10
-12 2 -26 12 -16 12 -17 -3 -11 -10 3 -18 2 -18 -3 0 -6 6 -10 14 -10 8 0 18
-5 22 -12 5 -8 0 -9 -14 -6 -12 4 -22 2 -22 -3 0 -5 8 -9 17 -9 12 0 14 -3 6
-11 -16 -16 -33 -2 -33 27 0 13 -4 24 -8 24 -5 0 -15 18 -22 40 -14 42 -35 53
-44 23 -6 -23 0 66 7 92 3 11 6 29 7 40 1 11 4 14 7 8 7 -18 21 -16 26 5 3 9
5 -1 6 -23 2 -55 20 -26 22 35 1 25 3 37 6 28 2 -10 10 -18 18 -18z m-599
-142 c5 -7 2 -9 -9 -5 -9 3 -18 1 -21 -6 -2 -7 -5 -4 -5 6 -1 19 24 23 35 5z
m614 -197 c0 -5 -9 -11 -21 -14 -16 -4 -18 -3 -8 9 13 16 29 19 29 5z m-550
-395 c0 -3 -4 -8 -10 -11 -5 -3 -10 -1 -10 4 0 6 5 11 10 11 6 0 10 -2 10 -4z
m-2118 -58 c-6 -6 -7 0 -4 19 5 21 7 23 10 9 2 -10 0 -22 -6 -28z m858 -4 c7
-13 10 -27 7 -30 -8 -8 -46 36 -47 53 0 19 26 5 40 -23z m1000 -14 c0 -5 -7
-10 -16 -10 -8 0 -12 5 -9 10 3 6 10 10 16 10 5 0 9 -4 9 -10z m-1856 -50 c7
-24 6 -24 -8 -6 -9 11 -16 29 -16 40 1 17 2 18 9 6 5 -8 12 -26 15 -40z m666
-113 c0 -5 5 -5 11 -1 7 4 7 -2 -1 -17 -10 -20 -10 -22 1 -12 10 10 16 2 31
-40 11 -31 17 -64 13 -84 -3 -17 -1 -34 5 -38 5 -3 10 -11 10 -16 0 -6 -5 -7
-12 -3 -8 5 -9 0 -4 -17 4 -13 10 -71 13 -128 5 -92 3 -108 -16 -146 -12 -24
-28 -48 -36 -55 -8 -7 -15 -18 -15 -24 0 -6 -10 -22 -21 -36 -13 -16 -19 -19
-15 -7 18 54 18 53 1 32 -9 -12 -14 -29 -10 -42 4 -16 0 -23 -16 -28 -15 -5
-18 -9 -9 -15 15 -9 -21 -50 -45 -50 -8 0 -15 -4 -15 -10 0 -5 -10 -14 -22
-20 -13 -6 0 10 27 36 29 27 41 44 30 40 -19 -6 -19 -5 -2 8 19 15 23 50 5 44
-7 -3 -14 -9 -14 -14 -5 -33 -20 -53 -58 -77 -24 -15 -46 -27 -50 -27 -3 0
-25 -12 -48 -26 -22 -14 -59 -32 -82 -40 -32 -11 -34 -13 -11 -10 16 2 38 -1
49 -6 17 -9 14 -13 -26 -28 -26 -10 -59 -20 -75 -23 l-28 -6 30 14 c24 11 26
14 10 15 -17 0 -17 2 -5 10 11 7 5 8 -20 4 -19 -3 -41 -8 -48 -10 -7 -2 -10 1
-7 6 3 6 14 10 23 10 20 1 62 30 43 30 -7 0 -9 5 -6 11 4 6 1 10 -6 8 -8 -1
-29 -1 -48 0 -53 2 -26 15 34 17 35 1 60 7 70 18 19 18 50 22 39 5 -4 -7 -2
-10 5 -8 7 3 12 9 12 14 0 13 39 28 66 26 13 -1 29 4 36 11 18 18 39 96 31
110 -10 15 -25 -27 -18 -47 4 -8 1 -15 -6 -15 -7 0 -10 -6 -7 -14 3 -8 -4 -18
-18 -24 l-22 -10 17 46 c10 26 21 74 25 107 6 57 5 59 -10 40 -16 -20 -17 -20
-13 5 2 17 8 24 20 22 15 -2 16 1 8 24 -6 15 -8 34 -5 42 3 8 1 20 -5 27 -6 7
-10 17 -8 21 1 5 -1 25 -6 44 l-7 35 -26 -50 c-27 -54 -51 -85 -65 -85 -5 0 3
19 16 43 60 102 62 110 26 192 -10 22 -23 55 -30 73 -7 17 -16 32 -21 32 -5 0
-9 5 -9 12 0 6 9 3 20 -7 11 -10 20 -24 20 -31 0 -7 9 -16 20 -19 12 -4 32
-24 47 -46 14 -21 27 -39 28 -39 2 0 -2 14 -8 32 -9 24 -9 32 0 35 10 4 10 10
2 25 -6 11 -8 22 -5 26 3 3 6 0 6 -6 0 -7 3 -11 8 -9 4 1 8 -2 9 -6 1 -5 13
-23 27 -42 14 -18 26 -40 27 -47 0 -9 2 -9 5 -1 3 6 -6 40 -19 75 -40 102 -44
119 -15 78 29 -42 58 -103 63 -132 3 -12 11 -28 19 -37 13 -12 14 -12 9 7 -3
12 -10 22 -16 22 -8 0 -8 3 0 11 8 8 8 20 2 36 -6 16 -5 22 1 18 6 -3 10 -13
10 -21 0 -8 5 -14 10 -14 13 0 13 -3 -10 65 -27 77 -17 83 15 9 46 -106 44
-103 43 -59 0 22 2 56 5 75 2 19 -1 51 -8 70 -6 19 -15 49 -19 65 -6 28 -5 28
19 -10 14 -22 25 -44 25 -48z m-636 51 c10 -39 7 -44 -9 -14 -17 33 -18 36 -6
36 5 0 11 -10 15 -22z m1155 -118 c11 -36 20 -76 19 -90 0 -14 3 -59 7 -101 5
-46 4 -83 -2 -94 -7 -12 -10 7 -12 70 0 50 -7 101 -16 122 -8 19 -15 43 -14
52 0 9 7 0 14 -19 23 -61 16 -7 -9 66 -39 113 -39 111 -22 84 8 -14 24 -54 35
-90z m-1089 69 c0 -5 -4 -9 -10 -9 -5 0 -10 7 -10 16 0 8 5 12 10 9 6 -3 10
-10 10 -16z m190 -44 c7 -9 8 -15 2 -15 -5 0 -12 7 -16 15 -3 8 -4 15 -2 15 2
0 9 -7 16 -15z m35 -61 c18 -43 19 -52 5 -38 -11 11 -32 74 -24 74 2 0 11 -16
19 -36z m325 29 c0 -5 -5 -15 -10 -23 -8 -12 -10 -11 -10 8 0 12 5 22 10 22 6
0 10 -3 10 -7z m-580 -18 c0 -8 -4 -15 -10 -15 -5 0 -7 7 -4 15 4 8 8 15 10
15 2 0 4 -7 4 -15z m-63 -67 c-3 -7 -5 -2 -5 12 0 14 2 19 5 13 2 -7 2 -19 0
-25z m336 -38 c3 -11 1 -18 -4 -14 -5 3 -9 12 -9 20 0 20 7 17 13 -6z m434
-12 c-3 -8 -6 -5 -6 6 -1 11 2 17 5 13 3 -3 4 -12 1 -19z m-401 -24 c-4 -9 -9
-15 -11 -12 -3 3 -3 13 1 22 4 9 9 15 11 12 3 -3 3 -13 -1 -22z m6424 -73 c0
-22 -6 -44 -15 -51 -8 -7 -12 -16 -9 -22 3 -5 2 -42 -1 -83 -6 -57 -11 -75
-22 -75 -13 0 -14 12 -8 78 5 42 7 89 6 105 -2 30 24 87 39 87 6 0 10 -17 10
-39z m-4285 -111 c-3 -5 -13 -10 -21 -10 -8 0 -12 5 -9 10 3 6 13 10 21 10 8
0 12 -4 9 -10z m4372 -72 c-3 -7 -5 -2 -5 12 0 14 2 19 5 13 2 -7 2 -19 0 -25z
m-3797 -33 c0 -8 -4 -15 -10 -15 -5 0 -7 7 -4 15 4 8 8 15 10 15 2 0 4 -7 4
-15z m-873 -29 c-8 -19 -37 -21 -37 -3 0 7 5 18 12 25 15 15 33 -1 25 -22z
m-1507 -31 c-7 -9 -15 -13 -18 -10 -3 2 1 11 8 20 7 9 15 13 18 10 3 -2 -1
-11 -8 -20z m6065 5 c0 -9 -9 -15 -25 -15 -14 0 -28 -4 -32 -10 -5 -6 -8 -4
-8 6 0 8 6 21 12 27 17 17 53 11 53 -8z m-2716 -6 c2 -2 -12 -4 -32 -4 -20 0
-38 4 -42 9 -5 9 64 4 74 -5z m-1694 -3 c3 -5 1 -12 -5 -16 -5 -3 -10 1 -10 9
0 18 6 21 15 7z m1089 -26 c3 -8 1 -15 -4 -15 -6 0 -10 7 -10 15 0 8 2 15 4
15 2 0 6 -7 10 -15z m3346 -15 c0 -5 -7 -10 -15 -10 -17 0 -19 -11 -16 -95 1
-33 -5 -84 -13 -114 -7 -30 -12 -61 -9 -68 3 -7 1 -19 -5 -26 -5 -6 -13 -27
-17 -44 -3 -18 -10 -33 -15 -33 -4 0 -11 -18 -15 -40 -4 -22 -11 -40 -16 -40
-5 0 -9 -7 -9 -16 0 -12 -3 -14 -13 -6 -17 14 -23 217 -7 227 8 5 8 11 -1 21
-9 11 -9 17 1 29 6 8 9 19 5 25 -3 5 -3 16 1 22 5 7 9 19 10 28 5 48 25 105
38 112 9 5 16 16 16 23 0 11 12 15 40 15 22 0 40 -4 40 -10z m-3251 -122 c-25
-21 -42 -15 -59 20 -7 15 -17 35 -22 45 -5 10 -6 27 -3 38 6 18 12 15 55 -33
48 -52 49 -53 29 -70z m141 118 c0 -3 -4 -8 -10 -11 -5 -3 -10 -1 -10 4 0 6 5
11 10 11 6 0 10 -2 10 -4z m599 -45 c18 -28 51 -61 79 -78 41 -25 54 -42 90
-115 23 -47 56 -103 73 -124 17 -21 44 -65 60 -97 16 -32 48 -82 72 -110 24
-29 82 -129 130 -223 90 -178 107 -235 107 -352 0 -50 2 -54 33 -67 38 -16 70
-49 85 -90 11 -29 55 -231 93 -429 10 -54 20 -105 21 -112 2 -7 -1 -14 -7 -15
-10 -2 -20 13 -29 44 -3 9 -15 17 -26 17 -20 0 -29 12 -34 43 -1 8 -7 21 -14
29 -6 8 -19 53 -28 99 -8 46 -22 106 -29 132 -12 40 -29 144 -39 232 -1 11 -9
31 -18 45 -8 14 -21 67 -28 119 -14 110 -23 136 -80 251 -24 47 -59 117 -78
155 -19 39 -52 89 -74 113 -22 24 -49 65 -60 90 -11 26 -40 74 -63 107 -23 33
-61 96 -83 140 -34 64 -51 86 -87 109 -49 30 -131 136 -107 136 6 0 24 -22 41
-49z m-4079 -78 c0 -18 -3 -17 -30 12 l-23 25 26 -13 c15 -6 27 -18 27 -24z
m85 27 c15 -6 7 -9 -30 -8 -39 0 -45 2 -25 8 32 10 31 10 55 0z m-275 -15 c11
-13 10 -14 -4 -9 -9 3 -16 10 -16 15 0 13 6 11 20 -6z m599 2 c-2 -1 -13 -9
-24 -17 -19 -14 -19 -14 -6 3 7 9 18 17 24 17 6 0 8 -1 6 -3z m-134 -34 c-1
-10 -8 -17 -13 -16 -6 2 -24 -2 -39 -8 -20 -7 -24 -12 -14 -18 10 -6 9 -10 -4
-14 -10 -4 -14 -3 -9 4 4 8 -1 9 -15 4 -12 -4 -21 -2 -21 4 0 6 6 11 13 11 6
0 32 11 57 25 25 13 46 24 47 24 1 1 0 -7 -2 -16z m505 12 c0 -2 -10 -9 -22
-15 -22 -11 -22 -10 -4 4 21 17 26 19 26 11z m-427 -20 c-3 -9 -8 -14 -10 -11
-3 3 -2 9 2 15 9 16 15 13 8 -4z m67 11 c0 -11 -19 -15 -25 -6 -3 5 1 10 9 10
9 0 16 -2 16 -4z m400 -11 c-7 -8 -17 -15 -23 -15 -6 0 -2 7 9 15 25 19 30 19
14 0z m-1074 -6 c24 -6 44 -15 44 -20 0 -13 -17 -11 -53 5 -18 8 -39 17 -47
19 -29 10 11 7 56 -4z m201 5 c-3 -3 -12 -4 -19 -1 -8 3 -5 6 6 6 11 1 17 -2
13 -5z m413 -34 c-19 -17 -42 -30 -51 -30 -10 0 -19 -3 -21 -7 -1 -5 -23 -19
-48 -32 -25 -13 -66 -37 -92 -53 -26 -17 -83 -43 -125 -60 -43 -16 -100 -39
-128 -50 -126 -51 -122 -50 -150 -24 l-25 23 -47 -23 c-30 -16 -62 -24 -92
-23 l-46 1 41 8 c44 9 83 26 153 66 51 29 168 49 188 32 9 -7 17 -7 26 0 6 5
28 13 47 17 19 4 48 18 65 30 41 30 120 65 147 65 13 0 30 5 38 10 11 8 7 9
-15 4 -23 -4 -27 -3 -15 5 8 6 27 8 43 5 16 -3 27 -1 27 5 0 6 -6 11 -12 11
-7 0 1 9 17 20 39 26 54 26 24 0 -33 -27 -12 -24 36 5 53 33 58 31 15 -5z
m-533 14 c-3 -3 -12 -4 -19 -1 -8 3 -5 6 6 6 11 1 17 -2 13 -5z m193 -16 c0
-11 -161 -14 -171 -2 -6 7 20 10 81 10 50 -1 90 -4 90 -8z m-370 -28 c13 -9
13 -10 0 -10 -8 0 -22 5 -30 10 -13 9 -13 10 0 10 8 0 22 -5 30 -10z m1050 5
c0 -6 -56 -35 -67 -35 -4 1 8 9 27 20 39 22 40 22 40 15z m-1023 -50 c1 -5
-16 -10 -39 -11 -38 -1 -40 0 -22 13 21 15 55 14 61 -2z m43 -5 c0 -5 -4 -10
-9 -10 -6 0 -13 5 -16 10 -3 6 1 10 9 10 9 0 16 -4 16 -10z m570 -2 c-14 -6
-43 -20 -65 -31 -22 -10 -51 -24 -65 -29 -25 -9 -25 -9 -5 10 11 11 47 29 80
40 63 22 97 28 55 10z m-625 -39 c4 -5 19 -8 33 -6 15 2 21 2 15 0 -7 -3 -13
-9 -13 -14 0 -6 5 -7 12 -3 16 10 86 6 106 -6 15 -8 14 -9 -6 -10 -12 0 -39
-7 -60 -16 -40 -17 -156 -29 -131 -13 8 5 29 9 47 9 17 0 32 5 32 10 0 6 -7
10 -15 10 -8 0 -15 5 -15 11 0 7 -8 18 -17 25 -10 7 -13 14 -6 14 6 0 15 -5
18 -11z m235 -9 c0 -5 -5 -10 -11 -10 -5 0 -7 5 -4 10 3 6 8 10 11 10 2 0 4
-4 4 -10z m385 0 c-3 -5 -12 -10 -18 -10 -7 0 -6 4 3 10 19 12 23 12 15 0z
m-62 -41 c-18 -12 -30 -26 -26 -32 3 -5 1 -7 -5 -3 -5 3 -12 1 -14 -5 -2 -6
-26 -19 -53 -28 -28 -10 -59 -21 -70 -26 l-20 -8 20 17 c17 14 15 14 -16 -1
-20 -10 -36 -20 -34 -23 2 -3 -8 -6 -21 -7 -13 -1 -30 -3 -36 -3 -7 -1 -24 2
-38 5 -19 5 -21 4 -10 -4 8 -5 11 -13 7 -17 -4 -4 -13 -2 -20 5 -9 9 -4 18 22
39 42 32 68 44 76 33 5 -9 -23 -26 -38 -22 -5 1 -6 -3 -2 -9 3 -5 0 -10 -7
-11 -10 0 -10 -2 -1 -6 7 -2 45 12 85 32 40 21 82 38 93 40 45 6 75 18 68 28
-3 6 -1 7 5 3 6 -3 17 0 24 8 7 9 20 15 28 15 8 1 0 -9 -17 -20z m-197 -44
c-11 -8 -22 -12 -25 -9 -6 6 19 24 34 24 6 -1 1 -7 -9 -15z m4284 -5 c0 -5 -5
-10 -11 -10 -5 0 -7 5 -4 10 3 6 8 10 11 10 2 0 4 -4 4 -10z m-4070 -10 c0 -5
-10 -10 -22 -9 -22 0 -22 1 -3 9 11 5 21 9 23 9 1 1 2 -3 2 -9z m38 -20 c-7
-11 -16 -20 -20 -20 -5 0 -3 9 4 20 7 11 16 20 20 20 5 0 3 -9 -4 -20z m4012
-1 c0 -6 -4 -7 -10 -4 -5 3 -10 11 -10 16 0 6 5 7 10 4 6 -3 10 -11 10 -16z
m-4405 -9 c-19 -18 -201 -90 -228 -90 -19 0 34 25 111 53 39 14 84 32 99 40
38 20 40 20 18 -3z m-16 -44 c-17 -17 -109 -73 -113 -69 -5 5 33 39 69 60 19
11 54 18 44 9z m4657 -307 c8 -14 -33 -48 -58 -49 -24 0 -23 9 4 37 23 25 43
29 54 12z m1901 -45 c19 -202 28 -264 38 -268 7 -2 15 -21 19 -40 4 -20 10
-36 14 -36 15 0 35 -76 33 -123 -1 -27 -11 -63 -21 -80 -24 -41 -30 -125 -10
-138 13 -8 13 -10 1 -18 -12 -8 -12 -12 -3 -24 11 -13 19 -12 65 5 29 10 59
28 69 38 23 28 32 25 46 -13 15 -41 15 -74 2 -82 -5 -3 -10 -19 -10 -35 0 -16
-4 -31 -9 -35 -5 -3 -12 -18 -16 -34 -3 -16 -17 -39 -31 -51 -13 -13 -24 -29
-24 -37 0 -7 -11 -13 -24 -13 -14 0 -28 -4 -31 -10 -3 -5 -17 -10 -31 -10 -17
0 -30 -9 -42 -30 -9 -16 -22 -30 -29 -30 -6 0 -15 -17 -20 -37 -5 -21 -15 -38
-22 -38 -15 0 -38 68 -44 125 -2 20 -6 40 -9 45 -3 6 -6 63 -7 128 -1 65 -6
139 -12 165 -5 26 -14 74 -20 107 -5 33 -16 63 -22 67 -8 5 -6 8 6 8 22 0 22
16 0 24 -11 5 -13 10 -7 14 6 4 14 22 17 40 4 19 13 48 21 65 19 45 36 110 36
141 0 14 5 26 11 26 6 0 10 18 8 43 -2 41 3 70 23 135 10 35 32 39 35 6z
m-1843 -149 c-31 -26 -50 -24 -33 4 13 20 52 40 57 28 2 -4 -9 -19 -24 -32z
m358 -311 c37 -25 68 -47 68 -50 0 -3 -6 -2 -12 2 -9 5 -9 3 1 -9 7 -9 17 -15
21 -12 9 6 25 -13 25 -30 0 -5 10 -14 23 -20 12 -5 22 -13 22 -17 0 -5 5 -8
11 -8 19 0 156 -144 185 -195 36 -65 94 -182 94 -189 0 -3 13 -34 29 -68 31
-68 56 -137 65 -180 4 -16 10 -28 15 -28 5 0 7 -9 4 -20 -3 -11 -9 -20 -14
-20 -5 0 -9 -4 -9 -10 0 -5 5 -9 11 -7 6 1 14 -4 16 -11 4 -9 -1 -13 -13 -10
-14 3 -18 12 -17 31 1 14 -1 26 -5 25 -18 -3 -39 15 -35 31 2 9 -3 23 -11 30
-9 8 -16 22 -16 33 0 10 -4 16 -10 13 -5 -3 -10 0 -10 8 0 8 -10 25 -22 39
-44 48 -68 82 -68 96 0 8 -9 25 -20 39 -11 14 -20 37 -20 50 0 16 -7 27 -20
30 -11 3 -17 9 -14 14 3 5 9 7 14 4 4 -3 6 4 3 15 -3 10 -10 18 -17 17 -6 -1
-10 4 -8 12 1 7 -2 28 -8 46 -8 25 -18 34 -41 39 -22 4 -34 15 -44 40 -8 19
-20 36 -27 39 -17 5 -59 -14 -52 -24 8 -13 -15 -49 -31 -49 -8 0 -15 4 -15 10
0 5 -11 20 -24 33 -12 13 -26 41 -30 63 -4 21 -16 48 -25 59 -20 22 -45 131
-34 148 3 5 1 7 -4 4 -6 -4 -13 2 -16 13 -8 30 10 25 85 -26z m-12 -614 c0 -5
-4 -10 -9 -10 -6 0 -13 5 -16 10 -3 6 1 10 9 10 9 0 16 -4 16 -10z m610 -75
c6 -3 8 -11 4 -16 -3 -5 0 -26 6 -45 9 -27 15 -33 21 -23 8 12 11 12 19 -1 6
-10 10 -11 10 -2 0 6 5 12 10 12 6 0 8 -12 5 -27 -3 -17 -2 -22 2 -11 7 15 11
15 47 -3 22 -10 45 -19 52 -19 7 0 19 -6 26 -14 8 -7 29 -17 46 -21 18 -3 40
-14 49 -23 9 -9 41 -21 72 -27 l56 -10 3 -42 c2 -26 -1 -43 -7 -43 -6 0 -11
-13 -11 -28 0 -40 -31 -66 -70 -58 -22 4 -32 1 -36 -9 -4 -8 -17 -15 -30 -15
-13 0 -24 -4 -24 -10 0 -5 -18 -10 -41 -10 -36 0 -41 3 -51 31 -6 16 -12 28
-15 26 -2 -3 3 -22 11 -42 30 -71 16 -60 -19 15 -19 41 -33 81 -30 87 2 7 0
12 -6 10 -15 -3 -117 269 -133 358 l-5 30 14 -32 c8 -17 19 -34 25 -38z m323
-442 c-7 -2 -19 -2 -25 0 -7 3 -2 5 12 5 14 0 19 -2 13 -5z m742 -242 c-8 -35
-18 -68 -24 -74 -6 -6 -11 -20 -11 -31 0 -27 -22 -86 -32 -86 -4 0 -8 -6 -8
-14 0 -13 -29 -52 -77 -103 -13 -13 -23 -26 -23 -28 0 -9 -40 -45 -50 -45 -15
0 -12 26 4 39 7 6 16 33 19 60 3 27 14 64 24 82 27 51 84 118 105 124 13 5 18
16 18 40 0 24 6 38 20 45 11 6 20 16 20 23 0 12 21 40 26 34 1 -1 -4 -31 -11
-66z m-1695 -61 c0 -5 -2 -10 -4 -10 -3 0 -8 5 -11 10 -3 6 -1 10 4 10 6 0 11
-4 11 -10z m85 -112 c-5 -47 -8 -108 -6 -142 1 -24 4 -27 13 -18 10 10 10 17
0 32 -15 25 -15 30 2 30 14 0 39 -86 30 -102 -8 -12 -44 -10 -44 3 0 6 -6 17
-12 24 -36 40 -41 51 -40 87 1 26 -3 41 -13 44 -26 10 -16 24 16 24 25 0 29 3
20 13 -8 10 -7 17 1 25 23 23 37 14 33 -20z m1319 -570 c3 -13 1 -24 -4 -26
-14 -5 -12 -30 2 -34 8 -3 6 -18 -10 -51 -12 -26 -22 -55 -23 -64 0 -11 -3
-13 -6 -5 -2 6 -11 12 -19 12 -15 0 -15 -1 7 105 17 83 40 110 53 63z m-6187
-410 c-3 -8 -6 -5 -6 6 -1 11 2 17 5 13 3 -3 4 -12 1 -19z"/>
<path d="M3941 8686 c-7 -8 -8 -17 -3 -20 6 -3 15 1 21 8 7 8 8 17 3 20 -6 3
-15 -1 -21 -8z"/>
<path d="M3789 8415 c-12 -26 -23 -57 -24 -69 -2 -11 -10 -39 -18 -60 -8 -21
-12 -48 -9 -60 4 -15 7 -16 10 -6 3 8 11 23 20 33 8 9 10 17 4 17 -6 0 -13 -6
-15 -12 -4 -9 -6 -8 -6 2 0 8 6 24 14 34 14 19 15 19 15 1 0 -30 9 -12 15 29
2 21 7 47 11 58 4 14 2 18 -5 14 -16 -10 -14 6 5 32 9 13 13 26 10 29 -3 3
-15 -15 -27 -42z"/>
<path d="M3697 8143 c3 -7 6 -13 8 -13 2 0 5 6 8 13 3 8 -1 14 -8 14 -7 0 -11
-6 -8 -14z"/>
<path d="M3801 7784 c0 -11 3 -14 6 -6 3 7 2 16 -1 19 -3 4 -6 -2 -5 -13z"/>
<path d="M3746 7774 c-4 -9 -4 -19 -1 -22 2 -3 7 3 11 12 4 9 4 19 1 22 -2 3
-7 -3 -11 -12z"/>
<path d="M3791 7694 c0 -11 3 -14 6 -6 3 7 2 16 -1 19 -3 4 -6 -2 -5 -13z"/>
<path d="M3801 7564 c0 -11 3 -14 6 -6 3 7 2 16 -1 19 -3 4 -6 -2 -5 -13z"/>
<path d="M3676 7279 c-15 -61 -25 -113 -23 -115 2 -2 16 46 32 106 15 61 25
113 23 116 -3 2 -17 -45 -32 -107z"/>
<path d="M3722 7280 c0 -19 2 -27 5 -17 2 9 2 25 0 35 -3 9 -5 1 -5 -18z"/>
<path d="M3278 7208 c-8 -13 -18 -34 -22 -48 -4 -15 3 -7 19 19 26 45 29 69 3
29z"/>
<path d="M3316 7213 c-6 -14 -5 -15 5 -6 7 7 10 15 7 18 -3 3 -9 -2 -12 -12z"/>
<path d="M3670 7135 c-7 -25 -10 -48 -8 -51 3 -2 11 16 17 42 15 61 8 68 -9 9z"/>
<path d="M3220 6999 c-7 -11 -10 -23 -7 -25 2 -2 9 7 15 21 14 30 7 33 -8 4z"/>
<path d="M3161 6863 c-10 -26 -10 -27 4 -9 8 11 15 23 15 28 0 15 -7 8 -19
-19z"/>
<path d="M3286 6863 c-6 -14 -5 -15 5 -6 7 7 10 15 7 18 -3 3 -9 -2 -12 -12z"/>
<path d="M3227 6747 c-3 -8 1 -14 8 -14 7 0 11 6 8 14 -3 7 -6 13 -8 13 -2 0
-5 -6 -8 -13z"/>
<path d="M3210 6710 c0 -5 5 -10 10 -10 6 0 10 5 10 10 0 6 -4 10 -10 10 -5 0
-10 -4 -10 -10z"/>
<path d="M3370 6709 c0 -5 5 -7 10 -4 6 3 10 8 10 11 0 2 -4 4 -10 4 -5 0 -10
-5 -10 -11z"/>
<path d="M3134 6657 c-12 -18 -24 -44 -28 -57 -4 -14 7 -1 23 29 35 60 37 77
5 28z"/>
<path d="M3356 6668 c-5 -15 -13 -26 -20 -25 -6 1 -10 -8 -8 -21 1 -13 -3 -31
-8 -40 -9 -14 -10 -12 -4 8 6 24 6 24 -9 5 -11 -14 -12 -24 -5 -33 8 -9 7 -11
-3 -7 -10 4 -25 -13 -47 -51 -31 -55 -41 -94 -23 -94 11 0 33 59 26 71 -3 4 4
13 15 19 11 6 20 18 20 26 0 8 4 13 9 9 12 -7 73 122 68 144 -3 11 -6 8 -11
-11z"/>
<path d="M3190 6659 c0 -5 5 -7 10 -4 6 3 10 8 10 11 0 2 -4 4 -10 4 -5 0 -10
-5 -10 -11z"/>
<path d="M3377 6598 c-9 -31 -2 -33 11 -3 6 14 8 25 3 25 -5 0 -11 -10 -14
-22z"/>
<path d="M3204 6566 c-3 -15 -9 -25 -11 -22 -10 10 -32 -21 -29 -40 2 -11 1
-13 -1 -6 -8 23 -25 12 -21 -13 3 -13 2 -22 -2 -20 -9 6 -23 -25 -15 -33 3 -3
5 1 5 9 0 12 2 12 9 0 6 -10 13 -5 25 19 9 18 16 42 16 52 0 11 4 17 9 14 10
-7 37 52 28 61 -3 3 -9 -7 -13 -21z"/>
<path d="M3335 6539 c-4 -6 -5 -12 -2 -15 2 -3 7 2 10 11 7 17 1 20 -8 4z"/>
<path d="M5455 8260 c3 -5 8 -10 11 -10 2 0 4 5 4 10 0 6 -5 10 -11 10 -5 0
-7 -4 -4 -10z"/>
<path d="M5530 7901 c0 -5 5 -13 10 -16 6 -3 10 -2 10 4 0 5 -4 13 -10 16 -5
3 -10 2 -10 -4z"/>
<path d="M5645 7830 c3 -5 8 -10 11 -10 2 0 4 5 4 10 0 6 -5 10 -11 10 -5 0
-7 -4 -4 -10z"/>
<path d="M5615 7750 c-3 -5 -1 -10 4 -10 6 0 11 5 11 10 0 6 -2 10 -4 10 -3 0
-8 -4 -11 -10z"/>
<path d="M4687 6293 c-15 -15 -5 -37 36 -76 70 -68 73 -70 96 -58 l20 11 -20
35 c-21 35 -93 95 -114 95 -7 0 -15 -3 -18 -7z"/>
<path d="M5172 5980 c7 -10 14 -18 15 -16 6 6 -9 36 -18 36 -5 0 -4 -9 3 -20z"/>
<path d="M4805 5530 c3 -5 8 -10 11 -10 2 0 4 5 4 10 0 6 -5 10 -11 10 -5 0
-7 -4 -4 -10z"/>
<path d="M6036 6936 c-8 -32 3 -56 15 -33 5 8 5 26 1 38 -9 23 -9 23 -16 -5z"/>
<path d="M5990 6889 c0 -5 5 -7 10 -4 6 3 10 8 10 11 0 2 -4 4 -10 4 -5 0 -10
-5 -10 -11z"/>
<path d="M6060 6880 c-9 -6 -10 -10 -3 -10 6 0 15 5 18 10 8 12 4 12 -15 0z"/>
<path d="M5870 6330 c-8 -5 -11 -12 -7 -16 4 -4 13 -2 19 4 15 15 7 24 -12 12z"/>
<path d="M5840 6290 c0 -5 5 -10 10 -10 6 0 10 5 10 10 0 6 -4 10 -10 10 -5 0
-10 -4 -10 -10z"/>
<path d="M5780 6230 c0 -5 5 -10 11 -10 5 0 7 5 4 10 -3 6 -8 10 -11 10 -2 0
-4 -4 -4 -10z"/>
<path d="M5750 6220 c0 -5 5 -10 11 -10 5 0 7 5 4 10 -3 6 -8 10 -11 10 -2 0
-4 -4 -4 -10z"/>
<path d="M3855 4640 c3 -5 8 -10 11 -10 2 0 4 5 4 10 0 6 -5 10 -11 10 -5 0
-7 -4 -4 -10z"/>
<path d="M3580 4631 c0 -5 5 -13 10 -16 6 -3 10 -2 10 4 0 5 -4 13 -10 16 -5
3 -10 2 -10 -4z"/>
<path d="M3811 4584 c0 -11 3 -14 6 -6 3 7 2 16 -1 19 -3 4 -6 -2 -5 -13z"/>
<path d="M3801 4510 c0 -8 4 -22 9 -30 12 -18 12 -2 0 25 -6 13 -9 15 -9 5z"/>
<path d="M3810 4353 c0 -21 5 -45 10 -53 7 -11 10 -2 10 32 0 26 -4 50 -10 53
-6 4 -10 -9 -10 -32z"/>
<path d="M3773 4195 c-3 -9 -3 -18 -1 -21 3 -3 8 4 11 16 6 23 -1 27 -10 5z"/>
<path d="M3686 4065 c-11 -8 -16 -15 -10 -15 5 0 18 7 28 15 11 8 16 15 10 15
-5 0 -18 -7 -28 -15z"/>
<path d="M3591 4041 c-11 -7 -11 -9 0 -13 7 -2 -15 -12 -50 -22 -35 -10 -61
-19 -59 -21 6 -7 110 23 121 34 6 6 7 11 2 11 -6 0 -3 5 5 10 8 5 11 10 5 10
-5 0 -16 -4 -24 -9z"/>
<path d="M3510 3930 c-8 -5 -10 -10 -5 -10 6 0 17 5 25 10 8 5 11 10 5 10 -5
0 -17 -5 -25 -10z"/>
<path d="M8261 2384 c0 -11 3 -14 6 -6 3 7 2 16 -1 19 -3 4 -6 -2 -5 -13z"/>
<path d="M3221 3769 c-24 -5 -46 -11 -49 -14 -11 -11 54 -3 83 10 34 15 28 16
-34 4z"/>
<path d="M3305 3756 l-30 -13 27 0 c15 0 33 6 39 13 14 17 3 17 -36 0z"/>
<path d="M3500 3740 c-9 -6 -10 -10 -3 -10 6 0 15 5 18 10 8 12 4 12 -15 0z"/>
<path d="M8980 2043 c0 -5 5 -15 10 -23 8 -12 10 -11 10 8 0 12 -4 22 -10 22
-5 0 -10 -3 -10 -7z"/>
<path d="M9330 1910 c19 -13 30 -13 30 0 0 6 -10 10 -22 10 -19 0 -20 -2 -8
-10z"/>
<path d="M6118 9823 c7 -3 16 -2 19 1 4 3 -2 6 -13 5 -11 0 -14 -3 -6 -6z"/>
<path d="M5620 4220 c0 -5 5 -10 11 -10 5 0 7 5 4 10 -3 6 -8 10 -11 10 -2 0
-4 -4 -4 -10z"/>
<path d="M6271 4194 c0 -11 3 -14 6 -6 3 7 2 16 -1 19 -3 4 -6 -2 -5 -13z"/>
<path d="M7026 4041 c-3 -5 -15 -7 -26 -4 -11 3 -20 0 -20 -6 0 -6 8 -11 18
-11 20 0 64 29 45 30 -6 0 -14 -4 -17 -9z"/>
<path d="M6878 3993 c6 -2 18 -2 25 0 6 3 1 5 -13 5 -14 0 -19 -2 -12 -5z"/>
<path d="M6788 3983 c12 -2 32 -2 45 0 12 2 2 4 -23 4 -25 0 -35 -2 -22 -4z"/>
<path d="M5593 3965 c-3 -9 -3 -18 -1 -21 3 -3 8 4 11 16 6 23 -1 27 -10 5z"/>
<path d="M5350 3697 c-47 -63 -51 -81 -15 -67 25 9 25 9 11 -18 -29 -57 -126
-304 -140 -357 -15 -57 -8 -74 12 -30 7 14 20 28 29 32 10 3 40 28 68 55 27
27 62 52 77 55 37 7 42 40 35 212 -6 136 -11 171 -28 171 -4 0 -26 -24 -49
-53z"/>
<path d="M5586 3569 c-3 -8 -7 -25 -8 -39 -2 -14 -14 -40 -28 -58 -15 -20 -25
-49 -27 -75 -1 -23 -5 -66 -9 -94 -5 -45 -3 -53 10 -53 10 0 16 9 16 24 0 13
7 26 15 30 8 3 15 16 15 30 0 35 18 78 30 71 5 -3 10 -2 10 4 0 5 -5 13 -11
16 -7 5 -5 13 6 25 9 10 12 20 8 23 -5 3 -10 27 -12 54 -2 51 -7 64 -15 42z"/>
<path d="M6177 3473 c-4 -3 -7 -11 -7 -17 0 -6 5 -5 12 2 6 6 9 14 7 17 -3 3
-9 2 -12 -2z"/>
<path d="M6285 3157 c-26 -50 -43 -87 -38 -82 15 15 95 166 90 171 -2 2 -25
-38 -52 -89z"/>
<path d="M5168 3121 c-69 -179 -255 -1012 -328 -1471 -23 -140 -43 -262 -45
-270 -2 -8 -12 -55 -21 -105 -9 -49 -18 -99 -20 -110 -2 -11 -7 -40 -10 -65
-3 -25 -10 -50 -14 -55 -5 -6 -11 -28 -14 -50 -2 -22 -11 -66 -19 -97 -8 -32
-12 -60 -9 -62 3 -3 0 -12 -6 -19 -6 -7 -11 -24 -10 -38 3 -50 -2 -84 -11 -71
-6 10 -10 9 -14 -7 -3 -14 -1 -19 6 -14 7 4 8 0 4 -11 -4 -10 -7 -22 -7 -27 0
-6 -4 -7 -10 -4 -5 3 -10 -1 -10 -10 0 -9 5 -13 10 -10 6 3 10 2 10 -4 0 -5
-4 -12 -10 -16 -5 -3 -7 -12 -4 -19 3 -7 -4 -35 -16 -62 -18 -43 -21 -32 -5
23 6 20 -7 -7 -42 -86 -12 -29 -23 -64 -23 -76 0 -13 -7 -26 -16 -29 -10 -4
-14 -14 -11 -26 3 -11 1 -20 -5 -20 -6 0 -8 -9 -5 -20 3 -12 1 -18 -5 -14 -7
5 -9 -2 -4 -20 4 -18 3 -25 -3 -21 -6 3 -8 0 -5 -8 3 -8 -4 -38 -15 -68 -11
-30 -23 -72 -26 -94 l-6 -40 15 30 c23 47 59 137 135 336 81 218 144 365 214
509 46 95 51 112 53 180 2 79 11 208 19 250 2 14 7 102 10 195 6 204 13 292
26 365 14 74 115 435 140 501 6 14 16 50 23 80 8 30 27 92 43 139 17 47 31 99
32 115 1 17 7 58 14 92 10 44 10 64 3 67 -7 3 -6 5 2 5 10 1 11 22 6 95 -5 65
-3 109 6 140 20 73 7 71 -22 -3z"/>
<path d="M5517 3023 c-4 -3 -7 -11 -7 -17 0 -6 5 -5 12 2 6 6 9 14 7 17 -3 3
-9 2 -12 -2z"/>
<path d="M7229 2307 c-39 -45 -101 -139 -177 -267 -11 -19 -35 -71 -52 -115
-18 -44 -40 -98 -49 -120 -10 -22 -26 -60 -36 -85 -10 -25 -25 -61 -33 -80
-69 -157 -149 -437 -197 -685 -61 -318 -61 -316 -73 -390 -6 -33 -10 -67 -10
-75 0 -8 -5 -64 -12 -125 -6 -60 -14 -167 -17 -237 l-6 -128 121 0 120 0 6 63
c3 34 8 94 11 132 8 96 14 154 20 195 3 19 7 51 9 70 3 19 12 67 21 105 9 39
21 99 25 135 5 36 11 79 14 95 3 17 12 84 21 150 8 66 20 144 26 173 6 30 14
86 19 125 16 148 149 707 179 752 4 6 13 28 20 50 17 55 39 111 67 170 27 57
45 133 35 140 -5 2 -28 -19 -52 -48z"/>
<path d="M8105 1883 c3 -10 9 -31 12 -48 6 -32 43 -77 43 -52 0 7 -4 17 -8 23
-5 5 -14 28 -21 52 -6 23 -17 42 -22 42 -7 0 -8 -8 -4 -17z"/>
<path d="M8113 1656 c-1 -17 -2 -57 -2 -90 -1 -70 -8 -96 -26 -96 -8 0 -17
-12 -20 -27 -7 -31 -52 -158 -66 -185 -5 -10 -20 -64 -34 -120 -21 -86 -99
-366 -150 -538 -13 -44 -130 -340 -201 -507 -19 -45 -34 -84 -34 -87 0 -3 59
-6 130 -6 73 0 130 4 130 9 0 10 52 130 70 163 6 10 10 23 10 29 0 6 15 42 34
80 19 39 37 84 41 102 8 39 17 65 63 179 6 15 9 34 6 42 -3 8 -1 17 5 21 6 3
11 16 11 29 0 12 6 42 14 67 29 92 53 339 36 370 -5 8 -5 34 0 58 6 34 5 48
-7 59 -9 9 -12 23 -8 36 3 12 8 41 11 66 3 25 10 50 15 56 5 7 12 43 16 80 3
38 11 72 17 76 7 5 5 8 -5 8 -19 0 -35 60 -19 70 7 4 5 11 -5 20 -10 8 -14 22
-11 36 4 13 1 24 -7 27 -9 3 -14 -5 -14 -27z"/>
<path d="M6310 1056 c0 -9 -7 -16 -16 -16 -10 0 -13 -6 -9 -18 3 -11 -1 -32
-10 -48 -8 -16 -15 -38 -15 -49 0 -17 -2 -17 -10 -5 -7 11 -10 4 -10 -28 0
-29 -5 -45 -15 -48 -8 -4 -15 -14 -15 -24 0 -10 -7 -23 -15 -30 -8 -7 -15 -21
-15 -31 0 -10 -8 -23 -17 -28 -17 -10 -17 -10 0 -11 23 0 22 -13 -3 -35 -11
-10 -20 -28 -20 -39 0 -12 -7 -34 -15 -50 -8 -15 -15 -39 -15 -52 0 -13 -11
-53 -25 -90 -25 -66 -31 -105 -18 -117 9 -9 12 -48 12 -125 0 -36 5 -70 12
-78 10 -12 9 -16 -8 -20 -14 -4 -22 -17 -27 -42 -7 -44 -3 -49 32 -36 15 6 38
7 52 4 33 -9 56 4 64 35 4 14 13 25 20 25 19 0 25 19 15 53 -9 32 -2 56 20 74
9 7 12 13 7 13 -5 0 -3 7 4 15 18 22 -2 44 -24 26 -12 -10 -14 -9 -9 9 3 12
16 26 29 32 13 6 26 19 29 29 3 10 24 33 47 51 22 18 46 39 53 46 8 6 23 12
34 12 29 0 26 17 -4 24 -14 4 -25 12 -25 19 0 8 -10 13 -22 13 -18 -1 -22 4
-21 21 2 18 -3 23 -20 24 -17 1 -18 2 -4 6 14 4 17 14 16 54 -1 27 -5 49 -8
49 -9 0 -7 83 3 98 4 7 5 16 2 21 -3 5 -2 28 2 52 5 24 4 59 0 77 -6 23 -5 38
3 48 14 17 5 44 -16 44 -8 0 -15 5 -15 10 0 6 7 10 16 10 21 0 14 34 -9 38
-10 2 -17 -3 -17 -12z"/>
<path d="M6118 13 c6 -2 18 -2 25 0 6 3 1 5 -13 5 -14 0 -19 -2 -12 -5z"/>
</g>
</svg>
