<?xml version="1.0" standalone="no"?>
<!DOCTYPE svg PUBLIC "-//W3C//DTD SVG 20010904//EN"
 "http://www.w3.org/TR/2001/REC-SVG-20010904/DTD/svg10.dtd">
<svg version="1.0" xmlns="http://www.w3.org/2000/svg"
 width="1024.000000pt" height="1024.000000pt" viewBox="0 0 1024.000000 1024.000000"
 preserveAspectRatio="xMidYMid meet">

<g transform="translate(0.000000,1024.000000) scale(0.100000,-0.100000)"
fill="#000000" stroke="none">
<path d="M0 5120 l0 -5120 2160 0 c1673 0 2160 3 2160 12 0 9 3 9 12 0 9 -9
82 -12 265 -12 211 0 253 2 253 14 0 9 7 12 19 9 24 -6 91 37 91 60 0 9 6 17
13 17 16 0 52 41 52 60 0 11 14 16 54 18 30 2 59 9 65 17 15 17 56 29 56 16 0
-6 7 -11 15 -11 8 0 15 5 15 10 0 6 -7 13 -15 16 -8 4 -15 19 -15 35 0 21 7
32 28 43 17 10 21 15 11 16 -15 0 -29 19 -29 37 0 3 15 3 34 0 60 -10 75 33
24 65 -33 21 -37 48 -8 48 16 0 20 7 20 30 0 43 -29 71 -70 68 -25 -2 -37 3
-48 20 -8 12 -21 22 -28 22 -20 0 -17 18 4 24 9 2 1 2 -19 -1 -36 -5 -40 -2
-77 42 -8 9 -30 15 -57 15 -34 0 -47 5 -55 19 -6 12 -6 22 -1 25 5 3 7 15 4
26 -4 16 -14 20 -44 20 -36 0 -40 3 -45 30 -6 29 -8 30 -67 30 -42 0 -66 5
-79 17 -10 9 -35 19 -55 22 -30 5 -39 12 -44 31 -3 14 -9 34 -13 46 -8 23 -63
57 -108 68 -19 4 -30 16 -38 41 -6 19 -19 42 -27 51 -14 13 -14 17 1 33 18 20
22 51 6 51 -15 0 -12 26 4 39 19 16 136 27 136 12 0 -6 11 -11 24 -11 13 0 29
-7 36 -15 7 -8 18 -15 25 -15 6 0 20 -9 30 -20 10 -11 29 -20 42 -20 13 0 39
-7 59 -15 29 -12 62 -13 192 -6 86 5 164 12 173 16 11 4 18 0 22 -14 3 -12 13
-21 22 -21 13 0 15 7 10 33 -6 31 -5 32 32 35 48 3 103 28 103 47 0 8 8 19 17
24 10 6 14 11 9 11 -9 0 58 56 74 62 12 4 21 90 12 105 -5 8 -22 8 -52 3 -25
-5 -47 -6 -49 -4 -2 2 1 15 7 29 18 39 14 75 -9 94 -17 14 -19 20 -10 44 17
45 13 61 -19 80 -23 14 -30 25 -30 48 0 25 -4 29 -22 28 -51 -5 -58 0 -58 36
0 31 -3 35 -25 35 -22 0 -25 5 -26 38 -3 77 -5 90 -20 104 -8 8 -31 18 -52 22
-34 6 -37 9 -38 44 -1 20 0 42 2 47 1 6 2 25 1 43 -1 17 2 32 7 32 5 0 20 20
32 45 12 25 26 45 31 45 4 0 8 9 8 20 0 11 4 20 10 20 5 0 8 17 6 37 -2 23 5
52 17 75 24 45 17 57 -19 34 -14 -10 -29 -15 -32 -11 -4 3 -1 10 6 14 9 6 10
15 3 34 -6 15 -8 34 -4 44 6 15 7 15 12 0 5 -13 15 -8 54 27 26 24 47 46 47
48 0 3 -25 9 -55 13 -30 3 -55 9 -55 12 0 9 91 93 101 93 5 0 9 7 9 14 0 8 17
28 37 43 63 47 88 83 59 83 -18 0 -196 -118 -196 -130 0 -4 -11 -11 -25 -14
-13 -3 -29 -15 -34 -25 -13 -23 -108 -73 -178 -94 -28 -9 -61 -20 -72 -26 -11
-6 -43 -16 -70 -21 -36 -7 -59 -19 -80 -41 l-30 -31 -32 27 c-28 23 -34 24
-41 11 -16 -28 -75 -20 -110 14 -16 17 -37 29 -46 28 -14 -2 -17 6 -17 40 0
45 -4 48 -37 31 -16 -8 -22 -8 -29 2 -7 11 -11 10 -22 -5 -16 -22 -62 -14 -53
9 3 9 0 12 -9 9 -22 -9 -36 29 -23 64 9 24 9 37 0 58 -11 24 -10 30 10 52 56
61 61 65 107 67 66 3 163 26 182 42 22 19 61 20 199 4 131 -14 153 -19 145
-32 -8 -12 16 -12 34 0 15 10 44 3 37 -8 -3 -4 12 -8 32 -9 20 -1 65 -4 100
-8 43 -4 62 -2 62 6 0 6 4 9 9 5 5 -3 13 0 16 6 4 5 14 8 22 5 8 -3 20 -3 26
1 7 5 35 16 62 25 59 20 49 22 -26 7 -84 -16 -129 -19 -129 -9 0 6 11 10 24
10 14 0 28 5 31 10 3 6 15 10 26 10 11 0 19 7 19 18 0 13 -2 14 -9 3 -7 -11
-12 -10 -28 6 -11 11 -23 28 -27 38 -6 16 -9 17 -16 5 -8 -12 -10 -9 -10 10
l0 25 -20 -25 -19 -25 -9 25 c-5 14 -12 24 -16 23 -16 -7 -26 -2 -26 13 0 11
-6 14 -21 9 -19 -6 -21 -4 -17 19 3 14 1 26 -3 26 -21 0 -24 -2 -21 -18 3 -14
1 -15 -9 -5 -7 7 -13 28 -12 47 1 27 -2 33 -14 29 -11 -5 -14 -1 -9 13 5 19
-5 47 -18 45 -20 -3 -25 1 -19 16 5 12 3 14 -7 8 -8 -5 -18 -2 -25 9 -12 15
-14 14 -25 -11 -15 -33 -65 -77 -53 -47 4 12 3 15 -5 10 -7 -4 -12 -13 -12
-21 0 -16 -55 -36 -76 -28 -8 3 -13 12 -10 19 7 19 -8 18 -24 -1 -7 -8 -18
-15 -24 -15 -8 0 -8 2 1 8 11 7 13 63 2 72 -3 3 -12 18 -20 35 -8 16 -21 30
-29 30 -9 0 -15 9 -15 22 -1 26 -7 33 -32 38 -10 1 -17 8 -15 14 1 7 -9 22
-23 36 -15 13 -28 36 -29 52 -2 15 -4 29 -5 31 0 1 -12 -5 -25 -13 -24 -16
-44 -6 -31 15 3 6 0 10 -8 10 -10 0 -13 7 -10 20 4 14 0 20 -11 20 -14 0 -20
17 -19 57 1 19 -24 16 -36 -4 -9 -16 -10 -16 -11 4 0 13 -8 24 -20 28 -21 7
-29 27 -9 23 21 -5 20 17 -1 40 -12 12 -18 27 -15 32 3 6 1 10 -5 10 -8 0 -10
9 -6 25 4 17 0 31 -14 45 -22 22 -26 55 -9 66 6 3 15 2 21 -4 6 -6 6 -12 -1
-16 -6 -4 -11 -14 -11 -22 0 -14 2 -14 15 0 10 10 13 24 9 41 -4 16 -2 25 5
25 7 0 9 9 5 24 -3 13 -1 27 5 30 6 4 11 0 11 -10 0 -31 13 -5 14 28 1 21 6
32 14 30 6 -1 12 5 12 14 0 11 -6 14 -20 9 -14 -4 -22 -1 -26 10 -9 21 2 31
19 17 8 -7 16 -9 19 -7 3 3 13 -11 23 -30 9 -20 20 -34 23 -30 4 4 12 -13 19
-37 l12 -43 -5 43 c-5 36 -3 42 13 42 11 0 14 -3 7 -8 -8 -5 -8 -15 -2 -32 l9
-25 21 25 21 25 -8 -25 c-4 -14 -10 -31 -12 -37 -3 -7 0 -13 7 -13 6 0 8 5 4
12 -5 8 -2 9 12 3 26 -11 66 -7 75 6 5 8 8 8 13 0 4 -6 -5 -13 -21 -17 l-28
-7 29 -8 c22 -6 33 -4 43 9 8 9 12 12 9 6 -3 -6 1 -20 9 -30 12 -15 14 -15 9
-3 -3 10 -1 20 5 24 6 3 11 -1 11 -9 0 -25 20 -19 21 7 0 12 3 16 6 10 2 -7
14 -13 25 -13 19 0 19 -1 -3 -20 l-24 -20 28 10 c36 13 40 13 31 -1 -4 -8 0
-8 15 0 16 9 21 9 21 0 0 -8 4 -8 15 1 11 9 19 10 26 3 6 -6 24 -8 44 -3 27 6
35 4 38 -9 4 -14 5 -14 6 2 1 22 12 22 45 -4 14 -11 26 -16 26 -11 0 6 7 12
15 16 13 5 14 2 4 -17 -12 -21 -11 -21 6 -7 14 12 19 12 23 2 3 -10 7 -10 20
0 12 10 14 10 8 1 -9 -17 6 -17 23 -1 11 10 13 10 7 1 -4 -8 -1 -13 8 -13 9 0
16 5 16 10 0 6 5 10 11 10 5 0 7 -5 3 -12 -5 -7 -2 -9 9 -5 9 3 18 1 21 -6 3
-9 5 -8 5 1 1 10 6 10 22 2 13 -7 25 -8 32 -2 7 5 25 8 40 6 23 -2 26 0 17 11
-9 10 -6 15 9 20 27 8 26 19 -3 42 -13 11 -27 33 -31 51 -6 29 -25 46 -25 22
0 -16 -17 -12 -24 5 -7 19 34 187 47 196 6 4 22 5 36 3 14 -2 71 -6 126 -9
227 -10 313 -17 359 -29 32 -8 63 -10 90 -4 96 19 111 19 134 -2 11 -11 26
-20 31 -20 5 0 13 -10 16 -22 4 -13 17 -34 29 -47 20 -23 20 -24 2 -17 -19 7
-19 6 -1 -14 20 -22 47 -27 40 -7 -3 6 13 31 34 54 37 39 40 45 36 89 -5 63
-33 99 -74 98 -17 -1 -31 3 -31 10 0 7 -3 6 -9 -2 -4 -8 -12 -14 -17 -14 -20
-1 -54 -18 -54 -27 0 -16 -81 -23 -135 -13 -27 5 -41 10 -30 11 17 1 15 4 -9
16 -15 8 -32 15 -37 15 -14 0 -11 -28 4 -33 6 -3 0 -6 -15 -6 -15 -1 -30 4
-33 9 -3 5 -12 10 -18 10 -7 0 -6 -4 3 -11 12 -9 12 -10 -3 -5 -10 3 -24 6
-29 6 -6 0 -9 3 -5 6 3 4 -1 13 -9 22 -13 12 -17 13 -24 2 -7 -11 -14 -10 -42
3 -18 9 -46 14 -60 13 -15 -2 -25 0 -23 5 3 4 1 10 -5 14 -6 4 -8 11 -4 16 4
6 14 3 25 -7 17 -15 19 -15 14 -2 -4 9 -2 19 3 22 5 3 9 -2 8 -12 0 -9 5 -16
13 -14 7 1 19 -3 27 -9 11 -9 14 -8 14 4 0 11 5 14 17 10 13 -5 15 -2 10 11
-4 10 -7 20 -7 22 0 2 -9 4 -19 4 -11 0 -23 5 -26 10 -4 6 -11 8 -16 5 -5 -4
-9 -1 -9 5 0 7 -6 10 -14 7 -17 -7 -77 13 -88 28 -5 6 -8 5 -8 -2 0 -7 -4 -13
-10 -13 -5 0 -10 6 -10 14 0 21 -32 13 -41 -10 -7 -18 -8 -18 -8 2 -1 17 -7
21 -33 20 -32 -2 -54 10 -166 85 -23 16 -45 29 -49 29 -3 0 -21 11 -39 25 -18
14 -42 25 -53 25 -12 0 -21 5 -21 10 0 6 -8 10 -18 8 -21 -4 -30 41 -11 53 19
11 31 0 24 -22 -4 -11 -2 -19 4 -19 6 0 11 7 11 16 0 23 67 87 74 71 3 -6 3
-2 0 10 -3 13 2 30 13 42 37 41 43 50 37 65 -3 9 -1 16 6 16 6 0 8 -4 5 -10
-11 -19 14 -10 27 9 8 10 31 22 52 25 20 3 46 11 56 16 14 8 21 4 34 -15 9
-14 24 -25 33 -25 13 0 14 -3 5 -12 -8 -8 -8 -17 -1 -30 6 -10 7 -27 4 -37 -6
-20 30 -91 47 -91 5 0 7 4 4 9 -3 5 -3 23 0 40 5 22 12 31 26 31 13 0 24 12
34 37 8 21 22 52 30 70 8 17 14 35 14 39 0 5 10 18 23 29 41 35 58 69 51 103
-4 18 -12 32 -18 32 -6 0 -4 4 4 10 12 8 12 10 -2 15 -10 4 -21 4 -26 1 -4 -2
-14 23 -21 57 -15 71 -57 214 -71 239 -13 23 -13 70 0 104 8 20 8 29 -1 35 -6
4 -8 12 -5 18 4 6 3 11 -2 11 -7 0 -3 54 7 98 0 4 9 7 19 7 9 1 16 6 15 13 -2
6 3 9 11 6 8 -3 26 7 41 22 29 29 38 66 37 156 0 30 4 48 13 52 9 3 14 20 13
46 0 23 4 46 10 52 6 6 8 26 5 44 -3 19 -1 40 6 47 6 8 8 16 5 19 -13 14 -11
99 2 113 12 12 12 18 2 34 -10 16 -10 23 0 33 6 6 12 22 12 35 0 13 5 23 11
23 6 0 8 9 4 20 -3 11 -3 20 2 20 15 0 32 93 20 108 -8 10 -7 16 2 22 10 5 10
9 2 15 -8 4 -9 11 -3 18 5 7 12 21 16 31 5 15 4 17 -7 8 -19 -16 -28 -4 -21
24 4 17 1 26 -10 30 -17 7 -22 34 -6 34 6 0 10 5 10 10 0 16 -22 12 -36 -7
-12 -17 -13 -16 -14 4 0 12 -5 23 -11 25 -9 3 -9 10 0 26 8 16 8 22 1 22 -7 0
-9 8 -5 22 6 16 4 20 -8 15 -20 -8 -24 6 -21 81 2 66 -7 80 -25 35 -10 -27
-11 -27 -8 10 2 29 0 36 -11 32 -11 -4 -13 3 -10 30 4 38 0 42 -21 23 -11 -11
-13 -10 -8 4 3 9 1 18 -6 21 -6 2 -11 21 -10 42 l1 39 -16 -27 c-21 -34 -32
-34 -32 1 l-1 27 -14 -25 -14 -25 -1 38 c0 38 -15 51 -23 20 -3 -10 -5 -1 -6
19 -1 37 -2 37 -21 21 -11 -10 -20 -27 -21 -38 0 -19 -1 -19 -9 2 -13 32 -42
63 -53 56 -6 -4 -8 1 -4 11 4 9 3 15 -2 12 -5 -3 -14 1 -21 9 -7 8 -16 13 -20
10 -4 -3 -10 2 -14 10 -3 8 -12 15 -19 15 -8 0 -20 7 -27 15 -14 17 -45 21
-35 5 3 -5 1 -10 -5 -10 -6 0 -13 6 -16 14 -3 8 -12 17 -21 20 -11 5 -14 2 -9
-10 5 -14 4 -15 -9 -4 -8 7 -13 16 -10 20 3 4 -2 11 -11 14 -8 3 -12 2 -9 -4
3 -6 -1 -7 -9 -4 -9 3 -13 10 -10 15 3 5 1 9 -5 9 -5 0 -11 -6 -13 -12 -4 -10
-10 -10 -31 -1 -20 9 -27 9 -30 0 -3 -8 -10 -5 -22 8 -9 11 -13 14 -9 6 5 -11
3 -13 -10 -8 -10 4 -29 10 -42 13 -13 3 -22 9 -19 14 2 4 -15 13 -38 20 -23 7
-46 14 -52 15 -5 2 1 4 14 4 50 2 9 13 -56 16 -37 2 -81 8 -96 14 -17 7 -26 7
-22 1 3 -6 -1 -10 -9 -10 -9 0 -16 5 -16 11 0 6 -9 8 -20 4 -13 -4 -20 -2 -20
7 0 10 -3 9 -10 -2 -8 -12 -10 -12 -10 -1 0 11 -3 11 -15 1 -13 -11 -18 -10
-30 6 -19 25 -19 44 0 44 8 0 15 4 15 9 0 6 -16 3 -35 -5 -47 -19 -52 -18 -24
7 l24 22 -25 -6 c-21 -5 -26 -2 -27 13 -2 22 17 26 35 8 9 -9 12 -9 12 -1 0 7
-9 15 -20 18 -11 3 -20 10 -20 15 0 5 7 7 15 4 8 -4 15 -2 15 4 0 6 -6 13 -12
15 -7 3 -3 6 10 6 12 1 22 5 22 10 0 5 -14 8 -31 6 -26 -4 -29 -2 -19 10 8 9
23 13 39 10 14 -3 20 -2 13 1 -9 4 -2 15 20 35 18 16 28 29 22 29 -6 0 -24
-11 -40 -25 -27 -23 -44 -31 -44 -20 0 12 58 60 93 75 23 10 33 20 25 23 -7 2
-21 -2 -31 -11 -9 -8 -20 -12 -24 -8 -4 4 -1 11 7 16 8 6 11 10 5 10 -5 0 -17
-5 -25 -10 -13 -9 -13 -11 0 -20 9 -6 10 -10 3 -10 -6 0 -15 5 -18 11 -10 14
28 48 51 46 13 -2 18 4 17 17 -1 11 6 25 14 31 14 11 14 13 -3 19 -17 7 -16 9
11 21 20 9 23 13 10 12 -11 -1 -20 2 -20 8 0 5 9 9 20 8 16 -1 16 -1 3 3 -29
9 -21 23 17 30 20 3 35 12 35 20 0 18 -39 3 -86 -32 -37 -29 -48 -23 -11 6 20
17 21 20 5 32 -16 12 -15 16 12 46 16 17 39 32 49 32 11 0 23 5 26 10 3 6 2
10 -3 10 -6 0 -5 10 1 25 8 16 23 27 44 31 18 3 31 10 28 14 -3 4 2 10 10 14
8 3 15 1 15 -4 0 -6 8 -10 18 -10 14 0 15 -2 2 -10 -13 -8 -12 -11 4 -23 20
-15 66 -11 66 5 0 5 -13 7 -30 3 -19 -4 -30 -3 -30 4 0 6 6 11 13 11 7 0 4 5
-5 11 -21 12 -20 59 1 75 7 6 30 11 50 11 l36 1 -32 -9 c-18 -5 -33 -14 -33
-19 0 -6 9 -6 24 0 15 5 27 5 35 -3 8 -8 15 -6 27 9 15 18 15 17 1 -6 -10 -17
-23 -24 -39 -22 -18 2 -20 0 -8 -8 13 -9 13 -11 0 -21 -12 -9 -11 -10 8 -6 26
6 28 -1 4 -19 -15 -12 -15 -13 9 -14 17 0 30 -8 39 -25 7 -14 17 -25 22 -25
12 0 10 24 -4 38 -9 9 -5 12 20 12 31 0 44 -14 20 -22 -9 -3 -9 -6 1 -12 8 -5
14 -1 18 13 3 12 13 21 24 21 24 0 35 20 18 31 -19 12 -42 11 -34 -1 8 -13
-10 -13 -58 1 -43 12 -40 33 4 24 21 -5 31 -2 35 9 6 16 34 23 34 8 0 -12 90
-9 92 3 2 6 -12 11 -31 12 -34 1 -66 8 -95 19 -12 5 -15 2 -10 -10 4 -12 0
-16 -15 -16 -12 0 -21 5 -21 10 0 6 5 10 11 10 5 0 7 5 4 10 -3 6 2 13 11 17
10 4 19 2 22 -5 7 -21 42 -13 51 11 7 18 5 23 -13 28 -11 3 -27 2 -33 -4 -18
-14 -44 -1 -37 18 5 12 14 14 38 10 21 -4 27 -3 17 3 -7 5 -10 15 -7 21 5 7
-1 11 -13 11 -12 0 -21 5 -21 11 0 7 17 9 48 6 26 -2 38 -2 27 0 -27 7 -46 23
-39 35 3 5 12 7 20 4 8 -3 21 -3 30 1 14 5 12 8 -7 19 l-24 13 30 2 c24 1 25
3 8 6 -27 5 -31 23 -5 24 14 0 14 2 -3 9 l-20 9 20 1 c18 1 18 2 -3 11 -25 10
-20 31 6 28 36 -3 52 2 52 16 0 14 19 20 45 15 6 -1 6 3 -1 9 -14 15 -71 -5
-78 -27 -2 -9 -4 -3 -3 13 2 36 18 54 66 77 21 10 29 17 19 17 -10 1 -18 5
-18 11 0 5 7 7 15 4 8 -4 17 1 21 10 3 9 14 16 24 16 10 0 26 3 34 6 27 11 -1
35 -32 27 -18 -4 -23 -3 -17 7 4 7 18 10 36 6 21 -4 34 0 47 15 18 18 20 18
33 3 11 -14 11 -18 -4 -29 -9 -7 -17 -16 -17 -20 0 -5 9 0 20 10 13 12 18 25
14 38 -4 11 -1 23 7 28 23 14 34 10 14 -4 -27 -21 -2 -30 31 -12 38 20 54 19
84 -5 14 -11 32 -19 40 -19 8 0 5 4 -7 9 -24 10 -31 34 -13 45 6 4 7 -1 3 -11
-5 -14 -3 -15 15 -5 14 7 23 8 27 1 9 -15 25 -12 25 5 0 8 -4 15 -10 15 -5 0
-10 5 -10 11 0 6 5 7 13 2 6 -4 20 -6 30 -5 9 2 17 -2 17 -7 0 -6 -8 -12 -17
-12 -10 -1 -4 -4 12 -8 19 -4 35 -2 43 6 16 16 46 17 36 2 -7 -11 12 -29 31
-29 6 0 3 4 -5 10 -8 5 -11 12 -7 16 3 4 12 2 19 -3 7 -6 40 -13 73 -16 33 -3
61 -11 63 -17 2 -5 10 -10 18 -10 9 0 12 5 9 10 -3 6 -2 10 4 10 5 0 12 -6 14
-12 4 -9 6 -10 6 -1 1 13 69 7 86 -8 5 -5 22 -9 37 -9 33 0 104 -34 111 -52 2
-8 8 -9 13 -4 5 5 4 11 -4 13 -22 8 -1 23 33 23 24 0 38 -6 45 -19 12 -24 69
-39 80 -21 5 8 9 4 13 -10 4 -16 11 -20 25 -15 11 3 23 1 27 -4 3 -7 0 -8 -9
-5 -23 9 -20 -9 6 -30 18 -15 20 -16 15 -2 -4 9 -2 16 4 16 5 0 12 -7 16 -16
4 -11 8 -12 13 -4 5 8 14 8 33 -1 29 -13 34 -25 15 -32 -7 -3 -4 -6 7 -6 60
-4 75 -7 75 -12 0 -7 52 -33 62 -31 12 3 83 -30 90 -42 5 -8 8 -7 8 3 0 8 8 5
23 -10 13 -12 27 -20 30 -18 5 4 72 -89 72 -101 0 -5 37 -50 68 -82 9 -10 17
-23 17 -29 0 -6 7 -9 14 -6 10 4 13 1 10 -8 -3 -8 6 -21 20 -30 14 -10 23 -21
20 -26 -3 -5 -1 -9 5 -9 5 0 12 -19 16 -42 7 -38 9 -40 16 -20 5 12 11 22 14
22 4 0 3 -4 0 -10 -3 -5 1 -10 10 -10 9 0 14 -4 10 -9 -3 -5 4 -16 15 -24 11
-7 17 -17 14 -20 -10 -10 18 -38 32 -33 8 3 11 0 8 -9 -7 -17 25 -85 43 -92 7
-3 13 -15 13 -27 0 -29 15 -50 30 -41 9 6 9 3 0 -15 -7 -14 -8 -25 -3 -29 5
-3 14 -14 20 -25 8 -15 4 -24 -18 -47 -16 -17 -29 -32 -29 -35 0 -7 38 15 45
26 3 6 11 10 16 10 6 0 7 -5 4 -10 -4 -6 -1 -18 7 -27 12 -15 11 -15 -9 -5
l-21 12 21 -43 c34 -69 37 -76 37 -83 0 -4 -9 1 -20 11 -22 20 -26 9 -6 -17 7
-10 16 -15 19 -11 4 3 7 -6 7 -20 0 -18 4 -25 14 -21 9 3 19 -6 27 -25 8 -17
18 -31 22 -31 5 0 6 -4 3 -9 -4 -5 -1 -22 5 -38 7 -15 11 -38 10 -50 -1 -11 3
-24 9 -28 5 -3 8 -11 4 -16 -3 -6 1 -29 10 -52 14 -39 48 -161 60 -217 3 -14
10 -43 16 -65 5 -22 12 -69 16 -105 3 -36 9 -81 14 -100 4 -19 9 -75 10 -123
1 -86 1 -88 -18 -70 -10 10 -17 21 -15 25 2 4 -14 19 -37 34 -22 15 -40 31
-40 36 0 5 6 6 13 2 8 -5 8 -2 -2 9 -15 18 -26 23 -16 7 4 -6 -6 -10 -23 -10
-19 0 -43 13 -73 40 -24 22 -48 40 -53 40 -6 0 -1 -6 9 -14 18 -13 17 -13 -8
-13 -16 0 -24 4 -20 10 3 5 1 7 -5 3 -6 -3 -34 3 -62 14 -29 11 -62 20 -73 19
-40 -4 -58 1 -51 12 5 8 1 8 -14 0 -26 -14 -45 -14 -37 -1 9 15 -7 12 -32 -5
-19 -13 -21 -13 -19 3 1 13 -6 16 -29 14 l-30 -4 24 26 c34 36 20 32 -39 -10
-50 -36 -55 -34 -34 21 6 16 1 14 -24 -9 -30 -27 -47 -25 -20 2 9 9 9 12 0 12
-6 0 -18 -13 -27 -30 -18 -34 -29 -40 -21 -10 17 58 16 64 -4 30 l-20 -35 7
30 c6 27 5 29 -10 17 -13 -11 -16 -10 -19 10 -3 21 -6 19 -25 -16 -19 -37 -21
-38 -27 -18 -4 12 -4 27 -1 34 4 7 -3 2 -14 -12 l-21 -25 -1 30 -1 30 -10 -28
c-5 -15 -14 -25 -18 -22 -5 3 -16 -5 -24 -17 -9 -12 -16 -18 -16 -13 -1 6 -8
-1 -16 -15 -9 -15 -13 -18 -9 -6 5 17 3 17 -11 5 -15 -12 -16 -11 -9 11 7 24
7 25 -9 5 -16 -19 -16 -19 -10 10 5 26 1 23 -25 -20 -17 -27 -47 -69 -66 -93
-19 -24 -35 -48 -35 -53 0 -10 51 41 83 82 10 13 6 3 -8 -23 -15 -26 -24 -52
-20 -58 4 -6 0 -22 -9 -35 -20 -30 -20 -31 -1 -39 8 -3 22 2 30 11 23 22 32 7
10 -17 -16 -18 -16 -20 -2 -20 22 0 22 -19 0 -26 -46 -15 -82 -39 -70 -46 11
-7 10 -9 -12 -12 -5 0 -13 -4 -17 -8 -4 -5 -16 -8 -27 -8 -15 0 -18 -5 -15
-25 4 -17 1 -25 -9 -25 -8 0 -12 -4 -8 -9 3 -5 1 -12 -5 -16 -6 -4 -8 -10 -5
-15 7 -11 -5 -41 -15 -35 -4 2 -5 -7 -2 -20 2 -15 0 -25 -7 -25 -6 0 -11 -5
-11 -11 0 -7 -8 -18 -17 -26 -11 -8 3 -5 37 7 30 11 57 20 60 20 2 0 -14 -18
-35 -40 -40 -41 -38 -53 4 -24 34 24 45 4 16 -28 -28 -31 -24 -55 11 -64 13
-3 24 -10 24 -14 0 -4 10 -7 23 -6 12 0 21 -4 20 -11 -2 -8 4 -10 14 -6 11 4
14 3 9 -5 -4 -7 -2 -12 3 -12 6 0 11 -7 11 -15 0 -13 -4 -14 -20 -5 -16 9 -18
8 -14 -5 8 -20 -6 -19 -22 3 -13 16 -14 16 -8 0 4 -12 1 -18 -10 -18 -9 0 -16
-4 -16 -10 0 -5 -5 -10 -11 -10 -5 0 -7 5 -3 11 4 8 0 8 -15 0 -24 -13 -29
-26 -7 -18 18 7 40 -18 30 -34 -5 -9 -1 -10 14 -7 21 6 28 -6 23 -35 -1 -5 3
-6 9 -2 5 3 10 13 10 21 0 8 4 14 10 14 5 0 6 -7 3 -17 -4 -11 -3 -14 5 -9 7
4 12 3 12 -3 0 -5 -8 -12 -17 -14 -17 -4 -17 -5 0 -6 9 0 17 -5 17 -11 0 -13
37 -50 50 -50 5 0 7 8 4 18 -4 10 -3 13 3 6 4 -6 19 -17 31 -23 13 -7 21 -15
18 -18 -3 -3 -14 0 -23 8 -16 13 -17 12 -4 -4 9 -11 21 -15 34 -11 14 4 17 3
12 -6 -5 -8 -4 -11 3 -6 6 3 26 -3 45 -14 48 -29 55 -10 9 24 -20 15 -46 34
-57 42 l-20 15 20 -4 c11 -3 41 -12 66 -20 52 -16 90 -6 42 11 -33 11 -83 53
-83 70 0 21 -28 64 -33 50 -4 -9 -6 -7 -6 5 -1 9 -5 17 -11 17 -5 0 -10 9 -10
20 0 20 1 20 25 4 14 -9 25 -14 25 -12 0 11 -36 43 -49 43 -8 0 -15 6 -17 13
-1 7 0 8 3 2 3 -6 13 -4 26 5 29 20 43 19 26 -2 -13 -15 -12 -15 6 -6 23 12
65 0 65 -19 0 -9 -3 -9 -10 2 -14 22 -23 5 -10 -20 6 -11 9 -26 7 -33 -2 -7
-10 5 -17 26 -8 20 -17 37 -21 37 -5 0 2 -23 13 -51 18 -44 23 -48 32 -32 5
10 11 25 11 33 4 44 6 50 16 50 5 0 7 -4 4 -10 -9 -14 29 -12 43 2 9 9 12 9
12 0 0 -7 -5 -12 -11 -12 -5 0 -8 -4 -4 -10 3 -5 -6 -8 -21 -7 -23 2 -27 -2
-29 -30 -2 -19 3 -38 12 -45 12 -10 13 -7 9 18 -6 28 -6 28 9 -5 20 -41 29
-36 14 8 -6 18 -9 35 -6 38 11 10 72 11 97 1 26 -11 163 -27 155 -19 -3 2 4
11 15 18 11 8 33 37 49 64 16 28 32 50 37 50 11 0 22 -30 23 -63 1 -23 -6 -31
-46 -50 l-48 -22 40 -12 c39 -12 39 -13 10 -14 -131 -8 -256 10 -275 40 -3 5
-15 7 -27 4 -14 -4 -19 -11 -16 -24 3 -12 11 -16 20 -13 13 5 15 1 9 -23 -4
-19 -3 -24 3 -15 7 11 10 9 16 -8 9 -29 23 -26 28 7 l3 27 14 -34 c13 -34 13
-35 23 -10 l9 24 11 -25 c8 -21 11 -22 14 -7 3 10 -1 26 -9 35 -12 15 -11 16
5 3 13 -11 17 -11 17 -1 0 18 11 6 14 -16 2 -10 9 -20 16 -22 9 -3 11 2 7 17
-7 26 5 27 28 1 10 -11 20 -18 23 -15 3 3 14 -3 25 -12 25 -22 14 0 -17 36
l-21 24 22 -12 c12 -6 31 -23 42 -37 12 -15 21 -22 21 -17 0 5 -5 14 -12 21
-7 7 -8 12 -2 12 6 0 15 -5 22 -12 7 -7 12 -8 12 -2 0 5 -5 15 -12 22 -17 17
-2 15 28 -4 14 -10 32 -30 40 -46 9 -17 18 -27 21 -24 11 11 -20 67 -46 81
-19 10 -21 14 -8 15 18 0 40 -19 70 -60 17 -24 17 -15 0 28 -5 13 0 11 24 -8
59 -47 77 -60 86 -60 5 0 1 7 -7 16 -9 8 -16 16 -16 17 0 1 32 1 72 0 l71 -3
-21 23 c-26 28 -27 40 -7 57 9 7 14 19 11 27 -3 7 -1 13 4 13 6 0 10 9 10 20
0 11 -5 20 -11 20 -6 0 -18 7 -27 16 -15 15 -14 16 8 10 21 -6 22 -5 8 4 -9 6
-15 17 -12 25 4 10 0 15 -11 15 -9 0 -15 6 -13 12 6 16 -19 41 -32 33 -5 -3
-10 -1 -10 5 0 6 7 13 15 16 8 4 15 13 15 20 0 12 -4 12 -21 3 -17 -8 -23 -8
-30 2 -4 7 -6 16 -4 20 3 3 -8 4 -23 2 l-27 -4 23 17 c27 20 29 38 2 31 -11
-3 -20 -1 -20 4 0 5 -7 9 -15 9 -13 0 -14 4 -5 20 12 23 -2 27 -20 6 -21 -26
-75 8 -58 37 12 22 -14 24 -32 2 -16 -19 -33 -9 -27 16 3 11 1 19 -4 19 -5 0
-9 -5 -9 -11 0 -6 -7 -9 -15 -5 -8 3 -15 1 -15 -5 0 -6 -5 -7 -10 -4 -6 3 -8
18 -4 33 5 25 4 25 -9 10 -18 -23 -72 -25 -63 -3 6 15 -17 17 -41 2 -7 -5 -13
1 -15 17 -3 24 -4 24 -43 11 -44 -16 -85 -10 -85 11 0 17 -27 19 -33 2 -4 -10
-6 -10 -6 0 -1 9 -11 11 -36 6 -23 -4 -35 -2 -35 5 0 6 7 11 15 11 8 0 15 4
15 9 0 5 14 16 30 25 30 15 39 9 19 -11 -8 -8 -6 -11 7 -10 24 2 35 17 28 40
-6 19 15 24 33 6 6 -6 17 -9 24 -7 7 2 -2 13 -21 25 -20 12 -28 23 -21 27 6 4
11 2 11 -3 0 -6 5 -11 11 -11 5 0 7 4 4 10 -3 6 4 9 17 9 13 -1 31 2 41 6 11
4 17 3 17 -5 0 -8 6 -9 18 -5 18 8 112 8 217 0 33 -2 102 -4 152 -5 60 -1 91
-6 87 -12 -4 -7 5 -8 26 -3 34 7 126 -2 116 -12 -3 -4 6 -15 21 -25 l28 -18
-25 -1 c-25 0 -25 0 -3 -11 24 -11 49 -61 39 -77 -4 -5 -3 -12 2 -15 7 -4 13
-59 14 -141 1 -27 -7 -102 -15 -147 -4 -22 -34 -94 -58 -140 -16 -32 -20 -66
-25 -259 -3 -123 -8 -227 -11 -232 -3 -5 -9 -62 -13 -126 -12 -174 -16 -194
-66 -351 -45 -141 -80 -231 -129 -336 -13 -28 -33 -75 -45 -105 -11 -30 -25
-63 -30 -74 -5 -11 -30 -74 -55 -139 -26 -66 -70 -167 -99 -225 -53 -107 -66
-128 -208 -348 -70 -109 -78 -127 -78 -170 0 -26 -6 -59 -13 -73 -7 -14 -19
-45 -26 -70 -20 -68 -48 -144 -96 -261 -40 -97 -58 -180 -43 -205 7 -12 -8
-132 -28 -212 -8 -35 -13 -66 -10 -69 3 -3 22 2 42 12 37 17 38 17 56 -5 10
-12 18 -33 18 -47 0 -18 5 -24 18 -21 14 3 17 13 14 59 -4 80 31 103 68 45 8
-13 33 -48 56 -77 68 -89 252 -180 389 -192 62 -5 55 1 -25 24 -25 7 -65 23
-90 36 -25 13 -48 23 -52 23 -30 0 -157 110 -158 136 0 13 29 12 50 -1 30 -19
86 -37 150 -49 36 -6 77 -19 92 -29 15 -10 32 -16 37 -13 5 4 12 2 16 -4 3 -5
14 -10 24 -10 10 0 39 -16 64 -35 25 -19 50 -35 55 -35 5 0 17 -11 26 -25 13
-20 14 -26 4 -29 -39 -13 -40 -14 -10 -15 50 -1 88 -26 187 -119 50 -46 99
-88 110 -92 11 -5 54 -37 95 -72 92 -78 297 -182 490 -250 47 -17 127 -55 179
-87 136 -82 147 -89 246 -146 99 -58 195 -132 266 -203 88 -90 189 -182 200
-182 6 0 8 8 5 18 -2 9 -12 61 -22 116 -16 97 -21 105 -69 140 -19 14 -19 15
10 26 17 7 50 15 75 18 57 6 65 19 37 57 -41 54 -41 54 186 115 34 9 47 18 47
31 0 13 -9 19 -37 21 l-38 3 35 30 c37 31 220 216 220 222 0 2 -13 3 -30 3
-16 0 -30 2 -30 5 0 22 30 55 72 80 57 33 98 69 98 84 0 6 -23 -3 -51 -20 -29
-16 -65 -33 -81 -36 -15 -3 -31 -10 -34 -14 -9 -16 -26 -10 -20 7 5 13 0 12
-27 -4 -89 -54 -103 -62 -118 -62 -9 0 -19 7 -23 15 -6 16 22 85 35 85 4 0 13
17 20 38 7 20 20 48 29 62 70 105 90 138 90 150 0 9 -6 8 -21 -6 -25 -22 -52
-10 -57 27 -2 13 -7 29 -12 34 -4 6 -10 30 -14 55 -4 25 -14 68 -24 95 l-17
50 -6 -110 c-7 -128 -24 -174 -72 -194 -18 -7 -56 -24 -86 -37 -29 -13 -65
-24 -79 -24 -23 0 -24 -1 -9 -18 24 -27 -4 -52 -80 -71 -21 -6 -58 -15 -82
-22 -38 -10 -46 -10 -55 3 -6 9 -32 18 -56 21 -134 18 -139 19 -166 64 l-25
43 28 11 c15 6 39 15 52 20 18 8 22 15 17 33 -8 32 14 48 72 52 73 6 164 35
194 62 16 15 30 40 34 61 3 20 11 58 17 85 11 48 11 49 -18 72 -35 28 -63 30
-139 10 -30 -8 -63 -12 -74 -10 -19 6 -54 -34 -51 -59 3 -28 -2 -37 -25 -37
-27 0 -37 18 -29 49 3 12 2 21 -3 20 -5 -1 -17 1 -27 6 -10 4 -39 5 -64 2 -25
-3 -59 0 -75 5 -29 10 -54 43 -50 66 2 6 -1 12 -7 12 -12 0 -32 57 -25 75 3 8
-10 34 -30 59 -37 44 -35 55 9 52 31 -2 77 -43 79 -70 0 -13 3 -23 5 -20 7 7
41 -44 44 -67 4 -27 18 -33 51 -25 21 5 24 11 22 48 -2 39 -5 43 -35 51 -31 8
-33 11 -27 39 3 18 7 32 9 33 44 27 67 51 72 74 3 16 13 35 21 42 8 6 14 17
14 24 0 7 9 24 20 38 18 22 23 24 48 15 57 -22 92 1 187 122 28 34 69 84 92
109 24 26 72 105 110 181 49 96 69 129 71 112 5 -36 -50 -182 -69 -182 -3 0
-17 -25 -29 -55 -12 -31 -31 -61 -41 -69 -10 -7 -38 -51 -62 -99 -24 -47 -50
-93 -57 -102 -7 -8 -10 -18 -7 -21 10 -10 98 35 95 48 -5 29 34 80 78 99 49
22 87 77 108 156 7 27 27 73 44 103 69 123 141 365 162 549 20 173 31 221 51
232 23 12 28 2 34 -62 2 -24 8 -93 13 -153 5 -61 6 -119 2 -130 -16 -43 -42
-167 -37 -173 4 -3 8 0 11 8 2 8 13 43 24 79 22 69 31 164 34 352 2 110 1 119
-21 142 -18 20 -21 28 -12 44 6 11 8 28 4 38 -4 11 1 22 16 33 28 22 19 45
-22 59 l-32 10 31 1 c48 2 57 21 26 52 -36 35 -45 40 -218 103 -142 51 -172
65 -289 131 -60 33 -158 110 -200 156 -28 31 -27 30 20 -7 80 -64 116 -88 190
-131 123 -70 137 -68 38 7 -36 28 -73 59 -80 70 -8 11 -20 20 -26 20 -7 0 -20
8 -28 18 -9 9 -34 31 -55 48 -21 18 -52 44 -67 58 -16 15 -33 24 -38 20 -5 -3
-8 -2 -7 3 2 5 -44 59 -101 121 -57 61 -120 134 -140 161 -47 64 -126 193
-127 206 -1 26 -16 52 -29 52 -19 0 -19 -3 6 -44 12 -19 19 -37 16 -40 -3 -3
-17 18 -31 45 -25 50 -25 51 -5 47 22 -4 22 3 3 49 -15 38 16 5 40 -42 29 -56
76 -121 76 -105 0 7 -5 15 -11 18 -6 4 -8 14 -5 22 3 8 1 11 -4 8 -6 -4 -7 2
-4 12 4 13 3 15 -4 5 -8 -11 -10 -11 -15 0 -3 9 1 15 10 15 8 0 27 -28 44 -66
39 -86 95 -159 198 -259 85 -81 138 -114 246 -153 39 -14 44 -18 24 -18 -15
-1 -56 10 -92 23 -35 14 -67 22 -71 19 -7 -8 106 -112 144 -133 15 -8 40 -30
55 -48 67 -80 247 -192 339 -210 33 -7 61 -10 64 -7 7 7 -19 36 -28 30 -4 -2
-22 7 -41 20 -18 14 -84 55 -146 92 -122 72 -143 94 -41 43 69 -35 155 -69
263 -105 68 -23 92 -24 79 -4 -8 13 -81 59 -94 59 -40 0 -372 192 -357 207 5
5 137 -65 222 -117 55 -34 108 -56 128 -52 4 1 7 -2 7 -8 0 -5 6 -10 13 -10 6
1 2 9 -11 19 -14 13 -20 26 -16 38 4 13 3 15 -4 5 -8 -12 -15 -11 -41 2 -17 9
-31 18 -31 20 0 2 19 2 42 -2 l42 -5 -22 34 c-24 38 -53 48 -219 74 -118 19
-140 29 -154 74 -13 40 -46 81 -65 81 -18 0 -27 17 -13 26 8 5 9 3 4 -6 -6
-10 -2 -12 18 -8 16 3 24 1 21 -6 -7 -19 89 -113 126 -124 44 -13 190 -24 190
-14 0 4 -23 20 -50 36 -27 16 -47 33 -45 36 3 4 -23 20 -58 35 -34 16 -64 31
-67 35 -3 4 -20 10 -39 13 -18 4 -60 23 -94 44 -61 37 -220 182 -240 218 -5
11 23 -14 64 -56 97 -98 259 -207 292 -196 7 2 18 -2 25 -10 7 -7 23 -13 35
-13 20 0 20 0 1 16 -17 14 -17 15 -1 10 10 -3 21 -6 23 -6 2 0 4 -7 4 -15 0
-8 7 -15 15 -15 8 0 15 9 15 20 0 11 -7 23 -15 26 -8 4 -15 10 -15 16 0 5 -12
25 -27 45 -26 34 -27 36 -5 29 20 -7 18 0 -23 79 -25 48 -45 89 -45 92 0 12
32 -31 74 -97 36 -58 46 -69 46 -50 0 20 2 22 10 10 5 -8 10 -10 10 -4 0 5
-11 25 -25 44 -29 40 -30 41 -9 33 14 -5 14 -3 3 15 -7 11 -17 19 -21 16 -4
-3 -5 1 -2 9 5 13 -22 44 -35 40 -3 -1 -5 5 -3 13 2 8 -2 14 -7 14 -5 0 -13 9
-16 20 -4 11 -11 17 -17 14 -6 -4 -8 -2 -5 3 4 6 -4 22 -18 34 -13 13 -25 27
-25 30 0 13 -85 136 -132 191 -26 31 -48 59 -48 62 0 18 123 -125 180 -209 70
-104 198 -263 187 -232 -4 9 -18 66 -32 125 -62 255 -187 580 -286 742 -22 37
-22 37 31 -27 10 -12 69 -119 102 -185 10 -20 18 -42 18 -49 0 -8 5 -7 17 2
15 12 16 12 10 -3 -4 -12 -2 -18 7 -18 8 0 19 -14 26 -30 7 -17 17 -33 22 -36
13 -8 -2 48 -17 66 -16 19 -46 90 -38 90 3 0 -1 8 -9 18 -9 9 -19 27 -22 40
-4 12 -11 22 -16 22 -5 0 -7 7 -4 15 4 10 2 13 -8 10 -16 -6 -57 59 -45 71 3
4 -7 26 -23 50 -17 23 -30 47 -30 52 0 5 -16 30 -36 56 -19 25 -33 50 -30 54
8 13 -35 79 -158 242 -111 146 -127 173 -268 458 -82 167 -148 305 -146 307 5
5 17 -20 182 -355 91 -185 132 -257 195 -340 83 -110 185 -225 157 -178 -23
39 -20 45 10 17 l26 -24 -19 35 c-23 41 -37 88 -34 113 1 9 -2 17 -8 17 -5 0
-12 13 -16 30 -4 16 -11 32 -16 35 -5 4 -9 15 -9 27 0 14 -5 18 -15 15 -8 -4
-17 -2 -20 3 -4 6 1 10 9 10 13 0 13 6 -4 36 -11 19 -20 41 -18 47 1 7 -5 28
-14 47 -8 19 -18 49 -22 65 -4 17 -18 67 -32 113 -14 46 -23 86 -20 89 3 4 6
1 6 -6 0 -7 5 -9 10 -6 6 3 10 0 10 -8 0 -7 14 -40 30 -73 17 -32 29 -51 26
-41 -3 9 0 17 5 17 7 0 9 -11 6 -27 -7 -35 13 -113 29 -113 16 0 75 27 96 43
15 12 16 19 6 48 -7 19 -23 48 -35 66 -13 17 -23 36 -23 41 0 5 -7 15 -15 22
-8 7 -20 30 -25 51 -10 37 -48 89 -66 89 -5 1 -27 39 -49 85 -22 46 -43 84
-47 85 -5 0 -8 6 -8 13 0 8 -11 27 -25 43 -13 15 -27 41 -30 55 -4 15 -13 33
-21 40 -8 6 -14 18 -14 25 0 8 -4 14 -9 14 -5 0 -16 12 -24 28 -34 66 -53 97
-61 103 -4 4 -3 8 4 11 10 3 8 12 -5 38 -10 21 -12 30 -4 23 7 -7 22 -13 33
-13 19 0 17 4 -12 31 -18 17 -29 35 -26 41 4 6 -1 6 -14 -1 -18 -10 -23 -8
-33 11 -11 21 -11 22 5 9 22 -19 32 -6 17 22 -7 13 -13 29 -15 37 -2 15 -29
78 -47 113 -5 10 -7 22 -4 27 4 6 -9 10 -29 10 -42 0 -47 15 -11 32 19 8 22
14 14 24 -6 7 -8 18 -4 24 4 6 -10 40 -29 76 -41 74 -45 89 -14 49 34 -44 70
-77 76 -71 3 3 -3 15 -12 25 -16 18 -17 29 -7 123 6 57 15 157 21 223 5 66 18
187 30 270 11 82 19 168 19 190 -1 22 4 81 11 130 6 50 11 103 11 119 0 16 3
34 8 40 4 6 9 55 10 109 1 57 6 106 14 117 9 16 9 24 -1 40 -16 27 -15 41 8
70 19 24 28 100 13 100 -5 0 -8 18 -8 40 0 25 5 40 13 40 7 0 12 15 12 40 l0
40 -4105 0 -4105 0 0 -5120z m6757 4671 c24 -14 43 -30 43 -35 0 -4 -15 3 -32
16 -18 14 -57 37 -85 52 -29 14 -53 29 -53 31 0 7 73 -30 127 -64z m583 -515
c0 -3 -4 -8 -10 -11 -5 -3 -10 -1 -10 4 0 6 5 11 10 11 6 0 10 -2 10 -4z m26
-41 c9 -8 11 -15 6 -15 -5 0 -15 7 -22 15 -7 8 -9 15 -6 15 4 0 14 -7 22 -15z
m44 -35 c0 -5 -4 -10 -10 -10 -5 0 -10 5 -10 10 0 6 5 10 10 10 6 0 10 -4 10
-10z m-214 -61 c8 -13 -21 1 -51 26 -19 15 -18 15 12 1 17 -9 35 -21 39 -27z
m237 12 c15 -8 27 -18 27 -23 0 -4 8 -8 17 -8 9 0 13 -3 9 -7 -8 -8 -96 38
-96 50 0 5 3 7 8 5 4 -2 19 -10 35 -17z m-147 -64 c52 -39 147 -141 271 -292
55 -68 154 -235 138 -235 -3 0 -16 22 -30 49 -25 50 -56 83 -41 45 4 -10 -7
-3 -23 16 -17 19 -30 40 -30 45 0 6 11 -3 24 -20 42 -51 27 -11 -17 47 -105
136 -236 282 -300 333 -82 65 -76 74 8 12z m-61 -15 c22 -21 57 -60 79 -86 21
-26 41 -45 44 -42 3 4 -3 16 -14 29 -10 13 5 -1 34 -30 28 -30 52 -51 52 -48
0 3 10 -4 23 -15 22 -21 22 -22 3 -36 -11 -8 -15 -14 -10 -14 6 0 14 4 20 9
18 18 123 -96 109 -118 -3 -6 1 -22 10 -35 9 -14 16 -27 16 -30 -3 -19 0 -26
9 -21 6 3 7 -1 4 -9 -4 -9 -1 -16 6 -16 7 0 10 -7 6 -15 -3 -9 5 -37 18 -63
23 -45 39 -80 105 -226 17 -37 31 -78 31 -90 0 -17 2 -18 11 -6 8 12 9 11 5
-6 -4 -11 1 -29 9 -40 15 -18 16 -18 10 6 -5 19 -4 22 4 10 6 -8 8 -23 5 -33
-3 -11 -1 -16 7 -15 8 2 14 -8 14 -26 1 -16 6 -31 13 -34 7 -2 10 -14 7 -30
-5 -24 -4 -24 5 -7 9 18 10 17 7 -7 -2 -15 -1 -25 3 -23 3 2 22 -33 41 -77 19
-45 54 -113 77 -152 52 -84 64 -106 59 -106 -2 0 -19 23 -36 52 -26 41 -35 49
-43 37 -8 -11 -9 -10 -4 4 4 11 -6 42 -23 75 -16 32 -36 73 -45 92 -11 25 -16
29 -16 15 -1 -12 -9 0 -20 27 -11 26 -40 82 -66 123 -53 89 -55 109 -3 30 34
-51 36 -52 36 -24 0 16 -3 25 -7 19 -3 -5 -31 29 -62 78 -72 114 -103 170 -96
177 3 3 25 -28 48 -70 23 -42 43 -75 46 -73 2 3 -25 67 -61 144 -74 158 -133
252 -146 232 -12 -19 -11 0 1 22 7 13 7 21 -2 26 -7 5 -8 3 -3 -6 5 -9 4 -11
-4 -6 -6 4 -9 11 -6 16 9 15 -44 95 -100 150 -30 30 -55 60 -55 66 0 7 -4 14
-8 16 -5 2 -37 37 -72 78 -34 41 -78 90 -97 108 -20 17 -31 32 -26 32 5 0 27
-17 48 -38z m305 8 c0 -5 -4 -10 -10 -10 -5 0 -10 5 -10 10 0 6 5 10 10 10 6
0 10 -4 10 -10z m45 -30 c3 -5 1 -10 -4 -10 -6 0 -11 5 -11 10 0 6 2 10 4 10
3 0 8 -4 11 -10z m182 -175 c65 -86 70 -94 37 -60 -26 27 -92 108 -118 145
-29 42 42 -33 81 -85z m-286 -132 c13 -16 12 -17 -3 -4 -10 7 -18 15 -18 17 0
8 8 3 21 -13z m-1736 -31 c-3 -3 -11 0 -18 7 -9 10 -8 11 6 5 10 -3 15 -9 12
-12z m-48 2 c-3 -3 -12 -4 -19 -1 -8 3 -5 6 6 6 11 1 17 -2 13 -5z m318 -73
c-3 -6 -11 -8 -17 -5 -6 4 -5 9 3 15 16 10 23 4 14 -10z m1514 -106 c31 -38
73 -95 93 -126 47 -73 115 -207 96 -192 -8 7 -25 35 -38 63 -13 28 -27 46 -30
39 -5 -7 -9 -5 -13 6 -5 11 -3 14 5 9 19 -12 3 20 -52 101 -28 42 -55 73 -59
70 -5 -2 -15 3 -22 13 -13 15 -12 16 4 3 37 -29 14 9 -45 75 -34 38 -47 56
-29 39 18 -16 59 -61 90 -100z m251 52 c0 -5 -11 5 -25 21 -14 17 -25 34 -25
38 1 11 50 -48 50 -59z m-1646 37 c9 -25 2 -26 -17 -4 -13 16 -14 20 -3 20 8
0 17 -7 20 -16z m1297 -11 c13 -16 12 -17 -3 -4 -10 7 -18 15 -18 17 0 8 8 3
21 -13z m249 -47 c0 -6 -7 -1 -15 10 -8 10 -15 23 -15 28 0 6 7 1 15 -10 8
-10 15 -23 15 -28z m-1 -39 c17 -27 27 -46 21 -42 -12 8 -70 91 -70 101 0 11
12 -3 49 -59z m-36 -59 c10 -16 15 -28 13 -28 -7 0 -66 87 -66 96 0 8 27 -27
53 -68z m126 -16 c36 -72 92 -228 90 -255 0 -7 -15 31 -33 83 -18 52 -52 133
-75 178 -23 46 -37 81 -31 77 6 -3 28 -41 49 -83z m85 19 c-5 -5 -28 23 -45
54 -6 11 3 4 20 -15 16 -19 28 -36 25 -39z m-1393 2 c13 -16 12 -17 -3 -4 -10
7 -18 15 -18 17 0 8 8 3 21 -13z m39 -13 c0 -5 -2 -10 -4 -10 -3 0 -8 5 -11
10 -3 6 -1 10 4 10 6 0 11 -4 11 -10z m1375 -10 c3 -5 1 -10 -4 -10 -6 0 -11
5 -11 10 0 6 2 10 4 10 3 0 8 -4 11 -10z m-214 -25 c3 2 5 -5 5 -15 0 -25 0
-25 -22 8 -13 19 -13 24 -2 15 8 -7 17 -11 19 -8z m318 -88 c35 -37 62 -69 59
-72 -4 -5 -113 105 -148 150 -30 38 22 -7 89 -78z m-369 42 c15 -28 5 -23 -15
7 -9 15 -12 23 -6 20 6 -4 16 -16 21 -27z m200 -114 c0 -5 -5 -3 -10 5 -5 8
-10 20 -10 25 0 6 5 3 10 -5 5 -8 10 -19 10 -25z m19 -45 c11 -24 11 -24 -3
-6 -9 11 -16 24 -16 30 0 12 5 7 19 -24z m-3039 -4 c0 -9 -30 -14 -35 -6 -4 6
3 10 14 10 12 0 21 -2 21 -4z m140 -25 c0 -12 -28 -22 -34 -12 -3 5 -3 11 1
15 9 9 33 7 33 -3z m-245 -20 c-16 -14 -70 -20 -85 -10 -12 8 -10 9 7 4 12 -3
24 -1 28 5 3 5 18 10 33 10 15 0 22 -4 17 -9z m3229 -176 c7 -18 6 -18 -4 -2
-16 25 -59 175 -52 182 4 3 16 -31 28 -77 12 -46 24 -92 28 -103z m-3291 132
c24 -13 25 -14 8 -29 -23 -20 -68 -31 -76 -18 -3 5 -1 10 5 10 6 0 9 4 6 9 -4
5 4 7 16 4 22 -4 22 -4 5 10 -14 11 -15 16 -5 20 7 3 14 6 14 6 1 1 13 -5 27
-12z m3196 -109 c34 -76 54 -137 95 -303 8 -33 17 -71 21 -85 4 -16 0 -12 -10
9 -9 19 -31 96 -50 171 -18 74 -49 170 -69 213 -19 42 -33 77 -30 77 3 0 22
-37 43 -82z m-3259 32 c0 -5 -9 -10 -21 -10 -11 0 -17 5 -14 10 3 6 13 10 21
10 8 0 14 -4 14 -10z m2460 -140 c0 -5 -4 -10 -10 -10 -5 0 -10 5 -10 10 0 6
5 10 10 10 6 0 10 -4 10 -10z m929 -120 c0 -13 -1 -13 -8 0 -5 8 -12 26 -15
40 l-7 25 15 -25 c9 -14 15 -32 15 -40z m-3494 -9 c-3 -12 -13 -21 -21 -21
-18 0 -18 9 3 32 20 22 27 17 18 -11z m-45 -32 c0 -5 6 -7 13 -3 6 3 -1 -5
-17 -20 -34 -30 -37 -32 -30 -11 4 8 11 15 16 15 6 0 8 7 4 15 -3 8 -1 15 4
15 6 0 10 -5 10 -11z m70 1 c0 -5 -4 -10 -10 -10 -5 0 -10 5 -10 10 0 6 5 10
10 10 6 0 10 -4 10 -10z m3538 -105 c6 -27 18 -104 27 -170 15 -117 36 -220
51 -259 5 -13 4 -17 -3 -13 -18 12 -52 180 -69 347 -3 25 -12 70 -20 100 -25
89 -27 99 -11 70 8 -14 19 -47 25 -75z m-3623 35 c-3 -5 -11 -10 -16 -10 -6 0
-7 5 -4 10 3 6 11 10 16 10 6 0 7 -4 4 -10z m3574 -30 c0 -10 -3 -8 -9 5 -12
27 -12 43 0 25 5 -8 9 -22 9 -30z m-3589 -10 c-8 -5 -19 -10 -25 -10 -5 0 -3
5 5 10 8 5 20 10 25 10 6 0 3 -5 -5 -10z m3609 -69 c1 -35 -5 -22 -12 24 -5
28 -4 34 3 20 5 -11 9 -31 9 -44z m-3624 29 c-3 -5 -11 -10 -16 -10 -6 0 -7 5
-4 10 3 6 11 10 16 10 6 0 7 -4 4 -10z m2795 -54 c0 -3 -4 -8 -10 -11 -5 -3
-10 -1 -10 4 0 6 5 11 10 11 6 0 10 -2 10 -4z m1245 -16 c3 -5 1 -10 -4 -10
-6 0 -11 5 -11 10 0 6 2 10 4 10 3 0 8 -4 11 -10z m-420 -150 l5 -65 -19 90
c-23 106 -26 149 -5 85 8 -25 16 -74 19 -110z m12 128 c-3 -8 -6 -5 -6 6 -1
11 2 17 5 13 3 -3 4 -12 1 -19z m-3647 -52 c0 -2 -7 -7 -16 -10 -8 -3 -12 -2
-9 4 6 10 25 14 25 6z m68 -51 c10 -22 9 -25 -9 -25 -11 0 -17 4 -14 10 4 6 1
17 -5 25 -10 12 -9 15 2 15 8 0 20 -11 26 -25z m4072 -11 c0 -8 -4 -14 -9 -14
-11 0 -22 26 -14 34 9 9 23 -3 23 -20z m-473 -96 c-3 -8 -6 -5 -6 6 -1 11 2
17 5 13 3 -3 4 -12 1 -19z m17 -54 c4 -19 10 -43 13 -52 3 -9 3 -14 -1 -10
-12 10 -36 98 -27 98 5 0 12 -16 15 -36z m-47 -46 c-2 -13 -4 -5 -4 17 -1 22
1 32 4 23 2 -10 2 -28 0 -40z m112 -58 c0 -9 -4 -8 -9 5 -5 11 -9 27 -9 35 0
9 4 8 9 -5 5 -11 9 -27 9 -35z m1 -35 c1 6 12 -19 25 -55 62 -174 167 -388
210 -425 6 -5 28 -39 48 -75 21 -36 49 -80 63 -99 13 -19 22 -36 19 -39 -2 -2
8 -23 24 -46 16 -22 38 -60 50 -84 13 -26 26 -40 33 -36 6 4 8 3 5 -3 -7 -11
76 -180 121 -245 17 -24 49 -60 72 -80 43 -39 86 -88 75 -88 -3 0 -53 46 -109
103 -57 56 -102 95 -99 87 3 -8 -6 -1 -19 15 -12 17 -39 48 -59 70 -20 22 -60
72 -89 110 -78 103 -113 140 -124 137 -6 -2 -8 0 -4 4 8 8 -22 64 -34 64 -4 0
-8 10 -8 22 0 12 -3 18 -7 15 -4 -4 -13 7 -20 24 -22 53 -8 43 36 -26 23 -35
48 -70 55 -77 6 -7 47 -58 91 -113 43 -55 91 -112 106 -127 16 -15 36 -42 45
-60 31 -60 25 -13 -7 56 -23 50 -34 64 -41 54 -6 -9 -7 -5 -3 11 6 19 4 23 -8
18 -9 -3 -18 1 -21 9 -3 9 -1 12 4 9 15 -9 12 12 -6 48 -17 32 -114 167 -120
167 -6 0 19 -52 48 -103 16 -27 24 -46 19 -43 -5 3 -31 43 -57 89 -26 45 -69
118 -95 162 -58 98 -161 322 -214 465 -21 58 -42 109 -47 115 -4 5 -8 16 -8
25 0 8 11 -3 25 -25 13 -22 25 -35 25 -30z m-3294 -81 c6 -8 15 -14 19 -14 4
0 19 -9 35 -20 15 -11 30 -17 34 -13 3 3 6 1 6 -4 0 -6 -3 -13 -7 -16 -5 -2
-3 -2 4 -1 22 5 73 -17 73 -32 0 -8 -7 -14 -15 -14 -23 0 -18 -14 9 -26 20 -9
23 -9 19 2 -3 8 0 14 6 14 6 0 11 -6 11 -13 0 -7 9 -21 21 -30 20 -18 21 -18
14 3 -6 19 -5 19 20 -4 15 -14 43 -30 63 -37 21 -7 39 -15 42 -19 3 -4 19 -15
37 -23 17 -9 34 -25 37 -35 4 -10 18 -25 31 -32 14 -7 25 -21 25 -31 0 -10 5
-21 11 -24 6 -4 8 -13 5 -20 -3 -8 0 -15 7 -18 8 -2 7 -9 -4 -20 -9 -9 -19
-13 -23 -10 -3 4 -6 4 -6 0 0 -3 6 -12 14 -20 12 -12 9 -13 -22 -11 -49 3 -49
3 -32 14 13 9 13 11 0 20 -13 9 -13 10 0 10 9 0 4 8 -13 18 -15 10 -39 32 -55
48 -29 31 -57 51 -84 60 -10 4 -18 10 -18 15 0 5 -16 15 -35 23 -19 9 -39 25
-44 37 -5 14 -10 18 -15 11 -11 -19 -36 -2 -36 25 l0 25 -20 -23 c-12 -15 -18
-17 -14 -8 3 10 0 20 -7 25 -8 5 -10 3 -4 -7 8 -12 6 -12 -8 0 -11 8 -17 9
-17 3 0 -6 -6 -9 -12 -7 -7 3 -14 22 -16 43 -1 20 -8 42 -16 47 -7 6 -16 21
-21 34 -6 18 -4 22 6 15 10 -5 9 0 -3 16 -10 16 -24 24 -40 23 -12 -1 -17 1
-9 4 11 5 11 7 0 15 -10 6 -6 7 11 3 14 -4 30 -13 36 -21z m3191 -66 c-2 -13
-4 -3 -4 22 0 25 2 35 4 23 2 -13 2 -33 0 -45z m-3232 22 c3 -5 1 -10 -4 -10
-6 0 -11 5 -11 10 0 6 2 10 4 10 3 0 8 -4 11 -10z m3215 -139 c0 -45 -6 -37
-13 18 -4 29 -2 40 4 30 5 -7 9 -29 9 -48z m27 17 c-3 -7 -5 -2 -5 12 0 14 2
19 5 13 2 -7 2 -19 0 -25z m-20 -95 c-3 -10 -5 -4 -5 12 0 17 2 24 5 18 2 -7
2 -21 0 -30z m369 -101 c13 -29 24 -57 24 -61 0 -5 3 -11 8 -13 21 -9 159
-254 149 -264 -2 -2 -14 19 -28 48 -21 45 -50 89 -89 136 -6 7 -27 47 -47 90
-46 102 -51 113 -57 142 l-6 25 11 -25 c7 -14 22 -49 35 -78z m74 18 c6 -11 8
-20 6 -20 -3 0 -10 9 -16 20 -6 11 -8 20 -6 20 3 0 10 -9 16 -20z m-1433 -6
c-3 -3 -12 -4 -19 -1 -8 3 -5 6 6 6 11 1 17 -2 13 -5z m980 -41 c-3 -10 -5 -2
-5 17 0 19 2 27 5 18 2 -10 2 -26 0 -35z m30 15 c-3 -7 -5 -2 -5 12 0 14 2 19
5 13 2 -7 2 -19 0 -25z m623 -8 c8 -5 11 -10 5 -10 -5 0 -17 5 -25 10 -8 5
-10 10 -5 10 6 0 17 -5 25 -10z m-643 -72 c-3 -7 -5 -2 -5 12 0 14 2 19 5 13
2 -7 2 -19 0 -25z m-3092 -16 c-3 -3 -11 0 -18 7 -9 10 -8 11 6 5 10 -3 15 -9
12 -12z m-1079 -7 c29 -15 26 -19 -10 -15 -25 2 -55 30 -33 30 8 0 28 -7 43
-15z m4211 -7 c-3 -8 -6 -5 -6 6 -1 11 2 17 5 13 3 -3 4 -12 1 -19z m-4297 -8
c0 -5 -5 -10 -11 -10 -5 0 -7 5 -4 10 3 6 8 10 11 10 2 0 4 -4 4 -10z m4267
-12 c-3 -8 -6 -5 -6 6 -1 11 2 17 5 13 3 -3 4 -12 1 -19z m-4133 -13 c3 -8 1
-15 -4 -15 -6 0 -10 7 -10 15 0 8 2 15 4 15 2 0 6 -7 10 -15z m-34 -14 c-13
-25 -13 -31 1 -31 5 0 7 5 3 12 -5 8 0 9 17 5 13 -4 34 -7 47 -7 12 0 21 -5
20 -12 -2 -7 3 -12 10 -10 18 3 15 -15 -5 -27 -10 -6 -13 -11 -7 -11 5 0 15 5
21 11 9 9 20 9 42 -1 33 -13 44 -33 14 -24 -11 3 -6 -4 11 -19 18 -15 36 -23
50 -20 17 4 18 3 6 -6 -8 -5 -11 -13 -7 -17 3 -4 14 -1 24 7 15 12 16 12 10
-3 -7 -21 -3 -22 23 -8 22 12 40 -7 19 -21 -7 -4 -10 -11 -7 -15 4 -3 14 1 23
10 21 21 42 21 25 1 -7 -9 -10 -18 -6 -22 3 -3 6 -1 6 5 0 18 34 14 56 -5 10
-10 33 -19 49 -21 17 -2 37 -10 47 -18 12 -12 18 -12 23 -3 6 8 10 7 17 -5 6
-11 23 -16 57 -16 26 0 51 -3 55 -7 4 -4 15 -8 24 -8 9 -1 31 -2 48 -3 19 -1
42 -13 59 -29 25 -25 28 -26 23 -7 -4 17 -1 22 18 22 14 0 24 -6 24 -15 0 -8
-5 -11 -12 -7 -7 5 -8 3 -3 -5 4 -7 16 -11 26 -8 10 3 20 0 23 -7 2 -6 5 0 6
14 1 22 3 23 12 9 11 -15 13 -15 30 5 l19 21 -10 -22 c-15 -30 -14 -40 5 -47
14 -5 15 -4 4 9 -7 8 -11 15 -9 16 43 8 50 8 43 -3 -5 -7 -3 -8 6 -3 7 4 16 2
21 -6 5 -8 9 -9 9 -3 0 6 -7 17 -15 24 -19 16 -19 30 1 30 22 0 7 19 -24 31
-19 7 -23 12 -13 18 9 6 5 10 -13 15 -15 4 -26 13 -26 24 0 10 -3 13 -8 6 -11
-17 -96 22 -89 40 4 10 0 12 -14 9 -10 -3 -19 0 -19 6 0 6 3 11 8 12 4 0 15 2
24 4 10 2 21 -1 24 -6 3 -6 15 -7 26 -3 14 4 18 2 14 -5 -4 -6 -1 -11 7 -11
10 0 14 7 10 23 -5 22 -5 22 15 -2 13 -16 26 -22 40 -19 12 3 23 1 25 -6 3 -8
12 -8 34 0 18 7 37 8 46 3 18 -10 45 15 27 26 -5 3 -14 3 -20 0 -5 -3 -10 -2
-10 4 0 5 -3 16 -6 24 -6 17 26 19 39 2 6 -6 10 -6 13 2 7 16 40 -14 47 -42 3
-14 5 -11 6 10 1 26 3 28 14 14 7 -9 30 -19 52 -23 51 -9 125 -44 148 -69 20
-23 23 -41 5 -31 -10 6 -10 4 0 -7 13 -14 16 -30 5 -28 -26 4 -34 -2 -27 -23
6 -20 5 -21 -10 -9 -11 9 -14 21 -10 35 6 21 6 21 -11 1 -9 -11 -14 -14 -10
-7 9 18 -5 38 -16 21 -4 -7 -1 -25 7 -42 9 -15 14 -36 12 -45 -2 -11 -11 -2
-27 28 -17 34 -21 38 -16 16 3 -15 13 -35 21 -44 10 -9 13 -23 9 -36 -4 -12
-6 -32 -6 -46 1 -18 -2 -21 -8 -11 -7 11 -10 9 -16 -8 -3 -11 -13 -21 -21 -21
-8 0 -14 -6 -14 -14 0 -8 -7 -16 -15 -19 -17 -7 -48 -76 -41 -93 2 -6 0 -16
-6 -22 -6 -6 -6 -12 1 -16 6 -4 11 -2 11 3 0 6 5 11 10 11 7 0 7 -7 0 -20 -8
-16 -8 -20 2 -18 7 2 12 -5 12 -14 -1 -10 2 -15 7 -12 5 3 9 -2 9 -10 0 -9 -6
-13 -14 -10 -9 3 -16 -5 -21 -23 l-7 -28 -13 25 -14 25 -1 -32 c0 -18 5 -33
10 -33 15 0 12 -40 -2 -41 -10 0 -10 -2 0 -6 14 -6 16 -33 2 -33 -5 0 -10 5
-10 10 0 6 -4 10 -9 10 -6 0 -7 -16 -4 -35 3 -22 2 -35 -5 -35 -6 0 -14 -9
-17 -21 -10 -32 -37 -59 -58 -59 -13 0 -17 -5 -13 -16 3 -8 2 -12 -4 -9 -6 3
-10 1 -10 -5 0 -6 -10 -15 -22 -20 -13 -5 -17 -9 -10 -9 14 -1 10 -8 -35 -56
-13 -13 -23 -27 -23 -30 0 -3 -12 -19 -27 -36 -16 -17 -27 -35 -26 -40 2 -5
-2 -9 -7 -9 -6 0 -10 -8 -10 -19 0 -10 -11 -30 -25 -45 -14 -15 -25 -33 -25
-41 0 -7 -7 -20 -15 -28 -13 -13 -13 -16 0 -21 8 -3 15 -11 15 -18 0 -10 -3
-9 -9 1 -7 11 -12 4 -20 -24 -8 -30 -8 -41 2 -47 9 -6 9 -8 0 -8 -7 0 -15 -11
-19 -25 -3 -14 -11 -25 -16 -25 -6 0 -8 6 -5 14 3 8 -2 16 -12 19 -13 3 -17 0
-15 -12 5 -21 -3 -32 -49 -63 -36 -24 -37 -27 -20 -38 16 -10 14 -10 -9 -6
-22 5 -26 3 -22 -9 4 -8 1 -15 -5 -15 -6 0 -11 7 -11 15 0 8 -5 15 -11 15 -5
0 -7 -5 -4 -10 3 -6 -4 -14 -17 -19 -13 -6 -34 -21 -47 -35 -13 -14 -29 -26
-37 -26 -8 0 -14 -6 -14 -14 0 -8 -7 -17 -16 -20 -9 -4 -14 -13 -10 -21 4 -11
-2 -15 -20 -15 -13 0 -27 -7 -30 -15 -4 -8 -15 -15 -26 -15 -17 0 -18 -3 -8
-15 10 -12 10 -15 -2 -15 -17 0 -59 -45 -51 -54 6 -5 -21 -10 -39 -7 -5 0 -8
-6 -8 -14 0 -8 -4 -15 -10 -15 -5 0 -10 -5 -10 -11 0 -6 7 -9 15 -5 8 3 15 1
15 -4 0 -5 8 -7 18 -4 14 5 14 4 2 -4 -8 -6 -17 -9 -21 -6 -4 2 -10 0 -14 -6
-4 -6 5 -10 22 -10 19 0 24 -3 15 -9 -20 -12 -64 -1 -58 15 3 8 1 14 -4 14
-16 0 -12 -36 6 -51 13 -11 12 -14 -13 -26 l-28 -13 28 4 c29 3 37 -11 12 -20
-8 -4 -15 -10 -15 -15 0 -4 7 -6 15 -3 23 9 18 -14 -6 -26 -11 -7 -18 -14 -15
-17 3 -3 12 0 21 7 28 23 27 3 -2 -26 -16 -16 -24 -26 -19 -21 6 4 16 7 23 7
7 0 -8 -20 -33 -45 -50 -50 -54 -52 -55 -27 0 14 -2 14 -9 -3 -7 -17 -9 -17
-9 -2 -1 9 -7 17 -13 18 -7 0 -3 4 10 9 12 5 22 15 22 22 0 10 -2 10 -9 -1 -5
-7 -13 -11 -18 -8 -5 3 -29 -12 -54 -34 -24 -21 -47 -39 -50 -39 -4 0 -9 10
-13 23 -5 18 -8 19 -15 7 -11 -16 -12 -15 -29 23 -12 28 -5 36 17 15 10 -11
11 -10 6 5 -4 9 -11 17 -15 17 -4 0 -8 29 -7 65 0 39 5 65 11 65 6 0 5 4 -3 9
-12 8 -12 12 -2 25 8 9 11 16 7 16 -3 0 0 16 8 35 8 19 11 35 6 35 -5 0 -5 13
1 29 8 22 15 28 30 24 10 -3 19 -12 19 -20 0 -20 23 -11 26 9 1 10 -3 15 -10
12 -7 -3 -19 3 -27 12 -12 16 -12 17 3 12 22 -9 28 0 18 27 -6 16 -4 26 11 38
19 17 27 9 9 -9 -5 -5 -6 -22 -2 -39 8 -30 23 -37 31 -14 2 7 -1 9 -8 5 -6 -4
-11 -2 -11 3 0 6 7 11 15 11 8 0 15 7 15 16 0 9 -5 12 -12 8 -9 -5 -9 -3 0 7
11 12 15 11 28 -5 14 -19 14 -19 14 2 0 12 5 22 11 22 6 0 9 7 5 15 -3 8 -4
15 -2 15 3 0 11 3 20 6 9 3 16 1 16 -6 0 -6 -5 -8 -12 -4 -7 5 -9 2 -5 -9 3
-9 2 -17 -2 -19 -11 -4 -64 -178 -57 -186 3 -3 6 -1 6 4 0 6 7 19 16 30 14 18
15 18 8 -6 -6 -22 -5 -23 10 -8 9 9 16 21 16 27 0 6 8 12 18 12 14 1 13 2 -3
7 -16 4 -11 7 20 17 22 7 32 13 23 14 -32 2 -20 28 13 29 37 1 53 12 18 12
-18 0 -25 6 -25 19 0 15 4 17 21 9 13 -6 30 -5 45 1 14 5 19 10 11 10 -11 1
-11 4 -1 16 16 20 6 19 -25 -1 -14 -9 -25 -12 -25 -6 0 15 49 44 62 36 7 -5 8
-3 3 6 -4 7 -2 16 6 21 12 7 11 9 -1 10 -8 0 -4 4 10 8 14 4 30 18 37 31 7 14
20 32 31 40 10 8 21 23 25 33 4 10 17 17 32 17 19 0 25 5 23 18 -2 13 3 16 22
14 19 -1 22 0 10 8 -13 8 -12 11 5 24 29 22 8 20 -23 -2 -15 -10 -56 -35 -92
-54 -56 -31 -111 -69 -158 -109 -10 -8 -17 -8 -25 1 -7 6 -7 10 -2 9 6 -1 18
1 28 6 15 6 16 10 5 16 -10 7 -9 9 4 9 9 0 19 4 22 9 3 5 -10 9 -29 8 -19 -1
-31 -3 -27 -6 15 -12 10 -27 -8 -27 -14 0 -16 3 -8 13 8 10 7 13 -3 13 -8 0
-5 6 7 14 10 8 21 11 24 7 3 -4 15 -2 27 4 17 9 20 14 11 23 -9 9 -8 12 6 12
15 0 16 3 6 15 -10 13 -9 15 9 15 11 0 21 5 21 10 0 6 -16 10 -35 10 -44 0
-46 19 -2 22 27 1 26 2 -13 8 -25 4 -38 8 -29 8 17 2 35 37 44 81 2 14 9 29
15 35 14 14 12 26 -5 26 -8 0 -17 11 -21 25 -8 31 -11 31 -35 3 -10 -13 -18
-17 -19 -10 0 6 6 12 13 13 9 0 9 2 0 5 -7 3 -10 11 -7 19 4 8 -3 15 -18 18
-18 3 -17 4 4 2 15 -1 29 4 32 11 7 17 -2 21 -41 18 -18 -1 -33 2 -33 6 0 10
26 20 51 20 10 0 19 5 19 11 0 5 -5 7 -10 4 -6 -4 -17 -1 -25 5 -11 10 -15 10
-15 1 0 -7 -5 -9 -10 -6 -6 4 -8 11 -4 16 3 5 0 16 -6 24 -10 12 -9 15 10 15
19 0 20 2 10 15 -7 8 -16 13 -20 10 -4 -3 -7 6 -6 20 1 28 14 33 22 10 9 -23
23 -18 17 6 -3 11 -16 25 -29 30 -14 5 -29 20 -36 34 -6 14 -17 25 -25 25 -15
0 -16 9 -4 29 10 16 4 41 -10 41 -5 0 -9 -8 -10 -17 0 -12 -2 -13 -6 -5 -3 7
1 19 7 28 7 8 9 18 5 22 -4 4 -10 1 -12 -6 -3 -6 -9 -9 -15 -6 -6 4 -5 9 3 15
11 6 10 11 -3 26 -8 10 -15 31 -14 46 2 39 -31 64 -51 39 -13 -15 -13 -15 -3
5 6 14 16 20 25 17 12 -5 15 3 15 35 0 55 0 56 -13 53 -6 -2 -16 4 -23 12 -6
9 -22 20 -35 25 -13 5 -17 10 -9 10 31 2 50 71 19 71 -13 0 -11 -17 4 -24 6
-3 2 -3 -10 0 -15 3 -23 1 -23 -7 0 -7 -3 -9 -6 -6 -4 4 -2 13 5 21 9 11 8 15
-5 20 -15 6 -15 8 1 26 17 19 17 20 0 20 -11 0 -15 5 -12 14 3 8 -1 20 -9 27
-10 8 -12 15 -4 23 17 17 11 27 -10 14 -10 -7 -23 -8 -27 -4 -4 5 -2 11 5 13
6 3 10 9 7 14 -4 5 2 6 11 2 13 -5 16 -3 11 10 -3 8 -1 18 6 21 13 6 -28 -3
-53 -12 -9 -3 -5 6 9 21 l24 27 -23 0 c-24 0 -24 0 6 31 l29 31 -30 -8 c-26
-6 -28 -5 -18 8 7 8 10 18 6 21 -3 4 0 14 8 23 12 15 11 16 -9 10 -13 -5 -22
-3 -22 3 0 6 8 11 18 11 14 0 14 2 3 9 -12 8 -12 12 -2 24 9 12 9 16 -1 21 -9
4 -10 8 -2 11 7 3 10 15 7 26 -3 11 2 28 12 39 20 23 19 25 -15 38 -23 9 -21
10 13 9 20 -1 37 -6 37 -11 0 -7 3 -7 8 0 6 10 27 19 55 23 4 0 3 -8 -3 -18z
m1205 -31 c-3 -5 0 -10 6 -12 5 -2 7 -11 4 -21 -5 -12 -18 -17 -46 -17 -21 0
-39 3 -39 6 0 3 14 26 32 51 30 44 32 45 40 24 4 -13 6 -27 3 -31z m2071 39
c5 -9 -1 -10 -20 -5 -18 4 -25 3 -21 -3 4 -7 0 -8 -10 -4 -13 5 -14 7 -3 14
19 12 46 11 54 -2z m88 2 c7 -10 -33 -23 -47 -14 -10 6 11 23 30 23 6 0 14 -4
17 -9z m743 -98 c-3 -10 -5 -2 -5 17 0 19 2 27 5 18 2 -10 2 -26 0 -35z m70
15 c-3 -8 -6 -5 -6 6 -1 11 2 17 5 13 3 -3 4 -12 1 -19z m-4297 -9 c0 -5 -4
-9 -10 -9 -5 0 -10 7 -10 16 0 8 5 12 10 9 6 -3 10 -10 10 -16z m1132 -4 c21
8 29 -19 13 -42 -14 -17 -14 -17 -15 0 0 10 -6 20 -14 23 -8 3 -17 13 -20 21
-5 13 -4 13 8 4 7 -6 20 -9 28 -6z m-52 -52 c-11 -17 -11 -17 -6 0 3 10 7 26
7 35 1 15 2 15 6 0 2 -10 -1 -25 -7 -35z m3238 -13 c0 -9 -3 -7 -8 5 -5 11 -8
29 -8 40 0 16 2 15 8 -5 4 -14 8 -32 8 -40z m-1648 28 c0 -13 -23 -5 -28 10
-2 7 2 10 12 6 9 -3 16 -11 16 -16z m1567 -45 c-3 -10 -5 -2 -5 17 0 19 2 27
5 18 2 -10 2 -26 0 -35z m-2662 19 c5 0 11 -6 14 -13 2 -6 -1 -9 -6 -6 -6 4
-9 -3 -6 -16 3 -21 -22 -66 -32 -56 -2 3 -7 29 -10 57 -4 48 -3 52 13 43 9 -5
21 -9 27 -9z m2770 -92 c9 -36 22 -78 30 -95 21 -47 175 -446 175 -453 -1 -4
-9 9 -20 28 -11 19 -19 31 -20 25 -1 -26 -135 258 -143 306 -3 13 -12 41 -21
62 -8 21 -11 35 -5 32 10 -7 4 52 -12 115 -5 19 -9 39 -9 44 0 21 9 -3 25 -64z
m-28 -2 c-3 -8 -6 -5 -6 6 -1 11 2 17 5 13 3 -3 4 -12 1 -19z m417 -36 c14
-21 26 -42 26 -47 0 -10 -59 67 -60 78 0 14 7 7 34 -31z m403 6 c-3 -8 -6 -5
-6 6 -1 11 2 17 5 13 3 -3 4 -12 1 -19z m-3643 -62 c-3 -15 -8 -25 -11 -23 -2
3 -1 17 3 31 3 15 8 25 11 23 2 -3 1 -17 -3 -31z m-24 -16 c0 -5 -2 -10 -4
-10 -3 0 -8 5 -11 10 -3 6 -1 10 4 10 6 0 11 -4 11 -10z m1553 -52 c6 -4 9 -9
6 -13 -9 -8 -69 15 -69 27 0 6 6 5 15 -2 13 -11 15 -8 16 16 l0 29 10 -25 c6
-13 15 -28 22 -32z m-1563 26 c0 -3 -7 -12 -15 -20 -16 -17 -18 -14 -9 10 6
15 24 23 24 10z m1316 -11 c6 -10 10 -27 8 -37 -1 -11 4 -32 11 -47 13 -24 13
-28 -2 -33 -10 -4 -26 3 -43 19 -14 14 -31 25 -37 25 -6 0 -16 7 -23 15 -10
12 -10 15 3 15 8 0 17 -6 20 -12 3 -10 9 -10 23 -2 26 15 29 34 5 27 -12 -3
-21 -1 -21 6 0 6 10 11 21 11 18 0 19 2 9 15 -10 12 -10 15 1 15 8 0 19 -8 25
-17z m2078 -29 c3 -8 2 -12 -4 -9 -6 3 -10 10 -10 16 0 14 7 11 14 -7z m104
-168 c39 -81 53 -128 65 -223 2 -18 0 -33 -3 -33 -4 0 -10 25 -14 57 -11 93
-61 220 -123 313 l-16 25 24 -25 c14 -14 44 -65 67 -114z m-97 87 c13 -16 12
-17 -3 -4 -10 7 -18 15 -18 17 0 8 8 3 21 -13z m-2292 -23 c11 -24 11 -24 -3
-6 -9 11 -16 24 -16 30 0 12 5 7 19 -24z m411 20 c0 -5 -8 -10 -17 -10 -15 0
-16 2 -3 10 19 12 20 12 20 0z m-365 -48 c-8 -8 -25 10 -25 26 0 13 2 13 14
-4 8 -10 13 -21 11 -22z m-1266 -35 c-8 -14 -13 -16 -25 -7 -17 15 -10 29 15
27 16 -1 18 -5 10 -20z m3689 -72 c-3 -3 -9 2 -12 12 -6 14 -5 15 5 6 7 -7 10
-15 7 -18z m-4877 -48 c-8 -8 -11 -3 -11 19 1 25 2 27 11 11 8 -14 8 -22 0
-30z m4299 -39 c11 -21 20 -41 20 -45 0 -12 -60 90 -60 102 0 12 14 -8 40 -57z
m441 -33 l10 -20 -16 20 c-9 11 -21 29 -26 40 l-10 20 16 -20 c9 -11 21 -29
26 -40z m-211 20 c13 -14 21 -25 18 -25 -2 0 -15 11 -28 25 -13 14 -21 25 -18
25 2 0 15 -11 28 -25z m-4520 -15 c0 -5 -4 -10 -10 -10 -5 0 -10 5 -10 10 0 6
5 10 10 10 6 0 10 -4 10 -10z m4405 -48 c-8 -8 -25 10 -19 20 4 6 9 5 15 -3 4
-7 6 -15 4 -17z m160 8 c10 -11 16 -20 13 -20 -3 0 -13 9 -23 20 -10 11 -16
20 -13 20 3 0 13 -9 23 -20z m225 -40 c23 -27 40 -50 37 -50 -3 0 -24 23 -47
50 -23 28 -40 50 -37 50 3 0 24 -22 47 -50z m109 -168 c12 -29 21 -60 21 -70
-1 -32 -63 153 -66 198 -3 42 -3 42 11 -15 7 -33 23 -84 34 -113z m-932 106
c-3 -8 -6 -5 -6 6 -1 11 2 17 5 13 3 -3 4 -12 1 -19z m47 -84 c3 -8 2 -12 -4
-9 -6 3 -10 10 -10 16 0 14 7 11 14 -7z m-3914 -14 c0 -5 -2 -10 -4 -10 -3 0
-8 5 -11 10 -3 6 -1 10 4 10 6 0 11 -4 11 -10z m3954 -57 c14 -24 23 -43 19
-43 -8 0 -53 73 -53 86 0 10 3 6 34 -43z m-3954 -3 c0 -5 -4 -10 -10 -10 -5 0
-10 5 -10 10 0 6 5 10 10 10 6 0 10 -4 10 -10z m4880 -35 c33 -35 21 -37 -15
-3 -16 15 -25 28 -19 28 6 0 21 -11 34 -25z m-169 -22 c13 -17 13 -17 -6 -3
-11 8 -22 16 -24 17 -2 2 0 3 6 3 6 0 17 -8 24 -17z m-61 -307 c0 -5 -27 19
-60 54 -33 35 -60 66 -60 69 0 3 27 -21 60 -54 33 -33 60 -64 60 -69z m-4510
55 c0 -5 -7 -11 -15 -15 -9 -3 -12 -12 -8 -23 5 -14 3 -15 -6 -7 -10 9 -10 17
-2 33 12 21 31 29 31 12z m-55 -51 c3 -5 1 -10 -4 -10 -6 0 -11 5 -11 10 0 6
2 10 4 10 3 0 8 -4 11 -10z m5 -45 c11 -13 10 -14 -4 -9 -9 3 -16 10 -16 15 0
13 6 11 20 -6z m590 -26 c0 -5 -4 -9 -10 -9 -5 0 -10 7 -10 16 0 8 5 12 10 9
6 -3 10 -10 10 -16z m-600 -19 c0 -5 -2 -10 -4 -10 -3 0 -8 5 -11 10 -3 6 -1
10 4 10 6 0 11 -4 11 -10z m40 0 c0 -5 -5 -10 -11 -10 -5 0 -7 5 -4 10 3 6 8
10 11 10 2 0 4 -4 4 -10z m-36 -165 c-4 -8 -10 -15 -15 -15 -4 0 -6 7 -3 15 4
8 10 15 15 15 4 0 6 -7 3 -15z m-217 -140 c-7 -13 -14 -20 -15 -14 -2 5 2 16
8 24 18 21 20 18 7 -10z m1063 15 c0 -5 -5 -10 -11 -10 -5 0 -7 5 -4 10 3 6 8
10 11 10 2 0 4 -4 4 -10z m130 3 c0 -5 -11 -13 -25 -20 -29 -13 -33 -6 -7 13
19 15 32 18 32 7z m-80 -23 c0 -5 -4 -10 -10 -10 -5 0 -10 5 -10 10 0 6 5 10
10 10 6 0 10 -4 10 -10z m3947 -56 c-3 -3 -12 -4 -19 -1 -8 3 -5 6 6 6 11 1
17 -2 13 -5z m107 -18 c25 -8 85 -20 131 -27 90 -14 117 -30 38 -22 -51 5
-263 53 -263 59 0 9 49 3 94 -10z m-34 -126 c0 -5 -2 -10 -4 -10 -3 0 -8 5
-11 10 -3 6 -1 10 4 10 6 0 11 -4 11 -10z m-114 -35 c13 -10 14 -14 5 -15 -9
0 -10 -4 -4 -12 16 -21 33 -93 32 -134 -1 -93 -60 -168 -89 -113 -9 16 -9 20
0 14 9 -5 10 -2 3 11 -13 25 -8 154 7 199 9 28 9 39 0 50 -10 12 -9 15 7 15
10 0 28 -7 39 -15z m-3486 -110 c0 -5 -5 -3 -10 5 -5 8 -10 20 -10 25 0 6 5 3
10 -5 5 -8 10 -19 10 -25z m97 29 c-3 -3 -12 -4 -19 -1 -8 3 -5 6 6 6 11 1 17
-2 13 -5z m-1385 -46 c-7 -7 -12 -8 -12 -2 0 6 3 14 7 17 3 4 9 5 12 2 2 -3
-1 -11 -7 -17z m1358 12 c0 -4 -7 -13 -15 -20 -12 -10 -15 -10 -15 3 0 8 -6
17 -12 20 -7 2 -1 4 15 4 15 0 27 -3 27 -7z m-1395 -39 c-3 -6 -11 -11 -17
-11 -6 0 -6 6 2 15 14 17 26 13 15 -4z m828 -16 c-3 -9 -8 -14 -10 -11 -3 3
-2 9 2 15 9 16 15 13 8 -4z m54 -25 c-3 -11 -1 -20 4 -20 5 0 9 7 9 15 0 8 5
15 10 15 6 0 10 -6 10 -12 0 -10 3 -9 9 1 6 9 11 10 15 2 7 -11 -9 -44 -33
-70 -11 -13 -13 -12 -9 5 2 12 -5 25 -22 36 -14 10 -19 18 -12 18 6 0 12 7 12
15 0 8 3 15 6 15 4 0 4 -9 1 -20z m133 -33 c0 -10 -6 -32 -13 -50 -8 -18 -17
-50 -22 -72 -7 -37 -8 -38 -18 -17 -5 12 -14 22 -19 22 -5 0 -6 5 -2 11 4 8 9
7 15 -2 6 -11 9 -10 14 4 9 22 -18 50 -34 34 -6 -6 -11 -19 -11 -29 0 -11 -5
-15 -15 -12 -8 4 -15 10 -15 16 0 5 4 7 9 3 7 -4 26 34 36 75 8 28 20 37 46
36 21 0 29 -6 29 -19z m55 1 c3 -3 -1 -25 -9 -49 -8 -24 -20 -67 -27 -96 -7
-29 -16 -50 -21 -47 -4 3 -8 0 -8 -7 0 -7 -2 -10 -5 -8 -2 3 0 21 6 40 6 19
12 62 14 96 2 34 6 67 9 72 6 10 31 9 41 -1z m48 -23 c-5 -58 -13 -104 -24
-135 -14 -43 -29 -61 -29 -36 0 9 -4 14 -10 11 -5 -3 -10 0 -10 7 0 23 30 139
41 159 12 24 35 19 32 -6z m-911 -25 c-17 -20 -27 -26 -19 -12 2 4 7 15 10 25
4 10 11 16 17 12 5 -3 2 -14 -8 -25z m-82 -40 c0 -5 -4 -10 -10 -10 -5 0 -10
5 -10 10 0 6 5 10 10 10 6 0 10 -4 10 -10z m50 0 c0 -5 -5 -10 -11 -10 -5 0
-7 5 -4 10 3 6 8 10 11 10 2 0 4 -4 4 -10z m90 -20 c0 -5 -4 -10 -10 -10 -5 0
-10 5 -10 10 0 6 5 10 10 10 6 0 10 -4 10 -10z m-77 -17 c-4 -11 -3 -14 5 -9
8 5 12 0 12 -13 0 -12 5 -21 10 -21 15 0 12 -39 -4 -56 -21 -20 -28 -17 -16 6
8 16 8 28 -2 50 -7 17 -17 30 -22 30 -4 0 -3 7 4 15 16 20 21 19 13 -2z m807
-20 c-11 -17 -11 -17 -6 0 3 10 6 24 7 30 0 9 2 9 5 0 3 -7 0 -20 -6 -30z
m-801 -122 c9 -6 10 -11 2 -15 -6 -4 -18 0 -27 8 -12 12 -12 16 -2 16 7 0 19
-4 27 -9z m951 -1 c0 -5 -2 -10 -4 -10 -3 0 -8 5 -11 10 -3 6 -1 10 4 10 6 0
11 -4 11 -10z m-365 -40 c3 -5 1 -10 -4 -10 -6 0 -11 5 -11 10 0 6 2 10 4 10
3 0 8 -4 11 -10z m-599 -93 c8 3 14 0 14 -7 0 -8 -8 -10 -22 -6 -13 3 -27 6
-33 6 -5 0 -3 5 5 10 9 5 16 6 18 0 2 -5 10 -6 18 -3z m158 -313 c3 -8 2 -12
-4 -9 -6 3 -10 10 -10 16 0 14 7 11 14 -7z m456 -244 c0 -5 -4 -10 -10 -10 -5
0 -10 5 -10 10 0 6 5 10 10 10 6 0 10 -4 10 -10z m62 -62 c-2 -15 -5 -28 -7
-28 -2 0 -5 13 -7 28 -2 17 1 29 7 29 6 0 9 -12 7 -29z m-261 -31 c-10 -9 -11
-8 -5 6 3 10 9 15 12 12 3 -3 0 -11 -7 -18z m509 -177 c0 -5 -5 -10 -11 -10
-5 0 -7 5 -4 10 3 6 8 10 11 10 2 0 4 -4 4 -10z m1465 -250 c8 -13 -3 -50 -15
-50 -5 0 -12 10 -16 23 -4 12 -12 25 -18 29 -6 4 1 8 16 8 15 0 30 -5 33 -10z
m95 -15 c14 -9 13 -35 -2 -31 -7 3 -25 7 -40 10 -18 4 -26 12 -25 25 1 15 6
17 29 11 15 -5 32 -11 38 -15z m188 -73 c6 -18 -15 -14 -22 4 -4 10 -1 14 6
12 6 -2 14 -10 16 -16z m1664 -47 c6 -29 -3 -38 -26 -29 -19 7 -21 40 -3 47
22 9 25 7 29 -18z m-5146 -343 c5 -5 28 -14 52 -21 41 -12 62 -25 104 -63 10
-10 22 -18 27 -18 20 0 138 -132 163 -181 52 -107 55 -118 52 -242 -3 -119 -6
-138 -49 -257 -13 -36 -35 -117 -50 -180 -29 -123 -66 -228 -96 -272 -11 -14
-19 -30 -19 -35 0 -8 -78 -84 -160 -155 -64 -57 -143 -63 -175 -15 -14 22 -21
161 -11 227 3 23 12 128 21 255 2 28 6 57 8 65 13 48 18 99 21 220 2 74 9 147
15 163 6 15 8 47 4 72 -3 27 -1 50 5 58 9 11 13 87 10 227 0 19 1 44 2 55 2
11 0 30 -4 42 -12 38 49 81 80 55z m1744 -1922 c0 -5 -9 -10 -21 -10 -11 0
-17 5 -14 10 3 6 13 10 21 10 8 0 14 -4 14 -10z"/>
<path d="M7350 8934 c0 -3 13 -19 30 -37 16 -18 30 -35 30 -39 0 -5 4 -8 10
-8 11 0 -51 88 -62 89 -5 1 -8 -1 -8 -5z"/>
<path d="M7460 8816 c0 -2 8 -10 18 -17 15 -13 16 -12 3 4 -13 16 -21 21 -21
13z"/>
<path d="M7500 8772 c1 -15 48 -63 53 -55 3 5 -7 21 -24 35 -16 15 -29 23 -29
20z"/>
<path d="M7560 8680 c6 -11 13 -20 16 -20 2 0 0 9 -6 20 -6 11 -13 20 -16 20
-2 0 0 -9 6 -20z"/>
<path d="M8252 6692 c13 -31 62 -111 65 -108 5 5 -57 116 -64 116 -2 0 -3 -3
-1 -8z"/>
<path d="M8370 6475 c7 -9 15 -13 17 -11 7 7 -7 26 -19 26 -6 0 -6 -6 2 -15z"/>
<path d="M4830 6960 c8 -5 20 -10 25 -10 6 0 3 5 -5 10 -8 5 -19 10 -25 10 -5
0 -3 -5 5 -10z"/>
<path d="M4840 6910 c0 -5 5 -10 10 -10 6 0 10 5 10 10 0 6 -4 10 -10 10 -5 0
-10 -4 -10 -10z"/>
<path d="M4896 6911 c-4 -7 -5 -15 -2 -18 9 -9 19 4 14 18 -4 11 -6 11 -12 0z"/>
<path d="M3753 6445 c-10 -10 -10 -15 0 -23 9 -8 12 -4 13 14 1 13 1 24 0 24
0 -1 -6 -7 -13 -15z"/>
<path d="M3855 6440 c-3 -5 -2 -10 4 -10 5 0 13 5 16 10 3 6 2 10 -4 10 -5 0
-13 -4 -16 -10z"/>
<path d="M4934 6359 c-3 -6 -2 -15 3 -20 5 -5 9 -1 10 11 2 22 -2 25 -13 9z"/>
<path d="M5013 6235 c1 -11 10 -27 20 -37 9 -10 17 -28 17 -40 0 -19 -2 -20
-10 -8 -5 8 -10 10 -10 4 0 -6 6 -17 14 -23 12 -10 15 -8 18 11 l5 23 11 -25
c6 -14 11 -20 11 -14 1 16 -19 53 -51 94 -19 25 -26 29 -25 15z"/>
<path d="M5060 6233 c0 -5 5 -15 10 -23 7 -12 9 -10 7 8 -1 19 -17 33 -17 15z"/>
<path d="M4825 6220 c-3 -5 -1 -10 4 -10 6 0 11 5 11 10 0 6 -2 10 -4 10 -3 0
-8 -4 -11 -10z"/>
<path d="M4865 6220 c3 -5 8 -10 11 -10 2 0 4 5 4 10 0 6 -5 10 -11 10 -5 0
-7 -4 -4 -10z"/>
<path d="M4916 6221 c2 -2 14 -9 26 -15 12 -6 25 -22 29 -36 4 -14 7 -19 8
-11 1 11 4 11 15 1 13 -10 13 -7 3 19 -6 17 -15 31 -20 31 -4 0 -6 4 -3 9 3 4
-10 8 -28 7 -19 0 -32 -3 -30 -5z"/>
<path d="M4850 6196 c0 -2 7 -9 15 -16 9 -7 15 -8 15 -2 0 5 -7 12 -15 16 -8
3 -15 4 -15 2z"/>
<path d="M4895 6181 c-4 -13 -4 -25 -1 -28 3 -4 6 -1 6 5 0 7 5 12 11 12 5 0
8 -3 6 -7 -3 -5 5 -8 17 -8 19 0 21 3 13 17 -6 9 -15 14 -20 11 -5 -3 -13 0
-17 7 -6 9 -10 6 -15 -9z"/>
<path d="M4545 6180 c-3 -5 0 -10 9 -10 8 0 17 -6 19 -12 4 -8 6 -9 6 -2 1 18
-26 37 -34 24z"/>
<path d="M4846 6157 c3 -10 9 -15 12 -12 3 3 0 11 -7 18 -10 9 -11 8 -5 -6z"/>
<path d="M3855 5910 c-3 -5 -1 -10 4 -10 6 0 11 5 11 10 0 6 -2 10 -4 10 -3 0
-8 -4 -11 -10z"/>
<path d="M5002 5780 c0 -14 2 -19 5 -12 2 6 2 18 0 25 -3 6 -5 1 -5 -13z"/>
<path d="M3930 5660 c0 -5 5 -10 10 -10 6 0 10 5 10 10 0 6 -4 10 -10 10 -5 0
-10 -4 -10 -10z"/>
<path d="M4005 5500 c-3 -5 -1 -10 4 -10 6 0 11 5 11 10 0 6 -2 10 -4 10 -3 0
-8 -4 -11 -10z"/>
<path d="M4160 5140 c0 -5 5 -10 11 -10 5 0 7 5 4 10 -3 6 -8 10 -11 10 -2 0
-4 -4 -4 -10z"/>
<path d="M4150 5100 c0 -5 5 -10 11 -10 5 0 7 5 4 10 -3 6 -8 10 -11 10 -2 0
-4 -4 -4 -10z"/>
<path d="M4120 5050 c0 -5 5 -10 10 -10 6 0 10 5 10 10 0 6 -4 10 -10 10 -5 0
-10 -4 -10 -10z"/>
<path d="M4531 4984 c0 -11 3 -14 6 -6 3 7 2 16 -1 19 -3 4 -6 -2 -5 -13z"/>
<path d="M4145 4920 c-3 -5 -1 -10 4 -10 6 0 11 5 11 10 0 6 -2 10 -4 10 -3 0
-8 -4 -11 -10z"/>
<path d="M3841 4614 c0 -11 3 -14 6 -6 3 7 2 16 -1 19 -3 4 -6 -2 -5 -13z"/>
<path d="M4065 4610 c3 -5 8 -10 11 -10 2 0 4 5 4 10 0 6 -5 10 -11 10 -5 0
-7 -4 -4 -10z"/>
<path d="M4028 4583 c6 -2 18 -2 25 0 6 3 1 5 -13 5 -14 0 -19 -2 -12 -5z"/>
<path d="M8080 6075 c1 -6 7 -21 16 -35 l15 -25 -7 25 c-7 26 -24 52 -24 35z"/>
<path d="M8130 5924 c0 -6 7 -19 16 -30 14 -18 14 -18 3 6 -14 31 -19 36 -19
24z"/>
<path d="M8583 10120 c0 -93 3 -120 14 -120 9 0 13 -13 13 -40 0 -36 3 -40 25
-40 23 0 25 -4 25 -40 0 -29 4 -40 15 -40 11 0 15 -11 15 -40 0 -29 4 -40 15
-40 9 0 15 10 15 26 0 19 4 25 15 21 23 -9 28 9 29 107 1 50 6 144 11 209 l8
117 -100 0 -100 0 0 -120z"/>
<path d="M5615 8660 l-20 -9 20 1 c11 0 31 4 45 8 l25 8 -25 0 c-14 0 -34 -3
-45 -8z"/>
<path d="M5818 8653 c7 -3 16 -2 19 1 4 3 -2 6 -13 5 -11 0 -14 -3 -6 -6z"/>
<path d="M5688 8643 c7 -3 16 -2 19 1 4 3 -2 6 -13 5 -11 0 -14 -3 -6 -6z"/>
<path d="M5770 8646 c0 -2 9 -6 20 -9 11 -3 18 -1 14 4 -5 9 -34 13 -34 5z"/>
<path d="M5860 8630 c0 -5 5 -10 11 -10 5 0 7 5 4 10 -3 6 -8 10 -11 10 -2 0
-4 -4 -4 -10z"/>
<path d="M6038 8613 c7 -3 16 -2 19 1 4 3 -2 6 -13 5 -11 0 -14 -3 -6 -6z"/>
<path d="M5020 8530 c0 -6 7 -10 15 -10 8 0 15 2 15 4 0 2 -7 6 -15 10 -8 3
-15 1 -15 -4z"/>
<path d="M5030 8070 c0 -5 5 -10 11 -10 5 0 7 5 4 10 -3 6 -8 10 -11 10 -2 0
-4 -4 -4 -10z"/>
<path d="M8190 8070 c0 -5 5 -10 10 -10 6 0 10 5 10 10 0 6 -4 10 -10 10 -5 0
-10 -4 -10 -10z"/>
<path d="M4578 8033 c7 -3 16 -2 19 1 4 3 -2 6 -13 5 -11 0 -14 -3 -6 -6z"/>
<path d="M4770 8020 c-19 -4 -21 -7 -9 -12 9 -3 22 -2 30 2 19 13 8 18 -21 10z"/>
<path d="M4570 8000 c0 -5 5 -10 10 -10 6 0 10 5 10 10 0 6 -4 10 -10 10 -5 0
-10 -4 -10 -10z"/>
<path d="M4695 8000 c-7 -12 2 -12 30 0 19 8 19 9 -2 9 -12 1 -25 -3 -28 -9z"/>
<path d="M5010 8000 c0 -6 7 -10 15 -10 8 0 15 2 15 4 0 2 -7 6 -15 10 -8 3
-15 1 -15 -4z"/>
<path d="M4540 7970 c-21 -7 -21 -8 -5 -9 11 0 27 4 35 9 18 11 5 11 -30 0z"/>
<path d="M4745 7970 c-3 -5 3 -10 15 -10 12 0 18 5 15 10 -3 6 -10 10 -15 10
-5 0 -12 -4 -15 -10z"/>
<path d="M4820 7970 c0 -5 5 -10 10 -10 6 0 10 5 10 10 0 6 -4 10 -10 10 -5 0
-10 -4 -10 -10z"/>
<path d="M4960 7940 c0 -7 -23 -8 -61 -5 -54 5 -61 4 -55 -10 3 -9 6 -19 6
-23 0 -3 7 3 15 14 8 10 15 15 15 9 0 -12 80 -14 80 -2 0 5 10 5 22 1 20 -6
21 -5 6 10 -19 18 -28 20 -28 6z"/>
<path d="M4725 7930 c4 -6 11 -8 16 -5 14 9 11 15 -7 15 -8 0 -12 -5 -9 -10z"/>
<path d="M4774 7931 c3 -5 15 -7 26 -4 28 7 25 13 -6 13 -14 0 -23 -4 -20 -9z"/>
<path d="M4910 7899 c0 -5 5 -7 10 -4 6 3 10 8 10 11 0 2 -4 4 -10 4 -5 0 -10
-5 -10 -11z"/>
<path d="M4980 7900 c0 -5 5 -10 11 -10 5 0 7 5 4 10 -3 6 -8 10 -11 10 -2 0
-4 -4 -4 -10z"/>
<path d="M4750 7880 c0 -5 5 -10 11 -10 5 0 7 5 4 10 -3 6 -8 10 -11 10 -2 0
-4 -4 -4 -10z"/>
<path d="M4865 7880 c4 -6 11 -8 16 -4 6 3 7 -4 3 -20 -5 -21 -3 -26 12 -26
15 0 16 2 5 9 -12 7 -12 13 -3 24 7 7 9 17 5 20 -10 11 -45 8 -38 -3z"/>
<path d="M4930 7872 c0 -15 22 -29 63 -40 22 -6 37 -7 37 -1 0 5 -11 9 -24 9
-13 0 -35 9 -50 21 -14 11 -26 16 -26 11z"/>
<path d="M4995 7860 c3 -5 8 -10 11 -10 2 0 4 5 4 10 0 6 -5 10 -11 10 -5 0
-7 -4 -4 -10z"/>
<path d="M4800 7852 c0 -4 16 -6 35 -4 19 2 35 6 35 8 0 2 -16 4 -35 4 -19 0
-35 -4 -35 -8z"/>
<path d="M5058 7833 c-24 -6 -23 -23 2 -23 11 0 20 7 20 15 0 8 -1 14 -2 14
-2 -1 -11 -3 -20 -6z"/>
<path d="M4698 7783 c7 -3 16 -2 19 1 4 3 -2 6 -13 5 -11 0 -14 -3 -6 -6z"/>
<path d="M4824 7781 c3 -5 30 -9 60 -10 30 0 93 -5 141 -11 48 -6 89 -9 91 -7
7 7 -138 29 -219 33 -46 3 -76 0 -73 -5z"/>
<path d="M4500 7740 c-8 -5 -12 -11 -9 -14 2 -3 11 -1 19 4 8 5 12 11 9 14 -2
3 -11 1 -19 -4z"/>
<path d="M8661 7724 c0 -11 3 -14 6 -6 3 7 2 16 -1 19 -3 4 -6 -2 -5 -13z"/>
<path d="M4470 7680 c-11 -8 -7 -9 15 -4 37 8 45 14 19 14 -10 0 -26 -5 -34
-10z"/>
<path d="M4538 7593 c7 -3 16 -2 19 1 4 3 -2 6 -13 5 -11 0 -14 -3 -6 -6z"/>
<path d="M7076 7557 c3 -10 9 -15 12 -12 3 3 0 11 -7 18 -10 9 -11 8 -5 -6z"/>
<path d="M4400 7526 c0 -2 7 -7 16 -10 8 -3 12 -2 9 4 -6 10 -25 14 -25 6z"/>
<path d="M4548 7413 c7 -3 16 -2 19 1 4 3 -2 6 -13 5 -11 0 -14 -3 -6 -6z"/>
<path d="M4769 7357 c16 -19 41 -23 41 -5 0 6 -3 8 -6 5 -4 -3 -16 -1 -28 5
-19 10 -20 10 -7 -5z"/>
<path d="M4895 7340 c3 -5 8 -10 11 -10 2 0 4 5 4 10 0 6 -5 10 -11 10 -5 0
-7 -4 -4 -10z"/>
<path d="M8605 7198 c-72 -24 -97 -39 -90 -56 4 -9 19 -48 33 -87 14 -38 38
-92 54 -118 33 -56 33 -57 13 -57 -12 0 -10 -8 9 -37 14 -21 34 -67 46 -103
25 -76 38 -94 60 -80 12 8 13 11 1 19 -8 5 -11 16 -6 30 4 13 1 27 -9 37 -18
18 -21 34 -6 34 19 0 10 17 -32 58 -23 23 -37 42 -31 42 6 0 16 -7 23 -15 7
-9 17 -12 22 -7 9 9 -1 102 -12 102 -4 0 -13 44 -20 98 -6 53 -14 104 -17 112
-4 8 -5 21 -4 28 1 6 1 12 -1 11 -2 0 -16 -5 -33 -11z m110 -487 c-3 -6 -11
-11 -16 -11 -5 0 -4 6 3 14 14 16 24 13 13 -3z"/>
<path d="M7177 6639 c20 -20 22 -21 45 -5 l23 17 -32 -6 c-19 -3 -33 -1 -33 5
0 5 -5 10 -12 10 -7 0 -3 -9 9 -21z"/>
<path d="M6223 6555 c0 -8 4 -12 9 -9 5 3 6 10 3 15 -9 13 -12 11 -12 -6z"/>
<path d="M7218 6443 c6 -2 18 -2 25 0 6 3 1 5 -13 5 -14 0 -19 -2 -12 -5z"/>
<path d="M8770 6392 c0 -5 7 -15 15 -22 8 -7 15 -8 15 -2 0 5 -7 15 -15 22 -8
7 -15 8 -15 2z"/>
<path d="M6560 6350 c0 -5 5 -10 11 -10 5 0 7 5 4 10 -3 6 -8 10 -11 10 -2 0
-4 -4 -4 -10z"/>
<path d="M6125 5889 c-4 -6 -5 -12 -2 -15 2 -3 7 2 10 11 7 17 1 20 -8 4z"/>
<path d="M6515 5740 c3 -5 11 -10 16 -10 6 0 7 5 4 10 -3 6 -11 10 -16 10 -6
0 -7 -4 -4 -10z"/>
<path d="M6555 5720 c3 -5 11 -10 16 -10 6 0 7 5 4 10 -3 6 -11 10 -16 10 -6
0 -7 -4 -4 -10z"/>
<path d="M6460 5686 c0 -2 7 -7 16 -10 8 -3 12 -2 9 4 -6 10 -25 14 -25 6z"/>
<path d="M6045 5041 c-3 -10 -1 -30 5 -45 12 -33 13 -39 1 -32 -10 7 -9 -20 2
-30 4 -4 2 -13 -4 -20 -7 -8 -7 -14 1 -19 5 -3 10 -15 10 -26 0 -10 5 -19 11
-19 6 0 8 -7 5 -16 -7 -19 21 -64 41 -64 8 0 11 -5 8 -10 -8 -13 22 -43 35
-35 5 3 10 1 10 -5 0 -7 8 -9 21 -5 14 5 25 2 30 -6 7 -12 9 -12 9 -1 0 8 -9
16 -20 19 -23 6 -26 19 -7 26 10 4 10 6 0 6 -7 1 -13 7 -13 15 0 8 -6 17 -12
19 -9 4 -10 6 -1 6 6 1 19 -6 27 -15 9 -8 16 -11 16 -5 0 6 -11 18 -25 27 -27
18 -25 36 3 28 16 -5 16 -5 0 9 -10 8 -18 24 -18 36 0 12 -4 20 -9 17 -5 -3
-12 1 -15 10 -3 8 -2 12 4 9 6 -3 10 -2 10 4 0 12 -29 41 -41 41 -6 0 -8 4 -5
9 8 13 -26 71 -41 71 -7 0 -13 -4 -13 -9 0 -5 6 -12 13 -14 6 -3 1 -6 -12 -6
-20 -1 -22 3 -17 24 7 29 0 34 -9 6z"/>
<path d="M9230 5040 c0 -5 5 -10 11 -10 5 0 7 5 4 10 -3 6 -8 10 -11 10 -2 0
-4 -4 -4 -10z"/>
<path d="M9240 5011 c0 -5 5 -13 10 -16 6 -3 10 -2 10 4 0 5 -4 13 -10 16 -5
3 -10 2 -10 -4z"/>
<path d="M5734 4981 c-41 -10 -95 -43 -91 -56 2 -5 25 -23 51 -39 86 -54 193
-33 179 35 -3 17 -18 34 -43 48 -40 22 -47 23 -96 12z"/>
<path d="M9260 4975 c0 -5 5 -17 10 -25 5 -8 10 -10 10 -5 0 6 -5 17 -10 25
-5 8 -10 11 -10 5z"/>
<path d="M9240 4831 c0 -6 5 -13 10 -16 21 -13 -20 -38 -53 -31 -28 5 -30 4
-14 -8 24 -18 147 -59 155 -51 4 3 0 10 -8 15 -11 7 -11 11 -1 23 8 10 8 17 2
21 -6 4 -8 13 -5 21 3 7 -3 18 -15 24 -24 13 -71 14 -71 2z"/>
<path d="M5758 4823 c6 -2 18 -2 25 0 6 3 1 5 -13 5 -14 0 -19 -2 -12 -5z"/>
<path d="M5010 4630 c0 -5 5 -10 10 -10 6 0 10 5 10 10 0 6 -4 10 -10 10 -5 0
-10 -4 -10 -10z"/>
<path d="M5351 4620 c14 -31 19 -36 19 -24 0 6 -7 19 -16 30 -14 18 -14 18 -3
-6z"/>
<path d="M6219 4488 c10 -24 24 -73 31 -110 12 -58 11 -78 -4 -154 -9 -47 -15
-88 -13 -90 2 -3 14 27 26 65 21 67 24 130 8 196 -7 29 -55 135 -61 135 -3 0
3 -19 13 -42z"/>
<path d="M5665 4260 c3 -5 13 -10 21 -10 8 0 12 5 9 10 -3 6 -13 10 -21 10 -8
0 -12 -4 -9 -10z"/>
<path d="M4324 3964 c-2 -24 -1 -24 17 -8 19 17 17 34 -4 34 -7 0 -13 -12 -13
-26z"/>
<path d="M5217 3963 c-12 -12 -7 -22 8 -17 8 4 15 10 15 15 0 11 -14 12 -23 2z"/>
<path d="M4297 3920 c-3 -11 -1 -20 4 -20 5 0 9 9 9 20 0 11 -2 20 -4 20 -2 0
-6 -9 -9 -20z"/>
<path d="M4356 3923 c-6 -14 -5 -15 5 -6 7 7 10 15 7 18 -3 3 -9 -2 -12 -12z"/>
<path d="M4261 3824 c0 -11 3 -14 6 -6 3 7 2 16 -1 19 -3 4 -6 -2 -5 -13z"/>
<path d="M4408 3533 c7 -3 16 -2 19 1 4 3 -2 6 -13 5 -11 0 -14 -3 -6 -6z"/>
<path d="M8734 2898 c-15 -7 -19 -16 -16 -39 5 -31 22 -38 42 -14 8 9 9 23 3
38 -7 20 -12 23 -29 15z"/>
<path d="M4465 2871 c-24 -28 -4 -53 39 -49 25 2 32 8 34 31 2 19 -1 27 -12
27 -8 0 -21 2 -28 5 -8 3 -22 -3 -33 -14z"/>
<path d="M5345 2880 c-3 -5 -1 -10 4 -10 6 0 11 5 11 10 0 6 -2 10 -4 10 -3 0
-8 -4 -11 -10z"/>
<path d="M8830 2848 c-24 -26 -25 -32 -4 -63 37 -57 87 -14 63 54 -13 37 -30
39 -59 9z"/>
<path d="M4893 2783 c-13 -8 -23 -22 -23 -29 0 -17 3 -17 51 -2 27 8 39 17 39
30 0 23 -36 24 -67 1z"/>
<path d="M8520 2710 c0 -12 8 -12 35 0 18 8 17 9 -7 9 -16 1 -28 -3 -28 -9z"/>
<path d="M4460 2630 c0 -11 5 -20 10 -20 6 0 10 9 10 20 0 11 -4 20 -10 20 -5
0 -10 -9 -10 -20z"/>
<path d="M5180 2471 c0 -11 26 -22 34 -14 12 12 5 23 -14 23 -11 0 -20 -4 -20
-9z"/>
<path d="M6301 1903 c-30 -26 -42 -63 -21 -63 6 0 10 7 10 15 0 7 6 18 13 22
21 14 51 53 40 53 -6 0 -25 -12 -42 -27z"/>
<path d="M6355 1821 c-3 -11 -12 -22 -20 -25 -8 -3 -15 -12 -15 -21 0 -8 -6
-14 -12 -12 -19 3 -21 -45 -4 -68 9 -11 16 -14 16 -7 0 13 46 17 54 4 3 -5 -8
-16 -25 -26 -16 -9 -29 -21 -29 -25 0 -5 -16 -25 -35 -46 -35 -39 -37 -55 -7
-55 20 1 62 34 62 49 0 6 7 11 15 11 8 0 15 -7 15 -15 0 -9 -7 -18 -15 -21 -8
-4 -15 -15 -15 -25 0 -14 -7 -19 -25 -19 -22 0 -25 -4 -25 -40 0 -22 -4 -40
-9 -40 -13 0 -73 -61 -75 -76 -1 -7 -8 -19 -15 -28 -12 -14 -10 -16 15 -17 16
-1 33 -1 38 0 5 1 6 -6 2 -15 -3 -9 -9 -27 -12 -40 -6 -22 -4 -24 17 -15 13 5
62 7 109 6 47 -2 100 2 118 8 30 10 35 9 57 -15 34 -36 31 -54 -7 -63 l-33 -8
30 -5 c16 -2 31 1 33 7 6 17 82 14 82 -3 0 -8 5 -16 12 -18 7 -3 8 -10 4 -17
-7 -11 -10 -11 -18 0 -6 10 -7 7 -3 -9 4 -13 16 -33 26 -43 10 -10 19 -26 19
-34 0 -8 4 -15 8 -15 4 0 14 -17 21 -37 8 -21 19 -41 25 -45 8 -5 7 -8 -1 -8
-7 0 -13 -12 -13 -28 0 -21 9 -33 41 -54 22 -15 35 -29 30 -33 -6 -3 -11 -19
-11 -35 0 -20 -6 -31 -19 -35 -11 -3 -23 -15 -26 -25 -10 -31 -111 -73 -187
-78 -38 -2 -68 -8 -68 -12 0 -4 -18 -13 -40 -20 -22 -7 -40 -17 -40 -21 0 -5
-18 -12 -40 -15 -22 -4 -61 -20 -86 -35 -31 -20 -50 -27 -62 -21 -23 12 -78
-1 -74 -17 1 -7 -2 -18 -7 -25 -10 -12 10 -84 27 -95 5 -3 14 -16 21 -28 6
-13 18 -23 25 -23 26 0 38 -26 24 -49 -10 -17 -10 -25 -1 -41 7 -11 9 -21 3
-25 -5 -3 -16 -19 -24 -36 -14 -27 -14 -33 -1 -46 8 -8 15 -22 15 -32 0 -9 5
-22 12 -29 9 -9 9 -12 0 -12 -7 0 -12 -11 -12 -24 0 -14 -4 -28 -10 -31 -5 -3
-10 -10 -10 -16 0 -5 682 -9 1800 -9 990 0 1800 3 1800 6 0 4 -15 32 -34 63
-18 31 -66 119 -106 196 -40 77 -89 169 -108 205 -58 107 -72 138 -72 157 -1
42 -2 42 -265 131 -266 89 -364 107 -590 106 -253 0 -384 -26 -730 -144 -195
-67 -325 -123 -325 -139 0 -6 -48 -35 -107 -65 -92 -46 -159 -85 -348 -200
-22 -13 -24 -14 -10 -2 11 9 20 29 20 43 0 20 6 29 25 34 21 6 22 7 4 8 -28 1
-60 26 -46 35 14 8 16 43 4 48 -5 2 -12 15 -16 31 -5 20 -2 29 9 33 12 5 13
10 4 20 -6 8 -9 21 -5 29 3 9 0 15 -9 15 -8 0 -15 7 -15 15 0 8 5 15 10 15 6
0 10 7 10 15 0 8 5 15 10 15 6 0 10 -4 10 -9 0 -5 9 -7 20 -4 25 7 26 23 1 23
-10 0 -21 9 -24 20 -3 11 -1 17 4 14 5 -3 29 -2 53 1 36 6 46 12 50 31 4 13
15 28 26 34 11 6 18 15 15 20 -3 5 4 12 15 15 22 7 23 29 2 31 -7 1 -16 2 -22
3 -16 2 -11 21 6 21 8 0 12 5 9 10 -4 6 7 15 25 21 24 9 29 15 25 31 -4 10 -1
25 5 33 20 24 5 47 -25 39 -31 -8 -33 9 -2 32 l22 16 -22 -5 c-24 -5 -33 16
-13 28 21 13 9 26 -18 20 l-29 -6 5 56 c5 57 -1 65 -37 46 -24 -13 -36 -3 -51
42 -6 21 -18 41 -26 44 -8 3 -14 11 -14 19 0 8 -10 24 -22 36 -12 12 -23 29
-24 36 -5 31 -15 42 -39 42 -18 0 -31 9 -43 30 -12 21 -22 28 -37 24 -13 -3
-28 2 -39 15 -11 12 -27 21 -37 21 -27 0 -50 11 -43 21 3 5 -4 9 -15 9 -17 0
-21 6 -21 35 0 34 -12 46 -25 25 -4 -6 -13 -6 -23 -1 -9 5 -37 14 -61 21 -35
9 -45 9 -52 -2 -6 -8 -6 0 -3 20 6 29 4 32 -20 32 -14 0 -26 5 -26 10 0 6 -7
10 -15 10 -8 0 -15 8 -15 19 0 14 -6 17 -24 14 -16 -3 -29 3 -43 21 -11 13
-31 27 -44 29 -13 2 -18 2 -11 0 20 -7 14 -22 -18 -38 -33 -17 -63 -10 -39 9
8 6 15 31 15 59 1 39 -2 47 -17 47 -10 0 -20 -9 -24 -19z m165 -236 c0 -8 -9
-19 -20 -25 -17 -9 -20 -8 -20 9 0 17 11 28 33 30 4 1 7 -6 7 -14z m-60 -14
c0 -5 -6 -11 -12 -14 -10 -3 -10 -7 0 -19 10 -13 9 -18 -3 -28 -8 -7 -15 -21
-15 -31 0 -11 -7 -19 -15 -19 -8 0 -15 -4 -15 -10 0 -5 -4 -10 -10 -10 -19 0
-11 79 10 100 11 11 17 20 14 20 -3 0 -2 5 1 10 8 13 45 13 45 1z m315 -41 c3
-5 -1 -10 -10 -10 -9 0 -13 5 -10 10 3 6 8 10 10 10 2 0 7 -4 10 -10z m-415
-116 c0 -8 -8 -18 -17 -21 -10 -4 -23 -13 -29 -21 -6 -8 -18 -13 -27 -11 -16
4 -16 6 1 34 20 32 72 46 72 19z m495 -644 c-3 -5 -10 -10 -16 -10 -5 0 -9 5
-9 10 0 6 7 10 16 10 8 0 12 -4 9 -10z"/>
<path d="M6038 1363 c7 -3 16 -2 19 1 4 3 -2 6 -13 5 -11 0 -14 -3 -6 -6z"/>
<path d="M6080 1350 c0 -5 -6 -7 -14 -4 -8 3 -26 -2 -40 -11 -32 -21 -35 -55
-5 -55 15 0 19 -5 14 -19 -4 -15 0 -20 24 -23 24 -4 30 0 34 19 2 13 0 23 -4
23 -5 0 -9 9 -9 20 0 11 5 20 10 20 6 0 10 9 10 20 0 11 -4 20 -10 20 -5 0
-10 -4 -10 -10z"/>
<path d="M6000 1210 c0 -5 5 -10 10 -10 6 0 10 5 10 10 0 6 -4 10 -10 10 -5 0
-10 -4 -10 -10z"/>
<path d="M5317 443 c-4 -3 -7 -11 -7 -17 0 -6 5 -5 12 2 6 6 9 14 7 17 -3 3
-9 2 -12 -2z"/>
<path d="M7130 370 c0 -5 6 -10 13 -10 8 0 7 -4 -3 -11 -12 -8 -12 -10 -1 -7
19 5 23 38 5 38 -8 0 -14 -4 -14 -10z"/>
<path d="M6115 280 c-3 -5 1 -10 10 -10 9 0 13 5 10 10 -3 6 -8 10 -10 10 -2
0 -7 -4 -10 -10z"/>
<path d="M5090 100 c0 -5 7 -7 15 -4 8 4 15 8 15 10 0 2 -7 4 -15 4 -8 0 -15
-4 -15 -10z"/>
</g>
</svg>
