<?xml version="1.0" standalone="no"?>
<!DOCTYPE svg PUBLIC "-//W3C//DTD SVG 20010904//EN"
 "http://www.w3.org/TR/2001/REC-SVG-20010904/DTD/svg10.dtd">
<svg version="1.0" xmlns="http://www.w3.org/2000/svg"
 width="1024.000000pt" height="1024.000000pt" viewBox="0 0 1024.000000 1024.000000"
 preserveAspectRatio="xMidYMid meet">

<g transform="translate(0.000000,1024.000000) scale(0.100000,-0.100000)"
fill="#000000" stroke="none">
<path d="M10156 10225 c4 -8 15 -15 25 -15 10 0 19 7 19 15 0 9 -9 15 -25 15
-18 0 -23 -4 -19 -15z"/>
<path d="M4940 10110 c-25 -4 -83 -19 -128 -34 -46 -14 -95 -26 -109 -26 -42
0 -131 -29 -218 -70 -69 -33 -219 -129 -265 -171 -8 -8 -28 -20 -44 -27 -23
-10 -27 -10 -24 0 3 7 9 24 13 38 l8 25 -21 -25 c-18 -22 -28 -25 -82 -24 -34
1 -65 5 -69 10 -3 5 -58 10 -121 12 -63 2 -155 7 -205 13 -49 5 -128 14 -175
19 -47 5 -119 12 -160 15 -41 3 -127 12 -190 20 -114 13 -484 29 -630 26 -231
-5 -392 -21 -471 -48 -78 -27 -93 -38 -64 -49 8 -4 15 -11 15 -17 0 -15 88
-95 112 -102 10 -4 18 -11 18 -16 0 -5 9 -9 19 -9 11 0 29 -13 41 -30 12 -16
25 -30 29 -30 4 0 29 -20 54 -45 50 -47 65 -53 96 -33 15 9 22 8 33 -3 8 -8
13 -20 10 -28 -3 -10 1 -12 16 -9 12 3 21 3 20 -1 -4 -35 4 -51 27 -51 18 0
25 -5 25 -20 0 -13 7 -20 20 -20 13 0 20 -7 20 -20 0 -11 5 -20 10 -20 6 0 10
-7 10 -15 0 -8 6 -15 13 -15 18 0 42 -50 24 -51 -6 0 -1 -6 13 -12 14 -6 28
-16 31 -21 7 -9 14 -7 59 19 l25 15 -35 1 -35 1 30 10 c17 6 33 16 37 21 10
16 35 -9 41 -42 3 -16 19 -41 35 -57 35 -36 57 -73 57 -98 0 -11 14 -27 33
-38 l34 -18 11 30 c12 32 31 39 41 15 9 -25 31 -17 43 15 8 21 16 28 27 24 11
-4 16 0 16 14 0 11 7 22 15 26 8 3 15 12 15 19 0 8 7 20 15 27 8 7 15 22 15
34 1 20 2 20 14 4 7 -10 18 -18 25 -18 6 0 11 -9 11 -20 0 -12 9 -31 20 -43
11 -11 23 -38 26 -59 9 -52 27 -76 46 -60 8 6 17 9 21 6 3 -3 8 5 12 18 12 41
34 68 50 62 8 -4 15 -12 15 -19 0 -8 8 -21 17 -31 10 -9 18 -24 20 -32 6 -47
15 -62 33 -62 20 0 24 9 21 43 -3 20 23 22 56 4 22 -12 22 -12 -12 -40 -19
-15 -37 -27 -40 -27 -4 0 -28 -22 -54 -49 -51 -53 -54 -79 -10 -93 17 -5 13
-6 -12 -3 -39 6 -66 -13 -56 -39 4 -9 -4 -18 -21 -24 -37 -13 -75 -49 -67 -62
10 -15 -2 -55 -21 -75 -15 -15 -30 -92 -39 -195 -13 -156 -28 -290 -36 -321
-8 -34 8 -150 26 -179 4 -7 10 -28 12 -48 6 -44 21 -86 22 -61 1 9 7 19 14 22
8 3 21 20 30 39 16 31 17 32 17 8 1 -17 8 -6 25 37 32 83 135 312 176 393 45
86 121 191 192 263 31 32 57 63 57 68 0 5 4 9 9 9 6 0 30 17 54 38 89 77 136
100 292 139 55 14 120 32 145 39 27 8 46 9 48 4 2 -6 11 -10 20 -10 15 0 15 2
2 11 -11 7 -4 8 25 3 52 -8 47 -8 68 1 18 8 67 -18 67 -35 0 -6 7 -10 15 -10
8 0 15 4 15 10 0 5 6 7 14 4 8 -3 17 -1 21 5 3 6 -1 11 -11 11 -24 0 -10 11
29 25 17 6 43 8 57 4 24 -7 24 -7 3 -8 -25 -1 -31 -16 -10 -24 9 -4 9 -6 -1
-6 -8 -1 -10 -10 -6 -28 4 -20 3 -24 -4 -14 -17 24 -30 2 -27 -49 2 -37 -1
-50 -11 -50 -22 0 -17 -30 8 -50 18 -14 20 -20 10 -33 -10 -12 -10 -16 3 -21
8 -3 22 -3 30 0 18 7 19 -4 5 -42 -14 -36 -5 -42 19 -13 21 24 27 54 14 62 -5
2 -2 2 6 0 8 -2 19 2 24 9 6 9 7 8 3 -5 -3 -11 2 -24 14 -34 11 -10 20 -25 20
-35 0 -15 4 -16 26 -7 15 5 29 7 32 4 3 -3 25 7 49 21 52 30 64 25 40 -15 -16
-28 -16 -29 3 -34 25 -6 26 -27 3 -27 -23 0 -43 -42 -31 -64 13 -23 -9 -86
-30 -87 -9 0 -2 -5 17 -12 19 -7 36 -18 39 -25 2 -7 -2 -10 -12 -6 -9 3 -16
11 -16 16 0 6 -6 5 -15 -2 -12 -10 -18 -10 -29 -1 -10 8 -16 9 -21 1 -3 -5 -3
-10 1 -10 3 0 1 -6 -5 -13 -14 -18 -2 -30 16 -16 9 9 13 8 13 0 0 -6 -4 -11
-10 -11 -14 0 -12 -41 4 -70 8 -14 13 -45 11 -75 -3 -40 -2 -44 4 -20 10 33
14 26 12 -20 l-1 -30 14 25 c12 19 15 21 16 8 0 -10 7 -18 16 -18 14 0 14 -3
4 -15 -9 -11 -15 -13 -20 -5 -5 8 -9 6 -14 -5 -3 -9 -3 -21 0 -27 4 -6 1 -14
-6 -18 -17 -11 -2 -33 19 -26 15 6 15 5 -1 -6 -9 -7 -25 -19 -35 -26 -14 -10
-18 -22 -15 -50 4 -33 3 -35 -12 -23 -9 8 -15 20 -12 28 3 7 1 13 -4 13 -17 0
-11 -21 15 -52 27 -32 28 -32 29 31 1 25 6 46 13 48 9 3 10 -4 2 -29 -12 -43
-11 -48 4 -21 9 16 16 20 27 13 13 -8 13 -10 -1 -10 -20 0 -33 -41 -17 -51 14
-9 2 -59 -18 -73 -10 -8 -12 -24 -8 -63 4 -29 11 -53 15 -53 5 0 9 5 9 11 0 5
6 7 13 3 6 -4 5 1 -4 10 -15 16 -15 23 1 89 10 40 21 84 24 98 3 15 12 29 20
32 11 5 12 1 1 -21 -7 -15 -16 -46 -19 -69 -5 -34 -2 -47 13 -62 11 -11 17
-22 13 -25 -3 -3 0 -6 6 -6 15 0 16 17 1 25 -14 9 -6 28 14 31 18 2 23 -11 7
-21 -5 -3 -7 -12 -4 -19 3 -8 -4 -21 -16 -29 -22 -15 -19 -45 7 -60 7 -4 13
-16 13 -25 -1 -16 -1 -16 -11 1 -5 9 -15 17 -21 17 -7 0 -7 -4 1 -13 6 -8 8
-17 4 -20 -3 -4 4 -7 17 -7 13 0 37 -15 56 -35 18 -19 35 -31 38 -26 4 5 2 11
-4 13 -11 4 -1 48 11 48 5 0 10 -8 11 -17 0 -10 2 -22 3 -28 2 -5 3 -14 4 -19
0 -5 8 -3 16 4 10 9 15 9 15 1 0 -6 -5 -11 -11 -11 -5 0 -8 -4 -5 -9 4 -5 -3
-7 -14 -4 -22 6 -28 -12 -7 -21 6 -4 2 -4 -10 -2 -13 2 -23 0 -23 -6 0 -6 -7
-8 -15 -5 -8 4 -17 2 -20 -4 -4 -5 -11 -7 -16 -3 -6 3 -3 12 8 20 17 13 17 14
-2 7 -11 -3 -23 -11 -27 -17 -5 -7 -8 -6 -8 4 -1 13 -2 13 -13 0 -7 -8 -30
-21 -52 -29 -22 -7 -49 -21 -60 -29 -12 -10 -15 -11 -7 -2 19 22 14 32 -8 18
-12 -8 -18 -19 -15 -29 3 -9 -3 -22 -12 -30 -16 -13 -17 -12 -4 4 22 28 4 33
-30 8 -36 -27 -42 -25 -24 9 8 14 14 19 15 12 0 -7 5 -10 11 -6 8 4 7 9 -2 15
-14 8 -49 -16 -49 -34 0 -5 -7 -15 -15 -21 -9 -6 -16 -25 -18 -43 -1 -17 -6
-29 -10 -26 -5 3 -6 11 -3 19 8 21 -4 44 -23 44 -10 0 -18 -7 -18 -15 0 -8 4
-15 9 -15 4 0 8 -9 8 -21 0 -19 -1 -19 -22 -5 -12 9 -27 16 -33 16 -5 0 -2 -5
8 -11 20 -12 23 -55 5 -62 -10 -3 -10 -9 -2 -24 10 -16 9 -22 -7 -31 -21 -14
-32 -2 -22 25 6 17 6 17 -13 -1 -17 -18 -19 -18 -22 -3 -2 9 -7 17 -12 17 -8
0 -20 33 -36 93 -1 4 -3 10 -4 15 -1 4 -2 10 -1 15 0 4 -3 7 -9 7 -13 0 -13
-4 4 -45 14 -33 13 -40 -8 -36 -5 1 -12 -2 -15 -6 -3 -4 -15 -13 -26 -19 -11
-6 -21 -21 -23 -33 -2 -12 -8 -19 -13 -16 -5 4 -9 1 -9 -4 0 -6 -6 -11 -13
-11 -8 0 -14 -6 -14 -14 0 -9 6 -12 16 -8 14 5 14 3 2 -11 -7 -9 -10 -17 -5
-18 5 0 -2 -5 -16 -10 -24 -10 -24 -11 -6 -25 11 -8 14 -14 8 -14 -8 0 -4 -9
8 -22 22 -24 26 -38 10 -38 -5 0 -7 -7 -4 -15 4 -9 -1 -18 -12 -22 -15 -6 -15
-7 6 -15 22 -8 22 -9 4 -30 -19 -21 -19 -21 15 -16 28 4 31 3 18 -7 -22 -16
-22 -26 1 -19 16 5 16 5 0 -9 -21 -16 -24 -32 -5 -21 8 5 8 2 -2 -9 -9 -12
-10 -17 -2 -17 8 0 6 -10 -4 -30 -9 -16 -12 -30 -8 -30 5 0 3 -4 -4 -8 -7 -4
-14 -23 -16 -42 -6 -51 -58 -200 -69 -200 -6 0 -8 -8 -5 -19 3 -14 0 -17 -14
-14 -18 5 -23 -5 -22 -44 1 -7 -4 -13 -9 -13 -6 0 -8 -14 -5 -35 3 -19 1 -37
-4 -41 -6 -4 -6 -10 1 -19 8 -9 6 -14 -5 -19 -9 -3 -14 -10 -11 -14 9 -15 -17
-81 -33 -87 -22 -7 -44 -61 -37 -90 4 -16 1 -27 -8 -32 -8 -4 -18 -30 -21 -57
-4 -27 -13 -56 -21 -63 -8 -8 -14 -23 -14 -33 0 -10 -4 -22 -10 -25 -5 -3 -10
-17 -10 -30 0 -13 -4 -27 -10 -30 -20 -12 -10 -26 10 -15 16 9 22 8 26 -5 3
-8 3 -22 0 -31 -3 -8 -2 -13 3 -9 14 8 41 -5 41 -20 0 -7 -9 -15 -21 -18 -11
-3 -19 -11 -18 -19 3 -27 -1 -47 -14 -60 -7 -7 -14 -16 -15 -20 -1 -5 -4 -8
-7 -8 -3 0 -9 0 -15 0 -5 0 -10 6 -10 13 0 7 -9 13 -20 13 -12 0 -20 -6 -19
-16 3 -36 -1 -49 -16 -44 -11 5 -13 2 -9 -10 6 -15 17 -20 36 -17 4 0 5 -6 2
-14 -4 -8 -1 -15 5 -15 7 0 7 -8 0 -27 -9 -23 -6 -30 23 -61 18 -18 63 -53
100 -77 65 -43 67 -45 58 -74 -6 -22 -5 -31 3 -31 8 0 8 -3 -1 -12 -8 -8 -8
-17 -1 -31 6 -11 7 -17 2 -15 -12 7 -64 -50 -52 -57 5 -4 7 -10 4 -15 -3 -4 2
-10 10 -14 9 -3 15 0 15 9 0 8 4 15 8 15 4 0 7 -12 6 -27 -2 -37 13 -56 31
-40 7 7 9 15 4 18 -5 3 3 11 17 18 24 11 26 10 15 -3 -7 -8 -11 -21 -9 -27 2
-6 12 1 22 17 14 20 16 29 7 32 -8 3 -6 9 6 19 10 8 12 12 6 8 -20 -10 -15 13
5 24 10 6 12 11 4 11 -7 0 -10 5 -6 11 4 8 -1 9 -17 4 -13 -3 -19 -3 -14 2 6
4 12 22 14 38 4 37 9 44 21 25 5 -9 22 -13 44 -12 32 2 128 -36 98 -39 -6 -1
-17 -2 -24 -3 -11 -1 -25 -26 -14 -26 2 0 17 5 33 10 26 9 27 9 9 -5 -11 -8
-27 -15 -36 -15 -9 0 -17 -7 -17 -14 0 -11 5 -12 18 -6 12 7 19 6 21 -2 3 -8
10 -8 26 1 26 14 29 4 5 -15 -25 -17 -10 -28 19 -14 22 11 22 10 4 -4 -11 -9
-16 -16 -10 -16 5 0 3 -4 -5 -9 -7 -5 -10 -14 -7 -20 4 -6 11 -9 16 -6 11 7 7
-14 -7 -40 -5 -11 -8 -26 -6 -32 3 -7 -1 -13 -7 -13 -9 0 -9 -5 1 -17 8 -9 9
-14 2 -10 -6 4 -14 1 -16 -5 -4 -10 -6 -10 -6 0 -1 8 -8 6 -23 -8 -12 -11 -33
-20 -47 -21 -25 -1 -46 -4 -85 -12 -11 -2 -22 -9 -24 -15 -2 -6 -10 -8 -18 -5
-10 4 -14 -3 -14 -23 0 -23 -2 -26 -10 -14 -5 8 -10 26 -10 40 -1 25 -1 25
-10 3 -5 -13 -15 -23 -22 -23 -10 0 -10 2 0 9 11 6 11 10 0 18 -16 13 -48 13
-48 0 0 -5 -6 -5 -13 2 -16 13 -73 7 -92 -9 -8 -7 -18 -9 -24 -6 -17 11 -43
-6 -36 -23 5 -12 3 -13 -6 -4 -9 9 -17 8 -34 -3 -13 -8 -27 -14 -31 -12 -5 1
-20 -4 -34 -12 -14 -7 -26 -13 -27 -12 -21 14 -58 -40 -55 -79 l2 -29 -25 22
c-36 31 -66 38 -87 20 -10 -8 -18 -20 -18 -26 0 -12 50 -30 115 -41 22 -4 48
-16 58 -26 21 -23 31 -24 46 -5 8 10 34 12 103 9 119 -5 118 -5 118 -16 0 -5
9 -7 20 -4 11 3 22 1 25 -4 3 -4 13 -6 23 -3 13 5 14 4 3 -4 -15 -11 -6 -36
10 -27 5 4 9 -1 9 -10 0 -12 5 -15 16 -11 13 5 14 2 8 -11 -4 -10 -8 -35 -7
-55 1 -23 -4 -39 -13 -42 -8 -3 -14 -1 -14 4 0 6 5 10 11 10 8 0 9 4 0 13 -6
8 -8 17 -4 20 3 4 -1 7 -10 7 -9 0 -17 5 -17 11 0 5 4 7 10 4 6 -3 7 1 4 9 -9
25 -24 19 -24 -9 0 -14 5 -25 10 -25 7 0 7 -6 0 -20 -8 -15 -7 -21 7 -28 10
-5 23 -7 29 -5 13 4 24 -40 14 -56 -3 -6 -22 -10 -41 -8 -19 2 -39 0 -44 -4
-6 -4 -30 -10 -54 -13 -42 -4 -70 -16 -39 -16 11 0 14 -7 11 -24 -4 -18 0 -26
16 -31 11 -3 29 -17 40 -31 17 -22 20 -23 24 -7 4 17 5 17 6 0 1 -12 5 -15 14
-10 24 15 47 14 40 -3 -4 -11 -1 -15 13 -13 10 2 25 0 32 -4 6 -5 12 -4 12 1
0 4 18 8 40 8 29 -1 40 -5 40 -16 0 -8 5 -22 11 -30 9 -13 10 -13 6 2 -3 9 1
22 9 28 8 7 14 20 15 29 0 13 2 14 6 1 3 -8 10 -18 15 -21 6 -4 11 -17 11 -31
2 -25 22 -33 44 -16 12 10 38 -25 29 -40 -2 -4 6 -7 19 -7 18 0 21 3 13 12
-15 18 -2 16 16 -3 15 -14 16 -14 16 3 0 15 2 16 10 3 8 -12 10 -12 10 5 0 16
2 17 9 5 6 -8 8 -17 5 -21 -2 -4 3 -9 11 -12 8 -4 12 -1 9 6 -2 7 4 13 16 14
12 1 18 -3 14 -9 -4 -6 1 -8 13 -4 14 4 19 1 20 -14 1 -11 -4 -20 -13 -20 -8
0 -14 5 -14 10 0 6 -4 10 -10 10 -5 0 -7 -8 -3 -17 5 -15 3 -16 -7 -6 -11 10
-16 9 -25 -3 -10 -15 -16 -14 -54 6 -24 12 -46 18 -49 14 -4 -4 -2 -9 5 -11 8
-3 5 -11 -8 -24 -21 -21 -34 -25 -23 -7 4 7 3 8 -4 4 -8 -5 -8 -15 -2 -32 13
-32 13 -34 -2 -29 -9 3 -14 -6 -15 -25 -2 -20 2 -28 9 -24 7 5 9 -1 4 -20 -4
-18 -3 -25 6 -24 7 2 14 -7 16 -19 2 -13 -1 -23 -6 -23 -6 0 -13 -18 -17 -40
-4 -22 -11 -40 -16 -40 -6 0 -7 -4 -4 -10 3 -5 2 -10 -3 -10 -6 0 -10 -6 -9
-12 0 -7 -1 -31 -2 -53 -3 -36 -4 -37 -11 -15 -8 24 -8 24 -9 2 -1 -15 -13
-30 -35 -43 -22 -13 -33 -26 -29 -35 3 -8 -1 -14 -10 -14 -8 0 -17 5 -19 10
-2 6 -17 12 -33 14 -43 5 -43 5 -15 21 14 8 20 14 13 15 -6 0 -20 3 -30 6 -15
5 -15 4 -3 -5 12 -8 12 -11 -3 -17 -10 -4 -16 -13 -13 -20 8 -20 -11 -17 -24
4 -11 16 -11 16 -6 0 3 -10 1 -20 -5 -23 -5 -4 -7 -11 -4 -16 4 -5 -5 -9 -19
-9 -15 0 -30 -8 -36 -20 -7 -14 -7 -20 0 -20 5 0 10 -5 10 -11 0 -5 -4 -7 -10
-4 -5 3 -10 -3 -10 -15 0 -12 -4 -18 -10 -15 -5 3 -28 -12 -49 -34 -39 -40
-61 -51 -61 -31 0 6 -5 10 -12 10 -6 0 -1 -11 12 -25 13 -14 30 -23 38 -20 7
2 11 1 8 -4 -8 -12 75 -50 140 -64 39 -8 165 -12 374 -12 l315 0 2 -29 c1 -15
7 -33 12 -40 19 -23 47 -143 40 -171 -2 -10 27 -73 77 -167 25 -47 97 -128
113 -128 5 0 22 -7 37 -15 16 -8 24 -15 18 -15 -19 0 -39 -59 -25 -73 6 -6 11
-37 11 -68 0 -37 4 -59 12 -61 9 -3 8 -15 -6 -46 -17 -38 -18 -43 -3 -66 33
-50 71 -80 97 -77 14 2 29 9 33 17 4 8 15 14 23 14 8 0 17 7 20 15 4 8 12 15
20 15 8 0 14 7 14 15 0 9 7 18 15 21 8 4 15 13 15 22 0 13 3 13 12 4 13 -13 3
-24 -26 -35 -5 -2 -6 -11 -3 -21 6 -14 14 -17 35 -13 20 4 33 0 50 -18 26 -27
28 -42 7 -65 -14 -15 -14 -20 1 -46 13 -23 15 -24 11 -7 -3 15 0 23 7 23 20 0
46 34 46 59 0 12 -4 19 -10 16 -21 -13 -9 18 14 36 49 39 82 111 92 204 2 21
9 44 14 49 6 6 10 22 10 37 0 14 7 46 15 70 9 24 15 50 13 59 -1 8 2 26 6 40
25 74 178 141 216 95 11 -13 9 -21 -8 -45 -29 -38 -29 -54 -1 -40 27 15 37 5
20 -22 -12 -19 -11 -20 19 -16 31 5 32 5 25 -31 -4 -20 -10 -38 -15 -41 -4 -3
-8 -32 -9 -65 -1 -33 -3 -69 -4 -80 -2 -17 5 -20 51 -23 43 -3 53 -6 48 -18
-3 -9 -6 -18 -6 -20 0 -2 -7 -4 -15 -4 -8 0 -15 7 -15 15 0 8 -4 15 -10 15 -5
0 -10 -6 -10 -13 0 -7 -10 -24 -22 -37 -17 -18 -18 -22 -5 -17 9 4 24 10 33
13 15 6 15 4 0 -22 -9 -16 -23 -39 -32 -52 -16 -21 -16 -22 6 -20 13 2 25 -3
27 -9 3 -8 -4 -13 -16 -13 -12 0 -21 -6 -21 -16 0 -8 5 -12 10 -9 6 3 10 2 10
-4 0 -5 -5 -13 -11 -17 -6 -3 -9 -19 -6 -33 5 -21 -1 -34 -24 -56 -22 -20 -29
-34 -25 -49 3 -12 -1 -43 -9 -70 l-15 -48 25 6 c14 4 25 2 25 -4 0 -5 -4 -10
-10 -10 -10 0 -45 -60 -42 -72 4 -14 -38 -48 -58 -48 -13 0 -22 -9 -26 -25 -5
-19 0 -30 22 -48 24 -21 26 -27 15 -41 -7 -8 -14 -40 -14 -70 -2 -38 -8 -63
-24 -84 -12 -16 -24 -52 -28 -83 -3 -30 -8 -63 -11 -74 -14 -70 -15 -83 -5
-89 19 -12 51 4 51 25 0 24 17 54 52 94 16 16 28 38 28 47 0 9 5 20 10 23 6 3
10 16 10 29 0 12 5 27 12 34 8 8 8 15 -2 27 -11 13 -10 18 3 33 9 9 20 29 26
44 9 23 7 30 -9 41 -22 15 -17 27 12 27 10 0 18 5 18 10 0 6 -5 10 -11 10 -5
0 -8 4 -4 10 3 5 12 7 19 4 9 -3 17 3 21 15 3 12 12 21 20 21 7 0 19 14 27 30
7 18 21 31 33 32 55 4 71 6 88 13 21 9 22 -3 2 -29 -21 -28 -18 -55 8 -76 18
-15 20 -21 10 -31 -20 -21 -16 -60 7 -66 23 -6 25 -14 9 -30 -15 -15 43 -43
65 -31 9 5 21 6 26 3 6 -3 11 -1 11 4 1 6 2 16 3 21 0 6 6 10 11 10 11 -1 11
-26 0 -55 -6 -14 0 -11 19 10 40 44 50 65 31 65 -8 0 -15 5 -15 11 0 7 10 9
26 5 21 -6 33 -1 54 19 18 17 30 23 34 16 12 -19 26 -12 26 14 0 36 60 114 85
112 14 -1 21 5 23 21 2 14 10 22 22 22 17 0 19 -5 13 -32 -3 -18 -10 -41 -15
-50 -7 -14 -4 -18 12 -18 11 0 20 -7 20 -15 0 -8 6 -15 14 -15 16 0 41 -54 31
-69 -3 -6 0 -17 8 -25 8 -9 13 -34 13 -65 -1 -53 2 -59 22 -39 9 9 12 8 12 -6
0 -9 5 -14 10 -11 6 3 10 -2 10 -12 0 -10 11 -31 25 -47 14 -16 25 -41 25 -56
0 -20 6 -29 21 -33 15 -4 19 -11 15 -25 -5 -15 1 -21 34 -32 36 -12 61 -42 46
-57 -3 -4 -6 -1 -6 5 0 17 -30 15 -36 -3 -9 -22 5 -38 21 -25 10 9 16 7 24 -9
9 -16 8 -22 -5 -29 -12 -7 -15 -17 -9 -41 6 -28 10 -32 31 -27 13 4 24 2 24
-3 0 -5 -11 -12 -25 -15 -14 -4 -25 -11 -25 -16 0 -6 -7 -10 -15 -10 -8 0 -15
-7 -15 -16 0 -12 -6 -15 -23 -11 -26 7 -37 1 -60 -33 -9 -13 -17 -20 -17 -13
0 14 -62 26 -70 14 -3 -6 -30 -14 -61 -19 -42 -6 -58 -5 -68 5 -9 9 -17 10
-31 3 -10 -5 -37 -8 -59 -5 -22 3 -42 1 -45 -3 -3 -5 -22 -9 -42 -10 -21 -1
-42 -6 -48 -12 -14 -14 -26 -12 -26 5 0 18 -12 19 -27 4 -16 -16 -136 -22
-193 -10 -38 8 -58 7 -111 -9 -35 -11 -74 -20 -86 -20 -12 0 -28 -6 -36 -14
-8 -8 -29 -16 -48 -18 -21 -2 -33 -8 -31 -16 2 -14 -14 -16 -23 -2 -11 18 -25
10 -21 -13 2 -18 10 -22 37 -23 65 -1 79 -4 79 -18 0 -21 34 -29 195 -42 48
-4 63 -5 103 -3 9 0 37 -4 62 -10 25 -5 65 -6 90 -2 25 4 95 5 155 3 61 -2
134 -3 163 -3 29 1 61 -3 72 -9 11 -6 20 -7 20 -2 0 4 28 6 63 4 51 -3 67 -1
81 14 10 9 21 13 24 8 4 -5 16 -11 27 -12 11 -2 17 -1 13 3 -12 13 28 45 60
49 18 2 32 1 32 -3 0 -3 -17 -24 -36 -46 -76 -85 -92 -103 -184 -215 -53 -63
-127 -155 -165 -205 -38 -49 -94 -120 -124 -156 -31 -36 -83 -99 -116 -139
-83 -102 -259 -307 -302 -353 l-36 -37 2142 0 2141 0 0 948 c0 724 -3 951 -12
960 -15 15 -68 16 -68 1 0 -9 -18 -10 -62 -4 -174 20 -321 22 -383 2 -168 -52
-270 -118 -307 -199 -7 -16 -16 -28 -20 -28 -5 0 -8 -8 -8 -17 0 -14 -3 -13
-23 5 -13 12 -27 22 -31 22 -8 0 -76 51 -106 80 -9 8 -51 46 -93 84 -42 38
-77 75 -77 83 0 7 -6 13 -14 13 -17 0 -96 85 -96 102 0 7 9 18 19 23 11 6 57
31 103 56 82 46 149 74 218 90 160 37 305 56 532 68 113 6 117 7 144 36 49 53
58 102 34 180 -16 49 -28 274 -19 348 5 38 16 94 25 125 59 202 93 277 185
414 l59 87 0 829 0 829 -45 49 c-25 27 -48 60 -51 74 -15 71 -28 111 -47 142
-12 18 -21 37 -22 41 0 4 -4 11 -10 15 -12 8 -31 39 -45 70 -5 12 -16 25 -24
28 -9 3 -18 16 -22 27 -3 12 -19 34 -35 49 -16 15 -29 32 -29 37 0 6 -16 11
-36 11 -45 0 -73 -31 -74 -80 0 -19 -14 -62 -30 -95 -17 -33 -30 -65 -30 -71
0 -7 -32 -43 -71 -80 -79 -76 -107 -115 -134 -187 -10 -26 -24 -47 -31 -47 -8
0 -14 -6 -14 -14 0 -20 -44 -46 -77 -46 -43 0 -70 25 -88 83 -18 53 -52 111
-93 156 -13 14 -30 39 -38 56 -7 16 -17 37 -22 45 -23 40 -32 61 -32 77 0 20
-46 110 -66 131 -8 7 -14 17 -14 22 0 5 -31 40 -70 78 -59 59 -70 75 -70 103
0 47 43 199 70 247 28 50 21 65 -60 126 -51 39 -67 46 -105 46 -38 0 -52 -7
-105 -51 -34 -28 -64 -57 -66 -64 -6 -14 34 -138 66 -210 10 -22 21 -50 25
-62 3 -13 11 -23 16 -23 6 0 7 -5 4 -10 -3 -6 0 -13 8 -16 11 -4 15 -25 14
-92 0 -60 5 -99 16 -126 22 -49 22 -170 1 -251 -8 -33 -19 -81 -23 -107 -4
-26 -14 -55 -23 -65 -8 -10 -17 -25 -20 -34 -7 -19 -71 -39 -126 -39 -31 0
-43 5 -56 25 -9 14 -35 33 -56 43 -45 19 -46 24 -24 77 9 23 13 48 8 64 -11
43 -12 83 -3 136 19 114 19 125 5 125 -7 0 -21 8 -30 19 -15 17 -20 17 -57 4
-22 -7 -67 -16 -100 -20 -49 -5 -59 -3 -59 9 0 9 -6 21 -14 27 -8 7 -22 38
-31 69 -9 31 -20 71 -26 88 -5 17 -9 40 -9 51 0 11 -7 26 -15 33 -8 7 -15 18
-15 26 0 7 -10 18 -21 25 -12 6 -35 24 -50 40 -16 16 -34 30 -41 30 -7 1 -24
2 -38 3 -40 2 -39 15 25 301 26 120 47 307 40 365 -3 30 -15 87 -25 125 -19
70 -18 83 6 165 4 14 22 43 41 64 31 37 33 45 33 110 0 75 -17 172 -44 245
-21 57 -20 78 3 91 32 17 35 47 8 93 -14 23 -29 58 -34 77 -10 37 1 100 17
100 6 0 10 13 10 30 0 17 7 33 17 38 15 9 14 15 -11 73 -23 54 -28 81 -31 169
-2 71 -10 129 -25 180 -12 41 -33 118 -46 170 -14 52 -28 102 -31 110 -3 8 -7
17 -8 20 0 3 -9 29 -19 58 -10 29 -16 62 -13 73 5 19 -34 131 -55 156 -6 7 -8
19 -5 28 4 8 2 17 -3 20 -6 4 -10 15 -10 26 0 12 -7 19 -19 19 -11 0 -22 4
-26 9 -3 5 -16 8 -29 5 -23 -4 -46 16 -139 117 -13 14 -36 34 -51 45 -16 10
-69 68 -118 128 -49 61 -96 119 -104 129 -8 9 -40 34 -72 54 -86 55 -200 141
-210 158 -30 55 -143 148 -194 161 -5 1 -11 3 -15 4 -5 1 -12 3 -18 4 -5 1
-17 5 -25 8 -69 27 -279 94 -385 124 -27 7 -59 18 -70 23 -84 39 -139 54 -229
63 -55 5 -120 16 -144 24 -23 8 -48 14 -55 14 -7 0 -30 9 -52 20 -21 11 -41
17 -44 13 -3 -3 0 -8 7 -10 7 -3 19 -11 26 -19 8 -8 20 -14 26 -14 6 0 8 -5 5
-10 -4 -6 -16 -8 -28 -4 -35 11 -97 12 -97 2 0 -5 -6 -3 -14 5 -8 8 -36 17
-63 20 -44 6 -83 23 -203 89 -137 76 -379 115 -540 88z m398 -45 c26 -15 26
-16 2 -9 -14 4 -47 13 -75 21 l-50 13 48 -5 c26 -3 60 -12 75 -20z m-156 -10
c15 -7 36 -11 45 -9 10 3 29 0 43 -5 22 -9 20 -10 -15 -6 -30 4 -35 3 -20 -4
17 -9 15 -10 -12 -8 -17 0 -30 4 -27 8 5 8 -34 16 -121 25 -36 4 -68 11 -72
17 -8 14 145 -1 179 -18z m528 -165 c8 -5 11 -10 5 -10 -5 0 -17 5 -25 10 -8
5 -10 10 -5 10 6 0 17 -5 25 -10z m-665 -30 c-3 -5 -12 -10 -18 -10 -7 0 -6 4
3 10 19 12 23 12 15 0z m-571 -35 c-10 -8 -23 -15 -28 -15 -6 0 -1 7 10 15 10
8 23 15 28 15 6 0 1 -7 -10 -15z m476 -9 c0 -2 -16 -13 -35 -25 -19 -11 -35
-18 -35 -16 0 5 61 45 68 45 1 0 2 -2 2 -4z m-549 -49 c-13 -12 -20 -15 -16
-7 14 26 28 41 33 35 3 -3 -5 -16 -17 -28z m913 5 c-12 -9 -40 -32 -63 -50
-23 -19 -41 -31 -41 -28 0 7 110 96 118 96 4 0 -3 -8 -14 -18z m-465 -29 c-13
-9 -52 -45 -87 -80 -71 -71 -108 -141 -121 -229 -7 -46 -9 -51 -10 -23 0 20 8
67 20 104 19 62 29 77 115 163 52 53 97 92 101 88 4 -3 -4 -14 -18 -23z m796
-26 c39 -24 81 -52 94 -62 56 -47 70 -61 73 -73 2 -7 20 -32 41 -55 22 -23 61
-73 89 -112 27 -38 37 -56 23 -40 -15 17 -66 72 -113 123 -106 114 -100 107
-84 98 6 -4 12 -3 12 2 0 13 -91 82 -160 122 -62 36 -67 40 -54 40 6 0 41 -19
79 -43z m-1281 -2 c-9 -14 -18 -25 -21 -25 -5 0 5 18 20 38 17 22 18 13 1 -13z
m-601 -132 c-7 -2 -19 -2 -25 0 -7 3 -2 5 12 5 14 0 19 -2 13 -5z m2005 -59
c-4 -3 -12 5 -18 18 -12 22 -12 22 6 6 10 -10 15 -20 12 -24z m-3288 -64 c0
-5 -5 -10 -11 -10 -5 0 -7 5 -4 10 3 6 8 10 11 10 2 0 4 -4 4 -10z m3381 -7
c13 -16 12 -17 -3 -4 -10 7 -18 15 -18 17 0 8 8 3 21 -13z m-1554 -25 c-3 -7
-5 -2 -5 12 0 14 2 19 5 13 2 -7 2 -19 0 -25z m1599 -41 c14 -30 14 -31 -1
-12 -25 30 -39 59 -26 51 6 -4 18 -22 27 -39z m-1583 -22 c5 -28 4 -34 -3 -20
-8 19 -14 73 -6 64 2 -2 6 -22 9 -44z m-180 -22 c4 -18 3 -33 -2 -33 -10 0
-21 36 -21 70 1 32 15 9 23 -37z m-399 -35 c6 -4 28 -8 49 -8 37 0 115 -26
105 -35 -3 -3 -18 -1 -34 4 -45 14 -114 22 -114 13 0 -4 7 -17 15 -28 17 -22
19 -34 5 -34 -12 0 -50 83 -49 107 0 14 2 15 6 3 3 -8 11 -18 17 -22z m416
-43 c0 -5 -5 -3 -10 5 -5 8 -10 20 -10 25 0 6 5 3 10 -5 5 -8 10 -19 10 -25z
m-536 -5 c27 -21 51 -30 76 -30 25 0 43 -7 56 -21 l19 -21 -47 3 c-25 2 -44 1
-41 -3 2 -5 -3 -8 -12 -8 -11 0 -15 5 -11 15 3 8 1 15 -5 15 -15 0 -89 59 -89
71 0 15 13 10 54 -21z m25 -94 c26 -17 11 -36 -28 -36 -42 0 -57 11 -47 35 5
15 51 15 75 1z m246 -26 c3 -5 -1 -10 -9 -10 -9 0 -16 5 -16 10 0 6 4 10 9 10
6 0 13 -4 16 -10z m110 -10 l30 -8 -30 0 c-16 0 -39 3 -50 8 l-20 9 20 -1 c11
0 34 -4 50 -8z m-425 -31 c0 -14 -7 -19 -25 -19 -14 0 -25 4 -25 10 0 5 -8 7
-17 4 -16 -5 -16 -4 -2 8 9 7 28 14 43 14 19 2 26 -3 26 -17z m2437 -51 c-3
-8 -6 -5 -6 6 -1 11 2 17 5 13 3 -3 4 -12 1 -19z m55 -116 c15 -94 4 -85 -15
12 -9 46 -19 92 -22 103 -3 10 2 2 11 -17 9 -19 21 -63 26 -98z m-2445 102
c-3 -3 -12 -4 -19 -1 -8 3 -5 6 6 6 11 1 17 -2 13 -5z m720 -120 c-3 -3 -12
-4 -19 -1 -8 3 -5 6 6 6 11 1 17 -2 13 -5z m1640 -46 c-3 -7 -5 -2 -5 12 0 14
2 19 5 13 2 -7 2 -19 0 -25z m-2574 15 c-7 -2 -19 -2 -25 0 -7 3 -2 5 12 5 14
0 19 -2 13 -5z m2634 -25 c-3 -8 -6 -5 -6 6 -1 11 2 17 5 13 3 -3 4 -12 1 -19z
m40 -105 c-2 -21 -4 -6 -4 32 0 39 2 55 4 38 2 -18 2 -50 0 -70z m-1357 -18
c0 -8 -4 -15 -10 -15 -5 0 -7 7 -4 15 4 8 8 15 10 15 2 0 4 -7 4 -15z m-55
-35 c3 -6 -4 -10 -17 -10 -18 0 -20 2 -8 10 19 12 18 12 25 0z m282 -32 c-3
-8 -6 -5 -6 6 -1 11 2 17 5 13 3 -3 4 -12 1 -19z m-377 -2 c0 -3 -4 -8 -10
-11 -5 -3 -10 -1 -10 4 0 6 5 11 10 11 6 0 10 -2 10 -4z m197 -14 c-9 -2 -15
-8 -12 -13 8 -12 -13 -49 -29 -49 -7 0 -23 11 -36 25 -18 20 -20 25 -8 25 9 0
18 -6 21 -12 3 -9 13 -4 32 14 15 15 32 25 39 21 7 -5 5 -9 -7 -11z m83 -183
c0 -17 -23 -21 -37 -6 -13 13 -12 15 11 15 14 0 26 -4 26 -9z m70 -71 c0 -6
-3 -8 -7 -5 -3 4 -12 2 -20 -4 -8 -8 -13 -8 -13 -1 0 10 15 19 33 21 4 1 7 -4
7 -11z m-140 -88 c0 -5 -5 -10 -11 -10 -5 0 -7 5 -4 10 3 6 8 10 11 10 2 0 4
-4 4 -10z m80 -15 c0 -8 -4 -15 -10 -15 -5 0 -10 7 -10 15 0 8 5 15 10 15 6 0
10 -7 10 -15z m-60 -22 c0 -5 -5 -15 -10 -23 -8 -13 -10 -12 -10 3 0 26 -20
10 -21 -16 0 -21 -1 -21 -9 -2 -5 14 -3 24 8 33 17 13 42 16 42 5z m60 -27 c0
-2 -7 -7 -16 -10 -8 -3 -12 -2 -9 4 6 10 25 14 25 6z m-40 -21 c10 -12 10 -15
-4 -15 -9 0 -16 7 -16 15 0 8 2 15 4 15 2 0 9 -7 16 -15z m-21 -18 c6 -8 8
-17 4 -20 -3 -4 0 -13 7 -22 16 -19 9 -28 -14 -19 -13 5 -16 14 -12 30 4 14 2
24 -4 24 -5 0 -10 5 -10 10 0 14 16 12 29 -3z m24 -172 c-12 -9 -19 -10 -22
-3 -4 12 20 29 32 21 4 -3 0 -11 -10 -18z m64 -33 c-1 -16 -8 -29 -14 -29 -16
0 -15 -1 -3 31 13 34 20 33 17 -2z m-72 -41 c3 -5 1 -12 -5 -16 -5 -3 -10 1
-10 9 0 18 6 21 15 7z m46 -16 c5 4 9 1 9 -4 0 -6 -7 -11 -15 -11 -9 0 -15 9
-14 23 1 17 2 18 6 4 2 -9 9 -15 14 -12z m5 -71 c-4 -9 -9 -15 -11 -12 -3 3
-3 13 1 22 4 9 9 15 11 12 3 -3 3 -13 -1 -22z m-27 -78 c-9 -8 -10 -7 -5 7 3
10 7 26 7 35 1 9 4 6 6 -7 3 -13 -1 -28 -8 -35z m61 34 c0 -5 -4 -10 -10 -10
-5 0 -10 5 -10 10 0 6 5 10 10 10 6 0 10 -4 10 -10z m30 -217 c0 -8 5 -11 12
-7 7 5 8 3 4 -5 -7 -11 -35 13 -73 64 -25 33 -9 34 21 1 20 -21 36 -45 36 -53z
m50 27 c0 -5 -2 -10 -4 -10 -3 0 -8 5 -11 10 -3 6 -1 10 4 10 6 0 11 -4 11
-10z m121 -17 c13 -16 12 -17 -3 -4 -10 7 -18 15 -18 17 0 8 8 3 21 -13z m-31
-49 c0 -2 -9 -4 -20 -4 -11 0 -20 4 -20 9 0 5 9 7 20 4 11 -3 20 -7 20 -9z
m-710 -314 c0 -5 -4 -10 -10 -10 -5 0 -10 5 -10 10 0 6 5 10 10 10 6 0 10 -4
10 -10z m-20 -40 c0 -5 -4 -10 -10 -10 -5 0 -10 5 -10 10 0 6 5 10 10 10 6 0
10 -4 10 -10z m-15 -28 c-3 -3 -11 0 -18 7 -9 10 -8 11 6 5 10 -3 15 -9 12
-12z m836 -205 c-6 -8 -8 -16 -5 -19 2 -3 -2 -8 -10 -11 -9 -4 -15 -1 -13 5 1
5 -6 12 -16 13 -34 6 -33 18 1 13 17 -2 32 -1 32 4 0 4 5 8 11 8 8 0 9 -4 0
-13z m-63 -31 c-1 -2 -16 -6 -33 -10 -24 -5 -26 -4 -12 4 9 6 15 16 11 22 -4
6 3 5 16 -2 12 -6 20 -13 18 -14z m-25 -37 c-8 -8 -16 -8 -30 0 -16 9 -14 10
12 11 21 0 26 -3 18 -11z m159 -66 c-25 -49 -14 -90 35 -138 l36 -35 -34 0
c-34 0 -150 17 -181 26 -27 8 -28 30 -2 65 13 19 22 39 20 46 -3 7 1 10 10 6
8 -3 14 -2 13 3 -4 22 2 41 14 42 6 1 27 5 45 8 23 5 32 3 32 -7 1 -9 4 -8 11
4 19 32 20 17 1 -20z m68 -3 c10 -20 10 -23 0 -13 -7 6 -19 9 -26 6 -8 -3 -14
-1 -14 4 0 9 22 35 25 30 1 -1 8 -13 15 -27z m-192 -211 c22 -1 23 -2 6 -21
-18 -19 -17 -19 10 -8 27 10 28 9 15 -6 -12 -15 -12 -16 9 -10 20 7 32 -7 15
-17 -5 -2 -2 -2 5 -1 18 5 62 -14 62 -26 0 -5 -9 -10 -21 -10 -13 0 -18 -4
-13 -12 5 -7 3 -8 -6 -3 -7 4 -41 8 -76 8 -35 1 -58 4 -52 8 15 9 11 14 -19
23 -15 5 -23 3 -23 -5 0 -7 -3 -9 -6 -6 -4 3 -16 2 -28 -4 -20 -10 -20 -9 1 9
l22 20 -22 6 c-31 8 -44 7 -29 -3 10 -6 7 -10 -11 -13 -19 -4 -23 -1 -20 13 3
9 14 21 26 27 l22 10 -22 -1 c-13 -1 -23 -5 -23 -9 0 -4 -6 -8 -13 -8 -7 0
-13 10 -13 23 0 24 -11 23 204 16z m-233 -9 c-3 -5 -1 -10 4 -10 6 0 11 -5 11
-11 0 -5 -4 -8 -9 -5 -5 4 -12 0 -15 -6 -2 -7 -3 -2 -1 12 4 31 4 30 11 30 3
0 2 -4 -1 -10z m55 -160 c4 0 10 7 14 15 3 8 16 15 28 14 17 0 19 -2 8 -7 -8
-4 -28 -15 -43 -26 -15 -10 -30 -16 -34 -12 -3 3 -2 6 4 6 6 0 10 8 8 18 -1 9
0 11 2 5 3 -7 8 -13 13 -13z m70 -5 c-7 -9 -15 -13 -19 -10 -3 3 1 10 9 15 21
14 24 12 10 -5z m-31 -66 c-13 -8 -29 6 -29 26 0 6 4 3 10 -5 7 -12 10 -11 17
5 7 19 8 19 11 1 2 -10 -2 -22 -9 -27z m37 32 c-4 -5 -3 -17 1 -27 6 -16 7
-16 14 2 6 16 8 16 8 2 1 -16 -16 -34 -24 -26 -2 1 -6 15 -10 31 -5 18 -3 27
5 27 6 0 9 -4 6 -9z m101 -7 c-3 -3 -12 -4 -19 -1 -8 3 -5 6 6 6 11 1 17 -2
13 -5z m-37 -8 c0 -11 -19 -15 -25 -6 -3 5 1 10 9 10 9 0 16 -2 16 -4z m77
-36 c6 -8 9 -18 7 -22 -3 -5 2 -8 11 -8 11 0 15 5 11 15 -3 8 -1 15 5 15 6 0
13 -8 16 -19 5 -20 75 -38 81 -21 5 15 19 12 26 -6 4 -9 2 -13 -5 -8 -14 9
-29 -14 -29 -46 0 -19 3 -21 9 -11 5 8 6 21 3 30 -4 11 3 9 26 -7 17 -13 34
-27 37 -32 8 -12 62 -13 67 -2 2 5 16 12 31 16 18 4 26 3 23 -3 -4 -5 -1 -13
5 -17 6 -3 15 -1 19 6 5 8 9 5 13 -9 3 -12 10 -21 17 -21 6 0 8 6 4 13 -4 6
-5 10 -1 7 3 -3 5 -9 5 -13 0 -4 7 -19 16 -31 24 -38 4 -41 -25 -4 -15 18 -31
29 -35 25 -4 -4 2 -14 14 -23 12 -8 22 -20 22 -26 0 -6 -9 -3 -20 7 -11 10
-20 13 -20 7 0 -6 5 -14 10 -17 6 -4 8 -10 6 -14 -3 -4 1 -8 9 -8 8 0 15 4 15
9 0 15 21 8 27 -9 7 -21 22 -33 40 -33 7 0 10 6 7 14 -3 8 -12 12 -20 9 -14
-5 -20 22 -6 30 11 7 47 -26 47 -43 0 -8 5 -14 12 -13 6 1 17 -4 23 -13 10
-12 9 -18 -5 -34 -25 -27 -37 -25 -29 5 5 19 2 25 -11 25 -15 0 -16 -2 -4 -17
12 -15 12 -16 -3 -10 -12 4 -15 2 -11 -9 4 -10 0 -12 -13 -7 -12 4 -15 3 -10
-5 4 -7 16 -12 27 -12 10 0 19 -5 19 -10 0 -18 -29 -23 -47 -9 -15 12 -16 12
-10 -4 6 -15 3 -17 -13 -12 -18 6 -19 4 -9 -19 10 -21 15 -24 26 -14 11 9 17
9 24 -3 5 -8 8 -18 8 -24 0 -5 -3 -4 -6 3 -3 9 -9 10 -17 3 -9 -8 -22 -2 -46
19 -33 30 -50 37 -50 22 0 -4 10 -12 23 -17 29 -13 30 -49 1 -53 -12 -2 -29 4
-38 13 -20 20 -21 7 -1 -19 20 -27 19 -36 -4 -36 -21 0 -54 -38 -45 -52 3 -4
-2 -8 -10 -8 -9 0 -16 -7 -16 -15 0 -8 -4 -15 -9 -15 -12 0 -23 29 -15 41 3 5
-1 9 -8 9 -7 0 -14 -11 -14 -25 -1 -14 2 -22 7 -19 5 3 9 0 9 -6 0 -6 10 -15
23 -20 22 -9 22 -9 -4 -9 -14 -1 -36 8 -49 19 -28 24 -31 25 -24 5 4 -8 2 -15
-2 -15 -13 0 -44 58 -44 80 0 10 -4 22 -10 25 -10 6 -14 -13 -11 -47 3 -25 -8
-22 -36 8 -17 19 -23 34 -19 50 3 12 2 26 -4 29 -6 4 -7 -1 -4 -12 3 -11 -5
-6 -20 12 -17 20 -24 37 -20 50 4 11 3 17 -1 13 -4 -4 -16 -3 -25 2 -14 7 -17
19 -14 42 4 32 3 32 -8 8 -10 -23 -11 -23 -15 -5 -10 41 -26 41 -20 0 3 -22 3
-32 1 -22 -3 9 -9 17 -13 17 -18 0 -8 48 10 53 10 3 20 2 22 -2 2 -3 3 -1 1 4
-1 6 5 20 12 30 14 19 14 19 12 -4 -2 -18 3 -24 20 -27 12 -2 22 1 22 7 0 7
-9 9 -21 6 -15 -4 -19 -2 -15 10 3 8 6 20 6 26 0 6 7 1 16 -11 8 -12 21 -22
29 -22 7 0 21 -7 29 -16 9 -8 17 -13 17 -10 1 3 3 11 4 16 1 6 3 17 4 26 0 8
5 13 10 10 5 -4 12 0 14 6 4 10 8 9 16 -2 7 -10 6 -17 -2 -22 -8 -5 -5 -13 10
-27 18 -17 22 -18 27 -5 5 12 10 13 28 4 17 -9 14 -5 -7 13 -34 28 -29 45 7
26 21 -11 22 -11 9 5 -8 10 -22 15 -32 13 -10 -3 -27 4 -38 15 -27 24 -26 31
1 22 20 -6 21 -5 10 9 -8 9 -20 13 -28 10 -8 -3 -14 -1 -14 5 0 15 26 22 39 9
8 -8 11 -8 11 1 0 7 -4 12 -10 12 -5 0 -10 4 -10 10 0 14 -67 100 -73 94 -3
-3 -8 0 -13 7 -4 8 -3 10 4 5 7 -4 12 -3 12 2 0 15 -28 23 -36 11 -3 -6 17
-34 45 -63 28 -28 51 -55 51 -60 0 -5 -6 -3 -13 3 -11 9 -13 5 -12 -19 1 -17
0 -30 -2 -30 -2 0 -28 26 -58 58 -30 31 -55 52 -55 47 0 -6 6 -17 13 -25 6 -8
2 -6 -10 4 -13 11 -23 22 -23 26 0 16 37 6 61 -17 l26 -24 -4 25 c-3 15 -10
29 -16 33 -6 4 -7 1 -2 -8 4 -8 -15 10 -43 39 -29 30 -52 48 -52 41 0 -7 -3
-10 -6 -6 -3 3 -3 11 1 17 5 8 11 8 21 -1 10 -8 14 -8 14 0 0 6 5 11 11 11 5
0 7 -4 4 -10 -3 -5 1 -10 10 -10 12 0 15 -6 10 -19 -3 -11 -1 -22 5 -26 5 -3
10 1 10 9 0 9 5 16 10 16 6 0 10 7 10 16 0 8 -4 12 -10 9 -5 -3 -10 -1 -10 5
0 6 -4 8 -10 5 -5 -3 -10 -1 -10 5 0 15 32 8 47 -10z m-149 -65 c-3 -3 -9 2
-12 12 -6 14 -5 15 5 6 7 -7 10 -15 7 -18z m82 -7 c0 -6 -7 -5 -15 2 -8 7 -15
17 -15 22 0 6 7 5 15 -2 8 -7 15 -17 15 -22z m353 18 c4 -10 1 -13 -8 -9 -8 3
-12 9 -9 14 7 12 11 11 17 -5z m180 -16 c-5 -19 -23 -29 -23 -12 0 7 20 32 26
32 1 0 0 -9 -3 -20z m-563 -22 c0 -12 -6 -9 -26 13 -19 22 -19 22 4 8 12 -8
22 -17 22 -21z m320 11 c0 -5 10 -9 22 -9 16 0 19 -3 11 -11 -7 -7 -19 -8 -30
-4 -10 5 -21 9 -25 9 -4 1 -12 6 -18 12 -9 9 -5 12 14 12 14 0 26 -4 26 -9z
m265 -59 c3 -5 1 -10 -4 -10 -6 0 -11 5 -11 10 0 6 2 10 4 10 3 0 8 -4 11 -10z
m-501 -26 c5 -14 4 -15 -9 -4 -17 14 -19 20 -6 20 5 0 12 -7 15 -16z m489 -38
c4 -10 1 -13 -8 -9 -8 3 -12 9 -9 14 7 12 11 11 17 -5z m-422 -16 c10 -6 19
-16 19 -22 0 -6 -9 -3 -21 8 -17 16 -22 16 -29 4 -6 -8 -10 -10 -10 -4 0 11
10 24 17 24 3 0 13 -5 24 -10z m-167 -43 c3 4 6 0 6 -8 0 -11 2 -11 10 1 11
17 13 10 4 -14 -4 -9 -17 -16 -33 -15 -14 0 -20 3 -14 6 10 3 9 12 -3 36 l-15
32 19 -22 c11 -12 22 -19 26 -16z m159 -7 c-7 -28 -13 -25 -13 6 0 14 4 23 9
20 5 -3 7 -15 4 -26z m502 10 c3 -5 2 -10 -4 -10 -5 0 -13 5 -16 10 -3 6 -2
10 4 10 5 0 13 -4 16 -10z m-525 -10 c0 -5 -4 -10 -9 -10 -6 0 -13 5 -16 10
-3 6 1 10 9 10 9 0 16 -4 16 -10z m105 -30 c-3 -5 -12 -7 -20 -3 -21 7 -19 13
6 13 11 0 18 -4 14 -10z m-280 -20 c10 -11 16 -22 13 -25 -2 -3 -14 6 -26 20
-26 30 -13 34 13 5z m663 -39 c3 -8 -1 -12 -9 -9 -7 2 -15 10 -17 17 -3 8 1
12 9 9 7 -2 15 -10 17 -17z m-632 -20 c-3 -5 1 -14 9 -21 8 -7 12 -17 9 -22
-3 -5 2 -18 12 -29 9 -10 12 -19 7 -19 -6 0 -14 8 -17 17 -6 15 -8 15 -17 3
-8 -11 -9 -9 -4 8 4 13 1 29 -5 37 -11 13 -7 35 6 35 3 0 3 -4 0 -9z m79 -71
c-3 -5 1 -10 9 -10 9 0 16 -4 16 -10 0 -15 -16 -12 -30 5 -7 8 -9 15 -6 15 4
0 1 6 -6 14 -7 8 -15 13 -18 11 -3 -2 -6 7 -6 20 -2 23 -1 23 23 -5 13 -16 22
-34 18 -40z m470 -10 c3 -5 1 -10 -4 -10 -6 0 -11 5 -11 10 0 6 2 10 4 10 3 0
8 -4 11 -10z m-40 -10 c3 -5 -1 -10 -9 -10 -9 0 -16 5 -16 10 0 6 4 10 9 10 6
0 13 -4 16 -10z m-465 -35 c0 -8 -2 -15 -4 -15 -2 0 -6 7 -10 15 -3 8 -1 15 4
15 6 0 10 -7 10 -15z m59 -12 l13 -28 -21 22 c-23 24 -26 33 -13 33 5 0 14
-12 21 -27z m21 17 c0 -5 -2 -10 -4 -10 -3 0 -8 5 -11 10 -3 6 -1 10 4 10 6 0
11 -4 11 -10z m-120 -21 c0 -6 -4 -7 -10 -4 -5 3 -10 11 -10 16 0 6 5 7 10 4
6 -3 10 -11 10 -16z m483 -4 c-3 -9 -8 -14 -10 -11 -3 3 -2 9 2 15 9 16 15 13
8 -4z m-73 -10 c0 -8 -4 -15 -10 -15 -5 0 -7 7 -4 15 4 8 8 15 10 15 2 0 4 -7
4 -15z m-365 -5 c-3 -5 -12 -10 -18 -10 -7 0 -6 4 3 10 19 12 23 12 15 0z
m170 -50 c3 -5 1 -10 -4 -10 -6 0 -11 5 -11 10 0 6 2 10 4 10 3 0 8 -4 11 -10z
m29 -45 c-7 -16 -24 -21 -24 -6 0 8 7 13 27 20 1 1 0 -6 -3 -14z m-217 -1 c-3
-3 -12 -4 -19 -1 -8 3 -5 6 6 6 11 1 17 -2 13 -5z m238 -44 c3 -5 1 -10 -4
-10 -6 0 -11 5 -11 10 0 6 2 10 4 10 3 0 8 -4 11 -10z m2933 -369 c9 -5 34
-17 55 -27 46 -23 87 -82 89 -128 1 -41 -28 -81 -92 -127 -36 -26 -55 -33 -93
-33 -59 0 -94 24 -126 87 -19 39 -22 56 -16 95 13 85 121 165 183 133z m-4316
-431 c8 -8 15 -19 15 -25 1 -5 7 -11 14 -14 7 -2 9 1 5 8 -9 14 19 15 45 1 13
-8 19 -7 19 0 0 6 5 8 10 5 18 -11 -1 -26 -23 -20 -20 6 -21 5 -4 -8 23 -19
22 -30 -2 -18 -10 6 -22 7 -26 3 -4 -4 -2 3 4 16 8 14 8 22 1 22 -5 0 -10 -4
-10 -10 0 -16 -47 -11 -54 6 -3 8 -10 13 -15 10 -13 -9 -42 4 -35 15 3 6 14 7
25 4 11 -4 19 -2 19 5 0 6 -4 9 -8 6 -4 -2 -14 0 -22 5 -12 7 -10 8 6 6 12 -1
28 -9 36 -17z m93 3 c50 -7 50 -7 15 -13 -19 -3 -39 -4 -45 -1 -5 3 -19 5 -29
6 -11 0 -21 6 -24 14 -3 9 2 11 14 8 11 -3 42 -9 69 -14z m85 -13 c0 -5 -2
-10 -4 -10 -3 0 -8 5 -11 10 -3 6 -1 10 4 10 6 0 11 -4 11 -10z m-273 -6 c-3
-3 -12 -4 -19 -1 -8 3 -5 6 6 6 11 1 17 -2 13 -5z m3961 -18 c37 -4 81 -16
111 -31 53 -26 95 -71 87 -92 -3 -7 -1 -15 4 -18 27 -16 -1 -84 -49 -119 -17
-13 -28 -26 -24 -29 3 -4 -3 -7 -14 -7 -16 0 -19 -5 -15 -30 3 -21 0 -32 -12
-36 -9 -3 -16 -15 -16 -25 0 -11 -6 -22 -14 -25 -8 -3 -11 -15 -8 -30 4 -23 2
-25 -24 -19 -16 4 -24 3 -19 -2 15 -11 17 -53 3 -53 -15 0 -37 -31 -38 -52 0
-14 -9 -18 -40 -18 -22 0 -40 -5 -40 -10 0 -7 -6 -7 -17 -1 -10 5 -33 16 -51
23 -24 9 -53 40 -102 108 -67 94 -160 235 -160 243 0 2 7 4 15 4 8 0 15 -5 15
-11 0 -12 40 -56 51 -56 19 0 29 38 18 69 -8 24 -8 35 1 46 19 23 41 18 72
-17 25 -30 27 -31 19 -8 -5 14 -19 47 -30 73 -21 49 -28 97 -13 97 4 0 22 -9
41 -21 38 -23 48 -20 31 11 -11 20 -10 21 10 15 14 -4 26 -2 33 8 14 18 41 25
82 21 17 -2 58 -6 93 -8z m-3870 -18 c20 -17 14 -28 -15 -27 -25 0 -26 1 -8 9
17 8 16 9 -10 11 -16 1 -34 3 -40 4 -5 2 -18 3 -28 4 -10 0 -16 4 -13 9 6 10
98 2 114 -10z m162 12 c0 -5 -2 -10 -4 -10 -3 0 -8 5 -11 10 -3 6 -1 10 4 10
6 0 11 -4 11 -10z m34 2 c3 -5 -1 -9 -9 -9 -8 0 -15 4 -15 9 0 4 4 8 9 8 6 0
12 -4 15 -8z m1435 -43 c-6 -4 -9 -12 -5 -18 7 -10 -19 -71 -34 -81 -4 -3 -9
-14 -11 -25 -3 -12 -12 -20 -24 -20 -15 0 -20 7 -21 30 -1 32 37 102 60 111 9
3 12 14 8 27 -5 22 -5 22 17 3 15 -13 18 -22 10 -27z m-1729 12 c0 -5 -9 -7
-20 -4 -11 3 -20 7 -20 9 0 2 9 4 20 4 11 0 20 -4 20 -9z m-3 -27 c-3 -3 -12
-4 -19 -1 -8 3 -5 6 6 6 11 1 17 -2 13 -5z m413 -105 c0 -8 5 -7 15 1 13 11
14 10 9 -4 -5 -12 -2 -15 10 -10 19 7 22 -12 4 -19 -10 -4 -10 -8 1 -15 10 -7
19 -6 28 4 16 15 53 19 53 5 0 -4 -13 -22 -29 -39 -21 -21 -29 -38 -26 -58 l3
-28 -18 22 c-25 30 -30 28 -23 -12 3 -18 1 -36 -4 -39 -5 -3 -10 8 -11 24 -1
17 -3 36 -5 42 -1 7 10 13 25 15 25 3 27 6 17 24 -10 19 -12 20 -21 4 -7 -12
-13 -14 -22 -7 -6 5 -21 9 -31 7 -11 -2 -23 1 -26 6 -3 5 -6 -7 -7 -27 -1 -19
3 -35 9 -35 6 0 9 -6 6 -14 -3 -8 -2 -16 3 -18 5 -2 1 -13 -8 -26 l-18 -23 -3
38 c-9 95 -6 128 9 127 9 -1 17 8 17 18 3 33 43 67 43 37z m-100 -80 c0 -11
-4 -18 -10 -14 -5 3 -7 12 -3 20 7 21 13 19 13 -6z m89 -84 c1 -25 -2 -45 -7
-45 -7 0 -9 68 -3 88 4 11 8 -6 10 -43z m91 -15 c0 -5 -4 -10 -9 -10 -6 0 -13
5 -16 10 -3 6 1 10 9 10 9 0 16 -4 16 -10z m-160 -4 c0 -3 -4 -8 -10 -11 -5
-3 -10 -1 -10 4 0 6 5 11 10 11 6 0 10 -2 10 -4z m4422 -26 c13 -5 34 -18 47
-30 20 -17 22 -26 17 -64 -9 -59 -34 -80 -94 -79 -38 0 -54 6 -80 31 -17 16
-32 35 -32 41 0 6 -9 11 -19 11 -11 0 -26 9 -34 21 -15 20 -12 58 4 60 12 2
21 5 39 12 8 3 22 7 30 10 21 6 96 -2 122 -13z m-1083 -173 c15 -26 53 -74 84
-106 64 -66 80 -108 26 -69 -24 18 -32 20 -38 9 -5 -7 -13 -11 -19 -7 -15 9
-62 114 -62 138 0 10 -9 29 -21 41 -19 20 -59 93 -59 106 0 12 63 -66 89 -112z
m1171 63 c0 -5 -4 -10 -10 -10 -5 0 -10 5 -10 10 0 6 5 10 10 10 6 0 10 -4 10
-10z m-4343 -77 c1 -22 -1 -24 -8 -10 -6 9 -7 22 -4 27 9 14 10 13 12 -17z
m40 21 c-3 -3 -12 -4 -19 -1 -8 3 -5 6 6 6 11 1 17 -2 13 -5z m3294 -75 c35
-24 38 -39 7 -31 -30 7 -68 32 -68 43 0 16 31 10 61 -12z m-3057 -38 c8 -11 8
-13 -1 -8 -6 4 -14 1 -16 -5 -3 -7 -5 5 -5 27 0 22 3 31 5 20 3 -11 10 -26 17
-34z m37 -28 c13 -16 12 -17 -3 -4 -17 13 -22 21 -14 21 2 0 10 -8 17 -17z
m-218 -18 c-3 -9 -8 -14 -10 -11 -3 3 -2 9 2 15 9 16 15 13 8 -4z m-46 -57
c-3 -8 -6 -5 -6 6 -1 11 2 17 5 13 3 -3 4 -12 1 -19z m2908 -8 c3 -5 -1 -10
-9 -10 -9 0 -16 5 -16 10 0 6 4 10 9 10 6 0 13 -4 16 -10z m-2905 -55 c0 -8
-4 -15 -10 -15 -5 0 -10 7 -10 15 0 8 5 15 10 15 6 0 10 -7 10 -15z m2894 -10
c8 -8 19 -15 25 -15 5 0 22 -26 36 -57 23 -47 28 -71 28 -145 1 -48 5 -82 9
-75 6 9 10 8 18 -3 5 -8 10 -20 10 -27 0 -13 -40 -39 -40 -26 -1 19 -29 43
-44 37 -22 -8 -20 -31 4 -44 34 -18 23 -31 -22 -26 -24 3 -49 5 -56 5 -18 1
-52 79 -52 119 0 18 -4 41 -9 51 -6 9 -11 60 -12 112 -2 89 -1 94 20 97 19 3
26 -7 22 -30 0 -5 6 -8 14 -8 11 0 14 7 9 25 -7 29 15 35 40 10z m104 -65 c3
-21 2 -22 -12 -11 -19 16 -21 44 -3 39 6 -3 14 -15 15 -28z m58 -185 c-9 -23
-26 -9 -26 23 0 24 1 25 16 10 10 -9 14 -24 10 -33z m301 -20 c13 -4 20 -11
17 -17 -3 -5 0 -16 7 -24 10 -13 15 -12 34 6 22 20 24 21 96 5 41 -9 84 -18
97 -21 22 -4 32 -34 11 -34 -5 0 -7 -5 -3 -12 6 -9 9 -9 12 0 2 7 13 12 25 12
20 -1 21 -2 5 -14 -16 -12 -16 -14 -1 -29 15 -15 15 -17 0 -23 -14 -5 -15 -9
-6 -20 9 -11 8 -14 -4 -14 -8 0 -17 5 -19 12 -3 8 -11 5 -25 -9 -14 -14 -29
-19 -46 -16 -17 3 -32 -2 -46 -16 -12 -12 -31 -21 -43 -21 -13 0 -41 -7 -63
-14 -22 -8 -63 -16 -90 -19 -28 -3 -71 -13 -96 -21 -25 -9 -54 -17 -65 -20
-60 -12 -84 -19 -84 -26 0 -4 -26 -12 -57 -19 -54 -11 -59 -10 -79 11 -24 27
-70 131 -80 184 -6 35 -6 37 17 32 65 -15 205 -73 224 -94 12 -13 27 -24 33
-24 16 0 62 60 62 81 0 11 7 36 16 57 14 33 17 35 24 17 8 -20 9 -20 9 1 1 12
11 32 24 45 13 13 26 31 29 40 6 16 24 17 65 4z m-233 -34 c-10 -40 -30 -68
-51 -68 -41 0 -38 45 5 82 33 29 54 22 46 -14z m-3224 9 c0 -5 -4 -10 -10 -10
-5 0 -10 5 -10 10 0 6 5 10 10 10 6 0 10 -4 10 -10z m3137 -106 c-3 -3 -12 -4
-19 -1 -8 3 -5 6 6 6 11 1 17 -2 13 -5z m-2301 -431 c-10 -10 -19 5 -10 18 6
11 8 11 12 0 2 -7 1 -15 -2 -18z m24 -40 c0 -13 -3 -13 -15 -3 -8 7 -12 16 -9
21 8 13 24 1 24 -18z m-16 -19 c9 -22 8 -24 -9 -18 -8 4 -15 12 -15 20 0 19
16 18 24 -2z m100 -266 l25 -33 -22 -21 c-12 -11 -29 -23 -37 -27 -8 -4 -23
-12 -32 -19 -20 -14 -25 -11 -28 17 -7 60 1 92 23 103 35 17 44 14 71 -20z
m666 -88 c0 -5 -4 -10 -10 -10 -5 0 -10 5 -10 10 0 6 5 10 10 10 6 0 10 -4 10
-10z m-644 -107 c-10 -10 -19 5 -10 18 6 11 8 11 12 0 2 -7 1 -15 -2 -18z m25
-43 c15 0 10 -27 -7 -34 -27 -11 -34 -7 -32 19 2 17 7 24 16 20 8 -3 18 -5 23
-5z m1697 -305 c-1 -19 -7 -36 -15 -39 -20 -8 -16 -20 12 -33 20 -9 25 -8 25
2 0 8 -4 16 -10 20 -18 11 1 36 22 29 12 -3 18 -2 15 3 -8 13 32 32 61 29 12
-1 28 -11 36 -21 13 -18 14 -18 41 3 20 16 32 19 44 12 10 -5 27 -7 38 -4 13
4 28 -2 41 -16 12 -13 25 -19 33 -14 9 5 10 2 6 -9 -4 -10 -10 -24 -14 -33 -5
-14 -2 -16 19 -11 17 5 30 2 38 -8 7 -8 18 -15 25 -15 8 0 15 -5 17 -11 3 -8
15 -6 41 6 44 21 62 11 29 -15 l-23 -19 28 2 c24 2 28 -2 28 -23 0 -16 6 -25
15 -25 8 0 14 5 13 12 -2 7 4 10 12 7 10 -4 13 -14 9 -30 -5 -19 0 -25 33 -39
34 -15 36 -18 18 -25 -11 -5 -14 -9 -7 -9 8 -1 12 -7 9 -13 -8 -24 13 -49 36
-43 16 5 18 4 8 -3 -11 -8 -9 -11 9 -14 17 -2 26 -12 32 -35 10 -37 13 -39 34
-18 24 24 38 18 17 -7 -29 -36 -409 -405 -508 -494 -49 -44 -108 -98 -131
-120 -86 -82 -113 -104 -126 -104 -10 0 -10 2 -1 8 14 9 19 58 9 89 -4 12 -2
24 4 28 5 3 10 15 10 26 0 10 7 19 15 19 8 0 15 4 15 10 0 5 -16 8 -35 6 -31
-2 -34 0 -29 17 4 12 2 17 -4 13 -6 -3 -14 -1 -18 5 -5 9 1 10 19 5 39 -9 59
1 44 25 -9 15 -8 21 8 33 16 12 17 17 8 27 -10 10 -15 6 -24 -17 -7 -16 -13
-33 -13 -39 -1 -5 -8 -10 -16 -10 -10 0 -14 7 -11 20 2 11 4 35 4 52 0 23 6
35 19 39 10 3 18 11 18 19 0 7 3 15 8 18 4 2 1 2 -6 1 -21 -6 -26 25 -10 59 9
19 13 49 10 75 -4 37 -7 43 -23 39 -17 -5 -18 -1 -13 34 6 34 4 39 -10 33 -15
-6 -17 -2 -11 30 5 23 3 41 -5 51 -16 19 -5 49 15 41 8 -3 15 -1 15 4 0 6 -6
10 -14 10 -8 0 -17 15 -20 35 -4 19 -11 35 -15 35 -12 0 -20 60 -9 66 12 7 10
34 -2 34 -6 0 -14 -10 -19 -22 -4 -12 -11 -17 -14 -11 -3 5 3 38 13 73 11 35
18 66 15 68 -7 7 50 112 61 112 2 0 3 -16 2 -35z m-868 -244 c0 -5 -6 -14 -14
-20 -11 -9 -16 -9 -21 0 -4 6 -1 15 6 20 18 11 29 11 29 0z m1560 -46 c0 -8
-7 -15 -15 -15 -16 0 -20 12 -8 23 11 12 23 8 23 -8z m-745 -15 c8 -24 -14
-58 -25 -40 -9 14 -1 60 10 60 5 0 12 -9 15 -20z m798 -50 c3 -11 1 -20 -4
-20 -5 0 -9 9 -9 20 0 11 2 20 4 20 2 0 6 -9 9 -20z m87 -20 c0 -5 -2 -10 -4
-10 -3 0 -8 5 -11 10 -3 6 -1 10 4 10 6 0 11 -4 11 -10z m-863 -582 c-15 -23
-39 -24 -30 0 3 9 11 23 16 30 16 20 28 -7 14 -30z m40 -33 c-13 -14 -20 -12
-23 9 -1 9 5 12 17 9 14 -4 15 -8 6 -18z m-187 -5 c0 -5 -7 -10 -15 -10 -8 0
-15 5 -15 10 0 6 7 10 15 10 8 0 15 -4 15 -10z m-1053 -146 c-3 -3 -12 -4 -19
-1 -8 3 -5 6 6 6 11 1 17 -2 13 -5z"/>
<path d="M5785 9580 c3 -5 11 -10 16 -10 6 0 7 5 4 10 -3 6 -11 10 -16 10 -6
0 -7 -4 -4 -10z"/>
<path d="M5060 6630 c-13 -8 -12 -10 3 -10 9 0 17 5 17 10 0 12 -1 12 -20 0z"/>
<path d="M5198 6323 c22 -40 72 -57 69 -23 -2 25 -6 25 -23 3 -12 -17 -13 -16
-9 5 2 13 0 20 -6 16 -5 -3 -17 0 -26 8 -15 12 -15 11 -5 -9z"/>
<path d="M5175 6252 c2 -15 4 -30 4 -34 1 -5 6 -8 12 -8 5 0 8 4 5 9 -4 5 -1
11 6 13 8 3 4 12 -9 25 l-21 21 3 -26z"/>
<path d="M5283 6205 c23 -35 48 -67 56 -70 10 -4 9 0 -3 14 -10 11 -15 25 -10
32 4 8 3 10 -4 5 -7 -4 -12 -1 -12 8 0 9 -4 16 -9 16 -5 0 -12 8 -15 18 -3 9
-15 23 -26 29 -13 9 -5 -8 23 -52z"/>
<path d="M5305 6261 c-3 -6 8 -24 25 -41 32 -33 42 -30 13 3 -17 19 -17 20 0
14 11 -4 16 -3 12 4 -4 6 -14 8 -22 5 -11 -4 -13 -2 -9 9 6 16 -9 21 -19 6z"/>
<path d="M5430 6239 c0 -5 5 -7 10 -4 6 3 10 8 10 11 0 2 -4 4 -10 4 -5 0 -10
-5 -10 -11z"/>
<path d="M5460 6225 c0 -8 2 -15 4 -15 2 0 6 7 10 15 3 8 1 15 -4 15 -6 0 -10
-7 -10 -15z"/>
<path d="M5390 6224 c0 -5 13 -25 29 -44 25 -30 31 -33 51 -24 21 9 22 11 6
17 -10 4 -15 3 -11 -3 3 -6 3 -10 -2 -10 -13 1 -37 23 -56 50 -9 13 -17 20
-17 14z"/>
<path d="M5360 6170 c0 -5 5 -10 11 -10 5 0 7 5 4 10 -3 6 -8 10 -11 10 -2 0
-4 -4 -4 -10z"/>
<path d="M5481 6124 c7 -8 19 -12 27 -9 10 4 12 0 8 -10 -3 -9 -2 -14 3 -11 5
3 11 -1 15 -9 3 -8 11 -15 17 -15 8 0 7 6 -3 18 -9 9 -17 23 -20 31 -2 8 -16
15 -32 17 -23 2 -26 1 -15 -12z"/>
<path d="M5350 6060 c6 -11 16 -20 22 -20 6 0 3 9 -7 20 -10 11 -20 20 -22 20
-2 0 1 -9 7 -20z"/>
<path d="M5230 6050 c6 -11 15 -18 21 -14 6 4 6 11 -2 20 -17 21 -31 17 -19
-6z"/>
<path d="M5160 6035 c0 -8 5 -15 10 -15 6 0 10 7 10 15 0 8 -4 15 -10 15 -5 0
-10 -7 -10 -15z"/>
<path d="M5420 6042 c0 -4 10 -9 22 -9 18 -2 20 0 8 7 -18 12 -30 13 -30 2z"/>
<path d="M5126 6025 c4 -8 11 -15 16 -15 6 0 5 6 -2 15 -7 8 -14 15 -16 15 -2
0 -1 -7 2 -15z"/>
<path d="M5315 6030 c-3 -6 1 -7 9 -4 18 7 21 14 7 14 -6 0 -13 -4 -16 -10z"/>
<path d="M5187 6007 c-3 -8 -2 -20 3 -26 5 -9 8 -4 8 13 0 29 -3 32 -11 13z"/>
<path d="M5210 6002 c0 -4 10 -13 23 -21 22 -14 22 -14 3 8 -20 22 -26 25 -26
13z"/>
<path d="M5305 5990 c10 -32 13 -36 25 -24 7 7 3 17 -11 30 -22 19 -22 19 -14
-6z"/>
<path d="M5425 5980 c-3 -5 -1 -10 4 -10 6 0 11 5 11 10 0 6 -2 10 -4 10 -3 0
-8 -4 -11 -10z"/>
<path d="M5157 5960 c-3 -11 -1 -18 4 -14 5 3 9 0 9 -7 0 -10 3 -10 13 0 10
11 9 14 -1 18 -6 3 -10 9 -6 14 3 5 1 9 -4 9 -5 0 -12 -9 -15 -20z"/>
<path d="M5200 5957 c0 -3 12 -12 26 -22 15 -9 23 -12 20 -6 -7 11 -46 35 -46
28z"/>
<path d="M5485 5950 c3 -5 8 -10 11 -10 2 0 4 5 4 10 0 6 -5 10 -11 10 -5 0
-7 -4 -4 -10z"/>
<path d="M5320 5940 c0 -5 5 -10 10 -10 6 0 10 5 10 10 0 6 -4 10 -10 10 -5 0
-10 -4 -10 -10z"/>
<path d="M5415 5930 c3 -5 8 -10 11 -10 2 0 4 5 4 10 0 6 -5 10 -11 10 -5 0
-7 -4 -4 -10z"/>
<path d="M5346 5921 c-4 -7 -5 -15 -2 -18 9 -9 19 4 14 18 -4 11 -6 11 -12 0z"/>
<path d="M5206 5905 c4 -8 8 -15 10 -15 2 0 4 7 4 15 0 8 -4 15 -10 15 -5 0
-7 -7 -4 -15z"/>
<path d="M5260 5895 c7 -9 15 -13 17 -11 7 7 -7 26 -19 26 -6 0 -6 -6 2 -15z"/>
<path d="M5203 5861 c0 -11 6 -17 14 -14 18 7 17 33 -1 33 -8 0 -14 -8 -13
-19z"/>
<path d="M5276 5855 c-9 -26 -7 -32 5 -12 6 10 9 21 6 23 -2 3 -7 -2 -11 -11z"/>
<path d="M5385 5850 c-3 -5 -1 -10 4 -10 6 0 11 5 11 10 0 6 -2 10 -4 10 -3 0
-8 -4 -11 -10z"/>
<path d="M5310 5820 c0 -5 5 -10 10 -10 6 0 10 5 10 10 0 6 -4 10 -10 10 -5 0
-10 -4 -10 -10z"/>
<path d="M7250 3800 c0 -5 5 -10 11 -10 5 0 7 5 4 10 -3 6 -8 10 -11 10 -2 0
-4 -4 -4 -10z"/>
<path d="M7528 2013 c7 -3 16 -2 19 1 4 3 -2 6 -13 5 -11 0 -14 -3 -6 -6z"/>
<path d="M7670 1910 c0 -5 5 -10 11 -10 5 0 7 5 4 10 -3 6 -8 10 -11 10 -2 0
-4 -4 -4 -10z"/>
<path d="M6970 1800 c0 -5 5 -10 10 -10 6 0 10 5 10 10 0 6 -4 10 -10 10 -5 0
-10 -4 -10 -10z"/>
<path d="M2 9903 l3 -147 90 -2 c50 0 146 -4 215 -7 107 -5 120 -4 87 6 -21 7
-35 16 -31 20 11 11 62 8 69 -3 7 -12 45 -14 45 -2 0 4 -5 13 -12 20 -7 7 -10
12 -7 13 42 8 64 10 117 15 34 3 62 10 62 15 0 5 6 9 14 9 8 0 16 6 18 12 3 9
32 12 104 10 54 -1 135 2 179 7 44 5 82 6 85 2 3 -5 37 -5 75 -2 39 3 66 9 60
12 -5 4 -71 14 -145 23 -74 9 -155 21 -180 26 -25 5 -76 14 -115 19 -38 6
-104 15 -145 22 -41 6 -91 13 -110 15 -19 3 -48 9 -64 14 -16 6 -48 10 -71 10
-24 0 -102 9 -175 20 -73 11 -141 20 -151 20 -18 0 -19 -8 -17 -147z"/>
<path d="M5545 10030 c3 -5 16 -15 28 -21 22 -12 22 -12 3 10 -19 21 -43 30
-31 11z"/>
<path d="M1208 9863 c7 -3 16 -2 19 1 4 3 -2 6 -13 5 -11 0 -14 -3 -6 -6z"/>
<path d="M1678 9855 c-3 -3 -41 -7 -84 -9 -44 -2 -92 -4 -109 -5 -23 -1 -27
-3 -15 -11 8 -5 28 -10 43 -10 16 0 53 -16 83 -36 53 -35 58 -37 121 -31 36 4
70 10 77 15 6 5 32 15 59 22 49 13 63 30 24 30 -13 0 -27 4 -32 9 -6 6 -39 15
-75 20 -75 12 -85 13 -92 6z"/>
<path d="M9637 9225 c-18 -9 -35 -12 -45 -6 -10 4 -37 6 -62 4 -25 -3 -55 -5
-67 -6 -13 0 -23 -4 -23 -7 0 -4 -30 -7 -67 -8 -38 -1 -88 -6 -113 -11 -25 -6
-139 -17 -255 -26 -115 -9 -244 -20 -285 -25 -41 -4 -122 -13 -180 -19 -58 -5
-132 -15 -165 -20 -75 -13 -239 -33 -282 -34 -21 -1 -33 -6 -33 -15 0 -9 -7
-12 -17 -9 -42 11 -48 11 -46 0 2 -7 -3 -10 -10 -7 -8 3 -27 0 -42 -6 -24 -9
-27 -13 -15 -21 11 -8 8 -9 -14 -4 -45 10 -93 -11 -99 -43 -3 -16 0 -33 8 -41
13 -13 17 -12 32 6 10 11 23 18 29 16 7 -2 19 3 27 12 9 8 28 15 44 15 16 0
34 5 40 11 6 6 42 12 79 14 38 3 89 9 114 14 25 5 48 7 52 5 20 -13 192 -2
418 26 120 15 264 29 356 34 51 3 99 8 107 12 8 3 73 9 143 14 71 5 143 11
159 14 17 4 66 7 111 8 91 2 131 -15 176 -75 29 -37 68 -141 68 -180 0 -54 58
-377 70 -387 3 -3 11 -17 17 -32 7 -16 17 -28 23 -28 6 0 15 12 20 28 6 15 15
35 20 44 6 10 10 30 10 45 0 16 9 62 20 103 11 41 20 94 20 117 0 23 4 44 9
47 10 6 16 91 14 196 -1 61 -7 84 -29 123 -14 27 -34 51 -43 54 -26 8 -34 12
-70 34 -21 12 -48 20 -70 18 -20 -1 -44 2 -55 6 -11 5 -26 3 -37 -4 -12 -7
-19 -7 -19 -1 0 14 -10 13 -43 -5z"/>
<path d="M4616 8581 c-4 -7 -5 -15 -2 -18 9 -9 19 4 14 18 -4 11 -6 11 -12 0z"/>
<path d="M4640 8570 c0 -11 6 -20 14 -20 9 0 12 7 9 20 -3 11 -9 20 -14 20 -5
0 -9 -9 -9 -20z"/>
<path d="M4774 8565 c-3 -8 -3 -19 1 -25 11 -18 25 -11 25 15 0 27 -17 34 -26
10z"/>
<path d="M4528 8553 c7 -3 16 -2 19 1 4 3 -2 6 -13 5 -11 0 -14 -3 -6 -6z"/>
<path d="M4643 8468 c-1 -10 5 -18 13 -18 8 0 14 6 14 14 0 8 6 16 13 19 6 2
0 4 -14 3 -16 -1 -26 -7 -26 -18z"/>
<path d="M8483 8459 c-47 -30 -62 -61 -74 -151 -13 -96 -1 -173 37 -229 37
-54 65 -66 104 -43 54 33 65 70 65 232 l0 144 -37 34 c-44 39 -52 41 -95 13z"/>
<path d="M3140 8404 c0 -25 4 -43 9 -40 12 8 12 86 0 86 -5 0 -9 -21 -9 -46z"/>
<path d="M4765 8420 c-9 -16 -11 -30 -6 -30 15 0 41 30 41 46 0 24 -19 16 -35
-16z"/>
<path d="M4660 8430 c-7 -22 -7 -40 0 -40 5 0 10 -12 12 -27 l4 -28 8 29 c5
17 5 31 -1 35 -6 3 -13 13 -16 21 -3 8 -6 13 -7 10z"/>
<path d="M4690 8331 c0 -6 5 -13 10 -16 6 -3 10 1 10 9 0 9 -4 16 -10 16 -5 0
-10 -4 -10 -9z"/>
<path d="M4660 8309 c0 -5 5 -7 10 -4 6 3 10 8 10 11 0 2 -4 4 -10 4 -5 0 -10
-5 -10 -11z"/>
<path d="M4680 8291 c0 -6 5 -13 10 -16 6 -3 10 1 10 9 0 9 -4 16 -10 16 -5 0
-10 -4 -10 -9z"/>
<path d="M4650 8279 c0 -8 7 -24 15 -35 19 -25 19 -14 0 22 -8 16 -15 22 -15
13z"/>
<path d="M4711 8274 c0 -11 3 -14 6 -6 3 7 2 16 -1 19 -3 4 -6 -2 -5 -13z"/>
<path d="M4700 8218 c0 -7 5 -20 10 -28 8 -12 10 -11 10 7 0 12 -4 25 -10 28
-5 3 -10 0 -10 -7z"/>
<path d="M4636 8175 c-3 -8 -1 -15 4 -15 6 0 10 7 10 15 0 8 -2 15 -4 15 -2 0
-6 -7 -10 -15z"/>
<path d="M4655 8120 c3 -5 8 -10 11 -10 2 0 4 5 4 10 0 6 -5 10 -11 10 -5 0
-7 -4 -4 -10z"/>
<path d="M4637 8096 c-3 -6 4 -13 14 -13 22 -2 25 12 5 20 -8 3 -16 0 -19 -7z"/>
<path d="M4740 8094 c0 -5 7 -20 16 -32 8 -12 10 -22 5 -22 -6 0 -11 -4 -11
-10 0 -16 17 -12 24 6 3 9 -3 27 -14 41 -11 14 -20 22 -20 17z"/>
<path d="M4717 8033 c3 -7 6 -13 8 -13 2 0 5 6 8 13 3 8 -1 14 -8 14 -7 0 -11
-6 -8 -14z"/>
<path d="M4671 8024 c0 -11 3 -14 6 -6 3 7 2 16 -1 19 -3 4 -6 -2 -5 -13z"/>
<path d="M4745 8000 c3 -5 0 -10 -7 -10 -10 0 -9 -3 2 -10 9 -6 17 -5 22 3 8
13 1 27 -13 27 -6 0 -7 -4 -4 -10z"/>
<path d="M4663 7985 c-3 -9 -3 -18 -1 -21 3 -3 8 4 11 16 6 23 -1 27 -10 5z"/>
<path d="M4642 7970 c0 -14 2 -19 5 -12 2 6 2 18 0 25 -3 6 -5 1 -5 -13z"/>
<path d="M4720 7954 c0 -8 5 -12 10 -9 6 3 10 10 10 16 0 5 -4 9 -10 9 -5 0
-10 -7 -10 -16z"/>
<path d="M4701 7934 c0 -11 3 -14 6 -6 3 7 2 16 -1 19 -3 4 -6 -2 -5 -13z"/>
<path d="M4630 7906 c0 -8 4 -17 8 -20 4 -2 8 4 8 15 0 10 -4 19 -8 19 -4 0
-8 -6 -8 -14z"/>
<path d="M4673 7905 c-3 -9 -3 -18 -1 -21 3 -3 8 4 11 16 6 23 -1 27 -10 5z"/>
<path d="M4596 7885 c-9 -26 -7 -32 5 -12 6 10 9 21 6 23 -2 3 -7 -2 -11 -11z"/>
<path d="M4706 7887 c3 -10 9 -15 12 -12 3 3 0 11 -7 18 -10 9 -11 8 -5 -6z"/>
<path d="M9856 7841 c-13 -20 -41 -74 -61 -121 -21 -47 -51 -100 -69 -118
l-31 -33 -2 -122 c-2 -187 -14 -389 -24 -424 -14 -43 -2 -97 28 -130 37 -42
78 -130 97 -208 43 -175 70 -235 106 -235 24 0 63 46 102 120 59 113 63 116
133 134 35 9 73 16 85 16 20 0 20 3 20 443 l0 443 -99 33 c-94 30 -99 34 -129
80 -17 26 -34 57 -38 67 -12 33 -52 81 -73 87 -15 3 -26 -5 -45 -32z"/>
<path d="M4633 7835 c0 -22 2 -30 4 -17 2 12 2 30 0 40 -3 9 -5 -1 -4 -23z"/>
<path d="M4782 7840 c0 -14 2 -19 5 -12 2 6 2 18 0 25 -3 6 -5 1 -5 -13z"/>
<path d="M4695 7839 c-9 -14 -2 -20 14 -10 8 6 9 11 3 15 -6 3 -14 1 -17 -5z"/>
<path d="M4735 7840 c-4 -6 1 -10 9 -10 9 0 16 -4 16 -10 0 -5 -4 -10 -8 -10
-9 0 -11 -7 -12 -75 -1 -29 -5 -43 -12 -39 -7 4 -8 2 -4 -5 4 -6 11 -9 16 -6
4 3 13 -9 19 -25 5 -17 15 -30 20 -30 16 0 13 28 -4 37 -17 10 -22 60 -12 124
6 37 5 48 -7 52 -9 4 -18 2 -21 -3z"/>
<path d="M4561 7804 c0 -11 3 -14 6 -6 3 7 2 16 -1 19 -3 4 -6 -2 -5 -13z"/>
<path d="M4697 7803 c-4 -3 -7 -11 -7 -17 0 -6 5 -5 12 2 6 6 9 14 7 17 -3 3
-9 2 -12 -2z"/>
<path d="M4721 7784 c0 -11 3 -14 6 -6 3 7 2 16 -1 19 -3 4 -6 -2 -5 -13z"/>
<path d="M4580 7783 c0 -5 5 -15 10 -23 8 -12 10 -11 10 8 0 12 -4 22 -10 22
-5 0 -10 -3 -10 -7z"/>
<path d="M4619 7768 c-7 -25 -8 -97 -2 -101 5 -3 9 19 10 49 1 30 0 54 -3 54
-2 0 -4 -1 -5 -2z"/>
<path d="M4820 7728 c0 -23 3 -29 9 -19 8 12 4 51 -5 51 -2 0 -4 -15 -4 -32z"/>
<path d="M4342 7650 c0 -14 2 -19 5 -12 2 6 2 18 0 25 -3 6 -5 1 -5 -13z"/>
<path d="M4651 7660 c0 -8 4 -24 9 -35 5 -13 9 -14 9 -5 0 8 -4 24 -9 35 -5
13 -9 14 -9 5z"/>
<path d="M4810 7630 c0 -5 5 -10 11 -10 5 0 7 5 4 10 -3 6 -8 10 -11 10 -2 0
-4 -4 -4 -10z"/>
<path d="M4626 7615 c4 -8 8 -15 10 -15 2 0 4 7 4 15 0 8 -4 15 -10 15 -5 0
-7 -7 -4 -15z"/>
<path d="M4131 7604 c0 -11 3 -14 6 -6 3 7 2 16 -1 19 -3 4 -6 -2 -5 -13z"/>
<path d="M4345 7611 c-3 -5 -2 -12 3 -15 5 -3 9 1 9 9 0 17 -3 19 -12 6z"/>
<path d="M4790 7617 c0 -2 6 -10 14 -16 11 -9 16 -9 22 1 4 7 4 10 -1 6 -4 -4
-14 -3 -22 3 -7 6 -13 9 -13 6z"/>
<path d="M4690 7605 c0 -5 5 -17 10 -25 5 -8 10 -10 10 -5 0 6 -5 17 -10 25
-5 8 -10 11 -10 5z"/>
<path d="M4780 7580 c6 -11 12 -20 14 -20 2 0 2 9 -1 20 -3 11 -9 20 -15 20
-5 0 -4 -9 2 -20z"/>
<path d="M4830 7581 c0 -5 7 -15 17 -22 15 -13 15 -12 4 9 -12 23 -21 28 -21
13z"/>
<path d="M4349 7563 c6 -12 11 -33 11 -47 0 -14 4 -27 9 -30 13 -8 -5 74 -19
87 -10 10 -10 7 -1 -10z"/>
<path d="M4750 7571 c0 -5 5 -13 10 -16 6 -3 10 -2 10 4 0 5 -4 13 -10 16 -5
3 -10 2 -10 -4z"/>
<path d="M3171 7534 c0 -11 3 -14 6 -6 3 7 2 16 -1 19 -3 4 -6 -2 -5 -13z"/>
<path d="M4120 7535 c0 -8 4 -15 10 -15 5 0 7 7 4 15 -4 8 -8 15 -10 15 -2 0
-4 -7 -4 -15z"/>
<path d="M4730 7545 c0 -5 5 -17 10 -25 5 -8 10 -10 10 -5 0 6 -5 17 -10 25
-5 8 -10 11 -10 5z"/>
<path d="M4781 7524 c0 -11 3 -14 6 -6 3 7 2 16 -1 19 -3 4 -6 -2 -5 -13z"/>
<path d="M4940 7514 c0 -8 5 -12 10 -9 6 3 10 10 10 16 0 5 -4 9 -10 9 -5 0
-10 -7 -10 -16z"/>
<path d="M3143 7463 c-6 -21 -11 -78 -12 -128 0 -49 -6 -116 -12 -149 -13 -75
-4 -104 19 -60 59 108 107 134 199 108 23 -6 44 -10 46 -7 3 2 21 -7 40 -20
28 -19 33 -27 24 -37 -10 -10 -7 -11 14 -6 14 3 29 3 33 -1 9 -9 -45 -43 -69
-43 -16 0 -17 -2 -5 -10 11 -7 4 -13 -30 -28 -25 -11 -56 -34 -69 -53 l-24
-33 30 22 c18 13 33 18 35 12 2 -7 17 -6 44 3 51 18 165 32 144 17 -13 -8 -12
-10 3 -10 10 0 27 5 38 10 10 6 19 7 19 3 0 -4 -18 -16 -40 -26 -22 -10 -40
-23 -40 -29 0 -7 5 -6 14 1 8 7 32 11 53 9 32 -3 19 -8 -75 -31 -137 -33 -168
-45 -214 -86 -20 -17 -40 -31 -46 -31 -17 0 -24 -18 -13 -38 6 -11 6 -24 0
-33 -6 -10 -9 -10 -9 -1 0 6 -5 12 -10 12 -6 0 -10 -8 -8 -17 2 -12 -5 -19
-20 -21 -28 -4 -24 -26 6 -30 12 -2 22 -8 22 -13 0 -6 -10 -7 -22 -4 -19 6
-21 5 -10 -6 18 -19 15 -29 -10 -30 -21 -1 -20 -2 6 -13 29 -13 22 -31 -8 -20
-9 3 -16 2 -16 -4 0 -5 7 -12 15 -16 11 -4 14 -13 9 -30 -5 -22 -3 -24 17 -19
19 5 21 3 16 -17 -3 -13 0 -28 8 -36 12 -12 16 -11 29 8 21 29 50 34 43 7 -5
-19 -4 -19 19 -4 19 12 24 13 24 2 0 -9 10 -13 30 -12 17 1 30 -2 30 -6 0 -5
7 -6 15 -3 9 4 15 0 15 -10 0 -20 10 -20 36 -1 23 18 40 20 26 3 -8 -10 1 -13
39 -14 38 -1 47 2 39 11 -8 9 -6 15 7 19 15 6 15 8 3 16 -20 13 -33 12 -25 0
3 -5 2 -10 -4 -10 -5 0 -18 -3 -28 -6 -17 -6 -17 -6 0 7 15 12 10 14 -45 14
-83 0 -135 12 -142 32 -4 9 -3 19 2 22 5 3 17 31 27 61 17 54 44 80 82 80 7 0
13 5 13 11 0 6 6 9 14 6 7 -3 19 0 25 6 8 8 11 8 11 0 0 -7 -4 -15 -10 -18 -5
-3 -10 -15 -10 -25 0 -10 -8 -23 -17 -29 -17 -9 -17 -10 0 -16 9 -4 17 -13 17
-19 0 -22 23 -62 45 -78 25 -19 100 -29 113 -16 5 5 19 5 32 0 23 -9 23 -9 -8
-20 -18 -6 -38 -9 -45 -7 -7 3 -21 -2 -32 -10 -18 -14 -18 -16 -2 -33 12 -11
20 -13 25 -6 9 13 42 26 42 16 0 -15 -128 -102 -150 -102 -6 0 -10 -5 -10 -10
0 -6 -6 -10 -12 -9 -7 2 -31 -6 -53 -16 l-40 -19 75 -9 c70 -8 82 -7 169 22
67 21 99 27 112 21 14 -8 22 -4 39 18 12 15 19 22 16 17 -2 -6 3 -16 13 -22
16 -10 17 -8 13 15 -5 25 -4 26 13 12 9 -8 21 -23 26 -35 8 -16 8 -15 4 8 -3
15 -1 27 4 27 6 0 7 7 4 17 -4 11 -3 14 5 9 13 -8 42 15 42 33 0 6 5 11 10 11
6 0 10 9 10 20 0 11 4 20 9 20 5 0 11 7 15 15 7 19 1 19 -19 -1 -13 -13 -21
-14 -41 -6 -13 7 -24 8 -24 3 0 -5 -11 -8 -25 -7 -50 2 -23 28 34 31 33 2 99
23 76 24 -6 1 -10 31 -10 70 0 38 3 67 8 64 4 -2 7 -10 7 -17 0 -8 7 -20 16
-27 15 -12 16 -11 9 10 -6 20 -4 23 9 18 21 -8 20 12 -1 29 -17 13 -17 14 1 7
16 -5 18 -3 11 13 -4 10 -9 29 -10 41 -1 13 -8 31 -17 40 -8 10 -22 34 -31 54
-9 20 -23 42 -32 49 -8 7 -12 16 -9 21 3 5 -2 6 -11 3 -11 -5 -14 -2 -9 10 4
10 1 16 -7 16 -7 0 -10 3 -6 6 3 4 0 21 -7 39 -17 40 -6 61 35 70 22 5 27 10
20 19 -7 9 -7 17 2 26 10 10 9 11 -3 5 -12 -6 -12 -5 -4 4 15 17 6 49 -15 54
-13 4 -12 5 3 6 16 1 11 9 -24 42 -23 22 -50 41 -60 42 -10 1 -17 5 -14 9 3 4
11 5 19 1 8 -3 15 -1 15 5 0 12 -47 25 -60 17 -6 -4 -10 -1 -10 5 0 8 -21 11
-64 8 -35 -1 -62 0 -59 5 2 4 0 7 -6 7 -5 0 -12 -4 -16 -9 -8 -14 -45 -9 -45
6 0 9 -7 10 -26 2 -30 -11 -46 -3 -24 11 13 8 12 10 -2 10 -9 0 -22 -8 -27
-17 -8 -14 -10 -14 -11 -3 0 10 -3 11 -11 3 -13 -13 -92 5 -82 19 3 6 0 9 -8
6 -8 -3 -14 -11 -14 -19 0 -7 -9 -15 -20 -17 -16 -3 -17 -1 -5 7 13 9 13 11
-1 11 -26 0 -79 -21 -79 -32 0 -5 -4 -7 -9 -3 -5 3 -13 0 -16 -6 -4 -5 -13 -8
-21 -5 -8 3 -11 0 -8 -8 3 -8 -7 -18 -25 -26 -17 -7 -31 -16 -31 -21 0 -5 -7
-9 -16 -9 -8 0 -13 4 -10 9 3 5 10 53 16 106 7 71 7 101 -1 111 -18 22 -25 17
-36 -23z m310 -120 c-7 -2 -21 -2 -30 0 -10 3 -4 5 12 5 17 0 24 -2 18 -5z
m64 -9 c-3 -3 -12 -4 -19 -1 -8 3 -5 6 6 6 11 1 17 -2 13 -5z m-27 -18 c0 -8
-61 -12 -66 -4 -3 4 11 8 30 8 20 0 36 -2 36 -4z m-170 -31 c-7 -8 -17 -15
-23 -15 -6 0 -2 8 9 19 22 21 33 19 14 -4z m21 -8 c-10 -9 -11 -8 -5 6 3 10 9
15 12 12 3 -3 0 -11 -7 -18z m184 -176 c-3 -5 -27 -17 -53 -27 -26 -10 -51
-20 -57 -24 -5 -4 -19 -10 -30 -13 -42 -13 27 28 84 50 66 26 64 25 56 14z
m195 -101 c0 -5 -5 -10 -11 -10 -5 0 -7 5 -4 10 3 6 8 10 11 10 2 0 4 -4 4
-10z m-190 -60 c0 -5 -6 -10 -14 -10 -8 0 -17 -7 -20 -16 -3 -8 -2 -12 4 -9 6
3 10 4 10 1 0 -2 3 -11 6 -20 9 -22 -12 -20 -48 5 l-30 22 7 -32 c5 -23 3 -31
-8 -31 -17 0 -67 37 -67 50 0 8 30 22 55 26 6 1 12 3 15 4 3 1 20 3 38 5 18 1
35 5 39 9 9 9 13 8 13 -4z m294 -11 c-6 -11 -24 -2 -24 11 0 5 7 7 15 4 8 -4
12 -10 9 -15z m-257 -45 c-8 -8 -38 27 -31 38 3 5 13 0 21 -12 8 -12 13 -23
10 -26z m-192 -14 c13 -25 13 -30 1 -30 -19 0 -39 27 -32 45 8 22 13 19 31
-15z m-31 -27 c11 -28 -20 -36 -57 -15 -10 5 23 31 39 32 7 0 15 -8 18 -17z
m-57 -72 c0 -10 -7 -17 -13 -14 -7 3 -10 11 -7 19 8 20 22 17 20 -5z m280 -31
c-1 -20 -17 -27 -30 -13 -8 7 11 33 24 33 4 0 7 -9 6 -20z m56 13 c-7 -2 -13
-13 -13 -24 0 -20 -15 -26 -25 -10 -6 11 22 41 38 40 9 0 8 -2 0 -6z m123
-179 c-9 -8 -21 -12 -28 -8 -8 5 -6 10 8 15 31 12 37 10 20 -7z m-31 -64 c-3
-5 -10 -10 -16 -10 -5 0 -9 5 -9 10 0 6 7 10 16 10 8 0 12 -4 9 -10z"/>
<path d="M4122 7480 c0 -14 2 -19 5 -12 2 6 2 18 0 25 -3 6 -5 1 -5 -13z"/>
<path d="M4376 7435 c-3 -8 -1 -15 4 -15 6 0 10 7 10 15 0 8 -2 15 -4 15 -2 0
-6 -7 -10 -15z"/>
<path d="M4080 7424 c0 -14 3 -14 15 -4 8 7 15 14 15 16 0 2 -7 4 -15 4 -8 0
-15 -7 -15 -16z"/>
<path d="M4540 7422 c0 -5 7 -15 15 -22 8 -7 15 -8 15 -2 0 5 -7 15 -15 22 -8
7 -15 8 -15 2z"/>
<path d="M3320 7390 c0 -5 5 -10 10 -10 6 0 10 5 10 10 0 6 -4 10 -10 10 -5 0
-10 -4 -10 -10z"/>
<path d="M4090 7386 c0 -19 -17 -21 -22 -4 -3 9 -6 9 -12 0 -4 -7 -2 -12 4
-12 6 0 8 -5 4 -11 -5 -8 -1 -8 14 0 27 14 35 28 22 36 -5 3 -10 -1 -10 -9z"/>
<path d="M3288 7372 c-10 -2 -18 -8 -18 -13 0 -6 -4 -7 -10 -4 -5 3 -10 1 -10
-4 0 -14 17 -14 25 -1 4 6 10 8 15 5 5 -3 12 0 15 6 9 13 4 16 -17 11z"/>
<path d="M4103 7343 c-4 -10 -14 -24 -22 -31 -14 -11 -13 -12 5 -3 12 6 24 20
27 31 6 25 -1 27 -10 3z"/>
<path d="M4083 7275 c-17 -19 -16 -30 0 -16 8 6 17 8 21 4 4 -4 4 0 0 10 -7
20 -6 20 -21 2z"/>
<path d="M4096 7226 c6 -15 4 -18 -7 -14 -10 4 -15 -1 -15 -13 0 -12 4 -15 10
-9 20 20 26 9 10 -15 -15 -23 -15 -25 0 -19 9 3 13 10 10 15 -3 5 0 9 5 9 14
0 8 37 -8 53 -10 9 -11 8 -5 -7z"/>
<path d="M3360 7110 c-8 -5 -10 -10 -5 -10 6 0 17 5 25 10 8 5 11 10 5 10 -5
0 -17 -5 -25 -10z"/>
<path d="M3928 7089 c-10 -5 -18 -15 -18 -22 0 -8 3 -7 9 2 5 7 14 10 20 7 6
-4 11 0 11 8 0 19 0 18 -22 5z"/>
<path d="M4258 7063 c7 -3 16 -2 19 1 4 3 -2 6 -13 5 -11 0 -14 -3 -6 -6z"/>
<path d="M3699 6343 c-13 -17 -13 -17 6 -3 11 8 22 16 24 17 2 2 0 3 -6 3 -6
0 -17 -8 -24 -17z"/>
<path d="M3845 6349 c-4 -6 -5 -12 -2 -15 2 -3 7 2 10 11 7 17 1 20 -8 4z"/>
<path d="M3685 5720 c-3 -5 -15 -10 -27 -10 -14 0 -18 -5 -15 -15 4 -8 2 -17
-3 -20 -6 -4 -10 -1 -10 4 0 6 -9 3 -20 -6 -11 -10 -20 -23 -20 -30 0 -7 -8
-13 -17 -13 -14 0 -15 -2 -4 -9 19 -12 3 -34 -20 -28 -14 4 -19 0 -19 -16 0
-11 3 -18 6 -14 3 3 12 0 19 -6 11 -10 6 -19 -23 -51 -20 -21 -31 -35 -23 -31
10 6 12 4 7 -4 -5 -7 -13 -10 -20 -8 -7 3 -13 -3 -13 -13 -1 -13 4 -16 18 -13
32 9 21 -14 -13 -26 -25 -9 -30 -14 -19 -20 8 -5 21 -7 30 -4 14 4 14 3 -1 -9
-9 -7 -26 -20 -37 -28 -20 -13 -20 -15 -4 -21 15 -6 12 -9 -14 -19 -30 -11
-49 -44 -20 -36 6 3 27 7 46 10 29 5 32 4 21 -9 -7 -8 -21 -15 -31 -15 -10 0
-21 -5 -25 -12 -5 -8 3 -9 27 -5 l34 6 -30 -14 -30 -14 28 -1 c16 0 26 -4 22
-10 -3 -5 0 -10 7 -11 7 0 3 -4 -10 -10 -17 -6 -22 -14 -18 -27 4 -13 -1 -22
-19 -32 -13 -7 -22 -17 -19 -22 3 -4 10 -5 16 -2 8 5 9 1 3 -12 -4 -10 -9 -31
-10 -45 -2 -15 -6 -40 -9 -56 -7 -31 8 -88 22 -79 4 2 8 -15 8 -39 1 -26 8
-51 18 -60 9 -9 16 -21 16 -27 0 -6 3 -9 6 -6 3 4 0 48 -7 100 -12 95 -11 102
23 233 8 28 24 70 37 94 17 33 20 46 11 51 -17 10 -3 31 15 23 13 -5 21 19 16
50 0 4 3 7 8 7 5 0 14 15 21 33 16 41 38 92 62 138 19 38 22 65 18 162 -2 58
-4 65 -15 47z m-200 -600 c-10 -11 -21 -18 -23 -15 -3 3 3 12 14 20 27 20 30
18 9 -5z"/>
<path d="M3765 5635 c-3 -8 -7 -22 -10 -31 -11 -33 63 -114 115 -127 20 -5 28
-1 35 16 9 19 2 30 -58 90 -37 37 -70 67 -73 67 -2 0 -7 -7 -9 -15z"/>
<path d="M3903 5575 c0 -8 4 -12 9 -9 5 3 6 10 3 15 -9 13 -12 11 -12 -6z"/>
<path d="M0 5251 l0 -291 43 0 c59 0 84 9 101 35 14 21 13 29 -9 91 -14 38
-25 83 -25 100 0 35 -57 290 -70 314 -5 9 -16 22 -24 30 -14 11 -16 -16 -16
-279z"/>
<path d="M4086 5123 c-6 -14 -5 -15 5 -6 7 7 10 15 7 18 -3 3 -9 -2 -12 -12z"/>
<path d="M4368 5123 c7 -3 16 -2 19 1 4 3 -2 6 -13 5 -11 0 -14 -3 -6 -6z"/>
<path d="M4143 5108 c-15 -24 -13 -55 3 -69 16 -13 16 -12 5 9 -10 18 -9 25 2
37 8 8 18 11 23 7 5 -4 2 1 -5 11 -16 20 -18 21 -28 5z"/>
<path d="M4053 5086 c0 -8 6 -12 14 -9 7 3 10 9 7 14 -8 14 -21 11 -21 -5z"/>
<path d="M4094 5085 c3 -9 0 -15 -10 -15 -8 0 -12 -4 -9 -10 9 -14 44 11 38
27 -3 7 -10 13 -15 13 -6 0 -8 -7 -4 -15z"/>
<path d="M1805 4794 c-44 -7 -120 -13 -170 -14 -99 0 -264 -22 -308 -39 l-29
-11 41 -51 c33 -42 42 -62 52 -124 6 -41 16 -75 20 -75 5 0 9 -8 9 -17 0 -19
18 -79 31 -105 12 -24 11 -125 -2 -171 -9 -33 -58 -97 -60 -79 0 4 -3 31 -5
61 -3 37 -11 62 -24 76 -11 12 -20 26 -20 32 0 16 -72 60 -116 72 -42 11 -205
9 -319 -4 -71 -8 -71 -7 -105 25 -19 17 -61 43 -92 57 -49 22 -61 32 -79 72
-13 25 -31 57 -41 70 -10 13 -18 33 -18 45 0 12 -7 32 -16 44 -14 21 -23 23
-97 21 -45 -1 -87 -6 -93 -10 -20 -15 -187 -39 -275 -39 l-89 0 0 -603 0 -604
207 -7 c329 -12 485 -8 580 15 45 10 86 19 90 18 4 -1 15 0 23 3 8 3 74 15
145 27 112 19 229 42 415 82 25 5 79 20 120 33 145 47 211 60 585 112 270 38
258 38 378 20 63 -9 129 -16 148 -16 19 0 47 -7 63 -15 15 -8 36 -15 46 -15
10 0 28 -12 39 -26 21 -27 28 -54 13 -54 -4 0 -16 -13 -25 -30 -10 -16 -23
-30 -29 -30 -6 0 -16 -7 -22 -16 -17 -22 -190 -71 -281 -79 -17 -2 -71 -12
-120 -23 -50 -11 -142 -32 -205 -46 -63 -15 -127 -26 -142 -26 -16 0 -28 -4
-28 -10 0 -5 -8 -10 -17 -10 -16 0 -90 -16 -208 -46 -33 -9 -79 -20 -102 -25
-23 -4 -62 -18 -85 -31 -48 -25 -107 -48 -125 -48 -6 0 -24 -5 -40 -12 -15 -6
-30 -12 -33 -13 -3 -1 -22 -9 -44 -18 -44 -20 -77 -22 -93 -6 -10 10 -69 8
-168 -6 -46 -6 -45 -6 -105 -5 -26 1 -82 -11 -135 -28 -55 -18 -133 -34 -200
-41 -157 -17 -530 -80 -604 -102 l-41 -12 0 -1469 0 -1468 420 0 c397 0 424 1
483 21 70 23 263 114 289 136 9 8 23 13 30 11 25 -9 82 14 110 44 32 34 35 48
13 48 -10 0 -15 7 -13 17 2 13 -5 19 -25 21 -20 3 -27 8 -23 18 4 9 -4 18 -20
24 -37 15 -28 44 16 48 18 2 39 11 45 19 7 9 18 13 26 11 8 -3 29 1 48 8 19 8
36 12 39 9 2 -2 13 0 24 6 12 7 42 7 91 0 66 -9 78 -8 118 11 24 12 51 27 60
35 23 19 305 42 580 47 208 4 229 3 257 -14 46 -28 64 -63 69 -133 5 -59 4
-64 -25 -92 -51 -51 -62 -57 -92 -52 -15 4 -44 1 -65 -4 -42 -12 -128 -20
-195 -19 -33 1 -59 11 -105 40 -33 21 -65 44 -72 49 -7 6 -17 11 -23 11 -5 0
-10 7 -10 15 0 20 -59 34 -162 38 -60 2 -92 -1 -104 -10 -10 -7 -25 -13 -34
-13 -9 0 -25 -9 -35 -20 -11 -12 -25 -18 -36 -15 -12 4 -22 -1 -29 -15 -6 -11
-18 -20 -26 -20 -19 0 -47 -27 -40 -38 2 -4 -11 -18 -30 -31 -19 -13 -34 -29
-34 -36 0 -7 -9 -24 -20 -38 -27 -35 -11 -80 41 -113 l39 -24 400 0 c442 0
402 -5 498 66 63 47 95 52 137 19 19 -14 42 -39 50 -56 l16 -29 149 0 150 0 0
43 c0 24 -4 47 -10 53 -5 5 -10 25 -11 44 -1 19 -8 59 -15 88 -10 39 -11 67
-4 104 6 28 10 81 10 118 0 36 7 90 15 118 9 29 13 56 11 61 -7 11 20 77 45
113 25 35 24 55 -6 99 -14 20 -28 52 -31 71 -5 29 -1 41 26 71 26 30 39 37 70
37 50 0 148 -38 161 -63 12 -22 3 -123 -12 -132 -5 -4 -9 -14 -9 -25 0 -15 -8
-18 -49 -17 -56 2 -70 -6 -51 -28 9 -11 26 -15 54 -13 l41 3 17 -50 c13 -41
17 -101 20 -310 l3 -260 -43 -60 -43 -60 407 -3 c224 -1 409 0 412 2 2 3 -3
51 -12 108 -18 112 -15 253 5 316 61 188 184 421 324 612 111 152 128 196 154
408 28 215 64 315 142 393 58 58 122 82 159 59 12 -7 11 -16 -9 -55 -16 -33
-22 -57 -18 -81 12 -72 73 -112 122 -80 l25 16 -6 153 c-5 141 -12 198 -34
317 -5 25 -16 92 -25 150 -20 130 -31 175 -49 189 -10 9 -36 2 -112 -30 -139
-57 -417 -143 -429 -131 -2 3 6 15 20 27 32 31 16 52 -49 64 -28 5 -56 17 -63
27 -9 13 -16 14 -26 6 -8 -7 -29 -8 -62 -3 -28 5 -42 9 -32 10 20 1 20 4 2 51
l-13 35 -1 -33 c-1 -21 -5 -31 -12 -27 -6 4 -10 19 -9 33 3 43 1 50 -21 71
-21 19 -21 21 -4 38 16 15 35 17 164 15 80 -2 189 -10 241 -18 211 -33 380
-47 380 -31 1 86 -1 98 -17 103 -10 3 -25 10 -33 15 -8 5 -22 12 -30 16 -21 9
-58 38 -110 87 -106 98 -129 105 -209 56 -43 -27 -59 -31 -125 -31 -76 0 -89
2 -206 41 -99 33 -160 51 -210 61 -25 6 -54 14 -65 20 -26 12 -173 49 -195 49
-10 0 -23 7 -30 15 -7 8 -21 15 -31 15 -24 0 -155 54 -234 96 -60 33 -170 134
-181 166 -3 10 -9 18 -14 18 -5 0 -16 21 -26 48 -10 26 -21 49 -24 52 -14 10
-27 87 -19 108 12 31 58 70 94 78 17 3 35 10 40 14 6 4 24 10 40 14 194 42
328 63 453 69 100 6 111 9 95 29 -5 7 -18 51 -28 98 -10 49 -50 165 -95 275
-43 105 -102 261 -130 347 -47 142 -70 194 -70 156 0 -7 -9 -19 -20 -26 -11
-7 -20 -18 -20 -26 0 -29 -63 -46 -144 -39 -68 5 -84 11 -132 45 -30 21 -59
38 -63 38 -5 0 -14 7 -21 15 -33 39 -163 75 -202 54 -22 -12 -23 -48 -4 -112
7 -25 11 -48 8 -51 -2 -3 1 -12 8 -21 7 -8 10 -15 6 -15 -3 0 1 -16 9 -36 8
-20 21 -60 29 -88 8 -28 25 -82 39 -121 14 -38 28 -82 31 -97 7 -33 -11 -76
-35 -83 -9 -3 -20 -12 -23 -20 -3 -8 -12 -15 -20 -15 -8 0 -37 -11 -64 -25
-28 -14 -65 -28 -84 -32 -18 -3 -35 -9 -38 -13 -8 -11 -100 -19 -106 -9 -3 5
-10 7 -15 4 -5 -4 -9 -1 -9 6 0 7 -6 20 -14 28 -8 9 -21 57 -30 106 -20 119
-42 205 -73 290 -14 39 -31 86 -39 105 -33 91 -55 132 -74 137 -11 3 -20 10
-20 15 0 5 -11 19 -24 31 -25 22 -61 77 -72 110 -5 12 -12 16 -23 11 -9 -5
-32 -6 -51 -5 -19 2 -65 4 -103 5 -37 0 -67 4 -67 9 0 9 -13 8 -115 -9z m345
-51 c0 -3 -10 -3 -22 0 -22 6 -22 6 -4 -8 12 -9 15 -15 7 -15 -10 0 -10 -4 -3
-13 7 -8 7 -17 -2 -30 -13 -17 -46 -24 -46 -9 0 8 -92 32 -123 32 -9 0 -17 5
-17 11 0 6 -7 8 -16 5 -9 -4 -12 -2 -8 5 4 7 20 8 42 4 24 -4 37 -2 43 7 5 7
28 13 54 14 25 1 48 4 51 7 6 6 44 -3 44 -10z m-703 -655 c-3 -7 -5 -2 -5 12
0 14 2 19 5 13 2 -7 2 -19 0 -25z m5 -58 c10 -21 15 -46 12 -55 -3 -8 -2 -15
4 -15 5 0 9 -11 8 -24 -1 -18 -5 -22 -16 -16 -8 4 -21 5 -27 3 -15 -6 -17 13
-3 22 17 10 12 92 -6 99 -8 3 -12 10 -9 16 11 18 20 11 37 -30z m-152 -1050
c0 -5 -4 -10 -10 -10 -5 0 -10 5 -10 10 0 6 5 10 10 10 6 0 10 -4 10 -10z
m-37 -6 c9 -9 -26 -44 -45 -44 -23 0 -23 19 0 36 18 14 35 17 45 8z m45 -36
c-4 -27 -28 -36 -28 -10 0 20 8 32 22 32 5 0 8 -10 6 -22z m942 -282 c41 -8
109 -24 150 -37 41 -12 82 -24 90 -26 29 -8 91 -3 112 8 12 7 52 12 90 11 55
0 80 -6 130 -30 78 -38 181 -95 188 -103 3 -3 17 -9 32 -13 15 -3 32 -15 38
-26 6 -11 17 -20 25 -20 8 0 15 -5 15 -11 0 -11 102 -8 228 7 34 4 58 2 67 -6
8 -6 18 -9 23 -6 6 3 15 -1 22 -9 20 -24 74 -29 128 -11 30 10 69 15 96 13 25
-3 46 -1 46 5 0 5 16 6 38 2 20 -4 44 -7 52 -7 8 0 38 -23 66 -51 52 -52 97
-80 147 -90 15 -4 27 -12 27 -19 0 -42 -198 -210 -360 -307 -24 -14 -60 -42
-82 -62 -42 -40 -53 -44 -77 -29 -9 6 -22 4 -35 -4 -12 -7 -39 -16 -61 -20
-22 -4 -51 -13 -65 -20 -48 -25 -136 -38 -260 -39 -131 -1 -150 -6 -241 -62
-20 -12 -56 -28 -80 -34 -24 -6 -63 -18 -87 -26 -23 -8 -65 -14 -92 -14 -26 0
-69 -9 -95 -20 -26 -11 -64 -20 -84 -20 -28 0 -54 -11 -96 -39 -76 -51 -133
-65 -254 -59 -111 6 -163 26 -236 90 -60 53 -75 84 -75 157 0 116 93 240 192
256 24 3 69 15 101 26 41 13 85 19 155 19 125 0 139 5 162 51 22 43 27 124 8
135 -21 13 -318 6 -407 -9 -84 -14 -85 -14 -108 9 -13 13 -24 36 -24 54 -2 32
-3 45 -14 155 -9 85 4 137 45 187 22 26 43 40 73 46 62 14 202 13 287 -2z
m-1315 -201 c33 -8 84 -15 113 -15 28 0 52 -4 52 -9 0 -5 27 -37 60 -70 69
-69 79 -110 38 -148 -27 -23 -85 -53 -105 -53 -25 0 -63 -32 -63 -54 0 -15 20
-34 70 -66 39 -25 83 -64 100 -86 27 -39 32 -41 69 -37 22 3 42 0 46 -6 3 -6
15 -11 26 -11 12 0 23 -10 29 -27 6 -16 15 -36 20 -45 16 -29 11 -83 -10 -110
-23 -30 -78 -58 -113 -58 -15 0 -31 -9 -40 -22 -28 -43 -62 -76 -97 -94 -52
-28 -296 -26 -438 5 -219 46 -407 121 -489 195 -112 101 -138 223 -74 343 41
76 123 156 194 188 28 13 86 29 127 35 117 18 222 49 259 78 74 60 105 75 156
80 6 1 37 -5 70 -13z"/>
<path d="M3544 2082 c4 -6 -5 -19 -19 -28 -29 -19 -34 -64 -10 -84 8 -7 12
-16 9 -21 -3 -5 4 -9 15 -9 12 0 21 5 21 10 0 14 37 12 44 -2 3 -7 3 -1 0 15
-4 16 -2 27 5 27 15 0 14 52 -1 73 -15 18 -75 37 -64 19z"/>
<path d="M3208 1763 c7 -3 16 -2 19 1 4 3 -2 6 -13 5 -11 0 -14 -3 -6 -6z"/>
<path d="M3995 4600 c3 -5 11 -10 16 -10 6 0 7 5 4 10 -3 6 -11 10 -16 10 -6
0 -7 -4 -4 -10z"/>
<path d="M4022 4585 c-11 -12 -10 -15 3 -15 8 0 15 7 15 15 0 18 -2 18 -18 0z"/>
<path d="M3950 4570 c0 -5 5 -10 11 -10 5 0 7 5 4 10 -3 6 -8 10 -11 10 -2 0
-4 -4 -4 -10z"/>
<path d="M3980 4572 c0 -5 7 -15 15 -22 8 -7 15 -9 15 -6 0 4 -7 14 -15 22 -8
9 -15 11 -15 6z"/>
<path d="M4022 4548 c2 -6 10 -14 16 -16 7 -2 10 2 6 12 -7 18 -28 22 -22 4z"/>
<path d="M4070 4525 c0 -5 5 -17 10 -25 5 -8 10 -10 10 -5 0 6 -5 17 -10 25
-5 8 -10 11 -10 5z"/>
<path d="M4185 4289 c-4 -6 -5 -12 -2 -15 2 -3 7 2 10 11 7 17 1 20 -8 4z"/>
<path d="M4340 4200 c0 -5 5 -10 11 -10 5 0 7 5 4 10 -3 6 -8 10 -11 10 -2 0
-4 -4 -4 -10z"/>
<path d="M4299 4143 c0 -5 -2 -26 -4 -48 l-3 -40 13 35 c17 43 18 60 5 60 -5
0 -10 -3 -11 -7z"/>
<path d="M4316 4007 c3 -10 9 -15 12 -12 3 3 0 11 -7 18 -10 9 -11 8 -5 -6z"/>
<path d="M4250 3791 c-6 -12 -7 -21 -1 -21 10 0 24 30 17 37 -2 3 -9 -5 -16
-16z"/>
<path d="M5186 2370 c-13 -4 -16 -9 -8 -14 7 -4 19 -3 28 2 21 12 5 22 -20 12z"/>
<path d="M5745 2260 c-3 -5 -1 -10 4 -10 6 0 11 5 11 10 0 6 -2 10 -4 10 -3 0
-8 -4 -11 -10z"/>
<path d="M5202 2139 c-35 -16 -42 -24 -37 -40 4 -11 2 -19 -5 -19 -6 0 -18 -7
-27 -16 -14 -14 -19 -13 -47 14 -52 49 -67 53 -89 26 -22 -29 -27 -77 -33
-374 -2 -113 -8 -214 -13 -225 -5 -11 -12 -38 -14 -60 -3 -22 -12 -78 -20
-125 -45 -257 -36 -383 26 -364 36 11 106 58 107 72 0 7 7 15 15 18 43 17 140
292 157 447 18 159 10 286 -20 320 -9 10 -18 30 -19 45 -2 15 -6 34 -10 42 -3
8 -7 20 -7 25 -1 6 -5 29 -10 52 -4 23 -5 51 -1 62 5 17 10 19 32 10 15 -5 32
-17 40 -27 12 -16 14 -16 27 1 8 10 20 15 30 11 9 -3 16 -1 16 5 0 6 -4 11 -9
11 -5 0 -8 11 -8 25 0 14 3 25 8 25 13 0 11 34 -3 48 -16 16 -35 14 -86 -9z"/>
<path d="M6768 1513 c6 -2 18 -2 25 0 6 3 1 5 -13 5 -14 0 -19 -2 -12 -5z"/>
<path d="M6646 1372 c-9 -15 12 -35 29 -28 14 5 15 9 5 21 -14 17 -26 19 -34
7z"/>
<path d="M6394 836 c6 -16 2 -18 -26 -12 -18 3 -37 6 -43 7 -19 0 -120 -23
-136 -31 -10 -6 -20 -5 -27 2 -8 8 -18 6 -37 -6 -14 -9 -30 -14 -35 -11 -6 3
-10 2 -10 -3 0 -14 -46 -31 -69 -25 -14 3 -23 0 -27 -11 -4 -9 -18 -16 -34
-16 -36 0 -43 -12 -28 -45 11 -23 10 -29 -6 -40 -27 -20 -15 -37 27 -41 51 -4
60 -12 52 -42 -6 -23 -5 -24 11 -12 9 8 32 20 50 26 28 10 34 9 34 -2 0 -8 -6
-14 -14 -14 -8 0 -18 -9 -21 -21 -9 -26 2 -38 12 -13 10 29 43 47 43 24 0 -5
-8 -10 -17 -10 -13 0 -14 -3 -5 -12 9 -9 16 -7 32 7 17 15 22 16 36 4 13 -11
17 -10 25 4 6 9 19 17 30 17 11 0 37 11 59 25 22 14 46 25 54 25 8 0 32 11 52
25 21 14 43 24 50 21 7 -3 15 2 18 10 3 8 12 14 21 14 8 0 15 5 15 11 0 5 4 8
9 5 13 -8 76 54 73 72 -7 38 -13 47 -21 33 -12 -19 -30 -5 -24 18 6 24 -26 33
-73 18 -29 -9 -37 -8 -46 4 -8 11 -9 10 -4 -5z m-429 -126 c-3 -5 -12 -10 -20
-10 -8 0 -17 5 -20 10 -4 6 5 10 20 10 15 0 24 -4 20 -10z m35 -90 c0 -5 -7
-10 -15 -10 -8 0 -15 5 -15 10 0 6 7 10 15 10 8 0 15 -4 15 -10z"/>
<path d="M6336 575 c-3 -9 0 -15 9 -15 16 0 20 16 6 24 -5 3 -11 -1 -15 -9z"/>
</g>
</svg>
