<?xml version="1.0" standalone="no"?>
<!DOCTYPE svg PUBLIC "-//W3C//DTD SVG 20010904//EN"
 "http://www.w3.org/TR/2001/REC-SVG-20010904/DTD/svg10.dtd">
<svg version="1.0" xmlns="http://www.w3.org/2000/svg"
 width="1024.000000pt" height="1024.000000pt" viewBox="0 0 1024.000000 1024.000000"
 preserveAspectRatio="xMidYMid meet">

<g transform="translate(0.000000,1024.000000) scale(0.100000,-0.100000)"
fill="#000000" stroke="none">
<path d="M7760 10200 l0 -40 40 0 c40 0 40 0 40 -39 0 -22 -5 -42 -10 -44 -6
-3 -5 -4 2 -3 8 1 14 21 16 44 3 41 4 42 38 42 33 0 34 1 34 40 l0 40 -80 0
-80 0 0 -40z"/>
<path d="M8588 9953 c-2 -453 0 -422 -39 -454 -19 -16 -42 -29 -51 -29 -10 0
-18 -4 -18 -9 0 -4 -38 -11 -84 -14 -47 -3 -98 -13 -115 -21 -16 -9 -39 -16
-51 -16 -11 0 -20 -5 -20 -12 0 -6 -6 -19 -14 -27 -29 -33 -55 -92 -67 -152
-15 -78 4 -778 25 -884 2 -11 7 -49 11 -85 10 -83 27 -123 67 -154 49 -36 78
-40 207 -26 112 12 118 12 163 -10 63 -29 110 -78 126 -128 15 -53 16 -381 1
-506 -14 -113 -35 -153 -106 -199 -66 -44 -113 -55 -162 -37 -83 30 -212 14
-257 -33 -24 -25 -95 -235 -119 -352 -23 -112 -24 -115 -30 -159 -2 -22 -10
-43 -16 -47 -6 -4 -9 -11 -5 -17 3 -6 1 -12 -4 -14 -6 -2 -12 -12 -14 -23 -2
-11 -13 -25 -25 -31 -12 -6 -22 -14 -21 -18 1 -4 0 -12 -3 -19 -8 -24 -142 50
-142 78 0 7 -9 22 -19 34 -20 22 -19 48 9 166 27 115 29 171 10 231 -22 70
-81 124 -135 124 -20 0 -42 6 -48 12 -9 9 -15 10 -20 2 -10 -17 -116 -36 -154
-28 -64 13 -131 57 -178 119 -73 94 -132 92 -159 -5 -7 -25 -24 -72 -36 -105
-13 -33 -38 -105 -55 -160 -32 -102 -69 -159 -96 -148 -8 3 -14 0 -14 -7 0 -7
-8 -9 -20 -5 -13 4 -20 2 -21 -7 0 -16 -20 30 -24 57 -2 11 -5 27 -6 35 -3 10
5 16 26 18 46 5 55 22 11 22 -41 0 -47 21 -7 27 13 2 33 10 44 19 21 16 21 16
-18 10 -54 -7 -76 7 -36 24 17 6 35 18 42 26 16 19 -44 11 -78 -11 -13 -9 -28
-14 -31 -10 -10 9 38 43 71 50 15 4 25 10 22 15 -3 5 -24 1 -46 -9 -22 -10
-51 -16 -64 -13 l-24 4 22 20 22 19 -22 -6 c-19 -5 -22 -3 -16 11 5 13 3 16
-10 11 -9 -3 -17 -3 -17 2 0 4 -6 8 -12 9 -7 0 -44 4 -83 7 -97 9 -170 -18
-245 -93 -44 -43 -48 -50 -20 -31 31 20 29 17 -17 -34 -57 -60 -60 -70 -39
-122 l15 -34 94 1 c51 1 100 -2 108 -7 8 -5 11 -5 7 -1 -3 4 8 20 25 36 30 26
32 33 32 92 0 35 -4 72 -9 82 -9 18 -6 19 29 13 20 -3 45 -13 55 -22 9 -8 19
-12 23 -9 3 3 12 -10 20 -29 15 -35 47 -67 34 -34 -7 19 -6 20 17 11 13 -5 16
-27 16 -138 0 -129 1 -133 45 -260 65 -187 99 -373 92 -501 -7 -134 -40 -227
-127 -355 -48 -71 -86 -153 -150 -325 -29 -77 -81 -208 -116 -292 -73 -176
-81 -202 -95 -315 -18 -150 -69 -260 -158 -340 -62 -56 -125 -77 -266 -88 -60
-5 -159 -16 -220 -24 -60 -9 -133 -16 -161 -16 -27 0 -57 -6 -65 -13 -68 -56
-269 -499 -269 -592 0 -22 4 -25 39 -25 61 0 199 -27 281 -55 41 -14 112 -50
157 -80 46 -30 86 -55 90 -55 14 0 183 -138 308 -252 17 -16 33 -28 37 -28 12
0 -2 137 -23 227 -10 46 -21 93 -23 105 -5 27 -39 100 -68 146 -13 21 -21 52
-22 86 -1 44 4 59 28 90 45 60 78 69 262 74 191 5 410 -11 478 -35 63 -23 131
-83 146 -129 22 -67 -8 -242 -62 -352 -59 -124 -169 -287 -267 -397 -44 -49
-81 -96 -81 -102 0 -7 -7 -13 -16 -13 -30 0 23 -56 68 -72 149 -54 251 -71
498 -83 63 -3 158 -10 210 -15 52 -5 132 -12 177 -15 46 -3 115 -9 155 -15 40
-5 105 -12 143 -15 39 -3 84 -8 100 -11 17 -2 71 -9 120 -14 50 -5 117 -14
150 -19 33 -5 108 -17 166 -25 176 -27 468 -101 588 -150 36 -14 68 -26 73
-26 4 0 45 -18 90 -39 139 -66 174 -81 186 -81 7 0 42 -13 79 -29 77 -33 81
-35 183 -70 70 -24 77 -29 98 -71 42 -83 23 -199 -59 -362 -52 -103 -112 -273
-124 -349 -6 -43 2 -77 34 -129 33 -55 36 -73 29 -157 0 -10 2 -26 7 -35 5
-13 3 -18 -9 -18 -9 0 -16 -7 -16 -15 0 -8 -11 -17 -25 -21 -14 -3 -25 -12
-25 -20 0 -8 -7 -14 -15 -14 -8 0 -15 3 -15 8 0 4 -18 6 -40 4 -23 -2 -40 0
-40 6 0 6 -8 8 -18 5 -9 -2 -38 1 -62 7 -25 7 -65 15 -90 20 -56 10 -108 26
-123 39 -7 5 -39 17 -72 26 -88 25 -148 45 -160 54 -5 5 -28 14 -50 21 -22 7
-65 26 -95 41 -30 16 -61 29 -67 29 -7 0 -13 4 -13 8 0 5 -17 14 -39 20 -29 9
-450 212 -543 263 -66 35 -113 54 -183 74 -54 16 -181 76 -260 123 -16 10 -59
34 -95 52 -36 19 -111 65 -167 102 -56 37 -107 68 -112 68 -5 0 -11 6 -14 13
-5 14 -223 153 -297 189 -14 7 -29 18 -35 23 -13 15 -82 65 -89 65 -7 0 7 -44
54 -165 84 -216 120 -336 204 -675 40 -159 64 -236 83 -265 14 -22 72 -89 128
-150 116 -125 237 -264 298 -345 23 -30 70 -90 105 -133 107 -135 253 -382
303 -514 l9 -23 1140 0 1140 0 0 1021 0 1020 -30 73 c-17 40 -42 84 -55 96
-27 26 -31 54 -14 115 10 37 69 105 90 105 5 0 9 373 9 854 l0 854 -34 16
c-19 9 -42 16 -51 16 -9 0 -48 21 -87 47 -49 33 -79 46 -101 45 -190 -6 -223
-4 -281 17 -33 11 -66 21 -74 21 -14 0 -79 27 -124 51 -10 5 -25 9 -33 9 -8 0
-15 3 -15 8 0 15 -67 37 -115 36 -27 -1 -86 -9 -130 -18 -44 -9 -93 -14 -110
-10 -52 10 -125 35 -125 44 0 4 -20 11 -45 14 -24 4 -47 11 -50 17 -4 5 -15 9
-26 9 -10 0 -19 5 -19 10 0 6 -12 8 -27 4 -18 -4 -23 -2 -15 3 9 7 6 12 -13
21 -14 6 -25 18 -25 27 0 8 -5 15 -11 15 -6 0 -8 7 -5 17 4 10 4 14 0 11 -10
-10 -55 82 -59 122 -10 91 51 161 213 243 90 46 103 55 107 82 5 36 24 369 31
550 19 544 26 703 35 790 5 55 16 172 24 260 8 88 19 207 25 265 5 58 14 157
20 220 5 63 12 135 14 160 3 25 8 90 11 145 4 55 8 118 10 140 3 22 9 108 15
190 6 83 13 157 15 165 3 8 9 69 14 135 6 66 17 185 26 265 15 143 42 437 51
555 2 33 8 92 14 130 11 78 26 251 40 485 5 85 12 170 15 188 3 18 10 90 15
160 5 70 14 168 19 217 5 50 12 116 15 148 l5 57 -405 0 -404 0 -2 -287z m-48
-1501 c15 3 29 -45 22 -74 -5 -20 -48 -29 -79 -17 -23 8 -28 26 -17 64 6 23
45 46 55 32 3 -4 12 -7 19 -5z m-1885 -1362 c-3 -5 -21 -10 -38 -9 -31 1 -31
1 -7 9 36 11 52 11 45 0z m53 -15 c-2 -5 -11 -10 -20 -10 -19 -2 -23 7 -11 19
10 10 35 3 31 -9z m1772 -75 c0 -5 6 -10 13 -10 48 0 35 -74 -14 -85 -17 -4
-36 -2 -44 5 -17 14 -13 79 6 91 19 12 39 11 39 -1z m-1882 -63 c6 -29 -16
-48 -39 -34 -19 12 -25 38 -12 51 13 13 48 1 51 -17z m840 -2653 c21 -9 44
-20 52 -25 57 -34 74 -38 239 -48 102 -6 179 -15 187 -22 10 -8 66 -12 177
-11 148 1 227 -9 227 -28 0 -4 17 -7 38 -8 77 -3 132 -15 158 -34 l26 -21 -34
-15 c-18 -9 -40 -16 -48 -18 -45 -6 -120 -59 -120 -85 0 -6 -7 -8 -16 -5 -10
4 -23 -3 -36 -19 -11 -14 -26 -25 -34 -25 -8 0 -14 -4 -14 -10 0 -5 -7 -10
-15 -10 -9 0 -27 -7 -41 -17 -18 -11 -54 -17 -122 -20 -53 -2 -155 -6 -227 -9
-177 -7 -184 -7 -219 10 -17 8 -62 49 -100 90 -38 41 -71 74 -75 73 -8 -2
-123 83 -138 102 -16 21 -25 75 -18 103 7 28 62 68 93 68 13 0 40 -7 60 -16z"/>
<path d="M7852 9988 c7 -19 38 -22 38 -4 0 10 -9 16 -21 16 -12 0 -19 -5 -17
-12z"/>
<path d="M5323 9883 c9 -2 23 -2 30 0 6 3 -1 5 -18 5 -16 0 -22 -2 -12 -5z"/>
<path d="M5478 9873 c7 -3 16 -2 19 1 4 3 -2 6 -13 5 -11 0 -14 -3 -6 -6z"/>
<path d="M5007 9815 c-57 -16 -70 -25 -35 -25 13 0 28 3 32 8 4 4 26 12 49 19
23 6 33 11 22 11 -11 0 -42 -6 -68 -13z"/>
<path d="M5090 9798 c-30 -5 -111 -10 -180 -12 -221 -7 -560 -53 -635 -87 -11
-5 -81 -29 -155 -53 -74 -25 -166 -59 -204 -76 -76 -35 -209 -115 -267 -161
-21 -16 -43 -28 -51 -27 -7 2 -12 -3 -11 -9 2 -7 -4 -13 -12 -13 -7 0 -18 -6
-22 -13 -4 -7 -24 -25 -43 -41 -19 -16 -34 -33 -32 -38 1 -5 -6 -11 -15 -15
-23 -8 -118 -93 -118 -104 0 -5 -20 -30 -45 -56 -25 -25 -38 -43 -30 -39 8 4
2 -4 -15 -18 -16 -14 -36 -26 -43 -26 -7 0 -10 -4 -7 -10 3 -5 -3 -10 -15 -10
-14 0 -19 -4 -14 -12 5 -8 2 -9 -10 -5 -10 4 -15 3 -11 -3 3 -6 -1 -10 -10
-10 -9 0 -13 -5 -10 -11 4 -6 -8 -23 -26 -37 -18 -15 -66 -55 -106 -89 -72
-62 -98 -78 -73 -48 7 9 10 18 8 21 -13 13 -176 -201 -211 -276 -33 -71 -115
-359 -132 -465 -4 -22 -14 -48 -23 -58 -11 -12 -12 -21 -5 -28 6 -6 8 -24 3
-44 -4 -19 -5 -34 -1 -33 18 2 22 -4 11 -17 -7 -8 -14 -33 -15 -55 -4 -49 -8
-56 -50 -76 -38 -18 -56 -45 -24 -37 11 3 22 9 25 14 10 17 22 9 17 -11 -3
-11 0 -20 6 -20 6 0 11 6 11 13 0 7 5 5 10 -5 7 -11 7 -26 0 -43 -6 -15 -8
-31 -5 -36 7 -10 -22 -69 -34 -69 -5 0 -11 -6 -14 -14 -4 -9 0 -12 11 -9 13 3
20 -7 28 -44 7 -26 8 -50 4 -53 -4 -3 -10 -18 -14 -33 -8 -36 -49 -77 -73 -76
-16 1 -16 2 -1 6 9 2 15 10 12 18 -3 7 0 23 6 35 8 15 8 20 1 16 -6 -4 -11 0
-12 11 -3 63 -14 89 -25 59 -8 -20 -34 -21 -34 -1 0 8 -9 15 -20 15 -12 0 -24
9 -29 22 -4 12 -10 17 -14 11 -4 -6 -25 -8 -51 -6 -37 5 -58 -2 -147 -45 -127
-61 -159 -88 -159 -136 0 -19 5 -38 10 -41 6 -4 8 -9 6 -13 -8 -14 20 -39 57
-51 35 -12 301 -22 291 -11 -3 2 19 12 48 22 29 10 61 21 71 24 9 4 17 10 17
15 0 5 4 9 9 9 5 0 12 -22 16 -50 4 -27 11 -50 17 -50 6 0 8 -15 4 -37 -12
-69 -8 -124 8 -135 6 -4 11 -43 11 -87 0 -80 0 -81 -37 -118 -36 -36 -41 -38
-105 -39 -38 0 -71 3 -74 8 -3 4 -20 3 -38 -3 -26 -9 -35 -8 -49 4 -11 10 -22
13 -32 7 -21 -11 -146 -19 -360 -22 -199 -2 -212 1 -274 73 -67 79 -65 53 -66
879 l0 745 30 59 c32 63 39 113 16 122 -8 3 -38 -6 -65 -20 -28 -14 -51 -24
-51 -22 0 2 -13 -8 -30 -24 -16 -15 -32 -42 -35 -61 -3 -19 -8 -41 -10 -49 -4
-15 -12 -62 -40 -260 -7 -52 -21 -140 -30 -195 -10 -55 -19 -126 -20 -158 -6
-99 -40 -174 -93 -201 -68 -34 -152 -27 -152 14 0 11 -6 20 -13 20 -12 0 -37
64 -37 97 0 22 -59 127 -67 119 -3 -3 -15 1 -27 9 -11 8 -34 15 -51 15 -36 0
-131 -25 -148 -38 -27 -21 -146 -54 -260 -71 -125 -19 -217 -46 -217 -62 0 -5
-6 -9 -13 -9 -8 0 -22 -9 -32 -20 -10 -11 -26 -20 -36 -20 -10 0 -21 -4 -24
-10 -3 -5 -17 -10 -30 -10 -12 0 -25 -7 -29 -15 -3 -8 -17 -15 -31 -15 l-25 0
0 -165 0 -165 54 0 c30 0 58 -4 61 -10 3 -5 14 -10 23 -10 14 0 22 -18 35 -78
10 -43 20 -92 22 -109 5 -43 -18 -188 -30 -189 -6 0 -18 -4 -28 -9 -10 -4 -45
-5 -78 -2 l-59 7 0 -2199 0 -2199 23 -6 c35 -9 77 -7 77 4 0 16 27 12 34 -5 3
-8 12 -15 21 -15 8 0 15 -4 15 -10 0 -5 7 -10 15 -10 9 0 15 -9 15 -22 0 -11
12 -37 28 -57 44 -58 62 -98 62 -138 0 -42 -20 -107 -38 -125 -7 -7 -12 -17
-12 -24 0 -6 -16 -15 -35 -18 -19 -4 -35 -11 -35 -15 0 -5 -6 -8 -12 -8 -7 1
-46 -3 -85 -7 l-73 -9 0 -1028 0 -1029 1339 0 c1257 0 1341 1 1370 17 41 24
41 43 -1 37 -41 -7 -80 18 -60 37 6 7 12 21 12 31 0 23 36 24 49 1 8 -15 11
-15 26 -3 23 19 15 54 -12 58 -13 2 -23 -1 -23 -7 0 -15 -57 -14 -62 0 -3 9
-9 9 -25 0 -22 -11 -53 -6 -53 10 0 5 15 9 33 8 52 -4 123 44 111 74 -3 8 -1
18 5 22 12 7 14 54 3 71 -4 6 -16 16 -27 22 -19 10 -19 11 8 21 31 12 36 31 8
31 -11 0 -23 12 -31 30 -9 22 -19 30 -37 30 -27 0 -27 17 0 34 12 8 22 7 37
-2 17 -10 23 -9 38 6 22 22 54 83 47 90 -11 12 -35 -10 -35 -33 0 -21 -5 -25
-29 -25 -16 0 -34 6 -40 14 -10 12 -6 15 19 21 35 8 34 4 15 42 -16 32 -47 47
-63 31 -5 -5 -14 -3 -22 7 -7 8 -11 17 -9 18 2 1 18 12 35 24 24 17 34 19 43
10 9 -9 14 -9 20 2 7 10 12 8 26 -10 9 -13 15 -17 13 -9 -3 8 2 20 11 26 22
17 -1 43 -34 36 -18 -3 -25 0 -25 12 0 9 5 16 10 16 6 0 10 -5 10 -11 0 -6 6
-4 14 4 8 8 14 20 14 28 -2 34 3 47 23 52 15 4 20 12 17 29 -2 18 -10 24 -34
26 -29 3 -32 6 -32 38 0 45 16 51 64 25 40 -22 114 -29 114 -11 0 6 -17 10
-37 10 -57 0 -83 10 -83 31 0 11 7 19 16 19 8 0 12 5 8 11 -4 8 -9 8 -17 0 -6
-6 -14 -11 -18 -11 -9 0 -6 71 4 87 4 6 3 14 -3 18 -16 10 -12 42 6 49 16 6
16 8 0 24 -21 25 -20 29 9 36 19 5 24 12 21 28 -1 12 -9 24 -17 26 -30 8 -78
33 -85 43 -11 18 5 23 23 7 18 -16 48 -14 37 3 -3 5 0 9 7 9 9 0 9 3 0 14 -10
12 -8 17 8 26 38 20 23 30 -33 24 -53 -6 -55 -6 -62 20 -8 34 2 45 20 21 9
-13 15 -15 20 -6 4 6 12 8 18 5 7 -5 9 -1 5 9 -4 11 -1 17 9 17 12 0 13 4 4
20 -9 17 -7 22 15 30 27 10 34 30 10 30 -9 0 -27 8 -41 17 -24 15 -25 18 -9
29 24 18 12 43 -23 50 -19 4 -28 12 -28 25 0 12 5 18 13 15 8 -3 13 2 13 15 0
11 7 22 16 26 8 3 13 12 10 20 -3 8 -1 11 4 8 12 -8 13 5 1 23 -7 11 -12 10
-27 -6 -25 -25 -64 -35 -64 -16 0 8 -9 14 -21 14 -18 0 -20 4 -14 27 12 45 11
58 -4 55 -8 -2 -21 0 -30 3 -12 5 -8 10 17 20 48 21 39 32 -28 37 -77 6 -104
28 -96 79 4 27 1 41 -15 57 -11 12 -17 27 -14 32 3 5 1 17 -4 27 -5 10 -12 30
-15 44 -4 16 -17 30 -38 40 -18 8 -34 21 -36 30 -6 32 30 30 107 -7 42 -20 85
-40 96 -45 17 -8 75 -21 140 -33 33 -6 196 -62 250 -86 273 -122 334 -161 466
-297 97 -101 227 -277 244 -330 3 -13 11 -23 16 -23 5 0 9 -8 9 -17 0 -10 10
-34 22 -53 12 -19 21 -50 21 -68 0 -20 5 -36 13 -39 8 -3 14 -11 14 -18 0 -7
7 -18 15 -25 12 -10 13 -16 4 -27 -9 -11 -7 -19 10 -36 11 -13 21 -34 21 -46
0 -13 6 -37 14 -54 8 -18 26 -61 41 -97 14 -36 34 -81 45 -100 37 -70 102
-243 116 -311 8 -38 32 -141 54 -228 38 -158 55 -291 35 -290 -5 0 -9 6 -7 13
1 7 -10 19 -25 26 -26 12 -27 13 -8 20 19 7 18 8 -7 20 -24 11 -46 60 -27 60
15 0 10 28 -6 34 -8 3 -15 13 -15 23 0 9 -9 26 -20 38 -11 12 -24 41 -29 66
-17 80 -20 91 -32 105 -6 8 -8 21 -5 31 4 9 2 19 -4 23 -6 4 -13 19 -14 34 -2
15 -14 38 -27 52 -19 20 -21 28 -12 42 8 14 6 23 -8 41 -10 12 -21 39 -25 58
-6 33 -25 61 -76 114 -9 9 -19 28 -23 41 -14 46 -57 109 -81 119 -14 5 -22 14
-19 19 11 18 -16 41 -38 34 -12 -4 -17 -2 -13 4 3 6 -10 19 -29 31 -35 21 -45
45 -22 54 8 4 8 6 0 6 -16 1 -74 61 -68 71 3 4 -4 6 -15 3 -15 -4 -20 0 -20
15 0 11 -7 23 -16 26 -23 9 -25 8 -22 -11 2 -12 -3 -17 -14 -15 -26 4 -22 -4
23 -49 34 -34 40 -46 36 -69 -5 -22 5 -42 53 -106 32 -44 66 -87 74 -96 9 -10
16 -25 16 -34 0 -8 11 -32 25 -52 14 -20 25 -42 25 -48 0 -6 6 -17 14 -23 7
-6 11 -22 8 -36 -2 -14 0 -25 5 -25 5 0 15 -24 22 -53 7 -28 19 -62 27 -74 8
-12 14 -31 14 -42 0 -11 5 -23 11 -26 6 -4 8 -13 5 -20 -3 -8 4 -25 15 -38 10
-14 19 -32 19 -40 0 -9 5 -19 10 -22 6 -4 8 -16 4 -27 -4 -13 1 -27 15 -42 12
-12 23 -35 25 -52 2 -16 13 -45 25 -65 12 -21 19 -43 15 -53 -4 -11 2 -27 18
-44 13 -15 30 -39 38 -54 l13 -28 210 0 c203 0 210 1 194 18 -10 10 -17 34
-17 54 0 19 -3 38 -7 42 -13 13 -10 55 5 61 11 4 11 8 -2 26 -9 14 -12 33 -9
55 3 19 2 34 -3 34 -5 0 -15 4 -22 9 -12 7 -12 12 -1 29 12 19 11 24 -11 44
-20 19 -22 23 -8 26 21 4 17 56 -5 60 -10 2 -13 10 -9 24 3 14 -1 26 -14 35
-16 11 -17 17 -6 33 7 11 8 20 3 20 -5 0 -17 33 -26 73 -10 39 -21 76 -26 81
-5 6 -9 23 -9 38 0 16 -7 31 -15 34 -8 4 -12 10 -9 15 3 5 -2 12 -11 15 -9 4
-15 16 -14 28 2 25 -8 54 -28 78 -8 9 -12 22 -8 27 3 6 -1 14 -10 17 -10 4
-15 14 -12 25 3 11 1 22 -4 25 -6 3 -7 14 -4 25 4 13 2 19 -9 19 -9 0 -16 9
-16 20 0 11 -5 20 -11 20 -6 0 -8 8 -4 20 4 13 0 23 -14 32 -13 8 -21 23 -21
41 0 15 -7 30 -15 33 -8 4 -15 17 -15 29 0 13 -7 30 -15 39 -8 8 -15 19 -15
24 0 22 -46 95 -62 100 -13 3 -16 11 -12 27 5 20 2 24 -23 27 -24 2 -28 7 -26
30 1 19 -4 29 -18 33 -12 4 -19 15 -19 30 0 15 -10 31 -25 41 -14 9 -25 23
-25 31 0 10 -10 14 -37 12 -79 -5 -91 -1 -104 35 -7 19 -16 33 -20 31 -4 -3
-10 2 -13 10 -3 8 -11 14 -18 13 -7 -2 -22 17 -34 41 -12 24 -23 39 -25 32 -3
-7 -22 5 -47 29 -24 22 -46 40 -49 40 -3 0 -24 17 -48 38 -44 38 -71 55 -213
127 -102 53 -112 61 -112 93 0 25 -1 25 -14 7 -12 -16 -19 -18 -43 -9 -15 6
-27 15 -26 21 1 6 -9 8 -23 5 -17 -3 -32 2 -46 17 -11 12 -26 20 -33 17 -7 -2
-15 4 -18 15 -5 19 -37 27 -37 9 0 -22 -19 -8 -22 16 l-3 26 -26 -21 -27 -21
-6 35 c-4 19 -9 35 -13 35 -3 0 -14 -12 -26 -26 -19 -24 -21 -25 -33 -9 -7 9
-10 24 -7 33 3 12 2 13 -4 5 -5 -7 -20 -14 -33 -15 -19 -2 -25 2 -24 14 2 22
-4 23 -28 1 -17 -15 -19 -15 -36 0 -10 10 -27 17 -38 17 -26 1 -54 23 -54 44
0 23 -19 10 -31 -21 -13 -34 -33 -24 -37 19 l-3 36 -52 -4 c-38 -4 -48 -3 -37
5 11 8 12 11 2 11 -26 0 0 20 41 31 59 16 73 28 48 46 -21 14 -24 65 -6 93 5
9 4 15 -3 18 -14 4 -16 22 -2 22 5 0 18 -9 28 -21 l20 -20 6 26 c7 28 47 49
76 40 19 -6 25 25 6 37 -6 4 0 15 17 28 15 12 27 28 27 36 0 18 -9 18 -32 -3
-17 -15 -18 -15 -18 0 0 10 6 17 13 17 8 0 8 3 1 8 -15 10 -25 42 -14 42 6 0
10 -6 10 -14 0 -26 40 -30 71 -7 15 11 35 18 43 15 10 -4 18 1 23 12 3 11 20
32 37 48 l31 29 -32 -6 c-23 -5 -32 -3 -30 6 1 8 -8 11 -26 9 -20 -2 -27 2
-28 15 0 15 -2 15 -16 -4 -20 -29 -36 -30 -28 -2 6 19 4 21 -14 16 -21 -5 -29
7 -11 18 15 9 12 25 -4 25 -9 0 -12 7 -9 20 4 14 -1 26 -13 35 -18 13 -18 14
3 34 24 23 47 27 66 11 44 -37 67 -60 67 -67 0 -13 59 -43 84 -43 27 0 59 32
51 51 -3 8 1 23 8 33 11 15 20 17 43 11 16 -5 33 -7 37 -7 4 1 17 -3 28 -9 15
-8 19 -17 15 -34 -4 -14 -1 -25 7 -28 7 -3 5 -6 -5 -6 -30 -2 -21 -31 8 -31
19 0 25 4 20 15 -7 18 -2 19 26 4 21 -11 21 -11 0 16 -12 16 -21 30 -19 32 6
5 145 -74 179 -102 17 -14 44 -33 61 -41 16 -9 35 -20 41 -26 10 -8 37 -26 95
-63 105 -66 314 -239 459 -379 62 -60 115 -107 118 -104 6 6 -249 249 -351
334 -38 32 -76 64 -83 71 -8 7 -23 18 -35 25 -27 14 -142 102 -179 136 -16 14
-28 22 -28 16 0 -5 -7 0 -15 10 -8 11 -15 16 -15 10 0 -5 -4 -4 -8 3 -9 15
-129 93 -142 93 -6 0 -10 5 -10 10 0 6 -3 10 -7 9 -19 -3 -52 14 -46 23 3 6 0
8 -8 6 -8 -3 -27 4 -42 14 -22 16 -25 23 -16 34 6 8 20 14 30 14 11 0 19 5 19
12 0 18 14 -1 26 -35 9 -27 16 -32 45 -33 28 -1 35 3 36 18 2 19 1 19 -17 3
-21 -19 -35 -14 -43 15 -4 17 -3 19 8 10 8 -7 19 -10 26 -8 6 2 -2 10 -18 17
-15 7 -36 17 -45 22 -10 5 -27 9 -38 9 -11 0 -20 4 -20 10 0 5 -11 12 -25 16
-14 3 -25 10 -25 14 0 9 25 7 75 -4 23 -6 26 -5 13 3 -9 6 -42 17 -74 24 -32
7 -59 18 -61 23 -4 12 109 1 152 -15 27 -10 28 -10 11 4 -11 8 -44 22 -75 30
-73 21 -113 36 -107 43 9 9 140 -21 219 -50 70 -25 80 -27 94 -13 13 13 13 18
1 32 -11 15 -11 16 6 10 16 -6 18 -4 13 22 -5 23 -2 30 11 33 9 2 17 12 17 23
0 12 6 19 14 17 9 -2 11 3 7 13 -6 17 15 45 34 45 7 0 9 8 5 20 -5 15 -3 18 9
14 10 -4 24 3 36 17 15 19 21 21 28 11 7 -11 11 -9 15 8 3 12 11 20 19 19 7
-2 23 2 36 9 12 7 22 9 22 5 0 -4 7 2 15 13 14 18 16 18 29 1 7 -9 18 -17 23
-17 5 0 26 -16 46 -35 20 -19 37 -29 39 -23 3 7 12 3 24 -9 26 -28 84 -21 84
9 0 18 5 20 35 15 22 -4 35 -2 35 5 0 7 5 6 15 -2 8 -7 25 -10 40 -6 16 4 25
2 25 -5 0 -7 16 -27 35 -46 l35 -34 15 33 c14 30 15 31 10 6 -3 -16 -1 -28 5
-28 5 0 10 5 10 10 0 19 17 10 28 -15 12 -26 38 -36 29 -10 -8 18 9 30 19 13
5 -7 10 -4 16 12 8 22 11 20 79 -48 68 -70 94 -88 83 -57 -4 8 -10 15 -14 15
-5 0 -8 14 -8 31 1 24 5 30 19 26 15 -4 17 0 12 26 -5 25 -4 29 10 24 19 -7
22 5 8 31 -4 9 -11 33 -15 54 -6 33 -5 36 13 31 18 -5 20 -1 17 33 -2 22 1 42
8 46 8 5 7 11 -2 20 -17 17 -15 31 3 24 10 -3 15 -1 13 7 -1 6 6 24 16 39 18
27 17 28 -4 63 -16 26 -18 35 -8 35 8 0 19 -5 26 -12 20 -20 24 -1 5 28 -10
16 -12 25 -5 20 9 -5 15 -2 19 12 3 14 11 18 24 15 13 -4 19 0 19 11 0 9 -6
16 -14 16 -7 0 -16 9 -19 21 -5 20 -5 20 21 3 17 -11 27 -13 30 -6 2 6 10 8
19 5 11 -5 14 -3 8 6 -6 10 -3 11 13 2 18 -10 20 -8 18 14 -2 13 -8 31 -15 38
-6 8 -8 17 -4 20 3 4 0 7 -7 7 -7 0 -11 2 -8 5 3 3 16 1 30 -4 26 -10 59 1 39
13 -15 10 -14 46 2 46 7 0 18 -5 23 -10 7 -7 14 -3 22 14 7 16 8 28 2 31 -17
11 -12 38 6 31 13 -5 15 -2 11 14 -4 15 -1 21 11 19 29 -2 58 2 45 8 -18 6
-16 19 4 43 12 14 19 16 24 8 6 -9 11 -9 22 1 13 10 24 8 58 -8 24 -12 48 -21
55 -21 22 0 84 -41 84 -56 0 -8 6 -14 13 -14 19 0 62 -62 58 -85 -2 -16 0 -17
12 -7 12 10 16 9 20 -8 3 -11 13 -20 22 -20 13 0 16 6 11 25 -6 23 -4 25 31
26 21 1 47 0 58 -1 19 -2 19 -1 4 16 -22 25 -14 81 11 89 10 3 21 14 23 23 4
16 5 16 6 0 1 -25 14 -22 26 5 6 12 18 22 28 22 10 0 24 8 31 18 7 9 20 17 29
17 9 0 19 5 22 10 4 6 10 8 14 6 11 -7 100 21 130 41 l25 16 -24 19 c-12 10
-20 22 -16 25 4 4 57 -5 118 -21 115 -29 255 -46 246 -30 -4 5 25 8 65 7 64
-1 70 0 53 13 -11 8 -23 14 -28 14 -4 0 -8 3 -8 8 0 4 17 7 37 7 27 0 41 -6
49 -19 8 -13 13 -15 18 -7 4 6 18 11 32 11 14 0 32 7 40 15 9 8 27 15 42 16
25 0 26 1 5 9 -19 8 -21 15 -19 67 2 32 -1 64 -7 70 -5 7 -6 24 -3 39 4 15 3
23 -2 20 -6 -3 -12 4 -15 15 -4 13 -10 18 -17 14 -8 -5 -10 -2 -6 11 3 11 1
26 -4 34 -8 13 -10 12 -10 -3 0 -29 -25 -14 -28 17 -4 34 -68 68 -83 44 -5 -7
-9 -8 -9 -3 0 6 5 16 12 23 9 9 9 12 0 12 -7 0 -12 7 -12 16 0 14 -3 14 -15 4
-14 -11 -15 -8 -11 23 2 20 0 39 -5 42 -5 4 -9 -1 -9 -9 0 -31 -18 -15 -25 22
-6 30 -9 34 -15 17 -6 -17 -8 -15 -15 15 -5 19 -8 43 -6 53 1 9 -3 17 -8 17
-6 0 -11 16 -11 35 0 19 -5 35 -10 35 -6 0 -10 6 -9 13 4 36 -2 59 -15 54 -10
-4 -15 4 -18 24 -5 32 18 42 28 12 4 -10 15 -37 25 -60 10 -24 19 -51 20 -60
0 -11 4 -8 11 10 7 20 7 32 -2 43 -7 8 -10 18 -6 22 4 4 17 -6 28 -21 16 -21
23 -25 29 -16 6 10 10 7 17 -11 l9 -25 7 23 c4 12 12 22 18 22 5 0 8 -7 5 -14
-4 -10 -1 -13 9 -9 7 3 14 12 14 21 0 14 2 13 13 -2 10 -14 18 -15 39 -7 17 6
29 6 35 0 7 -7 16 -5 26 6 9 9 22 15 29 14 22 -4 48 12 48 28 0 13 9 14 48 9
26 -3 54 -2 62 3 8 6 18 7 23 4 14 -9 108 -14 130 -7 28 9 7 25 -34 26 -19 0
-42 5 -51 9 -9 5 -18 5 -20 0 -2 -4 -12 1 -23 11 -18 18 -18 19 -1 12 15 -6
17 -3 13 12 -30 100 -14 129 68 123 17 -1 42 -3 56 -3 19 -1 25 -5 21 -15 -3
-8 4 -5 16 7 12 12 33 22 47 22 23 0 30 10 26 34 -1 5 6 3 15 -5 10 -8 15 -9
11 -2 -8 13 26 37 37 26 3 -3 6 1 6 10 0 10 4 17 10 17 5 0 7 -7 3 -16 -5 -14
-3 -15 15 -5 26 14 30 33 5 24 -10 -4 -14 -2 -10 4 5 7 -1 9 -15 5 -17 -4 -20
-2 -15 11 5 14 0 17 -24 17 -16 0 -40 -7 -53 -16 -23 -14 -25 -14 -30 4 -4 11
-6 24 -5 28 3 18 -1 37 -7 31 -4 -3 -13 0 -21 8 -12 12 -84 21 -96 13 -2 -2
-11 3 -20 11 -10 7 -17 10 -17 5 0 -7 -67 -10 -117 -5 -6 0 -15 15 -18 32 -5
23 -9 28 -16 18 -5 -8 -9 -12 -10 -9 -6 30 -10 58 -10 73 0 16 -3 16 -16 6
-10 -9 -11 -15 -4 -17 14 -5 14 -42 0 -42 -6 0 -9 6 -6 14 3 8 -2 17 -11 21
-16 6 -16 7 -1 18 9 7 17 25 17 40 0 32 20 60 38 53 7 -3 16 -1 20 5 3 6 12 8
20 5 7 -3 18 3 23 12 6 9 11 13 11 7 0 -5 4 -4 9 3 5 8 20 15 35 15 14 1 26 5
26 10 0 4 6 7 14 7 8 0 17 7 20 16 4 9 13 14 21 10 8 -3 15 -1 15 4 0 17 53
11 86 -9 l32 -19 32 33 c21 22 49 38 79 45 25 6 53 15 61 21 12 8 10 9 -7 4
-14 -4 -23 -2 -23 4 0 6 5 11 11 11 5 0 8 4 5 9 -3 5 4 11 16 14 12 4 19 9 15
13 -4 4 -2 13 3 20 11 12 -16 84 -31 84 -21 0 -33 136 -14 166 11 16 11 24 2
33 -7 7 -12 15 -12 19 -1 4 -6 17 -13 30 -7 12 -10 33 -7 45 5 17 4 19 -4 7
-8 -12 -11 -6 -11 25 0 22 -7 49 -15 59 -8 11 -15 32 -15 47 0 15 -6 34 -14
42 -8 8 -13 26 -12 41 2 16 -2 30 -9 33 -11 4 -31 67 -24 75 1 2 -10 22 -24
45 -15 24 -27 48 -27 54 0 6 -11 32 -24 58 -38 74 -86 179 -86 189 0 5 -6 15
-14 22 -8 6 -13 17 -10 25 3 7 0 16 -5 20 -6 3 -8 11 -5 17 4 7 2 8 -4 4 -7
-4 -12 -3 -12 2 0 5 -20 15 -45 22 -25 7 -45 18 -45 25 0 8 -8 11 -20 8 -11
-3 -20 0 -20 6 0 6 4 11 9 11 17 0 23 57 11 102 -13 48 -76 122 -98 113 -7 -3
-33 4 -57 15 -24 11 -53 20 -65 20 -12 0 -19 4 -16 9 3 4 -19 7 -50 6 -31 -1
-49 2 -42 7 9 5 3 8 -15 8 -20 0 -26 4 -21 13 4 6 4 9 -1 5 -4 -4 -24 1 -45
12 -21 11 -40 16 -44 13 -3 -3 -12 0 -21 7 -8 7 -23 10 -33 8 -10 -3 -23 1
-30 9 -7 7 -23 13 -35 13 -22 0 -22 1 3 20 l25 20 -25 0 c-15 0 -31 -5 -37
-11 -8 -8 -13 -8 -17 0 -4 6 -2 11 3 11 6 0 11 7 11 16 0 14 -3 14 -15 4 -13
-11 -19 -9 -35 8 -14 14 -16 22 -7 25 7 3 4 6 -5 6 -10 1 -18 -3 -18 -9 0 -5
-4 -10 -10 -10 -6 0 -6 10 1 27 9 25 0 42 -23 43 -5 0 -8 4 -8 10 0 5 7 7 15
4 8 -4 15 -1 15 6 0 6 5 8 10 5 6 -3 10 -1 10 4 0 6 -9 11 -20 11 -25 0 -27
20 -2 21 13 0 12 3 -5 11 -28 14 -30 38 -3 38 13 0 20 7 20 20 0 10 9 28 21
39 12 11 18 24 14 30 -10 17 -25 13 -25 -6 0 -10 -5 -25 -11 -33 -9 -13 -10
-12 -5 3 3 10 0 17 -8 17 -23 0 -27 27 -5 33 12 3 17 11 13 20 -3 8 -1 18 5
22 6 3 11 21 11 39 0 26 5 35 23 41 19 6 19 8 5 12 -25 6 -23 43 2 43 25 0 26
15 3 29 -16 9 -15 10 6 8 13 -1 26 4 29 12 3 9 0 11 -7 7 -13 -8 -41 10 -41
26 0 6 6 6 14 -1 26 -21 44 -3 36 35 -5 19 -4 32 1 28 14 -8 11 3 -6 20 -13
13 -13 15 6 21 11 4 18 13 16 20 -3 7 0 18 6 24 8 8 7 11 -6 11 -9 0 -17 5
-17 10 0 6 6 10 14 10 17 0 29 27 14 32 -21 7 -16 46 6 53 19 6 17 8 -12 18
-18 7 -30 15 -27 19 4 4 18 3 31 -2 14 -6 26 -6 29 0 4 6 -1 10 -10 10 -11 0
-15 5 -12 14 3 8 -5 18 -19 25 -13 6 -24 15 -24 21 0 13 17 13 25 0 4 -6 11
-8 16 -4 14 8 0 24 -22 24 -10 0 -19 5 -19 10 0 6 5 10 10 10 6 0 10 5 10 11
0 5 -5 7 -12 3 -7 -5 -8 -3 -4 5 6 9 12 8 26 -4 11 -10 20 -12 24 -6 7 11 -24
31 -49 31 -9 0 -15 6 -12 13 4 12 -29 47 -45 47 -4 0 -8 7 -8 15 0 11 5 12 25
5 38 -14 32 11 -7 31 -17 8 -34 22 -36 30 -4 11 -2 11 14 -2 33 -27 69 -38 88
-27 22 12 36 1 16 -13 -13 -9 -13 -10 0 -6 8 2 14 12 13 21 -1 13 4 16 18 13
15 -4 17 -2 10 12 -5 9 -6 23 -2 30 6 10 10 8 16 -6 7 -16 9 -15 15 7 5 16 8
19 9 8 2 -30 18 -20 26 15 l7 32 9 -25 c10 -24 11 -24 25 -6 12 17 14 18 14 3
0 -23 9 -21 31 5 11 11 19 16 19 10 0 -7 9 -12 20 -12 11 0 20 5 20 12 0 6 8
4 19 -6 10 -9 25 -14 35 -10 9 3 16 2 16 -2 0 -5 23 -9 50 -9 35 0 49 -3 46
-11 -3 -7 1 -15 9 -18 7 -2 16 3 20 12 5 14 8 14 15 3 7 -12 12 -12 34 3 29
19 35 11 9 -11 -16 -13 -15 -14 12 -8 17 3 38 8 48 11 19 6 24 -11 5 -20 -7
-4 -2 -4 12 0 63 15 81 16 97 3 14 -12 16 -12 8 1 -8 13 -6 13 8 2 9 -8 25
-11 38 -7 15 5 19 4 14 -5 -6 -9 -2 -9 15 0 15 8 20 8 16 1 -4 -6 0 -11 11
-11 10 0 30 -6 44 -14 14 -7 37 -16 50 -19 14 -4 38 -18 55 -32 16 -14 42 -31
57 -38 16 -6 47 -38 70 -69 117 -158 137 -189 172 -258 21 -41 52 -113 70
-160 18 -47 43 -111 55 -143 l23 -58 38 68 c21 37 39 72 39 76 0 4 9 20 19 35
24 33 46 176 37 238 -4 29 -2 43 4 39 36 -22 -44 153 -92 202 -23 24 -38 46
-34 50 4 5 14 -1 22 -11 7 -11 17 -16 21 -12 8 8 -23 31 -42 31 -13 1 -77 65
-64 65 21 0 6 17 -36 39 -47 25 -61 47 -22 35 12 -3 34 -15 49 -25 28 -20 38
-23 38 -11 0 4 -16 18 -35 31 -20 13 -33 26 -30 29 7 8 -125 71 -149 71 -11 1
-17 4 -14 7 8 7 128 -18 128 -27 0 -4 16 -7 35 -7 48 0 44 12 -12 36 -29 13
-40 22 -28 22 18 1 19 1 2 11 -9 5 -28 20 -42 33 -33 31 -87 39 -138 21 -51
-17 -62 -11 -16 9 32 13 32 14 9 16 -14 0 -33 7 -44 15 -17 13 -15 14 18 21
42 7 42 9 1 18 -22 5 -26 4 -15 -4 12 -8 12 -10 1 -10 -8 0 -19 8 -26 17 -7 9
-26 16 -44 16 -32 0 -38 6 -22 23 5 5 12 20 15 34 6 21 5 23 -6 9 -17 -20 -46
-31 -53 -19 -4 6 -1 10 4 10 6 0 11 6 11 14 0 10 -7 12 -22 8 -11 -3 -19 -1
-16 4 3 5 2 18 -3 29 l-8 20 0 -20 c-1 -17 -3 -17 -11 -5 -8 12 -10 10 -10 -8
0 -15 -5 -22 -12 -19 -8 2 -12 17 -10 34 3 27 -1 31 -40 42 -23 7 -47 20 -53
28 -10 13 -14 10 -24 -18 -7 -19 -17 -43 -22 -54 -9 -19 -9 -19 -5 2 2 13 0
39 -4 58 -6 28 -5 38 6 42 22 8 17 22 -6 16 -16 -4 -20 0 -20 19 0 14 -13 50
-28 80 -20 40 -23 53 -11 45 9 -5 24 -22 33 -36 15 -24 16 -24 11 -3 -6 19 -3
21 17 18 13 -3 26 -5 31 -5 4 -1 7 -6 7 -12 0 -5 -4 -7 -10 -4 -5 3 -10 -1
-10 -9 0 -9 7 -16 15 -16 8 0 15 5 15 11 0 5 5 7 10 4 6 -4 10 -12 9 -18 -3
-27 2 -36 21 -34 11 1 22 7 24 14 4 9 15 6 41 -12 20 -13 45 -27 56 -30 10 -4
19 -11 19 -16 0 -6 -4 -8 -9 -5 -13 8 -19 -16 -10 -39 7 -19 8 -19 8 3 1 12 7
25 15 28 11 4 12 13 5 36 -11 42 -36 67 -84 88 -22 9 -46 25 -54 34 -9 10 -21
14 -37 10 -15 -4 -24 -2 -24 5 0 6 9 11 20 11 11 0 20 4 20 9 0 5 -18 8 -40 7
-33 -2 -45 3 -65 26 -14 15 -25 32 -25 36 0 5 -12 19 -27 33 l-27 24 17 -25
c9 -14 25 -40 37 -58 l20 -34 -32 7 c-18 4 -38 11 -44 17 -7 5 -22 11 -34 13
-12 2 -55 38 -96 80 -52 53 -77 73 -89 69 -15 -6 -14 -10 7 -30 104 -104 115
-122 42 -68 -17 13 -35 20 -39 16 -5 -4 -5 -2 -2 4 7 13 -7 27 -37 38 -20 7
-20 6 -1 -14 16 -18 9 -16 -42 10 -34 16 -71 30 -82 30 -11 0 -66 16 -123 36
-57 20 -119 38 -138 39 -19 2 -53 6 -75 11 -38 7 -55 9 -115 13 -23 1 -24 2
-6 13 18 10 125 6 220 -9 28 -4 37 -3 32 5 -4 7 -19 13 -34 13 -18 1 -21 3 -9
6 60 15 370 -79 352 -107 -3 -5 0 -12 6 -16 7 -4 9 -3 5 4 -3 5 -1 12 6 14 14
5 -41 58 -60 58 -26 0 -84 33 -72 40 14 9 -30 23 -80 26 -146 8 -354 10 -400
2z m1140 -423 c35 -18 41 -40 8 -29 -22 7 -48 28 -48 38 0 9 9 7 40 -9z m-276
-11 c3 -8 2 -12 -4 -9 -6 3 -10 10 -10 16 0 14 7 11 14 -7z m46 -98 c-1 -16
-5 -12 -15 13 -19 42 -19 52 0 27 8 -11 15 -29 15 -40z m-1195 -45 c3 -5 2
-12 -3 -15 -5 -3 -9 1 -9 9 0 17 3 19 12 6z m-95 -45 c0 -2 -8 -10 -17 -17
-16 -13 -17 -12 -4 4 13 16 21 21 21 13z m-40 -30 c0 -2 -8 -10 -17 -17 -16
-13 -17 -12 -4 4 13 16 21 21 21 13z m-47 -129 c-15 -19 -30 -32 -32 -30 -5 3
49 63 57 63 2 0 -9 -15 -25 -33z m1757 19 c0 -3 -4 -8 -10 -11 -5 -3 -10 -1
-10 4 0 6 5 11 10 11 6 0 10 -2 10 -4z m185 -92 l30 -14 -30 6 c-16 4 -46 10
-65 14 l-35 8 35 0 c19 1 49 -5 65 -14z m-1855 2 c0 -3 -4 -8 -10 -11 -5 -3
-10 -1 -10 4 0 6 5 11 10 11 6 0 10 -2 10 -4z m1901 -35 c3 -1 6 -8 6 -16 0
-11 -6 -14 -16 -9 -9 4 -38 10 -65 15 -27 4 -51 11 -54 14 -5 4 91 1 129 -4z
m-1976 -100 c-8 -17 -18 -31 -21 -31 -3 0 -4 3 -2 8 21 43 32 61 35 58 3 -2
-3 -18 -12 -35z m1991 -2 c3 -5 15 -9 27 -9 20 0 19 -2 -7 -15 -31 -16 -50
-20 -27 -6 11 7 3 13 -29 22 -33 10 -38 14 -24 19 21 8 52 2 60 -11z m-2031
-88 c-21 -43 -29 -39 -8 4 9 19 18 33 21 31 2 -2 -4 -18 -13 -35z m2090 -1 c3
-6 -1 -7 -9 -4 -18 7 -21 14 -7 14 6 0 13 -4 16 -10z m-1468 -46 c-3 -3 -12
-4 -19 -1 -8 3 -5 6 6 6 11 1 17 -2 13 -5z m-691 -32 c-17 -16 -18 -16 -5 5 7
12 15 20 18 17 3 -2 -3 -12 -13 -22z m752 10 c2 -7 -2 -10 -12 -6 -9 3 -16 11
-16 16 0 13 23 5 28 -10z m1097 -12 c3 -6 -1 -7 -9 -4 -18 7 -21 14 -7 14 6 0
13 -4 16 -10z m-1865 -28 c0 -5 -7 -17 -15 -28 -14 -18 -14 -17 -4 9 12 27 19
34 19 19z m-39 -75 c-10 -9 -11 -8 -5 6 3 10 9 15 12 12 3 -3 0 -11 -7 -18z
m2385 -60 c14 -27 23 -51 20 -54 -2 -3 -21 28 -41 68 -38 79 -20 66 21 -14z
m-1569 -3 c-3 -3 -12 -4 -19 -1 -8 3 -5 6 6 6 11 1 17 -2 13 -5z m64 -11 c13
-15 12 -15 -8 -4 -24 12 -29 21 -14 21 5 0 15 -7 22 -17z m-2531 -8 c-7 -8
-17 -15 -22 -15 -6 0 -5 7 2 15 7 8 17 15 22 15 6 0 5 -7 -2 -15z m2385 -504
c-3 -6 -14 -11 -23 -11 -13 0 -13 2 4 14 21 15 30 14 19 -3z m-1 -175 c-3 -14
-10 -26 -14 -26 -5 0 -3 13 3 30 13 35 21 33 11 -4z m63 18 c-3 -3 -12 -4 -19
-1 -8 3 -5 6 6 6 11 1 17 -2 13 -5z m138 -304 c-3 -5 -11 -10 -16 -10 -6 0 -7
5 -4 10 3 6 11 10 16 10 6 0 7 -4 4 -10z m513 -168 c33 -43 24 -41 -18 5 -19
20 -28 34 -21 32 8 -3 25 -19 39 -37z m-33 -2 c10 -11 16 -20 13 -20 -3 0 -13
9 -23 20 -10 11 -16 20 -13 20 3 0 13 -9 23 -20z m-505 -30 c-11 -7 -7 -10 17
-10 17 0 33 4 35 9 2 5 36 3 78 -5 113 -21 120 -23 120 -39 0 -11 5 -12 24 -5
21 8 23 6 19 -11 -5 -16 -1 -20 13 -17 10 2 19 -3 20 -9 1 -7 2 -18 3 -23 0
-6 7 -10 14 -8 30 7 133 -86 142 -129 6 -31 -14 -81 -27 -68 -3 3 -3 -5 -1
-18 3 -14 0 -28 -6 -31 -15 -10 -39 16 -57 61 -9 21 -21 50 -27 65 -8 18 -28
35 -60 48 -57 25 -90 30 -174 30 -201 -3 -242 1 -255 24 -7 13 -7 21 1 25 7 4
10 14 8 22 -2 8 -2 11 0 7 8 -15 22 -8 17 7 -5 11 1 15 21 15 21 0 26 4 21 16
-5 14 -1 15 30 10 19 -4 43 -10 52 -13 9 -3 4 4 -12 15 -17 12 -35 18 -40 15
-6 -4 -5 1 3 10 7 9 19 17 25 17 6 0 4 -5 -4 -10z m577 -72 c-3 -8 -6 -5 -6 6
-1 11 2 17 5 13 3 -3 4 -12 1 -19z m-392 -128 c-3 -5 -11 -10 -16 -10 -6 0 -7
5 -4 10 3 6 11 10 16 10 6 0 7 -4 4 -10z m65 -17 c2 -2 -2 -8 -10 -13 -10 -6
-16 -5 -19 3 -2 7 -9 16 -15 20 -6 5 0 5 14 1 14 -3 27 -8 30 -11z m60 -43
c11 -11 17 -20 13 -21 -5 0 -15 -2 -23 -4 -10 -1 -15 5 -15 21 0 29 0 29 25 4z
m-4953 -50 c-1 -21 -6 -29 -15 -25 -8 3 -18 5 -23 5 -17 0 -10 48 9 53 26 5
31 -1 29 -33z m4854 17 c19 -12 44 -42 56 -66 13 -25 27 -49 33 -55 15 -15 12
-46 -4 -46 -9 0 -13 8 -10 23 2 12 1 16 -2 8 -4 -7 -24 -21 -45 -31 -36 -16
-38 -18 -22 -31 9 -8 14 -9 11 -3 -7 11 137 13 148 1 3 -3 17 -1 30 5 20 10
28 8 42 -6 12 -14 14 -20 5 -23 -7 -3 -13 -13 -13 -23 0 -11 -14 -43 -32 -72
-35 -59 -68 -124 -68 -134 0 -3 8 3 18 14 9 11 30 28 46 38 l28 18 -7 -32 c-4
-21 -3 -32 4 -32 15 0 14 -26 -1 -50 -10 -15 -9 -24 2 -45 11 -21 12 -30 2
-46 -9 -14 -9 -19 -1 -19 8 0 9 -4 0 -13 -6 -8 -8 -17 -4 -21 4 -4 7 -24 6
-44 -2 -32 -1 -34 7 -12 7 22 8 19 9 -18 1 -30 -2 -41 -11 -36 -7 5 -9 0 -6
-14 4 -15 -7 -40 -36 -81 -23 -33 -51 -78 -61 -100 -10 -23 -22 -41 -27 -41
-5 0 -7 -4 -4 -9 3 -4 2 -22 -3 -38 -5 -17 -5 -36 0 -44 6 -10 9 -11 9 -1 0 6
7 12 16 12 8 0 13 -4 10 -8 -3 -5 6 -21 20 -37 13 -15 24 -31 24 -34 -1 -16
-39 -49 -55 -48 -10 1 -20 -5 -22 -13 -4 -13 -3 -13 6 0 5 8 13 11 17 7 5 -4
-2 -18 -15 -30 -14 -14 -21 -17 -19 -8 2 8 -5 16 -14 18 -12 3 -15 -1 -11 -16
4 -15 -1 -22 -21 -27 -14 -3 -26 -11 -26 -17 0 -6 -3 -8 -6 -4 -4 3 -13 -1
-21 -9 -8 -8 -25 -12 -39 -10 -13 3 -23 2 -22 -2 3 -17 -15 -61 -24 -56 -5 3
-4 12 3 20 10 12 9 18 -4 31 -15 15 -21 13 -84 -28 -122 -78 -152 -103 -173
-145 -21 -41 -26 -109 -11 -133 9 -15 15 -8 24 29 7 27 53 85 68 85 5 0 9 5
10 10 1 15 25 26 43 19 14 -5 13 -9 -2 -32 -10 -16 -12 -23 -4 -18 10 6 13 -2
12 -36 -3 -71 9 -130 29 -152 10 -12 22 -31 26 -44 3 -12 10 -20 15 -17 4 3 6
-5 2 -17 -4 -17 -2 -20 11 -15 11 4 17 1 17 -8 0 -10 -9 -14 -25 -13 -20 2
-25 8 -25 31 0 19 -4 27 -12 24 -7 -2 -12 -8 -11 -13 0 -5 -6 -15 -14 -23 -13
-12 -14 -11 -9 10 6 19 5 20 -3 8 -14 -22 -81 -17 -98 7 -11 16 -13 14 -9 -17
2 -18 4 -56 5 -84 1 -39 4 -47 12 -35 9 12 10 12 5 -3 -3 -10 -6 -31 -7 -45 0
-24 -1 -25 -9 -7 -6 13 -9 15 -9 5 -1 -13 -2 -13 -11 0 -5 8 -17 15 -26 15
-26 0 -88 128 -104 211 -7 38 -17 79 -21 92 -5 12 -5 22 1 22 4 0 11 -8 13
-17 4 -14 5 -13 6 4 0 12 -4 25 -9 28 -8 5 -7 11 1 21 8 10 9 18 2 25 -12 12
-5 59 8 59 5 0 9 6 9 14 0 19 70 77 83 69 6 -3 7 -1 3 5 -3 5 -3 12 1 15 5 2
3 2 -4 1 -7 -2 -15 2 -19 8 -4 6 -3 8 3 5 10 -6 32 26 36 53 2 8 6 21 10 28 5
7 2 14 -7 18 -19 7 -21 30 -3 37 7 3 2 9 -13 15 -16 7 -19 11 -9 11 19 1 22
51 4 63 -6 5 -6 8 2 8 15 0 9 80 -7 90 -7 4 -10 12 -6 18 10 17 -5 42 -25 42
-10 0 -19 5 -19 10 0 6 4 10 9 10 5 0 7 9 4 20 -3 11 -11 20 -18 20 -17 0 -64
39 -47 40 18 0 15 37 -5 44 -14 6 -14 8 3 22 18 14 18 15 -3 5 -33 -17 -48
-14 -32 5 15 18 19 53 8 60 -5 2 -6 11 -2 19 3 8 0 15 -6 15 -6 0 -11 -4 -11
-8 0 -5 -7 -9 -15 -9 -8 0 -12 4 -10 8 7 10 -15 69 -26 69 -5 0 -9 -4 -9 -10
0 -5 -5 -10 -10 -10 -6 0 -8 12 -6 26 6 30 -10 68 -25 59 -9 -6 -14 14 -11 48
2 19 -14 24 -20 6 -2 -7 -9 -5 -17 5 -12 14 -12 16 3 10 13 -5 17 -2 14 12 -2
14 9 23 56 38 32 11 53 22 47 24 -10 3 -88 -21 -121 -38 -9 -4 -31 -10 -50
-14 -30 -6 -32 -5 -15 5 11 7 23 17 27 23 4 6 8 7 8 1 0 -5 7 1 16 13 9 13 13
26 10 29 -10 10 -57 12 -51 2 9 -13 -6 -10 -35 7 l-25 15 27 -5 c16 -4 32 -1
41 8 8 8 28 18 43 21 28 6 28 6 10 -9 -18 -15 -18 -16 -2 -16 9 0 15 -4 12 -9
-4 -5 4 -7 16 -3 14 3 19 2 14 -6 -4 -7 -15 -12 -24 -13 -9 0 -12 -3 -6 -5 6
-3 24 2 40 11 22 11 25 15 10 15 -20 0 -20 0 0 15 25 19 38 19 30 -1 -5 -12
-2 -15 11 -9 10 4 45 11 78 17 33 6 67 12 75 15 27 9 110 12 110 4 0 -4 -30
-13 -67 -21 -67 -13 -178 -48 -157 -49 6 -1 34 6 63 14 28 9 73 18 99 20 26 2
47 4 47 5 0 1 9 3 20 6 50 10 109 33 88 33 -13 1 -23 5 -23 10 0 5 9 7 20 4
10 -3 26 2 35 10 19 20 19 27 -1 27 -14 0 -14 3 -4 15 7 8 9 15 4 15 -5 0 -10
11 -10 25 -2 21 1 24 12 14 20 -17 28 -5 14 23 -10 20 -8 19 15 -6 32 -35 43
-28 18 10 -10 16 -13 25 -7 21 7 -4 24 -1 39 7 15 8 34 12 41 9 8 -3 14 0 14
6 0 7 -24 11 -65 11 -68 0 -80 8 -42 29 49 26 73 112 47 162 -10 17 -7 19 33
19 29 0 56 -8 78 -23z m139 -7 c0 -5 -7 -10 -16 -10 -8 0 -12 5 -9 10 3 6 10
10 16 10 5 0 9 -4 9 -10z m-263 -46 c-9 -9 -28 6 -21 18 4 6 10 6 17 -1 6 -6
8 -13 4 -17z m278 16 c-3 -5 -14 -10 -23 -10 -15 0 -15 2 -2 10 20 13 33 13
25 0z m59 -82 c38 -44 49 -73 18 -45 -10 10 -25 17 -33 17 -11 0 -12 2 -1 9
11 6 8 13 -12 29 -27 21 -33 32 -17 32 5 0 26 -19 45 -42z m-1039 -198 c-3 -5
-11 -10 -16 -10 -6 0 -7 5 -4 10 3 6 11 10 16 10 6 0 7 -4 4 -10z m50 -19 c-6
-4 -23 -13 -40 -19 -16 -5 -39 -13 -50 -17 -19 -8 -19 -7 1 13 12 11 34 22 50
25 16 2 33 5 39 6 6 0 6 -2 0 -8z m-40 -51 c-3 -5 -12 -10 -18 -10 -7 0 -6 4
3 10 19 12 23 12 15 0z m565 0 c0 -5 -4 -10 -10 -10 -5 0 -10 5 -10 10 0 6 5
10 10 10 6 0 10 -4 10 -10z m-548 -30 c-12 -11 -24 -20 -28 -20 -4 0 1 9 11
20 10 11 23 20 28 20 6 0 1 -9 -11 -20z m163 0 c-3 -5 -12 -10 -18 -10 -7 0
-6 4 3 10 19 12 23 12 15 0z m105 -360 c0 -5 -4 -10 -10 -10 -5 0 -10 5 -10
10 0 6 5 10 10 10 6 0 10 -4 10 -10z m-2392 -143 c13 -1 30 -11 38 -22 12 -17
16 -18 24 -5 7 12 12 12 29 -4 11 -10 21 -28 23 -40 2 -15 14 -24 41 -30 32
-8 37 -13 32 -30 -3 -12 -7 -28 -9 -36 -1 -8 -7 -26 -13 -40 -5 -14 -12 -29
-14 -35 -18 -45 -78 -131 -101 -145 -16 -10 -24 -20 -18 -22 19 -6 -12 -64
-65 -122 -6 -6 -17 -21 -25 -32 -9 -12 -35 -38 -59 -58 -33 -28 -51 -36 -68
-32 -85 21 -80 21 -59 -2 26 -29 15 -47 -36 -60 -59 -16 -86 -35 -36 -26 49 8
65 -3 36 -25 -33 -24 -65 -38 -133 -57 -51 -15 -56 -18 -35 -24 23 -6 23 -7 5
-12 -31 -10 -145 -7 -145 3 0 9 34 14 80 11 22 -1 23 0 7 9 -10 6 -28 8 -41 5
-12 -3 -53 -8 -92 -11 -38 -4 -98 -10 -134 -15 -122 -17 -435 -40 -467 -34
-24 5 -45 -1 -90 -26 -98 -54 -92 6 -87 -796 6 -1118 10 -1296 28 -1339 9 -20
36 -57 61 -82 l46 -45 188 4 189 3 -9 -22 c-12 -33 -55 -99 -122 -188 -109
-145 -142 -189 -172 -235 -16 -25 -39 -55 -51 -68 l-21 -22 -7 40 c-3 22 -13
48 -20 58 -8 9 -26 31 -41 49 -32 39 -77 63 -120 63 -18 0 -53 11 -79 25 -41
22 -144 44 -170 37 -5 -2 -16 3 -25 11 -9 7 -45 28 -81 46 -36 18 -71 42 -78
52 -7 11 -22 19 -34 19 -21 0 -90 -37 -96 -52 -2 -5 -7 -6 -12 -3 -4 2 -37
-21 -73 -53 -35 -32 -77 -63 -91 -70 -14 -6 -38 -17 -52 -24 -21 -10 -120 -15
-175 -8 -25 3 -39 62 -27 112 13 50 12 995 -1 1532 -12 513 -6 984 14 1071 8
39 20 104 26 145 19 124 53 162 95 104 10 -15 26 -34 36 -43 9 -9 24 -36 33
-61 58 -156 108 -213 219 -250 61 -20 138 17 171 83 9 17 25 88 35 157 11 69
24 153 30 186 5 34 10 80 10 102 0 22 5 44 10 47 6 3 10 17 10 31 0 14 10 64
22 112 15 62 30 96 51 119 59 64 49 63 526 59 237 -2 550 0 697 6 203 7 269 7
280 -2 9 -8 14 -9 14 -2 0 13 48 19 110 14 25 -2 55 -4 68 -5z m2532 -117 c0
-5 -5 -10 -11 -10 -5 0 -7 5 -4 10 3 6 8 10 11 10 2 0 4 -4 4 -10z m590 -144
c0 -2 -7 -9 -15 -16 -13 -11 -14 -10 -9 4 5 14 24 23 24 12z m-13 -108 c-3 -8
-6 -5 -6 6 -1 11 2 17 5 13 3 -3 4 -12 1 -19z m123 -17 c0 -6 -4 -13 -10 -16
-5 -3 -10 1 -10 9 0 9 5 16 10 16 6 0 10 -4 10 -9z m-350 -21 c0 -6 -7 -13
-15 -16 -8 -4 -15 -13 -15 -22 0 -8 -2 -13 -5 -10 -11 10 7 58 21 58 8 0 14
-5 14 -10z m335 -40 c3 -5 1 -10 -4 -10 -6 0 -11 5 -11 10 0 6 2 10 4 10 3 0
8 -4 11 -10z m-455 -65 c0 -8 -4 -15 -10 -15 -5 0 -10 7 -10 15 0 8 5 15 10
15 6 0 10 -7 10 -15z m-26 -30 c3 -8 2 -15 -3 -15 -5 0 -14 7 -21 15 -10 12
-10 15 3 15 8 0 17 -7 21 -15z m944 -142 c-10 -2 -18 -10 -18 -16 0 -7 -9 -18
-20 -25 -24 -15 -26 -5 -4 26 8 12 25 21 37 21 17 -1 18 -2 5 -6z m-414 -108
c-6 -16 -24 -21 -24 -7 0 11 11 22 21 22 5 0 6 -7 3 -15z m67 -17 c18 -21 19
-21 17 -3 -3 17 14 23 47 16 3 0 -2 -12 -11 -26 -9 -14 -14 -31 -11 -39 4 -10
1 -13 -9 -9 -7 3 -14 9 -14 15 0 12 -32 44 -39 40 -3 -2 -7 4 -9 12 -5 22 7
20 29 -6z m-414 -180 c-3 -7 -5 -2 -5 12 0 14 2 19 5 13 2 -7 2 -19 0 -25z
m-267 -72 c0 -3 -4 -8 -10 -11 -5 -3 -10 -1 -10 4 0 6 5 11 10 11 6 0 10 -2
10 -4z m-950 -928 c0 -6 -7 -5 -15 2 -8 7 -15 17 -15 22 0 6 7 5 15 -2 8 -7
15 -17 15 -22z m-110 -138 c0 -5 -4 -10 -10 -10 -5 0 -10 5 -10 10 0 6 5 10
10 10 6 0 10 -4 10 -10z m-2083 -726 c-3 -3 -12 -4 -19 -1 -8 3 -5 6 6 6 11 1
17 -2 13 -5z m-97 -38 c0 -2 -7 -7 -16 -10 -8 -3 -12 -2 -9 4 6 10 25 14 25 6z
m30 -46 c0 -5 -5 -10 -11 -10 -5 0 -7 5 -4 10 3 6 8 10 11 10 2 0 4 -4 4 -10z
m639 -40 c6 0 14 7 18 15 6 10 13 11 23 5 10 -6 11 -10 3 -10 -7 0 -10 -7 -7
-15 9 -23 -32 -19 -56 5 -12 12 -18 26 -14 32 5 7 10 4 15 -10 5 -12 13 -22
18 -22z m-699 20 c-8 -5 -22 -9 -30 -9 -10 0 -8 3 5 9 27 12 43 12 25 0z m176
-228 c-17 -16 -18 -16 -5 5 7 12 15 20 18 17 3 -2 -3 -12 -13 -22z m305 -25
c-10 -9 -11 -8 -5 6 3 10 9 15 12 12 3 -3 0 -11 -7 -18z m-291 -67 c0 -5 -5
-10 -11 -10 -5 0 -7 5 -4 10 3 6 8 10 11 10 2 0 4 -4 4 -10z m215 0 c3 -5 1
-10 -4 -10 -6 0 -11 5 -11 10 0 6 2 10 4 10 3 0 8 -4 11 -10z m-210 -57 c-9
-8 -18 -13 -21 -10 -8 8 19 36 29 30 4 -2 0 -11 -8 -20z m-31 -26 c7 -3 31 4
54 14 44 20 67 17 58 -7 -3 -9 1 -14 14 -14 10 0 22 -4 25 -10 9 -15 -19 -12
-41 5 -26 20 -34 19 -34 -5 0 -24 -15 -27 -24 -5 -4 11 -13 14 -30 9 -29 -7
-56 14 -55 43 0 15 2 15 11 -4 6 -12 16 -24 22 -26z m146 34 c0 -6 -4 -13 -10
-16 -5 -3 -10 1 -10 9 0 9 5 16 10 16 6 0 10 -4 10 -9z m-170 -80 c0 -4 -9 -7
-20 -7 -20 0 -25 7 -14 19 7 7 34 -2 34 -12z m53 -15 c3 -8 3 -17 0 -20 -7 -7
-33 13 -33 25 0 15 27 10 33 -5z m-156 -18 c-3 -8 -6 -5 -6 6 -1 11 2 17 5 13
3 -3 4 -12 1 -19z m231 -2 c-7 -8 -17 -12 -22 -9 -4 3 -2 9 5 14 22 13 31 11
17 -5z m-126 -28 c-7 -7 -12 -8 -12 -2 0 14 12 26 19 19 2 -3 -1 -11 -7 -17z
m-102 -53 c0 -5 -5 -3 -10 5 -5 8 -10 20 -10 25 0 6 5 3 10 -5 5 -8 10 -19 10
-25z m82 15 c10 -10 14 -21 10 -24 -4 -2 -15 7 -25 20 -21 29 -9 32 15 4z m68
10 c0 -5 -4 -10 -10 -10 -5 0 -10 5 -10 10 0 6 5 10 10 10 6 0 10 -4 10 -10z
m-310 -30 c0 -5 -7 -7 -15 -4 -8 4 -15 8 -15 10 0 2 7 4 15 4 8 0 15 -4 15
-10z m196 -7 c18 -24 17 -30 -2 -37 -12 -5 -15 -2 -10 10 4 9 1 23 -5 30 -6 8
-8 14 -4 14 4 0 14 -8 21 -17z m66 -35 c-7 -7 -12 -8 -12 -2 0 6 3 14 7 17 3
4 9 5 12 2 2 -3 -1 -11 -7 -17z m-32 -77 c0 -11 -5 -23 -10 -26 -6 -4 -8 -10
-5 -15 6 -10 -14 -25 -22 -16 -3 3 0 12 7 21 7 8 10 21 7 29 -6 15 1 26 15 26
4 0 8 -9 8 -19z m-56 -20 c3 -5 -1 -12 -10 -15 -22 -9 -24 -8 -24 9 0 16 25
21 34 6z m-114 -22 c-7 -11 -14 -18 -17 -15 -3 3 0 12 7 21 18 21 23 19 10 -6z
m60 1 c8 -5 11 -10 5 -10 -5 0 -17 5 -25 10 -8 5 -10 10 -5 10 6 0 17 -5 25
-10z m291 -169 c22 -18 22 -20 7 -26 -10 -4 -18 -15 -18 -25 0 -10 -7 -23 -15
-30 -8 -7 -15 -26 -15 -42 0 -28 -2 -29 -32 -23 -39 9 -42 11 -33 24 3 6 18
11 32 11 26 0 26 0 7 21 -18 20 -18 22 -1 34 9 6 17 19 17 28 0 22 11 47 20
47 4 0 18 -9 31 -19z m224 -370 c7 -12 -34 -41 -57 -41 -23 0 -24 20 0 21 10
0 12 3 5 6 -7 2 -13 9 -13 14 0 12 57 12 65 0z m35 -152 c0 -5 -16 -9 -36 -9
-22 0 -33 4 -29 11 4 6 13 8 21 5 7 -3 16 -1 19 5 7 11 25 3 25 -12z m50 -69
c8 -5 11 -10 5 -10 -5 0 -17 5 -25 10 -8 5 -10 10 -5 10 6 0 17 -5 25 -10z
m-2268 -581 c104 -13 245 -7 415 18 l42 5 -14 -48 c-39 -143 -163 -424 -186
-424 -17 0 -412 140 -445 158 -10 6 -35 28 -55 49 -84 90 -95 129 -56 198 40
71 59 73 299 44z m2267 -95 c-17 -21 -31 -17 -19 6 6 11 15 18 21 14 6 -4 6
-11 -2 -20z m-10 -173 c-3 -6 -10 -7 -18 -2 -7 5 -10 14 -6 21 9 14 29 -2 24
-19z m-14 -221 c-3 -5 -10 -10 -16 -10 -5 0 -9 5 -9 10 0 6 7 10 16 10 8 0 12
-4 9 -10z m14 -198 c-13 -37 -42 -43 -59 -11 -16 28 5 52 38 44 17 -4 22 -2
16 7 -5 9 -4 10 5 2 8 -8 8 -18 0 -42z m1 -86 c0 -3 -4 -8 -10 -11 -5 -3 -10
-1 -10 4 0 6 5 11 10 11 6 0 10 -2 10 -4z"/>
<path d="M5555 6780 c4 -6 11 -8 16 -5 14 9 11 15 -7 15 -8 0 -12 -5 -9 -10z"/>
<path d="M5480 6766 c0 -21 26 -40 36 -25 4 8 3 9 -4 5 -8 -5 -12 0 -12 13 0
12 -4 21 -10 21 -5 0 -10 -6 -10 -14z"/>
<path d="M5520 6771 c0 -5 7 -12 16 -15 14 -5 15 -4 4 9 -14 17 -20 19 -20 6z"/>
<path d="M4955 6429 c-4 -6 -5 -12 -2 -15 2 -3 7 2 10 11 7 17 1 20 -8 4z"/>
<path d="M5120 6080 c0 -5 7 -7 15 -4 8 4 15 8 15 10 0 2 -7 4 -15 4 -8 0 -15
-4 -15 -10z"/>
<path d="M5710 5861 c0 -9 30 -24 36 -18 2 1 -6 8 -16 15 -11 7 -20 8 -20 3z"/>
<path d="M5360 5260 c0 -11 4 -20 9 -20 5 0 7 9 4 20 -3 11 -7 20 -9 20 -2 0
-4 -9 -4 -20z"/>
<path d="M5245 5250 c3 -5 8 -10 11 -10 2 0 4 5 4 10 0 6 -5 10 -11 10 -5 0
-7 -4 -4 -10z"/>
<path d="M5620 9756 c14 -8 29 -12 33 -9 12 8 -14 23 -38 22 -18 0 -17 -1 5
-13z"/>
<path d="M5459 9711 c13 -12 28 -21 34 -21 12 0 11 0 -28 24 l-30 17 24 -20z"/>
<path d="M5770 9676 c0 -2 8 -10 18 -17 15 -13 16 -12 3 4 -13 16 -21 21 -21
13z"/>
<path d="M6178 9453 c-11 -14 -10 -15 9 -9 17 6 32 -2 68 -35 25 -23 48 -39
51 -36 8 7 -53 64 -87 81 -25 12 -30 12 -41 -1z"/>
<path d="M6306 9345 c4 -8 8 -15 10 -15 2 0 4 7 4 15 0 8 -4 15 -10 15 -5 0
-7 -7 -4 -15z"/>
<path d="M6328 9265 c-8 -8 12 -98 24 -110 7 -7 8 6 3 40 -7 53 -17 79 -27 70z"/>
<path d="M6719 8805 c24 -14 46 -23 49 -21 6 7 -60 46 -78 46 -8 0 5 -12 29
-25z"/>
<path d="M6775 8770 c-3 -5 -1 -10 4 -10 6 0 11 5 11 10 0 6 -2 10 -4 10 -3 0
-8 -4 -11 -10z"/>
<path d="M6760 8675 c19 -14 35 -25 37 -25 10 0 -19 39 -33 44 -34 13 -36 5
-4 -19z"/>
<path d="M7323 8413 c-10 -16 -24 -33 -32 -39 -8 -6 -16 -25 -17 -41 -1 -17
-7 -40 -13 -51 -21 -40 -4 -269 26 -342 4 -8 7 -19 7 -25 1 -9 13 -10 46 -6 5
0 19 19 30 40 22 44 67 82 123 106 36 15 39 15 92 -15 64 -35 80 -37 95 -10
18 34 16 137 -4 158 -9 10 -16 26 -16 35 0 9 -7 17 -15 17 -8 0 -15 6 -15 14
0 9 -16 17 -42 21 -35 6 -54 19 -99 66 -31 33 -59 59 -63 59 -3 0 -15 9 -26
20 -28 28 -56 25 -77 -7z"/>
<path d="M6926 8365 c-9 -26 -7 -32 5 -12 6 10 9 21 6 23 -2 3 -7 -2 -11 -11z"/>
<path d="M5388 8213 c7 -3 16 -2 19 1 4 3 -2 6 -13 5 -11 0 -14 -3 -6 -6z"/>
<path d="M5378 8153 c6 -2 18 -2 25 0 6 3 1 5 -13 5 -14 0 -19 -2 -12 -5z"/>
<path d="M5388 8123 c7 -3 16 -2 19 1 4 3 -2 6 -13 5 -11 0 -14 -3 -6 -6z"/>
<path d="M5320 8030 c0 -12 37 -14 44 -2 2 4 -6 9 -20 10 -13 1 -24 -3 -24 -8z"/>
<path d="M5411 8024 c0 -11 3 -14 6 -6 3 7 2 16 -1 19 -3 4 -6 -2 -5 -13z"/>
<path d="M5361 8001 c-9 -6 -10 -11 -2 -15 6 -4 11 -3 11 3 0 5 8 12 18 14 12
3 13 5 2 6 -8 0 -21 -3 -29 -8z"/>
<path d="M2510 7945 c-7 -9 -8 -15 -2 -15 5 0 12 7 16 15 3 8 4 15 2 15 -2 0
-9 -7 -16 -15z"/>
<path d="M5310 7944 c0 -9 5 -14 12 -12 18 6 21 28 4 28 -9 0 -16 -7 -16 -16z"/>
<path d="M5300 7910 c0 -5 4 -10 9 -10 6 0 13 5 16 10 3 6 -1 10 -9 10 -9 0
-16 -4 -16 -10z"/>
<path d="M5307 7813 c-4 -3 -7 -11 -7 -17 0 -6 5 -5 12 2 6 6 9 14 7 17 -3 3
-9 2 -12 -2z"/>
<path d="M5398 7793 c7 -3 16 -2 19 1 4 3 -2 6 -13 5 -11 0 -14 -3 -6 -6z"/>
<path d="M5305 7630 c3 -5 8 -10 11 -10 2 0 4 5 4 10 0 6 -5 10 -11 10 -5 0
-7 -4 -4 -10z"/>
<path d="M5460 7520 c-9 -6 -10 -10 -3 -10 6 0 15 5 18 10 8 12 4 12 -15 0z"/>
<path d="M2500 7425 c0 -18 19 -40 26 -32 4 4 0 15 -9 24 -9 10 -17 13 -17 8z"/>
<path d="M6710 7360 c0 -5 4 -10 10 -12 5 -1 -11 -3 -38 -4 -53 -1 -116 -29
-109 -48 3 -7 -2 -12 -12 -12 -9 1 -17 -3 -18 -7 0 -5 -14 -22 -29 -38 -15
-16 -22 -29 -15 -29 8 0 7 -5 -4 -16 -9 -9 -14 -18 -12 -21 6 -6 138 26 151
36 6 5 36 16 66 26 30 10 74 26 98 37 23 10 47 16 52 13 6 -3 7 1 4 9 -7 18
-44 22 -44 5 0 -5 -5 -7 -10 -4 -6 4 -17 1 -25 -5 -8 -7 -15 -8 -15 -3 0 14
68 46 84 40 9 -4 16 -3 16 2 0 11 -47 20 -57 11 -14 -14 -53 -22 -53 -11 0 5
10 11 23 13 16 3 11 6 -20 15 -24 6 -43 7 -43 3z"/>
<path d="M5976 7280 c6 -36 11 -46 18 -39 2 2 -3 20 -10 39 l-14 35 6 -35z"/>
<path d="M6878 7293 c6 -2 18 -2 25 0 6 3 1 5 -13 5 -14 0 -19 -2 -12 -5z"/>
<path d="M6905 7240 c3 -5 11 -10 16 -10 6 0 7 5 4 10 -3 6 -11 10 -16 10 -6
0 -7 -4 -4 -10z"/>
<path d="M6910 7210 c0 -5 5 -10 10 -10 6 0 10 5 10 10 0 6 -4 10 -10 10 -5 0
-10 -4 -10 -10z"/>
<path d="M5995 7179 c-4 -6 -5 -12 -2 -15 2 -3 7 2 10 11 7 17 1 20 -8 4z"/>
<path d="M6915 7170 c3 -5 10 -10 16 -10 5 0 9 5 9 10 0 6 -7 10 -16 10 -8 0
-12 -4 -9 -10z"/>
<path d="M6625 6780 c28 -12 37 -12 30 0 -3 6 -16 10 -28 9 -21 0 -21 -1 -2
-9z"/>
<path d="M6636 5873 c-6 -14 -5 -15 5 -6 7 7 10 15 7 18 -3 3 -9 -2 -12 -12z"/>
<path d="M6650 5830 c-9 -6 -10 -10 -3 -10 6 0 15 5 18 10 8 12 4 12 -15 0z"/>
<path d="M6660 5780 c0 -5 5 -10 11 -10 5 0 7 5 4 10 -3 6 -8 10 -11 10 -2 0
-4 -4 -4 -10z"/>
<path d="M5924 5675 c-9 -22 12 -43 27 -28 9 9 8 16 -5 28 -15 15 -17 15 -22
0z"/>
<path d="M6455 5390 c-19 -8 -19 -9 3 -9 12 -1 22 4 22 9 0 6 -1 10 -2 9 -2 0
-12 -4 -23 -9z"/>
<path d="M6220 5100 c0 -5 5 -10 10 -10 6 0 10 5 10 10 0 6 -4 10 -10 10 -5 0
-10 -4 -10 -10z"/>
<path d="M5627 4981 c-4 -17 -3 -21 5 -13 5 5 8 16 6 23 -3 8 -7 3 -11 -10z"/>
<path d="M5612 4905 c0 -16 2 -22 5 -12 2 9 2 23 0 30 -3 6 -5 -1 -5 -18z"/>
<path d="M5755 4731 c-3 -5 0 -13 6 -17 7 -4 9 -3 5 4 -3 5 0 13 6 15 9 4 10
6 1 6 -6 1 -14 -3 -18 -8z"/>
<path d="M5878 4343 c7 -3 16 -2 19 1 4 3 -2 6 -13 5 -11 0 -14 -3 -6 -6z"/>
<path d="M4850 3986 c0 -8 4 -17 9 -20 5 -4 7 3 4 14 -6 23 -13 26 -13 6z"/>
<path d="M4800 3980 c0 -5 6 -10 14 -10 8 0 18 5 21 10 3 6 -3 10 -14 10 -12
0 -21 -4 -21 -10z"/>
<path d="M4190 3836 c0 -8 5 -18 10 -21 6 -3 10 3 10 14 0 12 -4 21 -10 21 -5
0 -10 -6 -10 -14z"/>
<path d="M5257 3383 c-4 -3 -7 -19 -7 -35 0 -21 18 -47 70 -104 74 -79 146
-181 196 -274 53 -100 229 -346 525 -734 431 -564 641 -1021 638 -1386 l0 -85
-58 -46 c-31 -25 -76 -69 -99 -97 l-43 -50 58 -17 c49 -14 193 -34 257 -35 17
0 18 9 14 173 -8 284 -64 487 -219 785 -108 208 -192 348 -330 551 -57 84
-126 189 -154 232 -27 43 -82 123 -121 176 -40 54 -101 141 -136 193 -78 117
-121 176 -333 465 -90 122 -234 295 -245 295 -4 0 -10 -3 -13 -7z"/>
<path d="M2880 3160 c0 -11 59 -44 66 -37 3 2 -11 14 -31 25 -19 12 -35 17
-35 12z"/>
<path d="M2832 3078 c6 -18 28 -21 28 -4 0 9 -7 16 -16 16 -9 0 -14 -5 -12
-12z"/>
<path d="M2986 3043 c-4 -9 -2 -21 4 -27 7 -7 10 -5 10 7 0 17 1 17 24 0 13
-10 24 -20 24 -23 0 -3 0 -12 2 -20 1 -11 4 -10 9 4 6 15 0 26 -25 48 -37 33
-40 33 -48 11z"/>
<path d="M2880 2936 c0 -2 7 -9 15 -16 9 -7 15 -8 15 -2 0 5 -7 12 -15 16 -8
3 -15 4 -15 2z"/>
<path d="M2360 2590 c0 -5 5 -10 10 -10 6 0 10 5 10 10 0 6 -4 10 -10 10 -5 0
-10 -4 -10 -10z"/>
<path d="M3835 2240 c3 -5 8 -10 11 -10 2 0 4 5 4 10 0 6 -5 10 -11 10 -5 0
-7 -4 -4 -10z"/>
<path d="M3881 2205 c29 -40 473 -475 484 -475 5 0 -31 39 -80 86 -50 48 -164
159 -254 248 -91 88 -158 152 -150 141z"/>
<path d="M2576 2065 c20 -30 64 -31 64 -2 0 13 -5 17 -15 13 -8 -3 -26 -1 -40
4 -25 9 -25 9 -9 -15z"/>
<path d="M2645 1920 c3 -5 10 -10 16 -10 5 0 9 5 9 10 0 6 -7 10 -16 10 -8 0
-12 -4 -9 -10z"/>
<path d="M2669 1839 c15 -6 34 -6 50 0 22 8 19 9 -24 10 -42 0 -46 -2 -26 -10z"/>
<path d="M2748 1763 c7 -3 16 -2 19 1 4 3 -2 6 -13 5 -11 0 -14 -3 -6 -6z"/>
<path d="M4380 1713 c0 -6 13 -21 29 -34 16 -13 67 -60 113 -104 46 -44 116
-109 157 -145 41 -36 101 -90 135 -121 109 -100 160 -142 396 -323 130 -99
351 -246 495 -329 147 -84 298 -165 332 -178 46 -17 21 1 -55 39 -79 41 -91
47 -237 130 -244 138 -439 273 -733 511 -140 114 -414 354 -497 436 -66 66
-135 127 -135 118z"/>
<path d="M2720 1695 c0 -10 10 -15 28 -15 26 1 26 1 8 15 -25 19 -36 19 -36 0z"/>
<path d="M3620 1695 c0 -8 2 -15 4 -15 2 0 6 7 10 15 3 8 1 15 -4 15 -6 0 -10
-7 -10 -15z"/>
<path d="M2810 1510 c0 -5 5 -10 10 -10 6 0 10 5 10 10 0 6 -4 10 -10 10 -5 0
-10 -4 -10 -10z"/>
<path d="M3351 1291 c-10 -6 -9 -10 5 -15 20 -8 25 -4 16 11 -4 7 -13 9 -21 4z"/>
<path d="M2792 1208 c-9 -9 -7 -14 6 -24 9 -8 23 -14 30 -14 18 0 15 37 -4 44
-20 8 -18 8 -32 -6z"/>
<path d="M2865 860 c-3 -5 -1 -10 4 -10 6 0 11 5 11 10 0 6 -2 10 -4 10 -3 0
-8 -4 -11 -10z"/>
<path d="M2716 663 c-3 -8 -4 -19 -1 -23 8 -13 35 -1 35 15 0 19 -27 26 -34 8z"/>
<path d="M3450 340 c0 -5 5 -10 10 -10 6 0 10 5 10 10 0 6 -4 10 -10 10 -5 0
-10 -4 -10 -10z"/>
<path d="M2765 330 c-3 -5 -1 -10 4 -10 6 0 11 5 11 10 0 6 -2 10 -4 10 -3 0
-8 -4 -11 -10z"/>
<path d="M2722 252 c2 -9 11 -17 21 -17 24 0 23 18 -3 27 -17 6 -21 4 -18 -10z"/>
</g>
</svg>
