<?xml version="1.0" standalone="no"?>
<!DOCTYPE svg PUBLIC "-//W3C//DTD SVG 20010904//EN"
 "http://www.w3.org/TR/2001/REC-SVG-20010904/DTD/svg10.dtd">
<svg version="1.0" xmlns="http://www.w3.org/2000/svg"
 width="1024.000000pt" height="1024.000000pt" viewBox="0 0 1024.000000 1024.000000"
 preserveAspectRatio="xMidYMid meet">

<g transform="translate(0.000000,1024.000000) scale(0.100000,-0.100000)"
fill="#000000" stroke="none">
<path d="M0 9635 l0 -605 40 0 c23 0 40 -5 40 -11 0 -7 7 -17 16 -24 19 -13
37 -143 22 -162 -6 -7 -3 -15 9 -22 10 -6 12 -11 6 -11 -8 0 -13 -15 -13 -40
0 -22 -5 -40 -10 -40 -7 0 -7 -6 0 -20 8 -14 8 -26 0 -40 -8 -15 -8 -20 1 -20
13 0 5 -70 -9 -79 -5 -3 -12 -13 -15 -21 -4 -12 -6 -11 -6 3 -1 17 -3 17 -23
3 -12 -9 -30 -16 -40 -16 -17 0 -18 -185 -18 -4265 l0 -4265 1670 0 c1364 0
1670 2 1670 13 0 7 -11 50 -24 95 -19 67 -21 84 -11 99 15 21 35 264 35 419 0
100 15 272 41 483 13 110 54 237 86 269 14 14 26 36 27 49 0 12 7 23 14 23 15
0 16 -32 1 -47 -8 -8 -7 -17 4 -33 8 -12 13 -30 10 -41 -3 -10 -1 -19 5 -19 8
0 20 -110 22 -207 0 -12 5 -35 11 -50 13 -32 25 -115 39 -258 5 -55 14 -143
20 -195 6 -52 13 -124 16 -160 13 -170 28 -258 62 -382 l16 -58 74 0 c72 0 73
1 66 23 -4 12 -8 30 -9 39 -1 10 -4 21 -8 24 -10 10 -9 66 1 60 5 -3 9 1 9 9
0 8 -5 15 -10 15 -5 0 -6 7 -3 16 4 9 3 22 -2 28 -5 6 -14 31 -22 56 -7 25
-24 78 -37 117 -36 110 -92 356 -108 468 -36 260 -43 749 -15 1015 5 47 16
166 25 265 43 493 53 554 92 597 15 17 15 18 -1 18 -15 0 -17 7 -11 57 4 32
13 83 21 114 8 31 14 79 13 105 l0 49 -29 -85 c-56 -169 -99 -316 -105 -360
-12 -80 -57 -295 -65 -305 -4 -5 -10 -21 -13 -35 -3 -14 -15 -61 -27 -105 -11
-44 -23 -100 -26 -125 -2 -25 -7 -52 -10 -60 -4 -8 -8 -33 -9 -55 -1 -22 -11
-60 -23 -85 -11 -25 -22 -61 -25 -80 -2 -19 -12 -62 -20 -95 -8 -33 -18 -80
-22 -105 -4 -25 -9 -52 -10 -60 -31 -155 -39 -179 -71 -226 -38 -56 -45 -90
-64 -289 -6 -66 -18 -169 -26 -228 -10 -68 -14 -145 -11 -208 3 -54 2 -99 -2
-99 -12 0 -44 298 -48 450 -6 168 7 379 47 825 15 159 26 227 60 365 76 305
107 411 236 805 36 110 91 259 120 323 14 30 40 93 58 140 19 48 55 124 80
168 25 45 46 93 46 106 0 14 14 44 31 67 17 24 39 63 50 88 24 57 58 87 77 69
16 -16 4 -95 -30 -186 -64 -175 -79 -551 -36 -912 7 -65 8 -151 3 -260 -18
-367 -15 -446 25 -689 18 -115 37 -169 103 -305 80 -162 115 -355 72 -398 -8
-8 -15 -22 -15 -30 0 -9 -4 -16 -10 -16 -5 0 -10 -14 -10 -32 0 -17 -7 -39
-15 -48 -8 -9 -17 -32 -19 -51 -9 -66 -106 -283 -131 -293 -11 -4 -19 3 -26
22 -17 47 -32 73 -42 69 -13 -4 -17 -27 -18 -107 0 -75 54 -280 96 -357 30
-58 31 -49 4 37 -36 116 -26 265 25 358 8 15 46 90 84 167 91 184 107 211 153
263 21 25 55 68 74 98 19 29 41 59 49 66 7 7 37 50 67 95 30 44 93 130 140
189 47 60 130 174 184 254 92 136 273 391 406 575 32 44 118 163 190 265 464
652 624 852 881 1105 236 233 265 259 453 400 260 196 333 245 351 238 12 -4
15 -3 10 5 -5 8 3 12 23 12 17 0 31 4 31 9 0 17 32 21 59 6 16 -8 31 -12 34
-9 3 4 15 -1 27 -9 14 -10 17 -16 9 -19 -9 -3 1 -19 26 -46 21 -23 46 -54 56
-70 11 -15 24 -36 31 -46 7 -10 24 -32 38 -47 49 -56 71 -89 65 -99 -3 -5 0
-8 7 -5 13 5 65 -62 60 -77 -1 -5 9 -13 23 -18 14 -5 25 -14 25 -19 0 -6 6 -8
14 -5 11 4 13 0 9 -17 -5 -17 -3 -20 7 -14 10 6 12 4 7 -8 -5 -12 -1 -17 13
-17 11 0 20 -6 20 -14 0 -7 11 -21 25 -30 14 -9 25 -23 25 -30 0 -8 11 -17 25
-20 14 -4 22 -12 20 -19 -5 -11 17 -27 58 -43 9 -3 17 -10 17 -15 0 -5 9 -9
21 -9 13 0 23 -8 26 -20 4 -14 11 -19 23 -15 10 3 21 1 25 -4 3 -7 0 -8 -9 -5
-10 4 -16 1 -16 -9 0 -11 9 -15 34 -13 27 3 33 0 28 -12 -4 -11 -1 -14 11 -9
12 5 17 1 17 -13 0 -14 -5 -18 -17 -13 -15 6 -16 5 -3 -9 8 -9 17 -12 18 -7 6
15 22 10 22 -6 0 -8 5 -15 10 -15 6 0 16 -11 22 -25 6 -14 17 -25 24 -25 7 0
10 -9 8 -22 -2 -13 -2 -17 2 -10 10 20 23 13 16 -10 -3 -11 -1 -19 4 -16 5 4
8 -16 7 -43 -1 -27 2 -49 7 -49 5 0 7 -6 5 -12 -2 -7 -6 -44 -9 -83 -8 -121
-27 -205 -48 -205 -11 0 -5 -40 7 -40 5 0 2 -5 -7 -11 -9 -5 -15 -16 -12 -23
3 -7 -1 -20 -8 -27 -7 -8 -14 -27 -15 -44 0 -16 -6 -31 -12 -33 -6 -2 -9 -7
-6 -12 9 -15 -17 -70 -33 -71 -13 0 -13 -2 3 -9 11 -5 15 -9 9 -9 -11 -1 -28
-37 -25 -54 1 -4 -3 -7 -9 -7 -5 0 -10 -20 -10 -45 0 -31 -5 -47 -15 -51 -18
-7 -20 -34 -2 -35 6 0 2 -4 -11 -10 -13 -5 -21 -13 -17 -18 3 -5 1 -12 -5 -16
-5 -3 -7 -17 -4 -31 5 -18 2 -24 -9 -24 -16 0 -33 -35 -29 -57 2 -7 -2 -13 -8
-13 -5 0 -10 -7 -10 -15 0 -8 -3 -15 -7 -15 -9 0 -33 -48 -33 -65 0 -7 -9 -20
-20 -30 -11 -10 -20 -26 -20 -36 0 -10 -6 -22 -13 -26 -14 -8 -39 -59 -168
-333 -110 -233 -301 -556 -442 -745 -161 -214 -317 -382 -709 -757 -174 -167
-322 -312 -377 -371 -32 -34 -33 -37 -13 -37 12 0 45 19 74 43 29 23 64 49 78
58 37 24 200 188 200 201 0 6 3 9 6 5 3 -3 23 9 43 28 50 47 73 66 111 95 62
46 131 112 280 267 145 151 240 255 240 265 0 5 7 8 15 8 8 0 15 4 15 9 0 5
12 22 28 38 36 38 62 70 94 118 14 22 40 55 56 72 17 18 43 55 59 82 15 27 31
48 35 45 4 -3 12 5 18 16 6 11 8 20 4 20 -4 0 0 8 8 18 9 9 26 40 38 67 12 28
25 52 29 55 3 3 8 14 9 24 2 11 15 36 28 55 13 20 24 40 24 44 0 5 9 21 19 36
11 15 23 39 26 54 4 15 11 27 15 27 5 0 12 10 16 22 4 13 15 34 24 48 53 77
91 142 106 181 10 24 20 46 23 49 9 8 61 114 61 125 0 6 12 18 25 28 l24 17
-1 -45 c0 -28 -5 -45 -13 -45 -7 0 -10 -11 -7 -30 3 -21 0 -32 -12 -36 -9 -3
-16 -13 -16 -21 0 -8 -7 -27 -15 -41 -8 -15 -26 -54 -40 -87 -14 -33 -30 -67
-35 -75 -5 -8 -29 -53 -53 -100 -39 -77 -54 -105 -78 -150 -11 -19 -47 -95
-68 -140 -9 -19 -21 -40 -28 -47 -6 -7 -15 -23 -19 -36 -3 -12 -12 -29 -19
-37 -16 -20 -39 -105 -32 -122 3 -8 6 -5 6 7 1 19 69 160 97 200 8 11 14 27
14 37 0 10 5 18 10 18 6 0 10 6 10 14 0 7 6 19 14 25 8 7 24 33 36 58 14 29
24 42 29 35 5 -8 12 -3 22 15 8 16 24 43 37 62 20 31 166 323 205 411 25 55
114 282 122 310 4 14 11 30 14 35 4 6 18 43 32 83 21 63 25 70 36 55 12 -15
13 -15 13 5 0 12 4 22 10 22 6 0 8 -27 4 -72 -11 -145 -46 -313 -134 -643 -45
-171 -62 -230 -65 -236 -3 -3 -21 -71 -40 -150 -46 -181 -130 -469 -149 -512
-20 -42 -66 -186 -66 -204 0 -8 -7 -27 -15 -41 -8 -15 -22 -53 -30 -84 -9 -32
-21 -60 -26 -63 -5 -4 -9 -13 -9 -21 0 -19 -133 -361 -192 -492 -31 -70 -33
-82 -17 -82 5 0 19 19 30 42 37 78 49 95 49 74 0 -17 2 -17 24 5 45 46 74 69
85 69 6 0 11 4 11 10 0 6 -10 5 -25 -2 -19 -8 -29 -8 -37 0 -12 12 -43 -11
-34 -27 3 -5 -1 -14 -9 -21 -10 -9 -15 -9 -15 -1 0 6 5 11 11 11 5 0 7 4 4 10
-3 5 5 36 19 67 14 32 63 162 110 288 78 211 136 348 121 285 -10 -37 32 30
61 100 13 30 27 54 33 53 6 -2 8 4 5 12 -3 8 3 27 14 43 11 15 35 58 53 95 27
58 49 90 49 74 0 -6 -55 -122 -80 -169 -11 -20 -20 -39 -20 -42 0 -13 42 37
51 61 5 14 12 23 15 20 3 -3 -2 -21 -11 -41 -15 -32 -15 -37 -1 -58 9 -12 16
-17 16 -11 0 6 24 36 54 67 73 74 109 123 101 136 -3 5 -3 10 2 10 17 0 63
121 93 245 17 72 37 153 44 180 8 28 17 66 21 85 3 19 22 105 41 190 20 85 38
166 40 179 3 14 9 20 14 15 18 -19 41 -204 71 -580 39 -475 46 -981 18 -1188
-16 -112 -15 -156 0 -156 4 0 14 26 23 58 14 47 17 53 23 35 4 -13 13 -23 20
-23 6 0 20 -19 31 -42 10 -24 33 -69 52 -100 l33 -58 854 0 855 0 0 5120 0
5120 -1947 -3 c-1072 -1 -1956 -5 -1965 -8 -9 -3 -25 -12 -35 -21 -29 -25 -81
-21 -99 8 l-16 24 -493 0 c-419 0 -494 -2 -505 -15 -6 -8 -9 -19 -5 -24 3 -6
-3 -23 -14 -38 -25 -37 -36 -83 -19 -83 7 0 -2 -12 -19 -26 -18 -14 -33 -31
-33 -39 0 -7 -15 -18 -32 -25 -18 -8 -40 -19 -49 -27 -21 -18 -67 3 -75 35 -4
12 -10 22 -16 22 -5 0 -14 13 -19 30 -6 16 -14 28 -19 27 -5 -1 -24 15 -44 37
-30 32 -36 46 -36 82 l0 44 -361 0 c-349 0 -362 -1 -390 -21 -16 -11 -29 -29
-29 -40 0 -12 -7 -19 -20 -19 -11 0 -20 -7 -20 -15 0 -8 -6 -15 -14 -15 -23 0
-80 27 -103 49 -15 14 -23 17 -26 8 -3 -8 -17 0 -39 20 l-34 33 -1186 0 -1187
0 10 -29 c6 -17 19 -47 30 -67 10 -21 19 -49 19 -62 0 -13 7 -51 15 -84 9 -33
13 -68 10 -78 -3 -10 -1 -21 5 -25 5 -3 10 -15 10 -26 0 -11 7 -22 15 -25 11
-5 12 -10 2 -25 -9 -15 -9 -23 1 -39 7 -12 8 -20 2 -20 -5 0 -10 -18 -10 -40
0 -22 3 -40 8 -40 12 0 8 -99 -4 -104 -6 -2 -14 -20 -18 -40 -8 -42 -12 -45
-76 -55 -37 -6 -50 -5 -50 4 0 7 -7 18 -15 25 -8 7 -20 30 -27 51 -6 22 -17
39 -25 39 -7 0 -13 6 -13 14 0 14 -76 36 -126 36 -14 0 -32 6 -40 13 -50 41
-77 72 -89 102 -8 18 -19 36 -25 40 -9 5 -143 274 -172 345 -6 14 -18 40 -27
58 l-16 32 -272 0 c-150 0 -273 -1 -273 -3 0 -1 9 -20 20 -42 29 -57 26 -110
-8 -144 -15 -15 -34 -30 -42 -34 -11 -4 -12 -8 -3 -14 22 -16 -1 -33 -38 -27
-27 5 -40 14 -54 39 -9 19 -15 41 -12 49 4 9 2 16 -4 16 -8 0 -9 25 -4 80 l7
80 -51 0 -51 0 0 -605z m3438 468 c5 -18 -23 -16 -39 3 -11 14 -10 15 11 12
13 -1 25 -9 28 -15z m55 -29 c38 -13 54 -26 87 -75 22 -32 40 -67 40 -77 0
-10 9 -47 21 -82 11 -34 18 -68 15 -76 -3 -7 -1 -16 5 -20 5 -3 9 -13 8 -22
-1 -10 -1 -24 0 -32 1 -12 3 -13 10 -1 5 8 7 -5 3 -35 -2 -27 -8 -51 -12 -54
-4 -3 -10 -22 -14 -42 -7 -37 -49 -98 -67 -98 -5 0 -26 -8 -47 -17 -43 -19
-153 -40 -199 -37 -18 1 -46 2 -63 3 -19 1 -30 6 -30 16 0 8 -7 15 -15 15 -9
0 -15 9 -15 24 0 14 -4 27 -9 30 -24 15 -12 226 21 339 6 23 13 49 14 57 2 8
17 27 33 41 17 14 31 28 31 32 0 3 11 17 25 31 14 14 25 34 25 44 0 25 17 39
55 45 17 2 30 5 31 6 0 0 21 -6 47 -15z m-1103 -225 c76 -30 96 -33 189 -34
l104 0 10 -30 c6 -16 13 -32 17 -35 13 -10 30 -49 30 -71 0 -12 7 -31 17 -41
9 -10 12 -18 6 -18 -6 0 -13 -33 -17 -72 -4 -40 -9 -88 -11 -107 -6 -44 9 -61
54 -59 20 0 47 -4 59 -11 12 -7 27 -9 32 -6 5 3 26 -4 47 -15 21 -11 43 -20
49 -20 22 0 104 -41 99 -50 -3 -5 5 -10 17 -12 24 -3 38 -28 16 -28 -8 0 -14
-9 -14 -20 0 -11 6 -20 14 -20 10 0 12 -22 8 -110 -3 -61 -8 -121 -11 -135 -3
-14 -7 -36 -10 -50 -4 -16 -10 -23 -17 -19 -6 4 -8 3 -5 -3 4 -6 -2 -31 -12
-55 -11 -23 -20 -36 -21 -28 -1 12 -3 12 -8 -1 -10 -23 -76 -95 -106 -114 -14
-10 -33 -14 -42 -11 -8 3 -25 0 -37 -6 -12 -7 -25 -11 -29 -10 -4 1 -28 -10
-53 -23 -25 -14 -45 -22 -45 -18 0 4 -6 -2 -14 -12 -9 -13 -25 -18 -57 -18
-39 1 -50 -4 -82 -36 -20 -21 -39 -51 -41 -67 -3 -16 -14 -64 -25 -108 -12
-43 -21 -86 -21 -96 0 -10 -7 -20 -15 -24 -8 -3 -15 -14 -15 -25 0 -14 -9 -23
-26 -27 -21 -5 -24 -11 -19 -31 3 -15 2 -22 -4 -18 -6 3 -20 0 -32 -7 -17 -10
-23 -10 -26 -1 -3 7 -14 11 -26 9 -12 -3 -59 -10 -104 -17 -74 -11 -84 -11
-101 4 -10 9 -28 17 -39 17 -13 0 -23 8 -27 23 -3 12 -14 32 -26 44 -11 12
-20 31 -20 41 0 13 -9 22 -25 26 -15 4 -31 20 -42 44 -9 20 -20 39 -23 42 -19
17 -41 65 -37 81 3 10 1 22 -4 25 -5 3 -9 40 -10 82 0 67 -26 202 -41 217 -9
10 0 197 11 208 6 6 11 19 11 29 0 10 5 18 10 18 6 0 20 16 31 35 12 19 25 35
30 35 5 0 18 9 29 20 11 11 29 20 40 20 11 0 20 4 20 8 0 13 74 34 78 22 5
-15 29 -12 47 6 11 12 13 20 6 27 -6 6 -11 21 -11 33 0 13 -4 26 -10 29 -12 7
-12 108 -1 215 5 42 4 83 -1 93 -5 10 -5 17 0 17 5 0 13 31 16 70 4 39 14 76
22 84 8 8 14 19 14 25 0 14 58 98 73 105 21 9 70 -1 157 -35z m1984 -360 c14
-11 26 -27 26 -35 0 -8 4 -14 8 -14 16 0 45 -125 48 -210 2 -48 8 -98 13 -111
l10 -24 0 23 c1 28 21 19 21 -9 0 -12 7 -19 20 -19 11 0 20 7 20 15 0 8 5 15
10 15 6 0 10 -12 10 -26 0 -26 16 -65 32 -75 18 -11 -4 -59 -46 -98 -22 -22
-71 -62 -109 -90 -65 -48 -67 -49 -61 -23 4 15 11 35 15 44 14 27 13 28 -63
28 -40 0 -81 1 -91 1 -11 0 -25 -8 -33 -18 -12 -15 -15 -16 -23 -3 -5 8 -8 17
-5 21 7 11 -22 18 -37 8 -8 -5 -24 -9 -36 -9 -20 0 -23 -5 -23 -40 0 -22 -4
-40 -10 -40 -5 0 -10 18 -10 40 0 29 -4 40 -15 40 -8 0 -15 8 -15 18 0 13 -13
24 -40 35 -28 11 -40 21 -40 35 0 12 -7 27 -15 36 -21 21 -19 36 5 36 18 0 19
3 10 20 -7 12 -7 27 -2 38 5 9 7 23 5 30 -3 6 0 12 6 12 6 0 11 6 11 13 0 8
19 34 43 60 65 71 77 86 77 97 0 6 11 15 25 22 13 6 22 14 20 18 -3 5 2 10 10
14 8 3 15 11 15 18 0 7 31 36 67 63 98 73 107 76 147 44z m-3814 1 c0 -5 -7
-10 -15 -10 -8 0 -15 5 -15 10 0 6 7 10 15 10 8 0 15 -4 15 -10z m143 -56 c43
-38 45 -42 29 -57 -15 -16 -15 -17 1 -17 13 0 17 -9 17 -33 0 -19 6 -55 14
-80 8 -26 12 -47 10 -47 -2 0 21 -25 51 -55 30 -30 55 -58 55 -63 0 -4 18 -21
40 -38 22 -16 40 -33 40 -38 0 -5 11 -19 25 -32 24 -22 26 -32 29 -115 3 -67
0 -92 -10 -96 -7 -2 -17 -18 -23 -34 -11 -31 -60 -59 -104 -59 -31 0 -77 36
-77 59 0 10 -9 26 -20 36 -11 10 -19 23 -17 29 2 6 -4 23 -15 38 -11 16 -16
32 -13 38 3 5 -1 10 -9 10 -11 0 -16 10 -16 34 0 18 -6 39 -14 45 -8 7 -17 27
-20 46 -5 24 -21 45 -55 74 -27 23 -56 41 -65 41 -10 0 -16 8 -16 21 0 12 -8
23 -19 26 -22 6 -49 64 -66 140 -12 54 1 113 24 113 6 0 8 6 5 13 -3 9 14 18
53 28 90 23 114 19 166 -27z m3917 -484 c0 -5 -2 -10 -4 -10 -3 0 -8 5 -11 10
-3 6 -1 10 4 10 6 0 11 -4 11 -10z m-266 -166 c9 -24 7 -27 -9 -10 -17 17 -19
26 -6 26 5 0 12 -7 15 -16z m-885 -263 c11 -7 21 -18 21 -26 0 -10 10 -15 30
-15 29 0 30 -1 30 -48 0 -27 -6 -57 -15 -68 -14 -18 -14 -18 -15 9 0 15 -4 27
-10 27 -5 0 -10 -18 -10 -40 0 -30 4 -40 16 -40 12 0 15 -6 9 -22 -14 -46 -18
-138 -6 -138 8 0 10 -8 6 -20 -4 -12 -1 -28 6 -36 10 -13 10 -17 -1 -24 -11
-7 -10 -11 3 -25 10 -9 18 -19 18 -23 12 -59 18 -162 10 -162 -4 0 -9 -23 -10
-50 -1 -32 -11 -71 -27 -103 -27 -55 -35 -83 -35 -132 0 -16 -5 -35 -11 -42
-6 -8 -8 -16 -5 -19 3 -3 1 -20 -4 -37 -6 -18 -12 -43 -15 -57 -3 -14 -9 -29
-15 -35 -5 -5 -9 -22 -9 -37 0 -16 -12 -52 -27 -81 -15 -29 -31 -61 -36 -71
-8 -19 -7 -19 13 -1 18 17 20 17 20 1 0 -10 -7 -25 -16 -33 -13 -14 -17 -14
-25 -2 -6 10 -9 10 -9 2 0 -7 -15 -33 -32 -58 -32 -43 -35 -45 -75 -40 -27 3
-43 0 -46 -8 -2 -7 -10 -1 -18 13 -10 18 -13 54 -11 128 1 62 -2 111 -9 124
-9 16 -8 22 2 29 11 7 11 9 1 9 -7 0 -17 11 -22 25 -5 14 -16 25 -24 25 -9 0
-20 9 -26 20 -16 30 -66 52 -101 45 -16 -4 -29 -10 -29 -14 0 -4 -18 -26 -40
-50 -22 -23 -40 -50 -40 -59 -1 -24 -56 -82 -79 -82 -11 0 -32 -6 -48 -14 -32
-16 -156 -46 -193 -47 -34 0 -96 -32 -92 -47 1 -7 -11 -15 -28 -19 -30 -5 -52
-23 -30 -23 8 0 7 -5 -2 -13 -7 -8 -37 -16 -66 -20 -45 -5 -55 -3 -74 16 -50
48 -69 94 -75 180 -4 48 -2 67 6 67 8 0 11 17 11 48 -1 26 3 61 9 77 28 82 60
183 66 210 8 34 32 65 52 65 7 0 13 5 13 10 0 6 12 23 27 37 15 16 21 29 14
31 -17 6 -3 22 20 22 10 0 27 9 36 20 10 11 27 20 39 20 23 0 114 79 114 98 0
7 4 12 9 12 5 0 12 9 16 20 3 11 11 19 17 17 6 -1 20 15 32 36 12 21 34 46 49
56 15 9 24 20 21 24 -7 6 118 137 131 137 5 0 25 19 46 43 21 23 39 39 39 35
0 -4 18 11 40 32 23 22 44 40 48 40 4 0 20 11 36 25 16 14 39 25 50 25 12 0
29 8 37 18 14 16 31 18 146 16 74 -1 139 -7 152 -13z m2301 -181 c0 -5 -9 -6
-20 -3 -11 3 -17 9 -15 14 7 10 35 1 35 -11z m91 10 c10 0 19 -5 19 -11 0 -5
-4 -8 -8 -5 -4 2 -13 -4 -20 -15 -7 -10 -8 -19 -3 -19 5 0 11 5 13 11 2 6 19
13 38 15 19 2 44 6 55 9 11 3 14 2 8 -1 -28 -13 -12 -26 25 -21 20 3 31 3 25
0 -16 -6 -17 -23 -3 -23 16 0 143 -60 162 -77 9 -8 22 -12 27 -8 6 3 18 -1 27
-9 8 -9 28 -16 44 -16 16 0 32 -5 35 -10 4 -6 11 -7 17 -4 6 4 8 2 5 -3 -9
-14 11 -30 46 -38 20 -6 26 -12 22 -23 -3 -9 -3 -13 1 -9 9 9 47 -36 71 -82
10 -20 21 -37 25 -39 11 -5 58 -101 58 -119 0 -15 2 -16 10 -3 8 11 10 3 11
-30 0 -92 4 -150 10 -150 3 0 10 5 16 11 9 9 10 6 6 -10 -3 -12 -1 -32 5 -44
13 -25 23 -245 11 -252 -4 -3 -3 -22 1 -42 11 -45 -6 -133 -25 -133 -7 0 -18
6 -24 14 -19 23 -82 49 -131 53 -99 9 -391 2 -407 -10 -9 -6 -13 -5 -13 4 0
11 -2 11 -10 -1 -6 -10 -10 -11 -10 -3 0 9 -11 6 -35 -7 -36 -20 -36 -20 -25
0 13 25 2 26 -16 3 -11 -14 -13 -15 -14 -3 0 10 -5 7 -16 -8 -8 -12 -20 -20
-25 -17 -5 4 -9 1 -9 -6 0 -6 -8 -9 -20 -6 -11 3 -20 0 -20 -6 0 -6 -7 -2 -15
9 -15 19 -16 19 -14 -1 1 -11 0 -29 -1 -40 l-1 -20 -9 20 c-7 16 -9 12 -9 -18
-1 -23 3 -36 9 -32 6 3 7 -1 4 -9 -3 -9 -1 -16 6 -16 6 0 9 -4 5 -9 -3 -5 -1
-12 5 -16 15 -9 12 -25 -6 -25 -8 0 -13 -4 -9 -9 3 -5 1 -12 -5 -16 -14 -8
-13 -45 1 -45 7 0 9 -9 6 -21 -4 -14 -2 -19 7 -16 7 3 19 -3 26 -13 7 -10 20
-16 28 -13 11 5 13 1 8 -14 -4 -13 2 -26 19 -41 32 -28 31 -36 -2 -49 -26 -10
-26 -12 -8 -18 11 -3 29 -19 40 -35 11 -17 24 -29 30 -28 5 1 28 -7 50 -19 63
-32 272 -93 261 -75 -7 11 128 46 154 39 26 -7 35 9 13 22 -15 9 -13 10 14 11
17 0 35 5 38 10 9 14 27 1 21 -15 -3 -8 -1 -15 4 -17 5 -2 11 -14 12 -28 2
-14 8 -28 13 -32 6 -4 -1 -8 -15 -9 -14 0 -19 -3 -12 -6 6 -2 12 -11 12 -18 0
-7 5 -15 10 -17 7 -2 7 -15 0 -38 -6 -22 -6 -46 0 -70 6 -23 6 -36 0 -38 -13
-5 -13 -49 -1 -56 12 -8 1 -49 -15 -59 -15 -9 -8 -67 10 -80 6 -5 2 -6 -10 -2
-19 5 -21 2 -18 -25 3 -22 0 -30 -12 -30 -13 0 -15 -7 -10 -30 4 -22 2 -30 -9
-30 -8 0 -15 6 -16 13 0 7 -3 6 -6 -3 -3 -8 -17 -25 -30 -37 -13 -12 -22 -27
-21 -34 2 -6 -3 -14 -11 -17 -8 -3 -11 0 -7 7 10 16 -3 14 -20 -3 -8 -8 -14
-22 -14 -31 0 -13 -6 -16 -26 -11 -17 5 -23 3 -19 -4 3 -6 -3 -10 -14 -10 -12
0 -21 -7 -21 -15 0 -8 -7 -15 -15 -15 -8 0 -15 5 -15 10 0 16 -27 12 -34 -6
-5 -13 -11 -11 -40 11 -53 40 -109 66 -119 56 -5 -5 -16 -7 -24 -4 -11 4 -9
-6 8 -36 17 -29 29 -40 42 -37 18 4 24 -9 8 -18 -5 -3 3 -19 19 -36 28 -29 43
-62 54 -113 l7 -28 24 28 c23 25 26 26 35 11 8 -13 16 -15 34 -8 21 8 25 5 31
-23 5 -18 9 -43 9 -57 1 -16 8 -26 21 -28 17 -3 17 -1 5 8 -13 9 -13 12 3 21
9 5 17 21 17 35 0 21 -4 24 -20 19 -14 -5 -20 -2 -20 9 0 18 35 22 46 5 3 -6
15 -9 25 -6 16 4 18 1 12 -21 -3 -15 -9 -29 -13 -32 -4 -3 -9 -15 -12 -27 -4
-16 -2 -20 8 -16 8 3 14 1 14 -5 0 -14 -26 -33 -34 -25 -3 4 -5 -4 -4 -17 2
-12 -3 -25 -11 -28 -10 -3 -12 1 -8 17 3 14 1 21 -6 18 -6 -2 -12 -16 -14 -31
-3 -23 -1 -27 11 -23 30 12 16 -10 -24 -38 -22 -15 -40 -34 -40 -41 0 -8 -7
-14 -16 -14 -8 0 -12 5 -9 10 3 6 1 10 -5 10 -6 0 -10 -8 -8 -17 2 -12 -3 -18
-14 -17 -20 2 -24 -22 -5 -29 6 -3 1 -6 -11 -6 -15 -1 -26 -9 -29 -21 -3 -11
-17 -23 -32 -27 -33 -8 -81 -32 -99 -50 -8 -7 -27 -20 -43 -28 -16 -9 -29 -20
-29 -25 0 -6 -7 -10 -15 -10 -9 0 -33 -11 -55 -25 -23 -14 -55 -29 -73 -32
-18 -4 -49 -19 -70 -34 -21 -15 -55 -33 -75 -40 -20 -7 -48 -20 -62 -31 -14
-10 -34 -20 -45 -23 -11 -2 -37 -9 -57 -14 -23 -5 -38 -5 -38 0 0 11 -59 7
-79 -6 -9 -5 -19 -2 -27 10 -7 10 -20 15 -29 12 -8 -4 -15 -2 -15 3 0 6 -9 10
-19 10 -11 0 -21 4 -23 8 -7 18 -68 52 -92 52 -16 0 -26 6 -26 14 0 10 -7 12
-22 8 -14 -3 -19 -1 -14 6 3 6 0 14 -7 19 -7 4 -23 28 -34 53 -20 44 -22 73
-8 115 5 16 5 17 -4 5 -18 -26 -23 -3 -6 30 17 33 10 34 -27 2 -16 -14 -18
-13 -18 2 0 10 -5 14 -12 10 -6 -4 -8 -3 -5 3 4 6 -5 21 -18 33 -14 13 -25 31
-25 40 0 9 -6 22 -12 29 -11 12 -10 13 6 7 10 -3 25 -1 32 5 11 9 14 8 14 -6
0 -13 3 -15 13 -6 17 13 27 5 28 -23 0 -20 1 -20 11 2 12 25 15 25 78 11 25
-5 70 -12 100 -15 59 -5 173 -22 204 -31 14 -4 18 -1 13 11 -4 9 -1 16 6 17 7
0 3 4 -8 8 -18 7 -15 10 20 28 22 12 59 26 82 32 22 6 44 18 47 26 3 8 12 15
20 15 19 0 146 62 146 72 0 3 -6 8 -12 11 -7 2 -5 3 5 1 9 -1 32 5 49 14 18 9
46 15 63 15 73 -3 95 -7 95 -17 0 -8 2 -8 8 0 4 6 15 13 25 17 28 10 20 36
-17 54 -28 13 -44 14 -86 6 -42 -8 -67 -7 -128 8 -94 21 -161 43 -198 62 -43
22 -174 41 -174 26 0 -5 -7 -6 -16 -2 -8 3 -13 12 -10 19 3 8 -1 14 -10 14
-26 0 -94 40 -94 55 0 8 6 15 13 15 8 0 7 4 -3 11 -11 8 -7 9 18 5 18 -3 31
-2 28 2 -8 14 78 8 92 -5 25 -24 92 -11 92 18 0 11 4 19 9 19 5 0 12 8 15 18
10 30 64 55 127 56 42 1 64 7 79 21 l22 20 -29 12 c-15 7 -41 12 -58 13 -20 0
-26 3 -17 9 10 6 6 10 -13 14 -35 6 -105 -3 -105 -14 0 -17 -35 -9 -60 14 -14
12 -31 22 -37 23 -30 2 -36 4 -30 10 3 4 -1 13 -9 21 -8 8 -12 19 -8 24 3 5 7
22 10 37 2 15 20 59 39 97 19 39 35 78 35 86 0 9 7 29 15 45 8 16 17 50 20 74
10 70 12 82 25 135 7 28 13 57 14 65 1 8 8 28 14 43 7 16 9 33 6 38 -3 6 1 20
10 33 8 13 12 33 9 45 -3 12 0 27 6 34 6 8 8 16 5 19 -8 8 -11 88 -3 88 4 0 9
8 13 18 3 9 9 24 12 32 3 10 0 9 -9 -3 -24 -30 -65 3 -58 46 1 4 -5 15 -14 23
-13 14 -15 14 -15 -2 0 -14 -3 -15 -12 -6 -8 8 -9 18 0 36 9 20 7 27 -9 42
-12 11 -17 24 -13 37 4 13 2 17 -6 12 -7 -4 -13 1 -17 14 -3 11 -9 18 -14 15
-13 -8 -11 10 4 25 10 11 8 11 -10 2 -20 -10 -22 -9 -16 6 6 16 5 16 -10 4
-15 -12 -17 -11 -17 5 0 11 -4 15 -8 9 -16 -22 -37 -12 -39 18 -3 38 -9 44
-33 29 -11 -7 -20 -8 -20 -4 0 15 -48 62 -63 62 -23 0 -37 24 -30 51 6 22 5
23 -11 10 -19 -16 -21 -15 -30 22 -4 16 -2 27 4 27 5 0 10 9 10 19 0 23 16 36
25 21 3 -5 12 -10 18 -10 22 1 -26 30 -49 30 -12 0 -27 7 -34 15 -9 10 -9 15
-1 15 6 0 11 -4 11 -9 0 -4 20 -8 45 -7 30 0 45 5 45 13 0 7 -8 13 -17 14 -12
1 -9 4 7 8 15 4 26 15 28 29 3 16 10 22 28 22 22 0 24 3 18 23 -3 12 -12 29
-20 37 -11 14 -10 20 13 45 17 18 23 30 15 33 -17 5 -15 29 3 35 18 8 27 -6
19 -28 -5 -13 -2 -15 22 -9 37 9 43 14 16 14 -16 0 -20 5 -17 23 6 38 17 67
26 67 5 0 9 7 9 15 0 8 -5 15 -11 15 -5 0 -7 5 -3 12 6 9 9 9 12 0 2 -7 8 -12
13 -12 6 0 7 5 4 10 -3 6 1 10 9 10 8 0 18 -4 21 -10 3 -5 10 -10 16 -10 19 0
8 18 -26 44 -20 15 -34 22 -33 15 2 -6 -2 -13 -9 -16 -8 -3 -11 5 -8 24 1 16
8 27 15 25 8 -2 10 5 6 21 -5 20 -2 26 19 29 14 3 26 0 29 -8 6 -16 -10 -28
-24 -19 -17 11 -11 -25 8 -46 12 -12 25 -17 35 -13 10 3 17 1 17 -5 0 -6 5
-11 11 -11 8 0 8 4 0 14 -8 10 -9 16 -1 21 17 10 12 67 -7 81 -14 10 -16 16
-7 31 12 18 36 21 67 8 10 -4 17 -3 17 4 0 6 -8 11 -17 11 -14 0 -12 4 7 25
13 14 26 22 29 19 3 -3 -1 -9 -9 -14 -25 -15 3 -35 29 -21 30 16 26 -3 -4 -23
-14 -9 -25 -23 -25 -31 0 -9 -9 -23 -20 -32 -27 -24 -25 -40 6 -47 32 -9 41
-1 24 19 -11 13 -10 18 10 32 13 9 32 25 42 35 9 9 29 20 43 24 14 3 28 10 31
15 6 11 24 2 24 -12 0 -6 -4 -7 -10 -4 -5 3 -10 2 -10 -4 0 -11 53 -5 80 10
12 6 10 10 -10 17 -23 9 -22 9 15 17 22 5 45 9 50 9 6 1 9 10 8 19 -1 12 4 17
14 13 8 -3 23 -6 34 -6z m-504 -112 c-3 -8 -6 -5 -6 6 -1 11 2 17 5 13 3 -3 4
-12 1 -19z m83 -78 c0 -5 -6 -10 -14 -10 -8 0 -18 5 -21 10 -3 6 3 10 14 10
12 0 21 -4 21 -10z m-130 -10 c0 -5 -7 -10 -16 -10 -8 0 -12 5 -9 10 3 6 10
10 16 10 5 0 9 -4 9 -10z m-193 -466 c-3 -3 -12 -4 -19 -1 -8 3 -5 6 6 6 11 1
17 -2 13 -5z m-12 -34 c-3 -5 -1 -11 5 -15 5 -3 10 -15 10 -27 0 -17 -2 -18
-15 -8 -17 14 -21 75 -5 65 6 -4 8 -10 5 -15z m-40 -30 c3 -5 1 -10 -4 -10 -6
0 -11 5 -11 10 0 6 2 10 4 10 3 0 8 -4 11 -10z m44 -431 c1 8 4 12 7 8 3 -3 1
-14 -5 -24 -6 -11 -11 -13 -11 -5 0 7 -4 11 -9 8 -5 -4 -7 4 -3 16 5 21 6 21
13 2 4 -11 8 -13 8 -5z m-4949 -3 c0 -9 7 -12 18 -9 22 5 47 -49 56 -123 6
-47 5 -51 -19 -62 -14 -7 -32 -12 -40 -12 -9 0 -15 -10 -15 -25 0 -14 -3 -25
-7 -25 -14 1 -49 34 -58 55 -8 19 -9 19 -12 -2 -7 -38 -23 -26 -23 17 0 25 -5
40 -12 41 -7 0 -3 5 9 11 12 6 35 40 53 79 30 65 50 87 50 55z m5069 -100 c18
-22 16 -23 -49 -18 l-56 4 36 39 35 40 10 -24 c6 -13 16 -32 24 -41z m1244 17
c-3 -8 4 -13 18 -13 17 0 20 -3 11 -9 -10 -6 -3 -10 23 -15 26 -5 35 -11 31
-22 -3 -9 1 -14 12 -14 15 0 15 -2 2 -10 -13 -9 -13 -10 0 -10 8 0 4 -6 -10
-13 -20 -10 -30 -10 -49 0 -14 6 -28 10 -33 7 -4 -3 -8 0 -8 5 0 6 -7 11 -15
11 -8 0 -15 5 -15 11 0 5 -4 8 -8 5 -11 -7 -93 33 -110 54 -8 8 -11 10 -8 3 4
-7 -1 -9 -16 -5 -19 5 -20 7 -5 10 9 2 17 7 17 10 0 4 38 7 84 7 63 0 82 -3
79 -12z m-6393 -13 c0 -5 -4 -10 -10 -10 -5 0 -10 5 -10 10 0 6 5 10 10 10 6
0 10 -4 10 -10z m5080 -55 c0 -1 -9 -5 -20 -8 -12 -3 -20 0 -20 8 0 8 8 11 20
8 11 -3 20 -7 20 -8z m30 -20 c0 -18 12 -19 28 -3 9 9 12 9 12 -1 0 -8 7 -10
20 -6 16 5 20 2 21 -17 0 -20 1 -21 8 -5 6 17 8 17 20 3 18 -22 5 -55 -19 -49
-15 4 -20 0 -20 -13 0 -16 2 -17 10 -4 8 13 10 12 10 -3 0 -21 -22 -47 -40
-47 -6 0 -8 -5 -5 -10 4 -6 1 -17 -5 -25 -7 -8 -10 -25 -7 -37 4 -13 -1 -32
-13 -48 -10 -14 -22 -39 -26 -54 -5 -20 -9 -24 -15 -14 -12 18 -12 -7 0 -30 9
-18 1 -52 -14 -55 -5 -1 -8 -16 -6 -33 1 -21 -3 -33 -13 -37 -9 -4 -16 -11
-16 -17 0 -14 -86 -100 -100 -100 -6 0 -8 -4 -5 -10 3 -6 -4 -10 -17 -10 -18
0 -20 -2 -8 -10 12 -8 10 -10 -10 -10 -15 0 -31 -5 -37 -11 -8 -8 -20 -9 -42
-1 -19 7 -33 7 -36 1 -10 -16 -37 -10 -42 10 -3 11 -16 22 -29 25 -15 4 -21
11 -18 21 4 8 0 23 -7 32 -10 12 -11 17 -2 20 8 3 6 17 -8 50 -11 25 -17 53
-14 62 3 10 -1 26 -9 36 -10 14 -11 24 -4 32 7 9 7 13 -1 13 -9 0 -9 5 0 21 8
15 8 19 0 15 -6 -4 -11 -1 -12 6 0 7 -3 26 -5 41 -3 18 -1 26 5 23 5 -4 9 2 8
12 -1 13 -7 18 -19 14 -19 -5 -25 12 -8 23 6 3 10 15 10 26 0 11 11 37 25 58
22 32 30 37 53 33 15 -3 36 -11 47 -17 23 -15 263 -13 274 2 3 4 29 8 58 8 49
0 51 1 48 25 -2 19 -8 24 -24 23 -13 -2 -20 1 -16 7 3 6 1 10 -4 10 -6 0 -11
-4 -11 -10 0 -5 -4 -10 -10 -10 -18 0 -10 19 11 25 12 4 18 12 15 21 -3 8 -1
14 4 14 6 0 10 -7 10 -15z m880 -92 c0 -21 7 -51 15 -66 8 -16 11 -27 7 -25
-4 2 -20 10 -37 18 -30 15 -54 38 -55 53 0 5 5 5 10 2 6 -3 10 1 10 10 0 19
21 44 38 45 7 0 12 -14 12 -37z m169 3 c0 -14 -2 -16 -6 -6 -3 8 -10 21 -16
28 -7 9 -6 11 7 6 9 -3 16 -16 15 -28z m114 -48 c2 -7 0 -21 -5 -30 -6 -13 -5
-18 4 -18 7 -1 -6 -10 -30 -21 -23 -11 -47 -17 -52 -14 -6 3 -10 2 -10 -3 0
-5 -11 -7 -25 -4 -19 3 -25 0 -26 -14 -1 -16 -2 -16 -6 -2 -5 21 -43 19 -43
-2 -1 -12 -3 -11 -11 4 -15 25 5 38 50 32 49 -6 88 11 112 50 22 36 34 42 42
22z m-128 -147 c-3 -5 -1 -12 5 -16 5 -3 10 -2 10 3 0 11 29 9 55 -5 11 -6 26
-8 34 -5 8 3 12 -1 9 -9 -7 -20 -63 -28 -111 -16 -54 13 -70 27 -31 28 16 0
23 3 15 6 -11 5 -11 7 0 14 18 11 22 11 14 0z m-1322 -398 c-7 -2 -19 -2 -25
0 -7 3 -2 5 12 5 14 0 19 -2 13 -5z m157 3 c0 -2 -7 -7 -16 -10 -8 -3 -12 -2
-9 4 6 10 25 14 25 6z m-50 -21 c8 -9 8 -15 2 -15 -6 0 -19 -3 -29 -6 -16 -5
-16 -4 2 11 20 17 20 17 -3 12 -12 -3 -20 -1 -16 4 8 14 30 11 44 -6z m-3522
-11 c36 -18 40 -31 15 -50 -13 -10 -14 -13 -4 -14 18 0 35 -22 73 -95 40 -79
37 -134 -12 -188 -30 -33 -36 -43 -33 -52 1 -6 -11 -18 -27 -27 -17 -9 -35
-29 -40 -43 -6 -14 -14 -24 -20 -20 -5 3 -17 -7 -26 -22 -36 -58 -56 -73 -96
-73 -42 0 -52 22 -21 45 14 10 16 32 16 141 0 71 -3 154 -6 184 -9 91 -7 141
9 171 20 40 48 53 86 40 34 -12 52 -6 28 9 -26 17 24 12 58 -6z m3469 -10 c-3
-3 -12 -4 -19 -1 -8 3 -5 6 6 6 11 1 17 -2 13 -5z m-4237 -94 c0 -29 4 -40 15
-40 20 0 21 -73 1 -89 -11 -9 -15 -9 -18 0 -2 7 -15 2 -32 -15 -16 -14 -33
-26 -37 -26 -5 0 -9 29 -9 65 0 63 1 65 25 65 23 0 25 4 25 40 0 29 4 40 15
40 11 0 15 -11 15 -40z m4865 -20 c-3 -5 -14 -10 -23 -10 -10 0 -35 -9 -57
-20 -51 -26 -55 -25 -24 4 15 14 42 26 60 29 19 2 38 5 42 5 5 1 5 -2 2 -8z
m-5025 -155 c0 -14 -4 -25 -10 -25 -5 0 -10 -18 -10 -40 0 -22 5 -40 10 -40 6
0 10 -7 10 -15 0 -11 11 -15 40 -15 29 0 40 4 40 15 0 23 32 17 69 -14 28 -23
34 -36 39 -79 4 -51 4 -52 -22 -52 -14 0 -26 -4 -26 -9 0 -5 -12 -16 -26 -26
-20 -13 -28 -14 -34 -5 -5 9 -28 10 -84 5 -65 -6 -76 -10 -76 -26 0 -11 -6
-19 -12 -19 -21 1 -48 67 -48 116 0 33 -4 45 -12 41 -10 -3 -12 8 -10 44 3 37
8 50 23 54 14 5 18 12 14 26 -5 14 -2 19 14 19 11 0 37 16 57 35 42 42 54 44
54 10z m30 -65 c0 -29 -4 -40 -15 -40 -11 0 -15 11 -15 40 0 29 4 40 15 40 11
0 15 -11 15 -40z m4160 -3 c0 -7 -6 -22 -14 -32 -14 -19 -14 -19 -13 5 0 14
-3 33 -8 44 -7 16 -6 17 13 7 12 -7 22 -17 22 -24z m20 23 c0 -5 -2 -10 -4
-10 -3 0 -8 5 -11 10 -3 6 -1 10 4 10 6 0 11 -4 11 -10z m10 -45 c0 -14 -4
-25 -10 -25 -11 0 -14 33 -3 43 11 11 13 8 13 -18z m1490 -125 c0 -5 -2 -10
-4 -10 -3 0 -8 5 -11 10 -3 6 -1 10 4 10 6 0 11 -4 11 -10z m-1090 -30 c0 -5
-4 -10 -10 -10 -5 0 -10 5 -10 10 0 6 5 10 10 10 6 0 10 -4 10 -10z m22 -32
c-7 -7 -12 -8 -12 -2 0 14 12 26 19 19 2 -3 -1 -11 -7 -17z m48 6 c0 -13 3
-14 15 -4 23 19 33 -17 11 -38 -16 -16 -17 -16 -10 1 6 16 -3 22 -33 18 -7 -1
-9 7 -6 19 6 24 23 27 23 4z m208 -34 c3 -9 6 -9 13 1 7 11 9 11 9 1 0 -10 5
-10 20 -2 16 9 22 8 26 -5 7 -18 30 -20 37 -2 4 9 6 9 6 -1 1 -19 -29 -27 -50
-13 -15 9 -19 8 -19 -4 0 -8 -9 -15 -21 -15 -11 0 -17 -4 -14 -10 3 -5 2 -10
-4 -10 -5 0 -11 4 -13 9 -5 15 -58 22 -58 8 0 -8 -3 -7 -9 2 -7 11 -10 10 -18
-4 -7 -13 -12 -14 -18 -6 -4 7 1 18 11 27 15 11 16 13 3 8 -18 -6 -34 10 -24
25 8 14 118 6 123 -9z m157 -8 c-3 -3 -11 0 -18 7 -9 10 -8 11 6 5 10 -3 15
-9 12 -12z m-4475 -96 c0 -8 5 -16 11 -18 9 -3 8 -14 -2 -41 -15 -43 -29 -48
-29 -12 0 23 -4 25 -40 25 -29 0 -40 4 -40 15 0 8 -5 15 -11 15 -8 0 -8 5 1
15 17 20 110 21 110 1z m5087 -273 c-15 -21 -41 -57 -58 -81 -45 -62 -27 -64
34 -4 29 29 56 49 60 46 12 -13 8 -52 -8 -68 -19 -18 -19 -24 -1 -42 13 -13
13 -20 0 -55 -17 -49 -18 -62 -4 -54 16 10 11 -25 -14 -97 -23 -70 -19 -87 11
-42 l17 26 17 -24 c13 -16 17 -34 14 -62 -5 -33 -3 -37 10 -26 12 10 15 10 15
-4 0 -12 5 -14 25 -6 21 8 25 7 25 -10 0 -11 7 -20 15 -20 8 0 15 -7 15 -15 0
-8 5 -15 10 -15 6 0 10 -9 10 -20 0 -11 7 -20 15 -20 8 0 23 -19 34 -42 12
-24 19 -34 16 -23 -2 11 0 27 5 35 7 12 11 8 16 -17 4 -18 10 -33 15 -33 5 0
9 -11 9 -25 0 -16 6 -25 15 -25 9 0 15 -9 15 -22 0 -17 3 -19 9 -9 7 11 13 11
32 0 13 -7 38 -12 56 -11 17 2 34 -2 38 -8 3 -6 -4 -10 -17 -10 -18 0 -20 -2
-8 -10 8 -5 25 -10 38 -10 15 0 21 -4 16 -12 -5 -7 -3 -8 5 -4 7 5 40 -6 77
-24 35 -17 68 -29 73 -26 5 3 11 0 14 -8 3 -9 15 -12 31 -9 15 3 26 1 26 -6 0
-6 -6 -11 -12 -11 -10 0 -10 -2 0 -9 11 -6 9 -13 -10 -32 -30 -31 -73 -53 -87
-45 -6 4 -11 2 -11 -4 0 -7 -7 -10 -14 -7 -11 4 -13 1 -9 -10 4 -10 2 -14 -4
-10 -6 4 -18 0 -26 -8 -9 -8 -20 -15 -26 -15 -6 0 -11 -4 -11 -10 0 -5 -9 -10
-20 -10 -11 0 -20 -4 -20 -10 0 -18 -22 -11 -46 16 -17 18 -24 21 -24 10 0
-21 -16 -21 -24 0 -3 8 -11 12 -17 8 -6 -3 -15 0 -20 7 -6 10 -9 11 -9 2 0 -7
-4 -13 -10 -13 -5 0 -10 8 -10 18 0 11 -9 27 -20 37 -11 10 -20 24 -20 32 0 7
-9 13 -20 13 -11 0 -20 -4 -20 -10 0 -15 -22 -12 -45 6 -19 15 -18 16 13 9 29
-6 33 -5 30 12 -2 11 -13 19 -31 21 -24 3 -28 7 -23 25 3 12 1 29 -4 37 -7 11
-11 8 -21 -13 -12 -27 -33 -35 -44 -17 -3 6 -1 10 4 10 6 0 11 5 11 10 0 6 -7
10 -15 10 -8 0 -15 -7 -15 -15 0 -8 -4 -23 -10 -33 -11 -21 -50 -105 -50 -109
0 -2 5 -3 10 -3 6 0 10 7 10 15 0 8 7 15 16 15 13 0 15 -6 9 -27 -5 -16 -8
-38 -9 -50 -1 -12 -7 -28 -13 -35 -7 -6 -13 -17 -13 -23 0 -6 -9 -18 -20 -28
-11 -9 -19 -25 -19 -34 1 -17 2 -17 6 0 5 19 33 24 33 5 -1 -18 -31 -53 -55
-62 -19 -7 -19 -8 -2 -21 18 -13 18 -14 -2 -32 -12 -9 -21 -28 -21 -40 0 -23
-8 -27 -43 -24 -9 1 -30 -7 -46 -18 -21 -16 -31 -18 -34 -9 -4 10 -7 11 -18 1
-7 -7 -30 -13 -51 -13 -31 0 -38 -3 -38 -20 0 -16 -6 -20 -28 -18 -15 1 -34
-2 -41 -6 -7 -5 -16 -4 -20 2 -3 5 -13 11 -21 13 -25 4 -90 -13 -90 -23 0 -6
-6 -6 -14 1 -10 8 -16 9 -21 1 -13 -20 -24 1 -14 27 5 14 8 27 7 28 -9 9 -47
8 -59 -1 -16 -12 -69 -35 -69 -30 0 2 11 24 25 51 18 32 23 51 16 59 -7 8 -5
21 4 40 8 16 15 37 15 47 0 11 7 19 18 19 13 0 14 2 4 9 -7 4 -12 21 -10 37 2
24 -1 29 -19 29 -13 0 -24 5 -25 10 -3 13 -65 55 -82 55 -23 0 -39 28 -33 60
5 22 2 32 -11 39 -10 6 -12 11 -4 11 14 0 17 30 3 30 -5 0 -11 12 -13 28 -4
29 17 82 32 82 15 0 12 26 -4 39 -16 13 -20 148 -5 157 5 2 6 19 2 36 -6 28
-4 31 15 26 18 -5 22 -2 22 17 0 12 11 39 25 59 14 20 25 43 25 50 0 8 8 13
17 12 10 0 23 11 31 27 7 15 21 27 30 28 9 0 12 3 6 5 -12 5 47 69 96 104 19
13 38 28 41 33 3 4 12 9 20 10 8 2 20 6 27 10 18 12 14 -1 -8 -25 -40 -43 -18
-38 55 13 41 29 75 56 75 61 0 5 8 11 18 15 9 3 36 24 58 45 39 37 184 129
193 122 2 -2 -8 -21 -22 -41z m-4842 -170 c30 -45 31 -59 5 -98 -23 -35 -27
-110 -6 -118 7 -3 16 -21 20 -40 4 -19 13 -38 21 -41 8 -3 15 -17 15 -31 0
-24 3 -25 53 -25 45 0 57 4 80 28 15 16 24 32 20 37 -5 4 4 5 18 2 22 -6 25
-3 25 16 -1 16 4 22 19 20 11 -1 22 3 25 8 4 5 20 4 40 -4 26 -9 34 -9 37 0 3
9 10 10 24 3 15 -9 17 -15 9 -30 -9 -16 -7 -20 6 -20 13 0 15 -6 9 -27 -3 -16
-9 -43 -12 -61 -6 -37 -21 -51 -34 -31 -8 11 -14 8 -32 -14 -46 -55 -114 -76
-153 -46 -18 14 -94 -30 -94 -55 0 -11 -7 -29 -15 -39 -7 -11 -12 -28 -10 -38
2 -11 0 -17 -4 -14 -5 2 -11 -8 -14 -24 -9 -45 -48 -79 -103 -91 -74 -16 -124
-4 -124 29 0 6 -4 11 -8 11 -17 0 -33 72 -33 150 0 100 -9 124 -51 147 -25 13
-29 18 -15 21 9 2 17 7 17 11 0 10 -46 31 -65 31 -8 0 -15 5 -15 10 0 6 -11
10 -25 10 -14 0 -25 2 -25 4 0 3 11 17 25 32 14 15 25 38 25 52 0 13 14 40 30
59 17 18 30 38 30 43 0 6 9 10 19 10 11 0 32 16 47 35 14 19 30 33 34 30 4 -3
15 6 24 20 9 14 25 25 36 25 10 0 25 6 32 13 14 15 36 25 55 26 7 1 24 -16 38
-36z m-110 17 c3 -5 -3 -10 -14 -10 -12 0 -21 5 -21 10 0 6 6 10 14 10 8 0 18
-4 21 -10z m1725 -221 c0 -9 11 -26 24 -36 25 -19 44 -73 26 -73 -5 0 -10 -11
-10 -25 0 -30 -45 -74 -75 -75 -11 0 -27 -9 -35 -20 -11 -16 -26 -20 -70 -20
-48 0 -59 4 -83 29 -26 29 -27 31 -15 77 7 25 18 49 25 51 7 3 13 16 13 28 0
15 8 26 20 30 11 3 20 11 20 16 0 5 9 9 20 9 11 0 20 6 20 14 0 8 19 21 43 29
37 13 44 13 60 -1 9 -8 17 -23 17 -33z m2500 5 c0 -6 -18 -27 -40 -47 -21 -21
-38 -43 -36 -50 3 -6 7 -26 10 -43 5 -29 2 -33 -35 -49 -23 -11 -38 -24 -35
-31 3 -7 -2 -10 -14 -7 -11 3 -16 11 -13 19 3 8 -2 23 -12 33 -13 16 -14 21
-3 28 18 11 41 53 29 53 -5 0 1 21 14 46 16 32 36 52 66 69 40 21 45 21 56 6
7 -9 13 -21 13 -27z m-2440 -30 c0 -8 -4 -12 -10 -9 -5 3 -10 10 -10 16 0 5 5
9 10 9 6 0 10 -7 10 -16z m1865 -534 c3 -5 14 -10 24 -10 20 0 81 -82 81 -108
0 -9 14 -28 31 -42 29 -25 31 -29 32 -105 1 -44 -2 -98 -5 -120 -23 -133 -29
-158 -48 -184 -11 -16 -20 -37 -20 -46 0 -14 -46 -79 -87 -122 -6 -7 -13 -18
-15 -24 -7 -22 -61 13 -70 46 -22 77 2 588 33 695 7 27 33 38 44 20z m615
-145 c7 -9 10 -18 7 -21 -10 -10 -47 7 -47 22 0 19 24 18 40 -1z m-3609 -145
c5 0 9 9 9 20 0 11 7 20 15 20 8 0 15 -9 15 -20 0 -11 5 -20 11 -20 6 0 9 -10
7 -22 -2 -18 -19 -27 -85 -50 -90 -30 -174 -79 -225 -132 -18 -18 -56 -49 -84
-69 -58 -40 -104 -83 -97 -91 3 -2 -4 -11 -16 -18 -12 -7 -21 -21 -21 -31 0
-11 -9 -21 -19 -24 -11 -3 -22 -15 -25 -26 -3 -12 -17 -35 -30 -52 -24 -29
-25 -29 -26 -7 0 12 10 39 23 60 13 20 26 45 30 55 4 10 11 15 17 12 6 -4 10
5 10 19 0 17 11 34 35 52 19 14 32 30 29 35 -3 5 11 25 30 45 20 20 33 40 31
44 -3 4 4 19 15 33 11 14 20 31 20 39 0 10 2 10 9 -1 5 -8 16 -11 26 -8 9 4
14 11 11 16 -3 5 8 19 25 32 16 13 40 32 51 41 22 19 67 34 131 44 24 4 42 15
50 28 l12 21 3 -22 c2 -13 8 -23 13 -23z m96 -46 c-3 -3 -12 -4 -19 -1 -8 3
-5 6 6 6 11 1 17 -2 13 -5z m3970 -160 c-3 -3 -12 -4 -19 -1 -8 3 -5 6 6 6 11
1 17 -2 13 -5z m-2605 -360 c-1 -11 -5 -39 -8 -64 -3 -25 -10 -48 -15 -51 -5
-3 -1 -13 9 -22 17 -16 21 -16 50 -1 18 8 37 24 42 35 6 10 20 19 30 19 11 0
20 7 20 15 0 11 11 15 40 15 24 0 40 5 40 12 0 6 2 9 5 6 10 -10 -6 -35 -31
-46 -27 -13 -32 -32 -9 -32 21 0 19 -13 -5 -35 -23 -21 -26 -41 -7 -48 7 -4 3
-8 -11 -13 -14 -4 -21 -12 -18 -21 5 -12 -15 -75 -44 -138 -4 -11 -23 -58 -40
-105 -17 -47 -34 -94 -39 -105 -23 -57 -31 -90 -21 -93 23 -8 10 -78 -24 -130
-44 -69 -68 -179 -65 -303 3 -96 2 -99 -66 -369 -33 -130 -73 -354 -84 -475
-18 -186 -32 -310 -37 -335 -6 -22 -8 -20 -20 20 -15 49 -59 355 -69 485 -4
44 -11 116 -16 160 -20 174 -30 273 -35 350 -3 44 -12 179 -21 300 -18 250
-19 431 -4 523 18 110 106 263 215 374 41 43 48 47 72 38 22 -9 34 -5 81 24
59 37 90 40 85 10z m-2787 -708 c28 -14 77 -50 110 -80 69 -64 109 -82 149
-66 38 14 196 12 226 -3 16 -8 27 -25 32 -50 9 -41 -3 -74 -50 -135 -16 -21
-27 -50 -29 -80 -4 -43 -2 -50 29 -79 21 -20 47 -34 73 -38 39 -6 41 -5 68 37
15 24 30 54 34 68 19 80 97 79 170 -2 16 -18 50 -52 75 -75 l47 -42 85 0 c75
1 93 -3 149 -29 40 -18 75 -43 91 -65 25 -33 27 -41 22 -107 -5 -75 1 -112 14
-89 6 8 11 5 19 -10 7 -13 21 -21 37 -21 17 0 23 4 18 12 -5 8 0 9 15 5 15 -4
29 2 45 20 15 16 30 24 40 20 9 -4 22 0 28 9 7 8 19 21 26 29 6 7 12 25 12 39
0 14 5 26 10 26 6 0 10 11 10 25 0 20 7 26 40 36 22 7 40 16 40 20 0 4 17 7
38 6 29 0 44 -8 70 -35 33 -36 38 -51 23 -67 -5 -6 -11 -28 -14 -50 -13 -93
-22 -120 -45 -130 -15 -6 -26 -24 -33 -50 -16 -58 -49 -125 -49 -100 -1 18 -2
18 -11 -3 -5 -13 -13 -20 -19 -17 -5 3 -10 1 -10 -4 0 -6 -8 -11 -17 -11 -9 0
-13 -3 -10 -6 9 -9 -25 -64 -39 -64 -6 0 -25 -7 -43 -16 -36 -18 -94 -14 -140
11 -43 23 -109 91 -132 137 -28 55 -45 67 -92 68 -54 0 -74 14 -82 57 -7 41
-33 101 -50 119 -37 38 -99 44 -138 13 -15 -11 -50 -24 -79 -28 -54 -9 -97
-43 -99 -79 0 -9 -2 -26 -4 -37 -6 -30 13 -103 41 -162 21 -45 22 -56 12 -73
-15 -24 -24 -25 -35 -5 -8 13 -11 13 -28 0 -19 -14 -19 -14 5 -15 23 -1 23 -2
5 -9 -11 -5 -26 -6 -32 -4 -7 3 -13 -1 -13 -8 0 -17 -59 -68 -87 -75 -13 -4
-60 3 -106 15 -95 24 -146 26 -201 6 -52 -18 -116 -5 -213 43 -64 32 -75 41
-87 77 -8 22 -17 60 -20 85 -13 94 -39 161 -82 205 -23 24 -55 46 -73 50 -99
22 -192 80 -212 133 -15 38 -2 127 27 190 30 63 113 151 170 180 58 29 81 71
86 159 9 134 70 173 183 119z m3629 -498 c5 -9 7 -20 3 -25 -11 -10 -41 11
-45 31 -5 23 26 18 42 -6z m26 -78 c16 -26 23 -119 11 -134 -10 -11 -9 -16 4
-23 9 -5 17 -17 19 -27 1 -10 9 -22 17 -27 11 -7 9 -9 -7 -9 -30 0 -50 -46
-29 -67 21 -21 13 -38 -17 -38 -18 0 -28 -7 -35 -25 -10 -28 0 -70 16 -70 11
0 7 -16 -15 -66 -7 -16 -11 -40 -8 -51 5 -19 0 -23 -37 -33 -42 -12 -44 -11
-70 21 -19 24 -28 29 -32 18 -4 -10 -6 -9 -6 4 -1 9 6 17 16 17 14 0 15 2 1
18 -17 19 -31 149 -17 157 4 3 5 13 2 22 -4 11 -3 14 5 9 8 -5 12 2 12 19 0
14 -4 24 -9 21 -5 -4 -7 3 -4 14 3 11 10 20 15 20 5 0 6 5 3 10 -4 6 -10 8
-15 5 -12 -7 -25 16 -14 24 17 12 32 56 33 101 3 61 6 83 13 95 10 17 137 12
148 -5z m3540 -20 c0 -5 -5 -10 -11 -10 -5 0 -7 5 -4 10 3 6 8 10 11 10 2 0 4
-4 4 -10z m190 -345 c0 -5 -5 -3 -10 5 -5 8 -10 20 -10 25 0 6 5 3 10 -5 5 -8
10 -19 10 -25z m-73 -207 c-3 -8 -6 -5 -6 6 -1 11 2 17 5 13 3 -3 4 -12 1 -19z
m-3777 -28 c0 -5 -4 -10 -9 -10 -6 0 -13 5 -16 10 -3 6 1 10 9 10 9 0 16 -4
16 -10z m20 -52 c-1 -31 -1 -32 -15 -14 -19 25 -19 46 0 46 10 0 15 -10 15
-32z m3757 -60 c-3 -8 -6 -5 -6 6 -1 11 2 17 5 13 3 -3 4 -12 1 -19z m-27 2
c0 -5 -2 -10 -4 -10 -3 0 -8 5 -11 10 -3 6 -1 10 4 10 6 0 11 -4 11 -10z m7
-52 c2 -23 -14 -23 -21 0 -2 9 -3 -4 -1 -30 2 -27 -1 -48 -5 -48 -5 0 -9 -8
-8 -17 0 -10 -3 -34 -7 -53 -4 -19 -7 -48 -7 -63 -1 -17 -4 -24 -8 -17 -5 9
-9 9 -14 1 -4 -6 -4 -15 -1 -21 3 -5 -1 -10 -10 -10 -12 0 -14 -7 -9 -27 4
-22 3 -25 -5 -13 -9 12 -11 9 -11 -16 0 -19 -6 -34 -15 -38 -19 -7 -19 -1 4
75 30 99 72 260 74 280 2 25 43 22 44 -3z m-7609 -210 c43 -35 -24 -120 -81
-102 -12 4 -38 6 -57 6 -27 -1 -45 6 -75 33 -37 31 -39 35 -24 50 10 10 38 18
73 20 32 2 60 6 64 10 9 8 84 -5 100 -17z m1552 -108 c0 -13 -7 -20 -18 -20
-24 0 -32 8 -25 26 8 22 43 17 43 -6z m5930 -59 c0 -6 -4 -12 -9 -16 -5 -3
-12 -19 -16 -36 -4 -17 -9 -28 -12 -26 -7 8 17 87 27 87 6 0 10 -4 10 -9z
m-43 -113 c-3 -8 -6 -5 -6 6 -1 11 2 17 5 13 3 -3 4 -12 1 -19z"/>
<path d="M2160 9143 c0 -13 5 -23 10 -23 13 0 13 11 0 30 -8 12 -10 11 -10 -7z"/>
<path d="M4300 8890 c0 -5 5 -10 10 -10 6 0 10 5 10 10 0 6 -4 10 -10 10 -5 0
-10 -4 -10 -10z"/>
<path d="M5785 8300 c-3 -5 1 -10 9 -10 9 0 16 5 16 10 0 6 -4 10 -9 10 -6 0
-13 -4 -16 -10z"/>
<path d="M5470 8240 c12 -22 18 -24 40 -10 13 8 12 10 -2 10 -10 0 -18 5 -18
10 0 6 -7 10 -15 10 -13 0 -14 -4 -5 -20z"/>
<path d="M5428 8038 c9 -9 15 -9 24 0 9 9 7 12 -12 12 -19 0 -21 -3 -12 -12z"/>
<path d="M5271 7893 c1 -23 2 -24 6 -6 3 14 9 20 19 16 8 -3 14 0 14 6 0 6 -9
11 -20 11 -15 0 -20 -6 -19 -27z"/>
<path d="M5310 7850 c0 -5 5 -10 10 -10 6 0 10 5 10 10 0 6 -4 10 -10 10 -5 0
-10 -4 -10 -10z"/>
<path d="M5850 6210 c0 -4 9 -19 20 -33 17 -21 18 -26 5 -29 -12 -2 -11 -8 8
-28 13 -14 29 -34 36 -45 11 -19 12 -19 6 3 -7 26 0 28 21 7 17 -16 34 -20 34
-7 0 5 -11 19 -25 32 -14 13 -25 33 -26 44 0 18 -1 18 -7 4 -6 -15 -10 -13
-24 12 -9 17 -13 30 -8 30 22 0 8 15 -15 16 -14 1 -25 -2 -25 -6z"/>
<path d="M5990 6062 c0 -5 7 -13 16 -16 10 -4 14 -1 12 6 -5 15 -28 23 -28 10z"/>
<path d="M6195 5540 c3 -5 8 -10 11 -10 2 0 4 5 4 10 0 6 -5 10 -11 10 -5 0
-7 -4 -4 -10z"/>
<path d="M4946 5504 c-4 -9 -5 -17 -4 -18 2 -1 17 -11 35 -24 32 -22 32 -22
43 -3 6 12 6 22 1 25 -5 4 -11 1 -13 -5 -3 -8 -10 -8 -26 2 -12 8 -20 20 -17
26 2 7 0 13 -4 13 -5 0 -12 -7 -15 -16z"/>
<path d="M5035 5329 c-9 -14 -2 -20 14 -10 8 6 9 11 3 15 -6 3 -14 1 -17 -5z"/>
<path d="M5220 6950 c0 -5 5 -10 11 -10 5 0 7 5 4 10 -3 6 -8 10 -11 10 -2 0
-4 -4 -4 -10z"/>
<path d="M4920 6886 c0 -2 7 -7 16 -10 8 -3 12 -2 9 4 -6 10 -25 14 -25 6z"/>
<path d="M450 5950 c0 -5 7 -10 15 -10 8 0 15 5 15 10 0 6 -7 10 -15 10 -8 0
-15 -4 -15 -10z"/>
<path d="M553 5800 c0 -25 2 -35 4 -22 2 12 2 32 0 45 -2 12 -4 2 -4 -23z"/>
<path d="M6100 4010 c0 -5 5 -10 10 -10 6 0 10 5 10 10 0 6 -4 10 -10 10 -5 0
-10 -4 -10 -10z"/>
<path d="M5880 3950 c0 -5 5 -10 10 -10 6 0 10 5 10 10 0 6 -4 10 -10 10 -5 0
-10 -4 -10 -10z"/>
<path d="M1352 5140 c0 -14 2 -19 5 -12 2 6 2 18 0 25 -3 6 -5 1 -5 -13z"/>
<path d="M1520 4789 c0 -5 5 -7 10 -4 6 3 10 8 10 11 0 2 -4 4 -10 4 -5 0 -10
-5 -10 -11z"/>
<path d="M795 2410 c-11 -5 -33 -22 -49 -39 -17 -18 -44 -33 -65 -37 -50 -9
-71 -21 -81 -49 -11 -30 5 -90 34 -130 35 -47 65 -117 80 -186 39 -175 78
-228 176 -235 25 -2 58 -7 73 -10 37 -9 77 13 77 41 0 11 -16 37 -34 57 -65
69 -90 215 -55 323 18 53 19 67 8 123 -10 54 -17 67 -51 97 -47 40 -85 55
-113 45z"/>
<path d="M4189 2249 c-10 -6 -7 -9 14 -9 29 0 35 5 14 13 -8 3 -20 1 -28 -4z"/>
<path d="M4124 2219 c-3 -6 -1 -16 5 -22 8 -8 11 -5 11 11 0 24 -5 28 -16 11z"/>
<path d="M7046 4362 c-3 -5 1 -9 9 -9 8 0 12 4 9 9 -3 4 -7 8 -9 8 -2 0 -6 -4
-9 -8z"/>
<path d="M6590 4053 c0 -10 7 -27 15 -37 8 -11 15 -28 15 -38 0 -10 4 -18 9
-18 24 0 24 86 0 101 -22 14 -39 10 -39 -8z"/>
<path d="M7361 4026 c12 -20 23 -36 25 -36 7 0 -25 58 -36 65 -5 3 -1 -10 11
-29z"/>
<path d="M7588 3833 c7 -3 16 -2 19 1 4 3 -2 6 -13 5 -11 0 -14 -3 -6 -6z"/>
<path d="M6514 3348 c-41 -40 -102 -108 -135 -152 l-59 -81 52 60 c28 33 94
102 147 153 52 50 89 92 83 92 -7 0 -46 -32 -88 -72z"/>
<path d="M6660 3342 c0 -4 -12 -9 -26 -10 -30 -2 -84 -32 -84 -46 0 -5 -3 -7
-6 -3 -3 3 -25 -13 -48 -36 -22 -23 -44 -40 -48 -39 -5 1 -8 -3 -8 -9 0 -12
-60 -69 -72 -69 -5 0 -8 -5 -8 -10 0 -9 -77 -90 -86 -90 -3 0 3 11 12 25 9 14
14 25 12 25 -10 0 -149 -211 -223 -339 -60 -104 -215 -433 -215 -457 0 -3 5
-2 11 2 7 4 9 0 6 -12 -3 -11 -8 -32 -12 -49 -3 -16 -14 -41 -25 -55 -18 -24
-18 -23 1 34 10 33 17 61 16 63 -5 4 -51 -104 -77 -182 -11 -32 -34 -122 -50
-200 -37 -173 -40 -185 -52 -185 -5 0 -7 -4 -3 -9 3 -5 1 -12 -5 -16 -6 -4 -8
-10 -5 -15 3 -5 1 -11 -4 -15 -6 -3 -8 -12 -4 -20 3 -8 0 -15 -6 -15 -6 0 -10
-3 -9 -7 3 -10 -19 -77 -38 -120 -8 -17 -14 -38 -14 -46 0 -8 -7 -20 -15 -27
-8 -7 -15 -18 -15 -24 0 -6 -10 -31 -22 -56 -12 -25 -22 -47 -22 -50 -4 -19
-62 -130 -68 -130 -5 0 -8 -7 -8 -16 0 -9 -9 -28 -19 -43 -11 -15 -23 -39 -26
-54 -4 -15 -11 -27 -16 -27 -5 0 -9 -7 -9 -16 0 -9 -5 -12 -12 -8 -7 5 -9 2
-5 -9 3 -9 0 -18 -9 -21 -8 -3 -14 -12 -14 -21 0 -8 -4 -15 -9 -15 -5 0 -14
-13 -21 -30 -7 -16 -16 -27 -21 -24 -5 3 -9 -2 -9 -11 0 -8 -7 -18 -15 -21 -8
-4 -15 -13 -15 -20 0 -8 -7 -17 -15 -20 -8 -4 -15 -11 -15 -18 0 -6 -9 -17
-20 -24 -11 -7 -20 -17 -20 -23 0 -6 -21 -35 -46 -65 -31 -36 -54 -54 -69 -54
-13 0 -25 -5 -27 -11 -2 -6 -13 -5 -32 5 -26 13 -31 13 -52 -2 -13 -9 -24 -22
-24 -29 0 -6 -7 -13 -17 -15 -9 -2 -22 -19 -28 -38 -8 -22 -18 -34 -29 -34
-10 1 -16 -6 -16 -18 0 -11 -6 -26 -12 -33 -36 -40 -38 -43 -25 -48 7 -3 4 -6
-7 -6 -11 -1 -16 -6 -13 -15 3 -8 -1 -17 -9 -20 -9 -3 -13 -10 -10 -15 3 -5
-3 -7 -14 -4 -11 3 -20 10 -20 15 0 6 -7 8 -15 4 -22 -8 -121 44 -104 55 11 7
11 9 -3 9 -20 0 -46 94 -60 220 -5 47 -16 136 -25 199 -14 96 -15 132 -5 228
7 75 8 123 1 139 -5 14 -7 29 -4 34 7 12 -39 21 -74 14 -26 -5 -30 -10 -25
-27 4 -13 2 -17 -5 -13 -7 4 -11 -1 -11 -13 0 -12 -6 -21 -14 -21 -8 0 -20
-17 -27 -37 -6 -21 -16 -41 -20 -44 -25 -16 -7 -139 21 -139 10 0 29 -96 44
-225 23 -200 29 -281 29 -405 0 -108 -2 -118 -26 -157 -32 -50 -57 -66 -92
-57 -18 4 -27 2 -31 -10 -5 -12 -10 -14 -19 -6 -6 5 -14 7 -17 4 -3 -3 -34 -5
-69 -5 -35 -1 -67 -2 -70 -5 -4 -2 -2 -22 3 -44 l10 -40 612 0 612 0 156 70
c86 38 173 79 194 91 22 12 68 39 104 59 197 110 307 180 445 284 44 33 82 62
85 65 3 4 21 18 40 33 64 50 105 87 95 88 -5 0 -21 -9 -35 -20 -56 -46 -179
-130 -189 -130 -6 0 -11 -5 -11 -10 0 -6 -23 -21 -50 -33 -28 -13 -47 -26 -44
-30 4 -4 2 -7 -3 -7 -6 0 -13 6 -16 13 -2 6 -8 0 -12 -15 -4 -18 -12 -25 -21
-21 -8 3 -22 -1 -32 -10 -16 -13 -49 -28 -79 -33 -6 -1 -24 -14 -40 -28 -15
-14 -34 -26 -41 -26 -8 0 -27 -8 -43 -17 -25 -15 -31 -15 -38 -4 -5 7 -14 10
-20 7 -14 -9 -14 0 -1 25 23 42 -2 14 -71 -82 -89 -122 -95 -129 -119 -129
-10 0 -21 -6 -23 -12 -4 -10 -8 -10 -15 1 -9 12 -13 12 -26 2 -8 -7 -20 -10
-25 -7 -6 4 -31 7 -56 8 -55 1 -78 27 -51 57 9 10 16 22 16 28 0 6 7 13 15 17
8 3 12 12 9 20 -5 14 119 146 138 146 4 0 8 5 8 11 0 6 22 33 49 59 27 26 66
74 86 107 21 32 41 60 44 63 4 3 12 16 19 30 7 14 21 39 31 55 11 17 20 38 20
48 1 10 8 20 16 23 8 4 15 14 15 24 0 10 7 20 15 24 8 3 20 17 25 32 6 15 13
24 17 21 3 -4 17 15 31 41 13 26 35 57 48 68 13 12 24 24 24 28 0 10 101 106
111 106 5 0 9 7 9 16 0 10 6 14 15 10 9 -3 15 1 15 11 0 19 41 59 70 68 11 3
20 13 20 21 0 8 6 14 13 14 15 0 93 72 129 120 15 19 58 68 97 108 38 40 81
93 96 118 14 24 30 44 36 44 6 0 7 5 4 10 -3 6 1 13 9 16 9 3 16 11 16 17 0
11 13 26 67 79 18 17 30 35 27 39 -3 5 1 9 8 9 17 0 65 50 100 102 14 21 28
35 31 31 4 -3 7 -1 7 6 0 7 9 24 20 38 11 14 20 32 20 41 0 8 7 20 16 26 11 9
13 17 5 36 -7 18 -10 20 -10 7 -1 -10 -12 -22 -26 -27 -14 -5 -25 -14 -25 -20
0 -5 -7 -10 -15 -10 -8 0 -31 -16 -51 -35 -19 -19 -40 -35 -45 -35 -5 0 -9 -5
-9 -11 0 -14 -56 -69 -70 -69 -5 0 -10 -5 -10 -10 0 -12 -179 -190 -190 -190
-5 0 -11 -7 -14 -16 -3 -8 -10 -13 -15 -10 -5 3 -11 0 -14 -8 -3 -8 -30 -32
-60 -54 -30 -22 -61 -48 -70 -57 -13 -12 -17 -13 -17 -3 -1 8 -6 6 -15 -6 -12
-16 -17 -17 -30 -6 -15 12 -14 15 4 24 19 11 19 13 4 45 -15 29 -15 35 -2 45
9 7 14 30 14 66 0 30 4 61 9 68 5 7 3 18 -4 28 -11 13 -10 16 10 21 21 5 22
10 17 54 -6 46 4 65 17 37 3 -7 4 1 1 17 -6 33 2 48 28 58 18 7 24 27 7 27 -5
0 -10 -4 -10 -10 0 -5 -4 -10 -10 -10 -5 0 -10 9 -10 20 0 11 7 20 15 20 18 0
19 5 4 29 -9 14 -8 27 6 59 13 30 21 38 28 29 5 -7 7 -2 3 14 -4 19 -1 29 9
33 9 3 15 18 15 38 0 48 -11 80 -25 75 -7 -3 -12 6 -12 24 0 19 3 25 9 17 5
-10 8 -8 8 5 0 10 14 30 31 44 16 14 28 32 25 39 -7 17 9 29 412 303 104 71
75 64 -44 -11 -34 -21 -66 -38 -73 -38 -6 0 -11 -4 -11 -10 0 -5 -5 -10 -11
-10 -6 0 -29 -13 -52 -28 -23 -15 -60 -37 -82 -47 -22 -11 -43 -24 -47 -30 -5
-6 -11 -5 -16 3 -5 8 -16 10 -28 5 -13 -5 -8 5 15 30 36 38 50 89 21 79 -8 -3
-3 7 13 21 15 14 27 33 27 42 0 8 7 15 15 15 10 0 15 10 15 29 0 16 5 31 11
33 16 5 28 73 16 93 -6 12 -6 20 2 24 15 10 32 71 25 93 -3 10 -2 23 2 30 4 7
10 42 12 78 2 36 9 68 14 71 7 4 8 15 3 25 -9 21 -11 31 -13 57 -2 16 -32 25
-32 9z m-667 -897 c-3 -9 -8 -14 -10 -11 -3 3 -2 9 2 15 9 16 15 13 8 -4z
m327 -546 c0 -11 -4 -18 -10 -14 -5 3 -7 12 -3 20 7 21 13 19 13 -6z"/>
<path d="M8001 3154 c0 -11 3 -14 6 -6 3 7 2 16 -1 19 -3 4 -6 -2 -5 -13z"/>
<path d="M3805 3139 c-4 -11 -4 -23 0 -27 7 -7 25 17 25 36 0 20 -18 14 -25
-9z"/>
<path d="M6030 2945 c-7 -8 -9 -15 -6 -15 4 0 14 7 22 15 9 8 11 15 6 15 -5 0
-15 -7 -22 -15z"/>
<path d="M5966 2843 c-6 -14 -5 -15 5 -6 7 7 10 15 7 18 -3 3 -9 -2 -12 -12z"/>
<path d="M5912 2756 c-18 -40 -15 -68 4 -33 8 16 14 36 12 44 -2 12 -7 9 -16
-11z"/>
<path d="M5866 2671 c-11 -22 -22 -41 -26 -41 -12 0 -72 -129 -65 -140 3 -5 1
-10 -4 -10 -6 0 -11 -6 -11 -14 0 -8 -9 -18 -20 -21 -21 -7 -28 -25 -10 -25
16 0 12 -30 -7 -48 -15 -16 -16 -15 -9 11 4 16 2 27 -4 27 -5 0 -10 -6 -10
-14 0 -8 -11 -28 -25 -44 -14 -17 -25 -34 -25 -38 -1 -14 -39 -90 -40 -78 0 6
7 33 15 59 8 27 11 53 8 58 -3 5 -1 19 4 30 23 50 31 87 21 93 -5 3 -10 4 -12
3 -3 -5 -40 -102 -67 -179 -11 -30 -24 -64 -29 -75 -5 -11 -10 -31 -12 -45 -2
-14 -5 -27 -8 -30 -3 -3 -11 -27 -18 -55 -7 -27 -18 -52 -23 -56 -6 -3 -11
-17 -11 -30 -1 -13 -5 -28 -9 -34 -10 -15 -30 -115 -24 -125 3 -4 -2 -11 -11
-14 -9 -3 -14 -12 -11 -20 3 -7 0 -19 -6 -25 -8 -8 -6 -11 9 -11 11 0 15 -3 8
-8 -10 -7 -15 -82 -4 -82 3 0 4 -21 3 -47 -1 -27 -2 -48 -3 -48 -1 0 -2 -30
-3 -67 -1 -38 1 -68 5 -68 5 0 8 2 8 4 0 5 60 170 105 286 20 52 48 131 61
175 14 44 30 95 35 114 6 18 15 65 20 104 5 38 13 75 17 81 16 20 22 74 9 80
-8 3 -9 5 0 5 6 1 9 10 6 21 -6 23 15 28 23 5 6 -14 8 -13 19 2 7 9 10 24 7
32 -4 9 -1 12 7 7 8 -5 11 -3 10 5 -2 14 27 79 60 135 10 17 22 45 26 62 3 17
15 50 26 72 11 23 19 46 17 52 -2 6 -12 -8 -22 -31z m-269 -503 c-3 -7 -5 -2
-5 12 0 14 2 19 5 13 2 -7 2 -19 0 -25z m-21 -56 c-11 -10 -15 4 -8 28 l7 25
3 -23 c2 -13 1 -26 -2 -30z m-12 -36 c-3 -9 -10 -16 -15 -16 -6 0 -5 9 1 21
13 24 24 20 14 -5z m-14 -40 c0 -11 -19 -15 -25 -6 -3 5 1 10 9 10 9 0 16 -2
16 -4z"/>
<path d="M7307 1159 c-10 -23 -16 -46 -14 -53 3 -6 14 11 26 37 24 54 24 57
13 57 -4 0 -15 -19 -25 -41z"/>
<path d="M3870 1132 c0 -13 66 -73 73 -66 7 7 -12 44 -33 61 -17 14 -40 17
-40 5z"/>
<path d="M7265 1101 c-3 -5 -1 -12 5 -16 5 -3 10 1 10 9 0 18 -6 21 -15 7z"/>
<path d="M7233 1044 c3 -4 -1 -21 -9 -38 -14 -29 -14 -30 1 -11 32 39 37 55
19 55 -10 0 -15 -3 -11 -6z"/>
<path d="M7185 960 c3 -5 11 -10 16 -10 6 0 7 5 4 10 -3 6 -11 10 -16 10 -6 0
-7 -4 -4 -10z"/>
<path d="M7810 950 c0 -5 5 -10 10 -10 6 0 10 5 10 10 0 6 -4 10 -10 10 -5 0
-10 -4 -10 -10z"/>
<path d="M7106 824 c-9 -8 -16 -20 -16 -26 0 -6 9 -1 20 12 29 33 25 44 -4 14z"/>
<path d="M7050 754 c0 -8 5 -12 10 -9 6 3 10 10 10 16 0 5 -4 9 -10 9 -5 0
-10 -7 -10 -16z"/>
<path d="M4895 580 c-3 -5 -1 -10 4 -10 6 0 11 5 11 10 0 6 -2 10 -4 10 -3 0
-8 -4 -11 -10z"/>
<path d="M8010 495 c-7 -9 -11 -17 -9 -19 7 -7 49 13 49 24 0 15 -26 12 -40
-5z"/>
<path d="M7855 405 c-38 -24 -77 -44 -86 -44 -18 -1 -49 -32 -49 -49 0 -19 13
-14 47 17 21 19 39 27 51 24 12 -3 32 6 53 25 19 16 44 34 57 41 24 13 30 31
10 31 -7 -1 -44 -21 -83 -45z"/>
<path d="M7600 262 c-65 -42 -84 -62 -61 -62 19 0 105 51 118 70 7 10 20 17
27 14 8 -3 17 -1 20 4 3 5 -3 12 -14 15 -13 3 -45 -11 -90 -41z"/>
</g>
</svg>
