<svg height="32" viewBox="0 0 166 32" width="166" xmlns="http://www.w3.org/2000/svg"><g><path d="m1.3824 2.8032c0-1.1136-.1088-1.2864-1.2224-1.3632v-.3136h3.5392v.3072c-1.1072.0832-1.2224.256-1.2224 1.3696v5.4976c0 1.1136.1152 1.2864 1.2224 1.3632v.3072h-3.5392v-.3072c1.1136-.0768 1.2224-.2496 1.2224-1.3632z"/><path d="m1.3824 2.8032h.16c0-.2816-.0064-.5056-.0384-.6976-.0192-.1408-.0512-.2688-.1152-.3776-.096-.1664-.256-.2752-.4544-.3392-.1984-.0576-.4416-.0896-.7616-.1088l-.0128.16h.16v-.1536h3.2192v.1472h.16l-.0128-.1536c-.2816.0192-.4992.0448-.6848.0896-.1408.0384-.2624.0896-.3584.1728-.1536.1152-.2368.288-.2752.4928s-.0512.448-.0512.768v5.4976c0 .2816.0064.5056.0384.6976.0256.1408.0576.2688.1216.3776.096.1664.256.2752.4544.3328.1984.064.4416.0896.7552.1152l.0128-.16h-.16v.1472h-3.2192v-.1472h-.16l.0128.16c.2816-.0192.5056-.0448.6912-.096.1408-.0384.256-.0896.3584-.1664.1536-.1152.2368-.2944.2752-.4928.0384-.2048.0512-.448.0512-.768v-5.4976h-.1664-.16v5.4976c0 .2752-.0064.4864-.032.6464-.0192.1152-.0448.2048-.0832.2624-.0512.0896-.1216.1408-.2752.192-.1472.0512-.3776.0768-.6848.1024l-.1472.0064v.4608.16h3.8592v-.4672-.1472l-.1472-.0192c-.2752-.0192-.48-.0448-.6272-.0832-.1088-.032-.1856-.064-.2432-.1088-.0768-.064-.128-.1472-.16-.3072s-.0448-.3904-.0448-.704v-5.4912c0-.2752.0064-.4864.032-.6464.0192-.1216.0512-.2048.0832-.2624.0576-.0896.1216-.1408.2752-.192s.3776-.0832.6848-.1024l.1472-.0128v-.4608-.16h-3.8592v.4672.1472l.1472.0192c.2752.0192.48.0448.6336.0832.1088.032.1856.064.2432.1088.0768.064.128.1472.16.3072s.0448.3904.0448.704z"/><path d="m5.3376 5.7216c0-.9088-.0768-.9408-.8448-1.088v-.2688c.6272-.1216 1.2736-.288 1.8688-.5568v1.056c.256-.1792.5696-.3968.9408-.6272.384-.2432.7168-.3968 1.1072-.3968 1.1072 0 1.7472.7424 1.7472 1.888v2.8352c0 .9024.1024 1.0112.8576 1.088v.3072h-2.8032v-.3072c.7936-.0768.9216-.2112.9216-1.1648v-2.3168c0-.8896-.2752-1.5616-1.2608-1.5616-.544 0-1.1136.352-1.5168.7296v3.232c0 .8768.1088 1.0112.896 1.088v.3072h-2.9184v-.3072c.8448-.0768 1.0048-.2112 1.0048-1.0944z"/><path d="m5.3376 5.7216h.16c0-.2304-.0064-.4032-.0256-.5568-.0128-.1088-.0384-.2048-.0896-.288-.0704-.1344-.192-.2176-.3328-.2688s-.3072-.0832-.5248-.128l-.032.16h.16v-.2752h-.16l.032.16c.6336-.1216 1.2928-.2944 1.9008-.5696l-.064-.1472h-.1664v1.3696l.256-.1792c.256-.1792.5696-.3968.9344-.6208.3776-.2368.6784-.3712 1.024-.3712.5184 0 .9024.1728 1.1712.4608.2688.2944.416.7232.416 1.2672v2.8352c0 .2304.0064.4096.032.5632.0192.1152.0448.2176.096.3072.0704.1344.1984.2304.3456.2816s.32.0768.5312.096l.0192-.16h-.16v.1472h-2.4832v-.1472h-.16l.0128.16c.2048-.0192.3648-.0448.512-.0896.1088-.032.2048-.0768.2816-.1472.1216-.1024.192-.256.224-.4288.0384-.1792.0448-.3904.0448-.6592v-2.3232c0-.4608-.0704-.8832-.288-1.2032-.224-.3264-.608-.5184-1.1328-.5184-.6144.0064-1.2032.3776-1.6256.7744l-.0512.0448v3.3024c0 .224.0064.4032.032.5568.0192.1152.0512.2176.1024.3072.0768.1344.2048.2304.352.2816.1536.0576.3264.0832.5568.1024l.0128-.16h-.16v.1472h-2.5984v-.1472h-.16l.0128.16c.2176-.0192.3904-.0448.544-.0832.1152-.032.2112-.0768.3008-.1408.128-.096.2112-.2432.256-.4096s.0576-.3712.0576-.6208v-2.8416h-.1664-.16v2.8352c0 .2176-.0128.384-.032.4992-.0256.096-.0512.16-.0768.2048-.0448.064-.1024.1088-.224.1472s-.2944.064-.5248.0896l-.1472.0128v.4544.16h3.2448v-.4672-.1472l-.1472-.0128c-.192-.0192-.3392-.0448-.4416-.0704-.0768-.0256-.128-.0512-.16-.0832-.0512-.0448-.0832-.1024-.1152-.2304-.0256-.1216-.0384-.3008-.0384-.544v-3.232h-.1536l.1088.1152c.384-.3648.928-.6912 1.4016-.6848.4544.0064.704.1472.864.3776.1664.2368.2368.5952.2368 1.024v2.3232c0 .2368-.0064.416-.032.5504-.0192.1024-.0384.1728-.0704.2176-.0448.0704-.0896.1088-.192.1536-.1024.0384-.2624.064-.4864.0896l-.1472.0128v.4544.16h3.1232v-.4736-.1472l-.1472-.0128c-.1856-.0192-.3264-.0384-.4224-.0704-.0704-.0192-.1216-.0448-.1536-.0768-.0448-.0384-.0832-.096-.1088-.224-.0256-.1216-.032-.3072-.032-.5568v-2.8352c0-.6016-.1728-1.12-.4992-1.4848-.3328-.3648-.8192-.5696-1.408-.5696-.4352 0-.8.1728-1.1968.4224-.3712.2304-.6912.448-.9472.6272l.1088.1344h.16v-1.312l-.2304.1088c-.576.2624-1.2096.4288-1.8304.5504l-.128.0256v.4096.1344l.128.0256c.192.0384.3328.064.4352.096.0768.0256.1216.0512.1536.0768.0448.032.0768.0768.096.192s.032.3008.032.5504z"/><path d="m12.0896 4.5504h-.9344l-.0704-.1664.384-.3776h.6208v-.832l.8192-.96.2048.0256v1.76h1.5424c.1216.1472.0832.416-.1024.544h-1.44v3.5584c0 1.1008.4288 1.3184.8 1.3184.3456 0 .64-.128.8256-.2176l.128.3136-.9344.448c-.2368.1152-.416.1536-.5504.1536-.8384 0-1.2992-.5504-1.2992-1.6128v-3.9552z"/><path d="m12.0896 4.5504v-.16h-.8256l-.032-.0704-.1472.064.1152.1152.3392-.3328h.7168v-.928l.7232-.8448.1152.0128.0192-.16h-.16v1.92h1.7024v-.16l-.128.1024c.0192.0256.032.064.032.1088 0 .0768-.0384.16-.1024.2048l.0896.1344v-.1664h-1.6v3.7248c0 .5696.1088.9344.2944 1.1712s.4544.3072.6656.3072c.384 0 .704-.1408.896-.2304l-.0704-.1472-.1472.064.0704.1728-.8.384c-.224.1088-.3712.1344-.4736.1344-.384 0-.6528-.1216-.8384-.3456-.1856-.2304-.3008-.5952-.3008-1.1008v-4.1344h-.16v.16h-.16v3.968c0 .5568.1216.9984.3712 1.3056.2496.3136.6336.4672 1.088.4672.16 0 .3648-.0448.6208-.1728l-.0704-.1472.0704.1472 1.0752-.5184-.256-.6144-.1536.0704c-.1856.0896-.4544.2048-.7616.2048-.16 0-.3008-.0384-.416-.1856-.1216-.1472-.224-.4416-.224-.9728v-3.392h1.3312l.0448-.032c.16-.1152.2368-.2944.2368-.4672 0-.1088-.032-.2176-.1024-.3136l-.0512-.0576h-1.4592v-1.7344l-.3392-.0448-.0832-.0128-.9088 1.0688v.7296h-.4608-.064l-.512.5056.1152.2688.0448.096h1.0432v-.1664h-.16z"/><path d="m18.0288 3.8464c1.1392 0 2.0544 1.0048 2.0544 2.048 0 .3008-.0512.3968-.3072.4544-.2176.0384-1.9264.1728-3.616.2304.0064 1.9456 1.1328 2.6816 2.1056 2.6752.5312 0 .992-.1856 1.5104-.6848l.2176.2688c-.8064 1.0304-1.7728 1.2992-2.1632 1.2992-1.6832 0-2.688-1.3376-2.688-2.88 0-.896.3072-1.76.9152-2.4192.544-.6016 1.2928-.992 1.9648-.992zm-.3584.48c-.6016 0-1.2608.6016-1.4208 1.7216.8.0064 1.6192-.0192 2.4064-.0384.2496 0 .32-.0896.32-.2816.0064-.7168-.4672-1.4016-1.2864-1.4016z"/><path d="m18.0288 3.8464v.16c.5248 0 .9984.2304 1.3376.5824.3456.352.5568.832.5568 1.3056 0 .1472-.0192.2176-.032.2304l-.032.0256c-.0192.0128-.0576.0256-.1152.0384l.032.16-.032-.16c-.0384.0064-.1856.0256-.4032.0448-.6464.0576-1.9264.1408-3.1936.1856h-.1472v.1536c.0064.9984.2944 1.7088.7232 2.1696s.992.6656 1.5168.6656h.0256c.576 0 1.088-.2112 1.6256-.7296l-.1088-.1152-.1216.1024.2176.2688.1216-.1024-.128-.096c-.3904.4928-.8128.8064-1.184.992s-.6976.2496-.8576.2496c-.8 0-1.4208-.3136-1.856-.8064s-.672-1.1776-.672-1.9136c0-.864.2944-1.6832.8704-2.3104.5184-.576 1.2352-.9408 1.8496-.9344h.0128v-.1664-.1664h-.0128c-.736 0-1.5104.416-2.0864 1.0432-.6336.6912-.9536 1.5936-.9536 2.528 0 .8064.2624 1.5616.7552 2.1248s1.2096.9152 2.0992.9152c.2304 0 .5888-.0768.9984-.2816s.8768-.5504 1.2928-1.0816l.0768-.1024-.4096-.4992-.128.1216c-.5056.48-.9088.64-1.4016.64h-.0256c-.4416 0-.9152-.1664-1.28-.5632-.3648-.3904-.6336-1.0176-.64-1.952h-.16l.0064.16c.8512-.0256 1.7024-.0768 2.368-.1216.3328-.0256.6208-.0448.8384-.064s.3648-.032.4352-.0448c.0704-.0128.1344-.032.1984-.064.0896-.0448.1664-.1344.1984-.2304s.0384-.1984.0384-.3136c0-.5696-.2496-1.12-.6464-1.5296s-.9536-.6848-1.568-.6848zm-.3584.48v-.16c-.3584 0-.7104.1728-.9984.4928s-.4992.7808-.5824 1.3696l-.032.1792h.1856.1536c.7552 0 1.5232-.0192 2.2528-.0384v-.16.16c.1408 0 .2624-.0192.3648-.1152.0448-.0448.0768-.1024.096-.16.0128-.0576.0192-.1152.0192-.1728v-.0192c0-.3904-.128-.7744-.3776-1.0624-.2432-.2944-.6208-.4864-1.0688-.4864h-.0128v.1728.16h.0128c.3584 0 .6336.1472.8256.3712s.3008.5376.3008.8576v.0128c0 .0384-.0064.0704-.0064.0832l-.0128.0192c-.0128.0064-.0576.0192-.1344.0192-.7424.0128-1.504.0384-2.2528.0384-.0512 0-.1024 0-.1536 0v.16l.16.0256c.0768-.5376.2688-.9344.5056-1.1968s.512-.384.7552-.384z"/><path d="m21.6128 5.7216c0-.9216-.0768-.9728-.8832-1.0816v-.2752c.6464-.1088 1.2672-.2816 1.9072-.5568v1.536h.0256c.3648-.704 1.024-1.4976 1.664-1.4976.448 0 .7616.3776.7616.6784 0 .256-.16.5248-.4288.6464-.1536.0704-.2752.0512-.352-.032-.192-.1856-.3648-.2816-.5952-.2816-.3328 0-.768.4224-1.0816 1.2608v2.4384c0 .8832.1088 1.0176 1.184 1.1008v.3072h-3.168v-.3072c.8448-.0768.96-.2112.96-1.0944v-2.8416z"/><path d="m21.6128 5.7216h.16c0-.2304-.0064-.416-.0256-.5632-.0192-.1152-.0448-.2112-.096-.3008-.0768-.1344-.2048-.224-.352-.2688-.1472-.0512-.32-.0768-.5504-.1088l-.0192.16h.16v-.2752h-.16l.0256.16c.6592-.1152 1.2928-.288 1.9392-.5696l-.064-.1472h-.16v1.696h.1856.096l.0448-.0896c.1728-.3392.4224-.704.6976-.9728.2752-.2752.5696-.4416.8256-.4352.1792 0 .3264.0768.4352.1792s.1664.2432.1664.3392c0 .192-.128.4096-.3328.5056-.0384.0192-.0768.0256-.1024.0256l-.0576-.0192v-.0064h-.0064c-.1024-.1024-.2048-.1856-.3264-.2432-.1152-.0576-.2432-.0896-.384-.0896-.2368 0-.4608.1408-.6656.3712s-.4032.5632-.5632.9984l-.0128.0256v2.464c0 .224.0064.4096.0384.5632.0256.1152.064.224.128.32.1024.1408.256.224.4416.2752s.4224.0768.7232.1024l.0128-.16h-.16v.1472h-2.848v-.1472h-.16l.0128.16c.2176-.0192.3904-.0448.5376-.0832.1088-.032.2112-.0768.2944-.1408.128-.096.1984-.2432.2368-.4096s.0448-.3648.0448-.6144v-2.848h-.16-.16v2.848c0 .2176-.0064.384-.032.5056-.0128.0896-.0384.1536-.064.1984-.0384.064-.0896.1024-.2048.1472-.1152.0384-.2816.064-.5184.0896l-.1472.0128v.4544.16h3.488v-.4672-.1472l-.1472-.0128c-.2624-.0192-.4672-.0448-.6144-.0768-.1088-.0256-.1856-.0576-.2368-.0896-.0768-.0512-.1088-.1024-.1472-.224-.032-.1216-.0384-.3008-.0384-.544v-2.4512h-.16l.1536.0576c.1472-.4096.3264-.704.4992-.896s.3328-.2624.4288-.2624.1664.0192.2432.0576.1536.096.2432.1856l.1088-.1152-.1152.1024c.0704.0832.1856.1216.2944.1216.0832 0 .16-.0192.2432-.0576.32-.1536.5184-.4672.5184-.7936 0-.2112-.1024-.4096-.2624-.5696s-.3904-.2752-.6592-.2688c-.3904 0-.7424.2304-1.0496.5312s-.5696.6912-.7616 1.056l.1408.0768v-.1728h-.0256v.16h.16v-1.7792l-.224.096c-.6208.2752-1.2288.4416-1.8688.5504l-.1344.0256v.4096.1408l.1408.0192c.1984.0256.352.0512.4544.0832.0768.0256.128.0448.16.0704.0448.0384.0768.0832.096.2048.0256.1216.032.3072.032.5632z"/><path d="m26.6432 5.7216c0-.9088-.0768-.9408-.8448-1.088v-.2688c.6272-.1216 1.2736-.288 1.8624-.5568v1.056c.256-.1792.5696-.3968.9408-.6272.384-.2432.7168-.3968 1.1072-.3968 1.1072 0 1.7472.7424 1.7472 1.888v2.8352c0 .9024.1024 1.0112.8576 1.088v.3072h-2.8032v-.3072c.7936-.0768.9216-.2112.9216-1.1648v-2.3168c0-.8896-.2752-1.5616-1.2608-1.5616-.544 0-1.1136.352-1.5168.7296v3.232c0 .8768.1088 1.0112.896 1.088v.3072h-2.9248v-.3072c.8448-.0768 1.0048-.2112 1.0048-1.0944v-2.8416z"/><path d="m26.6432 5.7216h.16c0-.2304-.0064-.4032-.0256-.5568-.0128-.1088-.0384-.2112-.0896-.2944-.0704-.1344-.1984-.2176-.3328-.2688-.1408-.0448-.3072-.0768-.5248-.1216l-.032.16h.16v-.2752h-.16l.032.16c.6336-.1216 1.2928-.2944 1.9008-.5696l-.064-.1472h-.16v1.3696l.256-.1792c.256-.1792.5696-.3968.9344-.6208.3776-.2368.6784-.3712 1.024-.3712.5184 0 .9024.1728 1.1712.4608.2688.2944.416.7232.416 1.2672v2.8352c0 .2304.0064.4096.032.5632.0192.1152.0448.2176.096.3072.0704.1344.1984.2304.3456.2816s.32.0768.5312.096l.0192-.16h-.16v.1472h-2.4832v-.1472h-.16l.0128.16c.2048-.0192.3648-.0448.512-.0896.1088-.032.2048-.0768.2816-.1472.1216-.1024.192-.256.224-.4288.0384-.1792.0448-.3904.0448-.6592v-2.3232c0-.4608-.0704-.8832-.288-1.2032-.224-.3264-.608-.5184-1.1328-.5184-.6144.0064-1.2032.3776-1.6256.7744l-.0512.0448v3.3024c0 .224.0064.4032.032.5568.0192.1152.0512.2176.1024.3072.0768.1344.2048.2304.352.2816.1536.0576.3264.0832.5568.1024l.0128-.16h-.16v.1472h-2.6048v-.1472h-.16l.0128.16c.2176-.0192.3904-.0448.544-.0832.1152-.032.2112-.0768.3008-.1408.128-.096.2112-.2432.256-.4096s.0576-.3712.0576-.6208v-2.8416h-.1664-.16v2.8352c0 .2176-.0128.384-.032.4992-.0192.0896-.0448.1536-.0768.1984-.0448.064-.1024.1088-.224.1472s-.2944.064-.5248.0896l-.1472.0128v.4544.16h3.2448v-.4672-.1472l-.1472-.0128c-.192-.0192-.3392-.0448-.4416-.0704-.0768-.0256-.128-.0512-.16-.0832-.0512-.0448-.0832-.1024-.1152-.2304-.0256-.1216-.0384-.3008-.0384-.544v-3.2256h-.16l.1088.1152c.384-.3648.928-.6912 1.4016-.6848.4544.0064.704.1472.864.3776.1664.2368.2368.5952.2368 1.024v2.3232c0 .2368-.0064.416-.032.5504-.0192.1024-.0384.1728-.0704.2176-.0448.0704-.0896.1088-.192.1536-.1024.0384-.2624.064-.4864.0896l-.1472.0128v.4544.16h3.1232v-.4736-.1472l-.1472-.0128c-.1856-.0192-.3264-.0384-.4224-.0704-.0704-.0192-.1216-.0448-.1536-.0768-.0448-.0384-.0832-.096-.1088-.224-.0256-.1216-.032-.3072-.032-.5568v-2.8352c0-.6016-.1728-1.12-.4992-1.4848-.3328-.3648-.8192-.5696-1.408-.5696-.4352 0-.8.1728-1.1968.4224-.3712.2304-.6912.448-.9472.6272l.0896.1344h.16v-1.312l-.2304.1024c-.576.2624-1.2096.4288-1.8304.5504l-.128.0256v.4096.1344l.128.0256c.192.0384.3392.064.4352.096.0768.0256.1216.0512.1536.0768.0448.0384.0704.0832.096.2048.0192.1152.032.3008.032.5504h.1856z"/><path d="m37.2224 8.512c0 .5824.1984.7936.448.7936.192 0 .384-.0704.5504-.16l.1408.32-1.2608.6656c-.1344 0-.4032-.1152-.5504-.2688-.1728-.1792-.256-.3712-.32-.608-.5504.3904-1.2352.8768-1.6192.8768-.992 0-1.6576-.8064-1.6576-1.6512 0-.672.3648-1.1136 1.2096-1.4144.6976-.2432 1.7344-.6144 2.0544-.864v-.3392c0-.9344-.4224-1.4272-1.1136-1.4272-.288 0-.5184.1344-.6784.3072-.1664.1792-.3008.4736-.3968.8704-.0512.192-.1792.3008-.3904.3008-.2368 0-.5632-.224-.5632-.5312 0-.224.16-.4032.4224-.5888.3776-.2688 1.2864-.7808 2.0544-.9536.384 0 .8128.1216 1.1264.3712.4416.352.5568.8704.5568 1.3696v2.9312zm-1.0176-1.8368c-.288.1472-1.0304.4608-1.3184.6016-.5248.2432-.8128.5056-.8128 1.0048 0 .7104.544 1.0752.9728 1.0752.384 0 .8768-.2688 1.1584-.5696z"/><path d="m37.2224 8.512h-.16c0 .3072.0512.5376.1536.704s.2816.256.4544.2496c.2368 0 .448-.0832.6208-.1792l-.0768-.1408-.1472.064.0768.1792-1.1328.5952.0768.1408v-.16c-.0256 0-.1152-.0192-.2048-.064-.0896-.0384-.1792-.1024-.2304-.1536l-.1152.1088.1152-.1088c-.1472-.16-.2176-.3136-.2816-.544l-.0576-.224-.1856.1344c-.2752.192-.5824.4096-.864.576-.2752.1664-.5376.2752-.6656.2688-.4544 0-.8192-.1792-1.0816-.4608-.2624-.2752-.416-.6528-.4096-1.0304 0-.3072.0832-.5376.2496-.7424.1728-.1984.448-.3776.8512-.5184.3456-.1216.7808-.2752 1.1712-.4352s.7296-.3072.9216-.4544l.064-.0512v-.4224c0-.4864-.1088-.8832-.3328-1.1648s-.5568-.4224-.9408-.4224c-.3392 0-.6144.16-.7936.3648l.1216.1088-.1152-.1088c-.1984.2176-.3328.5312-.4352.9408l.1536.0384-.1536-.0384c-.0192.0704-.0448.1088-.0832.1408-.0384.0384-.0832.0576-.16.0576-.0704 0-.1856-.0384-.2688-.1152-.0832-.0704-.1344-.1664-.1344-.2624 0-.0704.0256-.1344.0832-.2112s.1536-.16.2752-.2432c.3584-.256 1.2672-.7616 1.9968-.928l-.0384-.16v.16c.3456 0 .7488.1152 1.024.3328.1984.1536.32.3456.3904.5568.0768.2112.1024.448.1024.6848v2.9312h.1664.16v-2.9184c0-.2624-.032-.5376-.1216-.7936-.0896-.2624-.2496-.5056-.4928-.6976-.3456-.2752-.8064-.4032-1.2224-.4032h-.0192l-.0192.0064c-.8064.1856-1.7152.704-2.112.9792-.1408.096-.256.1984-.3456.3136s-.1472.256-.1472.4096c0 .2112.1088.3904.2496.5056s.3072.1856.4736.192c.1344 0 .2624-.0384.3584-.1152s.16-.1856.192-.3072c.096-.384.224-.6528.3584-.8.1344-.1472.32-.256.5568-.256.3072 0 .5312.1024.6912.3008s.2624.5184.2624.96v.3392h.16l-.096-.128c-.128.1024-.4672.2624-.8448.4096-.384.1536-.8128.3072-1.1648.4288-.4352.1536-.768.352-.9856.6144-.224.2624-.3264.5824-.3264.9472 0 .4672.1792.9152.4992 1.2544s.7744.5632 1.3184.5568c.256-.0064.5312-.1408.832-.3136.2944-.1728.608-.3968.8832-.5888l-.096-.1344-.1536.0448c.0704.2496.1664.4736.3584.6784.096.096.2112.1728.3264.224.1216.0512.2304.0896.3392.0896h.0384l1.4272-.7488-.2688-.6144-.1536.0832c-.1472.0768-.32.1408-.4736.1408-.0768-.0064-.1216-.0192-.1856-.1024-.0576-.0832-.1088-.256-.1024-.5312h-.1536zm-1.0176-1.8368-.0704-.1408c-.2752.1408-1.0176.4544-1.312.5952l.0704.1472-.0704-.1472c-.2752.128-.4928.2624-.6592.448s-.2496.4224-.2496.704c0 .3968.1536.7104.3776.9216.2176.2112.4992.3136.7616.3136.2304 0 .4672-.0768.6912-.192s.4288-.2624.5824-.4288l.0448-.0448v-2.4384l-.2368.1216.0704.1408h-.16v2.1056h.16l-.1152-.1088c-.128.1344-.3072.2688-.4928.3648-.192.096-.3904.1536-.544.1536-.1728 0-.3776-.0768-.5376-.224-.16-.1536-.2752-.3712-.2752-.6848 0-.2176.0576-.3584.1728-.4928.1152-.128.2944-.2496.5504-.3648.2816-.1344 1.024-.448 1.3184-.6016l-.0768-.1472h-.16z"/><path d="m39.52 4.5504h-.9344l-.0704-.1664.384-.3776h.6208v-.832l.8192-.96.2048.0256v1.76h1.5424c.1216.1472.0768.416-.1024.544h-1.44v3.5584c0 1.1008.4288 1.3184.8 1.3184.3456 0 .64-.128.8256-.2176l.128.3136-.9344.448c-.2368.1152-.416.1536-.5504.1536-.8384 0-1.2992-.5504-1.2992-1.6128v-3.9552z"/><path d="m39.52 4.5504v-.16h-.8256l-.032-.0704-.1472.064.1152.1152.3392-.3328h.7104v-.928l.7232-.8448.1152.0128.0192-.16h-.16v1.92h1.7024v-.16l-.128.1024c.0192.0256.032.064.032.1088 0 .0768-.0384.16-.1024.2048l.0896.1344v-.1664h-1.6v3.7248c0 .5696.1088.9344.2944 1.1712s.4544.3072.6656.3072c.384 0 .704-.1408.896-.2304l-.0704-.1472-.1472.064.0704.1728-.8.384c-.224.1088-.3712.1344-.4736.1344-.384 0-.6528-.1216-.8384-.3456-.1792-.2304-.288-.5952-.288-1.1072v-4.128h-.16v.16h-.16v3.968c0 .5568.1216.9984.3712 1.3056.2496.3136.6336.4672 1.088.4672.16 0 .3648-.0448.6208-.1728l-.0704-.1472.0704.1472 1.0752-.5184-.256-.6144-.1536.0704c-.1856.0896-.4544.2048-.7616.2048-.16 0-.3008-.0384-.416-.1856-.1216-.1472-.224-.4416-.224-.9728v-3.392h1.3312l.0448-.032c.16-.1152.2368-.2944.2368-.4672 0-.1088-.032-.2176-.1024-.3136l-.0512-.0576h-1.4592v-1.7344l-.3456-.0448-.0896-.0128-.9088 1.0688v.7296h-.4608-.064l-.512.5056.1152.2688.0448.096h1.0432v-.1664h-.16z"/><path d="m43.7888 5.7408c0-.9152-.0768-.96-.864-1.0944v-.2816c.6592-.1216 1.2864-.288 1.888-.5504v4.736c0 .8896.1088 1.0176.9792 1.1008v.3072h-2.976v-.3072c.8576-.0832.9728-.2112.9728-1.1008zm.4992-5.0176c.3904 0 .704.32.704.736 0 .384-.3136.7168-.7168.7168-.384 0-.7104-.3328-.7104-.7168 0-.416.3328-.736.7104-.736z"/><path d="m43.7888 5.7408h.16c0-.2304-.0064-.4096-.0256-.5632-.0192-.1152-.0448-.2112-.0896-.3008-.0704-.1344-.1984-.224-.3392-.2752-.1472-.0512-.32-.0832-.544-.1216l-.0256.16h.16v-.2752h-.16l.032.16c.6656-.1216 1.3056-.288 1.92-.5568l-.064-.1472h-.16v4.736c0 .224.0064.4096.032.5632.0192.1152.0512.2176.1088.3136.0832.1408.2176.2304.3776.2816s.3584.0832.6016.1024l.0128-.16h-.1536v.1472h-2.656v-.1472h-.16l.0128.16c.2176-.0192.3904-.0448.544-.0896.1088-.032.2112-.0768.2944-.1408.128-.1024.2048-.2432.2368-.4096.0384-.1664.0448-.3648.0448-.6208v-2.816h-.16-.16v2.816c0 .2176-.0064.3904-.032.512-.0128.0896-.0384.1536-.064.1984-.0384.064-.0896.1024-.2048.1472-.1152.0384-.288.064-.5248.0896l-.1472.0128v.4544.16h3.296v-.4672-.1472l-.1472-.0128c-.2112-.0192-.3776-.0448-.4928-.0768-.0896-.0256-.1472-.0512-.1856-.0832-.0576-.0448-.096-.1024-.1216-.2304-.0256-.1216-.0384-.3072-.0384-.5504v-4.9856l-.224.096c-.5888.256-1.2032.416-1.8496.5376l-.1344.0256v.4096.1344l.1344.0256c.1984.032.3456.064.448.096.0768.0256.128.0512.16.0768.0448.0384.0768.0832.096.2112.0256.1216.032.3008.032.5568h.16zm.4992-5.0176v.16c.3008 0 .5376.2368.544.5696 0 .3008-.2432.5568-.5568.5568-.1408 0-.2816-.064-.384-.1664s-.1664-.2432-.1664-.3904c0-.3264.2624-.5696.5504-.5696h.0128v-.16-.16h-.0128c-.4736 0-.8768.3904-.8768.896.0064.48.3968.8768.8768.8768.4928 0 .8768-.4032.8768-.8768 0-.2496-.096-.4736-.2496-.6336s-.3712-.2624-.6144-.2624z"/><path d="m49.2928 3.8464c1.7152 0 2.976 1.3568 2.976 3.04 0 2.1504-1.6 3.2448-2.9824 3.2448-1.8752 0-3.0144-1.4976-3.0144-2.9888 0-2.2784 1.7472-3.296 3.008-3.296zm-.1728.4352c-.9408 0-1.6192.8704-1.6192 2.3616 0 1.7792.736 3.0528 1.9584 3.0528.9152 0 1.6064-.608 1.6064-2.5216 0-1.5616-.6336-2.8928-1.9328-2.8928z"/><path d="m49.2928 3.8464v.16c1.632 0 2.8096 1.2736 2.816 2.88 0 1.0368-.384 1.7984-.9216 2.3104-.544.512-1.248.7744-1.9008.7744-.896 0-1.6-.352-2.0928-.8832s-.7616-1.2416-.7616-1.9456c0-1.0944.416-1.8688.9792-2.3808s1.28-.7552 1.8688-.7552h.0128v-.16-.1664h-.0128c-.672 0-1.4592.2688-2.0864.8384s-1.088 1.44-1.0816 2.6176c0 .7872.3008 1.5744.8448 2.1632.544.5952 1.3504.9856 2.3296.9856.736 0 1.5168-.288 2.1184-.8576.608-.5696 1.024-1.4336 1.024-2.5472 0-.8832-.3328-1.6832-.8896-2.2656s-1.344-.9408-2.2464-.9408zm-.1728.4352v-.16c-.5184 0-.9856.2496-1.2928.6912-.3136.4416-.4864 1.0624-.4864 1.8368 0 .9088.1856 1.7024.544 2.2784s.9024.9344 1.5744.9344c.4928 0 .96-.1728 1.28-.608s.4928-1.1008.4928-2.0736c0-.8-.16-1.5488-.5056-2.1184-.3392-.5632-.8832-.9408-1.5936-.9344h-.0128v.1536.16h.0128c.5952 0 1.0112.2944 1.3184.7808.3008.4928.4608 1.1904.4544 1.9456 0 .9408-.1728 1.536-.4288 1.8816s-.5952.4736-1.0176.48c-.5568 0-.9856-.2752-1.3056-.7808-.3136-.5056-.4992-1.2416-.4992-2.1056 0-.7232.1664-1.28.4288-1.6512.2624-.3648.6144-.5504 1.0304-.5568v-.1536z"/><path d="m53.8688 5.7216c0-.9088-.0768-.9408-.8448-1.088v-.2688c.6272-.1216 1.2736-.288 1.8624-.5568v1.056c.256-.1792.5696-.3968.9408-.6272.384-.2432.7168-.3968 1.1072-.3968 1.1072 0 1.7472.7424 1.7472 1.888v2.8352c0 .9024.1024 1.0112.8576 1.088v.3072h-2.8032v-.3072c.7936-.0768.9216-.2112.9216-1.1648v-2.3168c0-.8896-.2752-1.5616-1.2608-1.5616-.544 0-1.1136.352-1.5168.7296v3.232c0 .8768.1088 1.0112.896 1.088v.3072h-2.912v-.3072c.8448-.0768 1.0048-.2112 1.0048-1.0944z"/><path d="m53.8688 5.7216h.16c0-.2304-.0064-.4032-.0256-.5568-.0128-.1088-.0448-.2112-.0896-.2944-.0704-.1344-.1984-.2176-.3328-.2688-.1408-.0448-.3072-.0768-.5248-.1216l-.032.16h.16v-.2752h-.16l.032.16c.6336-.1216 1.2928-.2944 1.9008-.5696l-.064-.1472h-.16v1.3696l.2496-.1792c.256-.1792.5696-.3968.9344-.6208.3776-.2368.6784-.3712 1.024-.3712.5184 0 .9024.1728 1.1712.4608.2688.2944.416.7232.416 1.2672v2.8352c0 .2304.0064.4096.032.5632.0192.1152.0448.2176.096.3072.0704.1344.1984.2304.3456.2816s.32.0768.5312.096l.0192-.16h-.16v.1472h-2.4832v-.1472h-.16l.0128.16c.2048-.0192.3648-.0448.512-.0896.1088-.032.2048-.0768.2816-.1472.1216-.1024.192-.256.224-.4288.0384-.1792.0448-.3904.0448-.6592v-2.3232c0-.4608-.0704-.8832-.288-1.2032-.224-.3264-.608-.5184-1.1328-.5184-.6144.0064-1.2032.3776-1.6256.7744l-.0512.0448v3.3024c0 .224.0064.4032.032.5568.0192.1152.0512.2176.1024.3072.0768.1344.2048.2304.352.2816.1536.0576.3264.0832.5568.1024l.0128-.16h-.16v.1472h-2.6048v-.1472h-.1536l.0128.16c.2176-.0192.3904-.0448.544-.0832.1152-.032.2112-.0768.3008-.1408.128-.096.2112-.2432.256-.4096s.0576-.3712.0576-.6208v-2.8416h-.1664-.16v2.8352c0 .2176-.0128.384-.032.4992-.0192.0896-.0448.1536-.0768.1984-.0448.064-.1024.1088-.224.1472s-.2944.064-.5248.0896l-.1472.0128v.4544.16h3.2448v-.4672-.1472l-.1472-.0128c-.192-.0192-.3392-.0448-.4416-.0704-.0768-.0256-.128-.0512-.16-.0832-.0512-.0448-.0832-.1024-.1152-.2304-.0256-.1216-.0384-.3008-.0384-.544v-3.2256h-.16l.1088.1152c.384-.3648.928-.6912 1.4016-.6848.4544.0064.704.1472.864.3776.1664.2368.2368.5952.2368 1.024v2.3232c0 .2368-.0064.416-.032.5504-.0192.1024-.0384.1728-.0704.2176-.0448.0704-.0896.1088-.192.1536-.1024.0384-.2624.064-.4864.0896l-.1472.0128v.4544.16h3.1232v-.4736-.1472l-.1472-.0128c-.1856-.0192-.3264-.0384-.4224-.0704-.0704-.0192-.1216-.0448-.1536-.0768-.0448-.0384-.0832-.096-.1088-.224-.0256-.1216-.032-.3072-.032-.5568v-2.8352c0-.6016-.1728-1.12-.4992-1.4848-.3328-.3648-.8192-.5696-1.408-.5696-.4352 0-.8.1728-1.1968.4224-.3712.2304-.6912.448-.9472.6272l.0896.1344h.16v-1.312l-.2304.1024c-.576.2624-1.2096.4288-1.8304.5504l-.128.0256v.4096.1344l.128.0256c.192.0384.3328.064.4352.096.0768.0256.1216.0512.1536.0768.0448.0384.0704.0832.096.2048.0192.1152.032.3008.032.5504h.1856z"/><path d="m64.448 8.512c0 .5824.1984.7936.448.7936.192 0 .384-.0704.5504-.16l.1408.32-1.2608.6656c-.1344 0-.4032-.1152-.5504-.2688-.1728-.1792-.256-.3712-.32-.608-.5504.3904-1.2352.8768-1.6192.8768-.992 0-1.6576-.8064-1.6576-1.6512 0-.672.3648-1.1136 1.2096-1.4144.6976-.2432 1.7344-.6144 2.0544-.864v-.3392c0-.9344-.4224-1.4272-1.1136-1.4272-.288 0-.5184.1344-.6784.3072-.1664.1792-.3008.4736-.3968.8704-.0512.192-.1792.3008-.3904.3008-.2368 0-.5632-.224-.5632-.5312 0-.224.16-.4032.4224-.5888.3776-.2688 1.2864-.7808 2.0544-.9536.384 0 .8128.1216 1.1264.3712.4416.352.5568.8704.5568 1.3696v2.9312zm-1.0176-1.8368c-.288.1472-1.0304.4608-1.3184.6016-.5248.2432-.8128.5056-.8128 1.0048 0 .7104.544 1.0752.9728 1.0752.384 0 .8768-.2688 1.1584-.5696z"/><path d="m64.448 8.512h-.16c0 .3072.0512.5376.1536.704s.2816.256.4544.2496c.2368 0 .448-.0832.6208-.1792l-.0768-.1408-.1472.064.0768.1792-1.1328.5952.0768.1408v-.16c-.0256 0-.1152-.0192-.2048-.064-.0896-.0384-.1792-.1024-.2304-.1536l-.1152.1088.1152-.1088c-.1472-.16-.2176-.3136-.2816-.544l-.0576-.224-.1856.1344c-.2752.192-.5824.4096-.864.576-.2752.1664-.5376.2752-.6656.2688-.448 0-.8192-.1792-1.0816-.4608-.2624-.2752-.416-.6528-.416-1.0304 0-.3072.0832-.5376.2496-.7424.1728-.1984.448-.3776.8512-.5184.3456-.1216.7808-.2752 1.1712-.4352s.7296-.3072.9216-.4544l.064-.0512v-.4224c0-.4864-.1088-.8832-.3328-1.1648s-.5568-.4224-.9408-.4224c-.3392 0-.6144.16-.7936.3648l.1216.1088-.1152-.1088c-.1984.2176-.3328.5312-.4352.9408l.1536.0384-.1536-.0384c-.0192.0704-.0448.1088-.0832.1408-.032.0384-.0768.0576-.1536.0576-.0704 0-.1856-.0384-.2688-.1152-.0832-.0704-.1344-.1664-.1344-.2624 0-.0704.0256-.1344.0832-.2112s.1536-.16.2752-.2432c.3584-.256 1.2672-.7616 1.9968-.928l-.0384-.16v.16c.3456 0 .7488.1152 1.024.3328.192.1536.3136.3456.3904.5568s.1024.448.1024.6848v2.9312h.1664.16v-2.9184c0-.2624-.032-.5376-.1216-.7936-.0896-.2624-.2496-.5056-.4928-.704-.3456-.2752-.8064-.4032-1.2224-.4032h-.0192l-.0192.0064c-.8064.1856-1.7152.704-2.112.9792-.1408.096-.256.1984-.3456.3136s-.1472.256-.1472.4096c0 .2112.1088.3904.2496.5056s.3072.1856.4736.192c.1344 0 .2624-.0384.3584-.1152s.16-.1856.192-.3072c.096-.384.224-.6528.3584-.8.1344-.1472.32-.256.5568-.256.3072 0 .5312.1024.6912.3008s.2624.5184.2624.96v.3392h.16l-.096-.128c-.128.1024-.4672.2624-.8448.4096-.384.1536-.8128.3072-1.1648.4288-.4352.1536-.768.352-.9856.6144-.224.2624-.3264.5824-.3264.9472 0 .4672.1792.9152.4992 1.2544s.7744.5632 1.3184.5568c.256-.0064.5312-.1408.832-.3136.2944-.1728.608-.3968.8832-.5888l-.096-.1344-.1536.0448c.0704.2496.1664.4736.3584.6784.096.096.2112.1728.3264.224.1216.0512.2304.0896.3392.0896h.0384l1.4272-.7488-.2688-.6144-.1536.0832c-.1472.0768-.32.1408-.4736.1408-.0768-.0064-.1216-.0192-.1856-.1024-.0576-.0832-.1088-.256-.1024-.5312h-.1536zm-1.0176-1.8368-.0704-.1408c-.2752.1408-1.0176.4544-1.312.5952l.0704.1472-.0704-.1472c-.2752.128-.4928.2624-.6592.448s-.2496.4224-.2496.704c0 .3968.1536.7104.3776.9216.2176.2112.4992.3136.7616.3136.2304 0 .4672-.0768.6912-.192s.4288-.2624.5824-.4288l.0448-.0448v-2.4384l-.2368.1216.0704.1408h-.16v2.1056h.16l-.1152-.1088c-.128.1344-.3072.2688-.4928.3648-.192.096-.3904.1536-.544.1536-.1728 0-.3776-.0768-.5376-.224-.16-.1536-.2752-.3712-.2752-.6848 0-.2176.0576-.3584.1728-.4928.1152-.128.2944-.2496.5504-.3648.2816-.1344 1.024-.448 1.3184-.6016l-.0768-.1472h-.16z"/><path d="m66.7264 2.0544c0-.9216-.0768-.9728-.9472-1.056v-.288c.6848-.0832 1.5104-.3072 1.9712-.4736v8.3328c0 .8832.1152 1.0176.9792 1.0944v.3072h-2.9824v-.3072c.8576-.0768.9792-.2112.9792-1.0944z"/><path d="m66.7264 2.0544h.16c0-.2304-.0064-.416-.0256-.5632-.0192-.1152-.0448-.2176-.1024-.3008-.0832-.1344-.2176-.2176-.3776-.2624s-.3456-.064-.5952-.0896l-.0128.16h.16v-.288h-.16l.0192.16c.704-.0832 1.5296-.3072 2.0096-.4864l-.0576-.1536h-.16v8.3328c0 .224.0064.4032.032.5568.0192.1152.0512.2176.1088.3136.0832.1408.2176.2304.384.2816.16.0512.3584.0768.6016.1024l.0128-.16h-.16v.1472h-2.656v-.1472h-.16l.0128.16c.2176-.0192.3968-.0448.544-.0832.1088-.032.2112-.0768.2944-.1408.128-.096.2048-.2432.2368-.4096.0384-.1664.0448-.3648.0448-.6144v-6.5152h-.1536-.16v6.5088c0 .2176-.0064.384-.032.5056-.0192.0896-.0384.1536-.064.1984-.0384.064-.0896.1024-.2112.1472-.1152.0384-.288.064-.5248.0896l-.1472.0128v.4544.16h3.3024v-.4672-.1472l-.1472-.0128c-.2112-.0192-.3776-.0448-.4928-.0768-.0896-.0256-.1472-.0512-.1856-.0832-.0576-.0448-.096-.1024-.1216-.2304-.0256-.1216-.0384-.3008-.0384-.544v-8.5696l-.2176.0768c-.448.1664-1.2736.3904-1.9328.4672l-.1408.0192v.4352.1472l.1472.0128c.2176.0192.384.0384.4928.064.0832.0192.1408.0448.1728.0704.0512.0384.0768.0768.1024.1984s.032.3008.032.5568h.1664z"/><path d="m19.0144 16.4224c0-1.1072-.1088-1.28-1.2736-1.3632v-.3072h3.5264v.3072c-1.056.0768-1.1648.2496-1.1648 1.3632v5.3056c0 1.5296-.1536 2.6816-1.1584 3.4624-.4224.32-.9856.544-1.3824.6528l-.1216-.3392c.896-.352 1.2544-.9408 1.408-1.76.1216-.6656.16-1.4272.16-2.5152v-4.8064z"/><path d="m19.0144 16.4224h.16c0-.2816-.0064-.5056-.0384-.6976-.0256-.1408-.064-.2688-.128-.3776-.1024-.1664-.2624-.2752-.4672-.3328-.2048-.064-.4544-.0896-.7872-.1152l-.0128.16h.16v-.1472h3.2064v.1472h.16l-.0128-.16c-.2688.0192-.48.0448-.6592.096-.1344.0384-.2496.0896-.3456.1664-.1472.1216-.224.2944-.2624.4928-.0384.2048-.0448.448-.0448.7616v5.3056c0 .7616-.0384 1.4144-.1984 1.9648s-.4224.9984-.9024 1.3696c-.3968.3008-.9472.5184-1.3312.6272l.0448.1536.1536-.0512-.1216-.3392-.1536.0512.0576.1472c.4672-.1856.8128-.4352 1.0496-.7552.2432-.32.3776-.6976.4608-1.12.1216-.6784.16-1.4528.16-2.5472v-4.8064h-.1472-.16v4.8064c0 1.0816-.0384 1.8368-.16 2.4896-.0768.3968-.1984.7232-.3968.9856-.2048.2688-.4864.48-.9152.6528l-.1472.0576.224.6272.1472-.0384c.416-.1152.9856-.3392 1.44-.6848.5312-.4096.8384-.9344 1.0112-1.536s.2112-1.2864.2112-2.0544v-5.3056c0-.2752.0064-.4864.032-.6464.0192-.1152.0448-.2048.0832-.2624.0512-.0896.1152-.1408.256-.192.1408-.0448.352-.0768.6464-.1024l.1472-.0128v-.4608-.1472h-3.8464v.4672.1472l.1472.0128c.288.0192.5056.0448.6592.0832.1152.032.1984.0704.256.1088.0832.064.128.1408.1664.3072.032.16.0448.3904.0448.6976h.1536z"/><path d="m24.3968 17.4656c1.7152 0 2.976 1.3568 2.976 3.04 0 2.1504-1.6 3.2448-2.9824 3.2448-1.8752 0-3.0144-1.4976-3.0144-2.9888 0-2.2784 1.7472-3.296 3.008-3.296zm-.1728.4352c-.9408 0-1.6192.8704-1.6192 2.3616 0 1.7792.736 3.0528 1.9584 3.0528.9152 0 1.6064-.608 1.6064-2.5216 0-1.5616-.6336-2.8928-1.9328-2.8928z"/><path d="m24.3968 17.4656v.16c1.632 0 2.8096 1.2736 2.816 2.88 0 1.0368-.384 1.7984-.9216 2.3104-.544.512-1.248.7744-1.9008.7744-.896 0-1.6-.352-2.0928-.8832s-.7616-1.2416-.7616-1.9456c0-1.0944.416-1.8688.9792-2.3808s1.28-.7552 1.8688-.7552h.0128v-.16-.16h-.0128c-.672 0-1.4592.2688-2.0864.8384s-1.088 1.44-1.0816 2.6176c0 .7872.3008 1.5744.8448 2.1632.544.5952 1.3504.9856 2.3296.9856.736 0 1.5168-.288 2.1184-.864.608-.5696 1.024-1.4336 1.024-2.5472 0-.8832-.3328-1.6832-.8896-2.2656s-1.344-.9408-2.2464-.9408zm-.1728.4352v-.16c-.5184 0-.9856.2496-1.2928.6912-.3136.4416-.4864 1.0624-.4864 1.8368 0 .9088.1856 1.7024.544 2.2784s.9024.9344 1.5744.9344c.4928 0 .96-.1728 1.28-.608s.4928-1.1008.4928-2.0736c0-.8-.16-1.5488-.5056-2.112-.3392-.5632-.8832-.9408-1.5936-.9344h-.0128v.1472.16h.0128c.5888 0 1.0112.2944 1.3184.7808.3008.4928.4608 1.1904.4544 1.9456 0 .9408-.1728 1.536-.4288 1.8816s-.5952.4736-1.0176.48c-.5568 0-.9856-.2752-1.3056-.7808-.3136-.5056-.4992-1.2416-.4992-2.1056 0-.7232.1664-1.28.4288-1.6512.2624-.3648.6144-.5504 1.0304-.5568v-.1536z"/><path d="m32.6016 19.0208c0-.7104-.16-.8064-.5888-.8768l-.4928-.0768v-.2816c.3968-.0128.8256-.0576 1.2032-.1024.3776-.0384.704-.096.9088-.1472v4.6208c0 .672.1152.7488.6272.7808l.384.0192v.3072c-.3008.0384-.6784.1216-1.0368.2176-.352.0896-.6784.1984-.9088.2688l-.0832-.0832v-.9728c-.32.2496-.6336.5056-1.0304.7296-.3904.2304-.704.3264-1.0624.3264-.9152 0-1.6704-.5376-1.6704-1.9712v-2.7584c0-.7104-.1536-.8064-.4736-.8768l-.384-.0768v-.2816c.2688-.0128.6208-.0576.9792-.1024.3584-.0384.7104-.096.9472-.1472-.0384.4288-.0448 1.0048-.0448 1.9264v1.92c0 1.2416.576 1.568 1.2096 1.568.4736 0 1.0368-.2368 1.5232-.7296v-3.2z"/><path d="m32.6016 19.0208h.16c0-.3648-.032-.6016-.1664-.7744-.064-.0896-.1536-.1472-.2496-.1856s-.1984-.0576-.3072-.0768l-.3584-.0512v-.1472h-.16l.0064.16c.4032-.0128.832-.0576 1.216-.1024l-.0192-.16.0192.16c.384-.0384.7168-.096.928-.1472l-.0384-.1536h-.16v4.6208c0 .1728.0064.3136.0256.4288.0192.0896.0384.1664.0832.2368.064.1088.1664.1792.2816.2176s.2368.0448.384.0576l.2304.0128v.16h.16l-.0192-.16c-.32.0384-.6976.128-1.056.224l.0448.1536-.0384-.1536c-.3584.0896-.6912.1984-.9152.2688l.0448.1536.1088-.1152-.0384-.0384v-1.2288l-.256.1984c-.32.2496-.6336.4992-1.0112.7168-.3776.2176-.6528.3072-.9792.3072-.4288 0-.7936-.1216-1.0624-.4032-.2688-.2752-.448-.7232-.448-1.4144v-2.7584c0-.3648-.032-.5952-.1408-.768-.0576-.0832-.1344-.1472-.2112-.1856-.0832-.0384-.1664-.0576-.2496-.0768l-.256-.0512v-.1536h-.16l.0064.16c.2752-.0128.6336-.0576.992-.1024l-.0192-.16.0192.16c.3584-.0384.7168-.096.96-.1472l-.032-.16-.16-.0128c-.0384.4416-.0448 1.0176-.0448 1.9392v1.92c0 .6464.1472 1.0816.4096 1.3568s.6208.3712.96.3712c.5248 0 1.1264-.2624 1.6384-.7808l.0448-.0448v-3.264h-.1664-.16v3.2h.16l-.1152-.1152c-.4608.4672-.992.6848-1.4144.6848-.2944 0-.544-.0704-.7296-.2688s-.3264-.544-.3264-1.1392v-1.92c0-.9216.0064-1.4976.0448-1.9136l.0192-.2176-.2112.0448c-.2304.0448-.5824.1024-.9344.1408-.3584.0448-.7104.0896-.9664.1024l-.1536.0064v.4352.1344l.512.1024c.0768.0128.1344.032.1728.0512.0576.032.0832.0512.1216.1472.032.096.0576.2624.0576.5184v2.7584c0 .7424.1984 1.2864.5376 1.6384s.8064.4992 1.2928.4992c.3904 0 .7424-.1152 1.1456-.352l-.0832-.1408.0768.1408c.4096-.2304.7296-.4992 1.0496-.7424l-.096-.128h-.16v1.0432l.1344.128.0704.064.0896-.0256c.2304-.0704.5568-.1792.9024-.2624.352-.096.7232-.1792 1.0112-.2112l.1408-.0192v-.4544-.1536l-.5312-.0256-.0064.16.0128-.16c-.1216-.0064-.2176-.0192-.2816-.0384-.0448-.0128-.0768-.0256-.096-.0448-.0256-.0192-.0512-.0512-.0704-.1408-.0192-.0832-.032-.2176-.032-.4032v-4.8192l-.1984.0448c-.192.0448-.512.1024-.8832.1408-.3776.0448-.8.0896-1.1904.1024l-.1536.0064v.4416.1408l.6336.096.0256-.16-.0256.16c.1024.0192.1856.0384.2432.0576.0832.0384.1152.064.1536.1536s.064.256.064.512h.1472z"/><path d="m36.0256 19.3408c0-.9216-.0768-.9728-.8832-1.0816v-.2752c.6464-.1088 1.2672-.2816 1.9072-.5568v1.536h.0256c.3648-.704 1.024-1.4976 1.664-1.4976.448 0 .7616.3776.7616.6784 0 .256-.16.5248-.4288.6464-.1536.0704-.2752.0512-.352-.032-.192-.1856-.3648-.2816-.5952-.2816-.3328 0-.768.4224-1.0816 1.2608v2.432c0 .8832.1088 1.024 1.184 1.1008v.3072h-3.168v-.3072c.8448-.0768.96-.2112.96-1.0944v-2.8352z"/><path d="m36.0256 19.3408h.16c0-.2304-.0064-.416-.0256-.5632-.0192-.1152-.0448-.2112-.096-.3008-.0768-.1344-.2048-.224-.352-.2688-.1472-.0512-.32-.0768-.5504-.1088l-.0192.16h.16v-.2752h-.16l.0256.16c.6592-.1088 1.2928-.288 1.9392-.5696l-.064-.1472h-.16v1.696h.1856.096l.0448-.0896c.1728-.3392.4224-.704.6976-.9728.2752-.2752.5696-.4416.8256-.4352.1792 0 .3264.0768.4352.1792s.1664.2432.1664.3392c0 .192-.128.4096-.3328.5056-.0512.0192-.0832.032-.1088.032l-.0576-.0192v-.0064h-.0064c-.1024-.1024-.2048-.1856-.3264-.2432-.1152-.0576-.2432-.0896-.384-.0896-.2368 0-.4608.1408-.6656.3712s-.4032.5632-.5632.9984l-.0128.0256v2.464c0 .224.0064.4096.0384.5632.0256.1152.064.224.128.32.1024.1408.256.224.4416.2752s.4224.0768.7232.1024l.0128-.16h-.16v.1472h-2.848v-.1472h-.16l.0128.16c.2176-.0192.3904-.0448.5376-.0832.1088-.032.2112-.0768.2944-.1408.128-.096.1984-.2432.2368-.4096s.0448-.3648.0448-.6144v-2.8416h-.1536-.16v2.8416c0 .2176-.0064.384-.032.5056-.0128.0896-.0384.1536-.064.1984-.0384.064-.0896.1024-.2048.1472-.1152.0384-.2816.064-.5184.0896l-.1472.0128v.4544.16h3.488v-.4672-.1472l-.1472-.0128c-.2624-.0192-.4672-.0448-.6144-.0768-.1088-.0256-.1856-.0576-.2368-.0896-.0768-.0512-.1088-.1024-.1472-.224-.032-.1216-.0384-.3008-.0384-.544v-2.432h-.16l.1536.0576c.1472-.4096.3264-.704.4992-.896s.3328-.2624.4288-.2624.1664.0192.2432.0576.1536.096.2432.1856l.1088-.1152-.1152.1088c.0704.0832.1856.1216.2944.1216.0832 0 .16-.0192.2432-.0576.3264-.1536.5184-.4672.5184-.7936 0-.2048-.1024-.4096-.2624-.5696s-.3904-.2688-.6592-.2688c-.3904 0-.7424.2304-1.0496.5312s-.5696.6848-.7616 1.056l.1408.0704v-.16h-.0256v.16h.16v-1.7792l-.2176.064c-.6208.2752-1.2288.4416-1.8688.5504l-.1344.0256v.4096.1408l.1408.0192c.1984.0256.352.0512.4544.0832.0768.0256.128.0448.16.0704.0448.0384.0768.0832.096.2048.0256.1216.032.3072.032.5632h.16z"/><path d="m41.056 19.3472c0-.9088-.0768-.9408-.8448-1.088v-.2752c.6272-.1216 1.2736-.288 1.8624-.5568v1.0624c.256-.1792.5696-.3968.9408-.6272.384-.2432.7168-.3968 1.1072-.3968 1.1072 0 1.7472.7424 1.7472 1.888v2.8352c0 .9024.1024 1.0112.8576 1.088v.3072h-2.8032v-.3072c.7936-.0768.9216-.2112.9216-1.1648v-2.3232c0-.8832-.2752-1.5616-1.2608-1.5616-.544 0-1.1136.352-1.5168.7296v3.232c0 .8768.1088 1.0112.896 1.088v.3072h-2.9248v-.3072c.8448-.0768 1.0048-.2112 1.0048-1.0944v-2.8352z"/><path d="m41.056 19.3472h.16c0-.2304-.0064-.4032-.0256-.5568-.0192-.1088-.0448-.2048-.0896-.2944-.0704-.1344-.1984-.2176-.3328-.2688-.1408-.0512-.3072-.0832-.5248-.128l-.032.16h.16v-.2752h-.16l.032.16c.6336-.1216 1.2928-.2944 1.9008-.5696l-.064-.1472h-.16v1.3696l.256-.1792c.256-.1792.5696-.3968.9344-.6208.3776-.2368.6784-.3712 1.024-.3712.5184 0 .9024.1728 1.1712.4608.2688.2944.416.7232.416 1.2672v2.8352c0 .2304.0064.4096.032.5632.0192.1152.0448.2176.096.3072.0704.1344.1984.2304.3456.2816s.32.0768.5312.096l.0192-.16h-.16v.1472h-2.4896v-.1472h-.16l.0128.16c.2048-.0192.3648-.0448.512-.0896.1088-.032.2048-.0768.2816-.1472.1216-.1024.192-.256.224-.4288.0384-.1792.0448-.3904.0448-.6592v-2.3232c0-.4608-.0704-.8832-.288-1.2032-.224-.3264-.608-.5184-1.1328-.5184-.6144.0064-1.2032.3776-1.6256.7744l-.0512.0448v3.3024c0 .224.0064.4032.032.5568.0192.1152.0512.2176.1024.3072.0768.1344.2048.2304.352.2816.1536.0512.3264.0832.5568.1024l.0128-.16h-.1536v.1472h-2.6048v-.1472h-.16l.0128.16c.2176-.0192.3904-.0448.544-.0832.1152-.032.2112-.0768.3008-.1408.128-.096.2112-.2432.256-.4096s.0576-.3712.0576-.6208v-2.8352h-.1664-.16v2.8352c0 .2176-.0128.384-.032.4992-.0192.0896-.0448.1536-.0768.1984-.0448.064-.1024.1088-.224.1472s-.2944.064-.5248.0896l-.1472.0128v.4544.16h3.2448v-.4672-.1472l-.1472-.0128c-.192-.0192-.3392-.0448-.4416-.0704-.0768-.0256-.128-.0512-.16-.0832-.0512-.0448-.0832-.1024-.1152-.2304-.0192-.1152-.032-.2944-.032-.5376v-3.232h-.16l.1088.1152c.384-.3648.928-.6912 1.4016-.6848.4544.0064.704.1472.864.3776.1664.2368.2368.5952.2368 1.024v2.3232c0 .2368-.0064.416-.032.5504-.0192.1024-.0384.1728-.0704.2176-.0448.0704-.0896.1088-.192.1536-.1024.0384-.2624.064-.4864.0896l-.1472.0128v.4544.16h3.1232v-.4736-.1472l-.1472-.0128c-.1856-.0192-.3264-.0384-.4224-.0704-.0704-.0192-.1216-.0448-.1536-.0768-.0448-.0384-.0832-.096-.1088-.224-.0256-.1216-.032-.3072-.032-.5568v-2.8352c0-.6016-.1728-1.12-.4992-1.4848-.3328-.3648-.8192-.5696-1.408-.5696-.4352 0-.8.1728-1.1968.4224-.3712.2304-.6912.448-.9472.6272l.0896.1344h.1792v-1.312l-.224.1024c-.576.2624-1.2096.4288-1.8304.5504l-.128.0256v.4032.1344l.128.0256c.192.0384.3392.064.4352.096.0768.0256.1216.0512.1536.0768.0448.0384.0704.0832.096.2048.0192.1152.032.3008.032.5504z"/><path d="m51.6416 22.1376c0 .5824.1984.7936.448.7936.192 0 .384-.0704.5504-.16l.1408.32-1.2608.6656c-.1344 0-.4032-.1152-.5504-.2688-.1728-.1792-.256-.3712-.32-.608-.5504.3904-1.2352.8768-1.6192.8768-.992 0-1.6576-.8064-1.6576-1.6512 0-.672.3648-1.1136 1.2096-1.4144.6976-.2432 1.7344-.6144 2.0544-.864v-.3392c0-.9344-.4224-1.4272-1.1136-1.4272-.288 0-.5184.1344-.6784.3072-.1664.1792-.3008.4736-.3968.8704-.0512.192-.1792.3008-.3904.3008-.2368 0-.5632-.224-.5632-.5312 0-.224.16-.4032.4224-.5888.3776-.2688 1.2864-.7808 2.0544-.9536.384 0 .8128.1216 1.1264.3712.4416.352.5568.8704.5568 1.3696v2.9312zm-1.0176-1.8368c-.288.1472-1.0304.4608-1.3184.6016-.5248.2432-.8128.5056-.8128 1.0048 0 .7104.544 1.0752.9728 1.0752.384 0 .8768-.2688 1.1584-.5696z"/><path d="m51.6416 22.1376h-.16c0 .3072.0512.5376.1536.704s.2816.256.4544.2496c.2368 0 .448-.0832.6208-.1728l-.0768-.1408-.1472.064.0768.1792-1.1328.5952.0768.1408v-.16c-.0256 0-.1152-.0192-.2048-.064-.0896-.0384-.1792-.1024-.2304-.1536l-.1152.1088.1152-.1088c-.1472-.16-.2176-.3136-.2816-.544l-.0576-.224-.1856.1344c-.2752.192-.5824.4096-.864.576-.2752.1664-.5376.2752-.6656.2688-.4544 0-.8192-.1792-1.0816-.4608-.2624-.2752-.416-.6528-.4096-1.0304 0-.3072.0832-.5376.2496-.7424.1728-.2048.448-.3776.8512-.5184.3456-.1216.7808-.2752 1.1712-.4288.3904-.16.7296-.3072.9216-.4544l.064-.0512v-.4224c0-.4928-.1088-.8832-.3328-1.1648s-.5568-.4224-.9408-.4224c-.3392 0-.6144.16-.7936.3648l.1216.1088-.1152-.1088c-.1984.2176-.3328.5312-.4352.9408l.1536.0384-.16-.0384c-.0192.0704-.0448.1088-.0832.1408-.032.0256-.0768.0448-.16.0448-.0704 0-.1856-.0384-.2688-.1152-.0832-.0704-.1344-.1664-.1344-.2624 0-.0704.0256-.1344.0832-.2112s.1536-.16.2752-.2432c.3584-.256 1.2672-.7616 1.9968-.928l-.0384-.16v.16c.3456 0 .7488.1152 1.024.3328.1984.1536.3136.3456.3904.5568s.1024.448.1024.6848v2.9312h.1728.16v-2.9312c0-.2624-.032-.5376-.1216-.7936s-.2496-.5056-.4928-.6976c-.3456-.2752-.8064-.4032-1.2224-.4032h-.0192l-.0256.0064c-.8064.1856-1.7152.704-2.112.9792-.1408.096-.256.1984-.3456.3136s-.1472.256-.1472.4096c0 .2112.1088.3904.2496.5056s.3072.1856.4736.192c.1344 0 .2624-.0384.3584-.1152s.16-.1856.192-.3072c.096-.384.224-.6528.3584-.8.1344-.1472.32-.256.5568-.256.3072 0 .5312.1024.6912.3008s.2624.5184.2624.96v.3392h.16l-.096-.128c-.128.1024-.4672.2624-.8448.4096-.384.1536-.8128.3072-1.1648.4288-.4352.1536-.768.352-.9856.6144-.224.2624-.3264.5824-.3264.9472 0 .4672.1792.9152.4992 1.2544s.7744.5632 1.3184.5568c.256-.0064.5312-.1408.832-.3136.2944-.1728.608-.3968.8832-.5888l-.096-.1344-.1536.0448c.0704.2496.1664.4736.3584.6784.096.096.2112.1728.3328.224s.2304.0896.3392.0896h.0384l1.4272-.7488-.2688-.6144-.1536.0832c-.1472.0768-.32.1408-.4736.1408-.0768-.0064-.1216-.0192-.1792-.1024s-.1088-.256-.1024-.5312h-.16zm-1.0176-1.8368-.0704-.1408c-.2752.1408-1.0176.4544-1.312.5952l.0704.1472-.0704-.1472c-.2752.128-.4928.2624-.6592.448s-.2496.4224-.2496.704c0 .3968.1536.7104.3776.9216.2176.2048.4992.3136.7616.3136.2304 0 .4672-.0768.6912-.192s.4288-.2624.5824-.4288l.0448-.0448v-2.432l-.2368.1216.0704.1344h-.16v2.1056h.16l-.1152-.1088c-.128.1344-.3072.2688-.4928.3648-.192.096-.3904.1536-.544.1536-.1728 0-.3776-.0768-.5376-.224-.16-.1536-.2752-.3712-.2752-.6848 0-.2176.0576-.3584.1728-.4928.1152-.128.2944-.2496.5504-.3648.2816-.1344 1.024-.448 1.3184-.6016l-.0768-.1472h-.16z"/><path d="m53.92 15.6736c0-.9216-.0768-.9728-.9472-1.056v-.288c.6848-.0832 1.5104-.3072 1.9712-.4736v8.3328c0 .8832.1088 1.0176.9792 1.0944v.3072h-2.9824v-.3072c.8576-.0768.9792-.2112.9792-1.0944z"/><path d="m53.92 15.6736h.16c0-.2304-.0064-.416-.0256-.5632-.0192-.1152-.0448-.2176-.1024-.3008-.0832-.1344-.2176-.2176-.3776-.2624s-.3456-.064-.5952-.0896l-.0128.16h.16v-.288h-.16l.0192.16c.704-.0832 1.5296-.3136 2.0096-.4864l-.0576-.1536h-.16v8.3328c0 .224.0064.4032.032.5568.0192.1152.0512.2176.1088.3136.0832.1408.2176.2304.384.2816.16.0512.3584.0768.6016.1024l.0128-.16h-.16v.1472h-2.656v-.1472h-.16l.0128.16c.2176-.0192.3968-.0448.544-.0832.1152-.032.2112-.0768.2944-.1408.128-.096.2048-.2432.2368-.4096.0384-.1664.0448-.3648.0448-.6144v-6.5152h-.1536-.16v6.5088c0 .2176-.0064.384-.032.5056-.0192.0896-.0384.1536-.064.1984-.0384.064-.0896.1024-.2112.1472-.1152.0384-.288.064-.5248.0896l-.1472.0128v.4544.16h3.3024v-.4672-.1472l-.1472-.0128c-.2112-.0192-.3776-.0448-.4928-.0768-.0896-.0256-.1472-.0512-.1856-.0832-.0576-.0448-.096-.1024-.1216-.2304-.0256-.1216-.0384-.3008-.0384-.544v-8.5632l-.2176.0768c-.448.1664-1.2736.3904-1.9328.4672l-.1408.0192v.4352.1472l.1472.0128c.2176.0192.384.0384.4928.0704.0832.0192.1408.0448.1728.0704.0512.0384.0768.0768.1024.1984s.032.3008.032.5568h.1664z"/><path d="m62.1504 17.4656c1.7152 0 2.976 1.3568 2.976 3.04 0 2.1504-1.6 3.2448-2.9824 3.2448-1.8752 0-3.0144-1.4976-3.0144-2.9888 0-2.2784 1.7472-3.296 3.008-3.296zm-.1728.4352c-.9408 0-1.6192.8704-1.6192 2.3616 0 1.7792.736 3.0528 1.9584 3.0528.9152 0 1.6064-.608 1.6064-2.5216 0-1.5616-.6336-2.8928-1.9328-2.8928z"/><path d="m62.1504 17.4656v.16c1.632 0 2.8096 1.2736 2.816 2.88 0 1.0368-.384 1.7984-.9216 2.3104-.544.512-1.248.7744-1.9008.7744-.896 0-1.6-.352-2.0928-.8832s-.7616-1.2416-.7616-1.9456c0-1.0944.416-1.8688.9792-2.3808s1.28-.7552 1.8688-.7552h.0128v-.16-.16h-.0128c-.672 0-1.4592.2688-2.0864.8384s-1.088 1.44-1.0816 2.6176c0 .7872.3008 1.5744.8448 2.1632.544.5952 1.3504.9856 2.3296.9856.7296 0 1.5168-.288 2.1184-.864.608-.5696 1.024-1.4336 1.024-2.5472 0-.8832-.3328-1.6832-.8896-2.2656s-1.344-.9408-2.2464-.9408zm-.1728.4352v-.16c-.5184 0-.9856.2496-1.2928.6912-.3136.4416-.4864 1.0624-.4864 1.8368 0 .9088.1856 1.7024.544 2.2784s.9024.9344 1.5744.9344c.4928 0 .96-.1728 1.28-.608s.4928-1.1008.4928-2.0736c0-.8-.16-1.5488-.5056-2.112-.3392-.5632-.8832-.9408-1.5936-.9344h-.0128v.1472.16h.0128c.5888 0 1.0112.2944 1.3184.7808.3008.4928.4608 1.1904.4544 1.9456 0 .9408-.1728 1.536-.4288 1.8816s-.5952.4736-1.0176.48c-.5568 0-.9856-.2752-1.3056-.7808-.3136-.5056-.4992-1.2416-.4992-2.1056 0-.7232.1664-1.28.4288-1.6512.2624-.3648.6144-.5504 1.0304-.5568v-.1536z"/><path d="m66.3488 18.176h-.9536l-.064-.1664.3712-.3776h.6464v-.2944c0-.4672.0576-.8768.1344-1.1264.096-.2944.3264-.9984 1.024-1.6064.5184-.448 1.0048-.6784 1.504-.7488.4352.0256.8512.2112 1.088.48.1216.1408.128.2816.0704.4224-.0448.1088-.1408.224-.2304.2944-.16.128-.3008.1408-.4352.0128-.256-.256-.704-.4672-1.152-.4672-.288 0-.5184.128-.6784.3712-.1664.2496-.32.96-.3072 2.1184v.544h1.6128c.096.1472.0384.4544-.1408.544h-1.472v4.0256c0 .8768.1088.9984 1.216 1.0944v.3008h-3.1552v-.3072c.8-.0832.9152-.2112.9152-1.0816v-4.032z"/><path d="m66.3488 18.176v-.16h-.8448l-.0256-.064-.1472.0576.1152.1152.3264-.3328h.736v-.4544c0-.4544.0576-.8576.128-1.0816l-.1536-.0448.1536.0512c.096-.288.3136-.9536.9792-1.536.5056-.4352.9536-.6464 1.4208-.7104l-.0192-.16-.0128.16c.3968.0256.7808.1984.9792.4224l.1216-.1088-.1216.1024c.0512.064.064.1088.064.1536 0 .032-.0064.064-.0256.1024-.0256.0704-.1088.1728-.1792.224-.0704.0576-.1152.0704-.1344.0704s-.0384-.0064-.0896-.0448l-.1088.1152.1152-.1152c-.2944-.288-.7616-.512-1.2672-.512-.3392-.0064-.6336.16-.8128.4416-.1024.16-.1792.3968-.2368.7424s-.096.7936-.096 1.3504v.1152.704h1.7728v-.16l-.1344.0832c.0064.0128.0192.0512.0192.096s-.0128.1024-.032.1472-.0448.0704-.064.0768l.0704.1408v-.16h-1.632v4.1856c0 .224.0064.4032.0384.5568.0256.1152.064.224.1344.3136.1024.1408.256.2176.448.2688s.4288.0832.7488.1088l.0128-.16h-.16v.1344h-2.8352v-.1472h-.16l.0192.16c.2048-.0192.3648-.0448.512-.0896.1088-.032.1984-.0768.2816-.1408.1216-.096.192-.2432.2304-.4032.0384-.1664.0448-.3584.0448-.608v-4.1856h-.16v.1792h-.16v4.0256c0 .2176-.0064.3776-.032.4992-.0128.0896-.0384.1536-.064.192-.0384.064-.0832.1024-.192.1408s-.2688.064-.4864.0896l-.1408.0128v.4544.16h3.4752v-.4608-.1472l-.1472-.0128c-.2752-.0256-.4864-.0512-.6336-.0832-.1152-.0256-.192-.0576-.2496-.0896-.0768-.0512-.1152-.1024-.1472-.2176s-.0384-.2944-.0384-.5376v-3.8592h1.3504l.032-.0192c.1024-.0512.1664-.1344.2112-.224s.064-.1856.064-.2816c0-.0896-.0192-.1792-.0704-.2624l-.0448-.0768h-1.5424v-.384c0-.0384 0-.0768 0-.1152 0-.5376.0384-.9728.0896-1.2992.0512-.32.1344-.5376.192-.6208.1408-.2048.3008-.2944.544-.2944.4032 0 .8192.1984 1.0432.4224.0832.0832.192.1344.3072.1344.128 0 .2368-.0576.3392-.1408l-.1024-.128.1024.128c.1088-.0896.2176-.2112.2816-.3648l-.1472-.0576.1472.0576c.0256-.0704.0448-.1472.0448-.224 0-.1216-.0512-.256-.1408-.3648-.2752-.3072-.7232-.4992-1.1968-.5312h-.0192-.0128c-.5376.0704-1.056.32-1.5872.7808-.736.64-.9728 1.3824-1.0752 1.6768-.0832.2752-.1408.6912-.1408 1.1776v.1344h-.4864-.0704l-.4928.4992.1024.2624.0384.1024h1.0624v-.1536h-.16z"/><path d="m82.848 2.7648c5.1648 0 9.7344 4.1536 9.7344 10.3616 0 6.5664-4.5696 10.9568-10.2784 10.9568s-9.9136-4.48-9.9136-10.4128c0-5.3376 3.6544-10.9056 10.4256-10.9056zm-.8128 1.024c-3.6224 0-6.5728 3.008-6.5728 8.9856 0 6.048 2.9312 10.2912 7.52 10.2912 3.7056 0 6.5856-2.9056 6.5856-8.7232 0-6.8928-3.0144-10.5536-7.5008-10.5536z"/><path d="m82.848 2.7648v.256c2.5152 0 4.8832 1.0112 6.624 2.7776s2.8544 4.288 2.8544 7.328c0 3.2256-1.12 5.8944-2.9248 7.7632-1.8112 1.8688-4.3072 2.9376-7.0976 2.9376-2.784 0-5.1904-1.088-6.912-2.8992-1.7152-1.8112-2.7456-4.352-2.7456-7.2576 0-2.6112.896-5.28 2.6112-7.2896s4.2432-3.36 7.5584-3.36h.032v-.256-.256h-.032c-3.456 0-6.144 1.4272-7.9488 3.5392s-2.7328 4.896-2.7328 7.6224c0 3.0272 1.0752 5.696 2.8864 7.6096s4.3584 3.0656 7.2832 3.0656c2.9184 0 5.5616-1.1264 7.4624-3.0976 1.9072-1.9712 3.072-4.7744 3.072-8.1216 0-3.168-1.1712-5.824-3.0016-7.6864-1.8368-1.8624-4.3328-2.9312-6.9888-2.9312zm-.8128 1.024v-.256c-1.8816 0-3.6096.7936-4.8448 2.3488s-1.984 3.8656-1.984 6.8928c0 3.0656.7424 5.6896 2.0864 7.5648s3.3152 2.9824 5.6896 2.9824c1.92 0 3.6544-.7616 4.8832-2.272s1.9584-3.7568 1.9584-6.7072c0-3.4816-.7616-6.176-2.1184-8.0128s-3.328-2.7968-5.6384-2.7904h-.032v.2496.256h.032c2.176.0064 3.9552.8704 5.2288 2.5856 1.2672 1.7152 2.016 4.2944 2.016 7.7056 0 2.8672-.7104 4.9856-1.8432 6.3808-1.1392 1.3952-2.6944 2.08-4.4864 2.0864-2.2144 0-4.0064-1.0112-5.2736-2.7712s-1.9904-4.2816-1.9904-7.264c0-2.944.7296-5.1328 1.8752-6.5728s2.7008-2.1504 4.4416-2.1568z"/><path d="m94.7008 5.3504c0-2.0736-.1344-2.2016-2.176-2.4384v-.6592c1.4784-.1728 3.4112-.6656 4.5312-1.1008v9.7408l2.88-1.1328c.4416-.1728.8512-.2688 1.3184-.2688 3.392 0 6.1952 2.8608 6.1952 6.5856 0 4.5824-3.6928 7.9232-7.968 7.9232-1.5168 0-3.104-.2624-4.7808-1.056zm2.3552 14.5664c0 .48.0448.8064.1984 1.1776.1984.5568 1.1776 1.7152 3.0592 1.7728 2.6304.0256 4.4672-2.2208 4.4672-5.9648 0-3.5776-2.0544-5.7536-4.9728-5.7536-1.1008 0-2.144.3008-2.7456.6464v8.1216z"/><path d="m94.7008 5.3504h.256c0-.5248-.0064-.928-.0576-1.2608-.0384-.2496-.096-.4672-.2048-.6464-.0832-.1408-.192-.256-.3264-.3456-.1984-.1344-.4416-.2176-.736-.2816s-.6464-.1088-1.0752-.16l-.032.256h.256v-.6592h-.256l.032.256c1.504-.1792 3.4432-.672 4.5952-1.1136l-.096-.2368h-.256v10.1184l3.232-1.2736c.4224-.1664.8-.2496 1.2224-.2496 1.6256 0 3.104.6848 4.1856 1.8176s1.7536 2.7136 1.7536 4.512c0 2.2208-.8896 4.1344-2.304 5.4976-1.408 1.3632-3.3408 2.1696-5.408 2.1696-1.4912 0-3.0336-.256-4.672-1.0368l-.1088.2304h.256v-17.5936h-.256-.256v17.7536l.1472.0704c1.7088.8128 3.3472 1.0816 4.8896 1.0816 2.208 0 4.2624-.864 5.7664-2.3168s2.4576-3.5072 2.4576-5.8624c0-1.9264-.7232-3.6352-1.8944-4.864s-2.784-1.9712-4.5568-1.9712c-.4992 0-.9472.1088-1.408.288l-2.5344.9984v-9.7472l-.352.1344c-1.088.4224-3.0208.9152-4.4672 1.0816l-.224.0256v1.1136l.224.0256c.5056.0576.8896.1088 1.1648.1856.2048.0512.3456.1152.4416.1856.0704.0576.1216.1152.1664.192.064.1216.1152.3072.1408.576s.032.6144.032 1.0496zm2.3552 14.5664h-.256c0 .4992.0512.8704.2176 1.2736l.2368-.096-.2432.0896c.128.3456.448.7936.992 1.1968.544.3968 1.312.7168 2.2976.7488h.0448c1.376 0 2.5728-.6016 3.392-1.6832.8256-1.0816 1.2864-2.6304 1.2864-4.5312 0-1.8368-.5312-3.3408-1.4592-4.3904s-2.2528-1.6256-3.776-1.6192528c-1.152 0-2.2144.3072528-2.8736.6784528l-.128.0704v8.2688h.2688.256v-8.128h-.256l.128.224c.5568-.3136 1.568-.6144 2.6176-.6144 1.3952 0 2.56.512 3.392 1.4464s1.3312 2.3104 1.3312 4.0512c0 1.824-.448 3.2576-1.184 4.224s-1.7536 1.4784-2.9824 1.4848h-.0448v.256l.0064-.256c-.8896-.032-1.5488-.3136-2.016-.6528-.4672-.3328-.736-.7424-.8064-.9536v-.0064-.0064c-.1344-.3456-.1792-.6144-.1792-1.0816h-.2624z"/><path d="m115.7376 9.4912c2.6368 0 4.7424 2.3232 4.7424 4.7296 0 .6976-.1216.9152-.7104 1.0432-.4928.096-4.4416.4032-8.3456.5248.0192 4.4928 2.6112 6.1952 4.8512 6.1696 1.2288 0 2.2848-.4288 3.488-1.5808l.5056.6144c-1.856 2.3744-4.0896 3.008-4.9984 3.008-3.8848 0-6.208-3.0912-6.208-6.6432 0-2.0736.7104-4.0576 2.1056-5.5808 1.2608-1.3824 2.9888-2.2848 4.5376-2.2848zm-.8384 1.1072c-1.3888 0-2.912 1.3824-3.2832 3.9744 1.8496.0064 3.7376-.0512 5.5488-.0832.576 0 .7296-.1984.7296-.6592.0128-1.6512-1.0816-3.2384-2.9632-3.2384h-.032z"/><path d="m115.7376 9.4912v.256c1.2416 0 2.3616.544 3.1744 1.3824s1.312 1.9584 1.312 3.0848v.0064l.256-.0064h-.256c0 .1664-.0064.3008-.0256.3968-.0256.1472-.064.2048-.1152.2496-.0512.0512-.1664.1024-.3712.1408l.0512.2496-.0448-.2496c-.096.0192-.4416.0576-.9408.1024-1.4976.1344-4.4416.3264-7.3664.4224l-.2496.0064v.2496c.0064 2.2784.672 3.8912 1.6448 4.9344s2.24 1.4976 3.4176 1.4912h.0512v-.256.256c.6464 0 1.2544-.1152 1.856-.3776.6016-.2688 1.1904-.6784 1.8112-1.2736l-.1792-.1856-.1984.16.5056.6144.1984-.16-.2048-.16c-.9024 1.1584-1.8944 1.8816-2.7712 2.3232-.8704.4416-1.632.5888-2.0288.5824-1.8752 0-3.3472-.736-4.3648-1.9008s-1.5808-2.7648-1.5808-4.4864c0-2.016.6912-3.936 2.0416-5.408 1.216-1.344 2.8992-2.2016 4.3456-2.2016h.032v-.2432-.256h-.032c-1.6512.0064-3.424.9408-4.7232 2.368-1.4464 1.5744-2.176 3.6224-2.176 5.7536 0 1.8304.6016 3.552 1.7088 4.8192 1.1136 1.2736 2.7392 2.08 4.7552 2.08.5056 0 1.3184-.1664 2.2592-.64.9344-.4672 1.9904-1.248 2.944-2.464l.128-.16-.8064-.9856-.1984.192c-.5888.5632-1.1264.9408-1.664 1.1776s-1.0624.3328-1.6512.3328h-.0448c-1.0496 0-2.176-.4032-3.04-1.3312-.8704-.928-1.4912-2.4-1.504-4.5824h-.256l.0064.256c1.9584-.064 3.9232-.1728 5.4592-.2752.768-.0512 1.4336-.1024 1.9328-.1472.5056-.0448.8384-.0768.9856-.1088h.0064c.16-.032.3008-.0768.4224-.1408.1856-.096.3392-.2624.4032-.4608.0704-.1984.0832-.416.0832-.6912 0-1.28-.5568-2.5152-1.4528-3.4432s-2.1504-1.5424-3.5392-1.5424v.2496zm-.8384 1.1072v-.256c-.7808 0-1.5744.3904-2.2144 1.1008-.64.7168-1.1328 1.76-1.3184 3.0976l-.0384.288h.2944.3456c1.7472 0 3.5136-.0512 5.2096-.0832l-.0064-.256v.256c.16 0 .2944-.0128.4224-.0512.1856-.0512.3584-.1664.448-.3328s.1088-.3456.1152-.5312v-.0384c0-.8768-.288-1.7344-.8448-2.3808-.5504-.6464-1.3696-1.0816-2.3808-1.0752h-.032v.2624.256h.032c.864 0 1.5232.352 1.9904.896.4608.544.7168 1.2864.7168 2.048v.032c0 .1024-.0064.1728-.0256.224-.0256.0768-.0384.0896-.0896.1152-.0512.032-.1728.0576-.3648.0576-1.696.032-3.4624.0832-5.1968.0832-.1152 0-.2304 0-.3456 0v.256l.256.0384c.1792-1.2544.6336-2.2016 1.1904-2.8288.5632-.6272 1.2224-.928 1.8368-.928z"/><path d="m130.2272 13.6896c-.7488-1.984-1.9008-3.2128-3.3472-3.2128-1.2672 0-2.0928.9216-2.0928 2.1312 0 1.3952 1.3376 2.1952 2.7392 2.7584 2.3232.9344 3.936 2.1376 3.936 4.3136 0 2.8608-2.6752 4.32-5.1968 4.32-1.6704 0-3.1424-.6336-3.6864-1.1584-.1984-.5312-.4288-2.5472-.4672-3.7824l.6912-.1216c.5696 1.9712 2.0992 4.0768 4.0448 4.0768 1.2288 0 2.2976-.7232 2.2976-2.272 0-1.4848-.9216-2.3744-2.56-3.0592-1.8688-.7872-3.9104-1.8816-3.9104-4.0832 0-2.24 1.92-4.1088 4.8512-4.1152 1.2672 0 2.0864.2624 2.72.5376.2624.7296.608 2.6496.6976 3.456z"/><path d="m130.2272 13.6896.2368-.0896c-.384-1.0176-.8768-1.8496-1.472-2.4448-.5952-.5888-1.3184-.9408-2.112-.9344-.6976 0-1.2928.256-1.7024.6912-.416.4352-.64 1.0368-.64 1.696 0 .7872.3904 1.4144.9344 1.888.5504.4736 1.2544.8256 1.9648 1.1072 1.1456.4608 2.0992.9856 2.752 1.6384s1.0176 1.4144 1.0176 2.4384c0 1.3504-.6208 2.3424-1.5488 3.0272s-2.1824 1.0368-3.392 1.0368c-.8 0-1.5616-.1536-2.1824-.3712-.6208-.2112-1.1008-.4992-1.3312-.7168l-.1792.1856.2368-.0896c-.0384-.1024-.0896-.32-.1408-.5952-.1472-.832-.2816-2.1952-.3072-3.104l-.256.0064.0448.2496.6912-.1216-.0448-.2496-.2432.0704c.2944 1.0176.832 2.0672 1.5616 2.8736.7232.8064 1.6576 1.3824 2.7264 1.3824.6656 0 1.3056-.1984 1.7792-.6208.48-.4224.7744-1.0752.7744-1.9072 0-.7936-.256-1.4656-.7296-1.9968-.4736-.5376-1.152-.9408-1.9904-1.2928-.928-.3904-1.8816-.8512-2.5856-1.4656-.704-.6208-1.1584-1.3632-1.1648-2.3808 0-1.0496.448-2.0032 1.2416-2.7072s1.9456-1.152 3.3536-1.1584c1.2288 0 2.0032.256 2.6176.5184l.1024-.2368-.2432.0832c.1216.3392.2752.9984.4032 1.664s.2368 1.344.2816 1.7408l.256-.032-.0704-.2496-.7104.2176.0704.2496.2368-.0896-.2368.0896.0704.2432.9216-.2624-.0192-.2176c-.0448-.416-.16-1.1008-.288-1.7792-.1344-.6784-.2816-1.344-.4224-1.7344l-.0384-.1024-.1024-.0448c-.6528-.2816-1.5232-.5568-2.8224-.5568-1.5168 0-2.7968.4928-3.6928 1.2864s-1.4144 1.8944-1.4144 3.0912c0 1.184.5568 2.0864 1.3376 2.7648s1.7792 1.1584 2.7264 1.5552c.8.3328 1.408.7104 1.8048 1.1648s.6016.9664.6016 1.6576c0 .7168-.2368 1.1968-.6016 1.5232s-.8768.4928-1.44.4928c-.8768 0-1.6768-.4736-2.3424-1.216-.6656-.736-1.1776-1.728-1.4528-2.6752l-.064-.2176-1.1328.1984.0064.224c.0192.6272.0832 1.4464.1728 2.176.0448.3648.096.7104.1472.9984s.1024.5184.1664.6848l.0192.0512.0448.0384c.32.3008.8448.6016 1.5168.832s1.4848.3968 2.3488.3968c1.3056 0 2.656-.3776 3.6928-1.1392 1.0368-.7552 1.76-1.9264 1.76-3.4368 0-1.152-.4352-2.08-1.1712-2.8032-.736-.7296-1.7472-1.2736-2.9248-1.7472-.6848-.2752-1.3504-.608-1.8176-1.0176-.4736-.416-.7552-.8896-.7552-1.4976 0-.544.1856-1.0112.4992-1.344s.7616-.5312 1.3312-.5312c.6464 0 1.2224.2688 1.7536.7872.5248.5184.9856 1.2928 1.3568 2.2592l.0832.2176.224-.064z"/><path d="m135.2832 13.8624c0-2.112-.1728-2.2144-1.9968-2.528v-.6336c1.5168-.2752 2.9632-.6656 4.352-1.2672v10.9248c0 2.0608.256 2.3552 2.2656 2.5472v.7168h-6.8736v-.7168c1.9776-.192 2.2464-.4928 2.2464-2.5472v-6.496zm1.1456-11.5712c.9024 0 1.6192.736 1.6192 1.6896 0 .896-.7232 1.6576-1.6512 1.6576-.8832 0-1.6448-.7616-1.6448-1.6576 0-.96.7616-1.6896 1.6448-1.6896z"/><path d="m135.2832 13.8624h.256c0-.5312-.0128-.9408-.0576-1.28-.0384-.2496-.096-.4672-.1984-.6528-.1536-.2816-.4096-.4672-.7296-.576-.32-.1152-.7104-.1856-1.2224-.2752l-.0448.2496h.256v-.6336h-.256l.0448.2496c1.5296-.2816 2.9952-.672 4.4096-1.28l-.1024-.2368h-.256v10.9248c0 .5184.0128.9344.0768 1.28.0448.2624.1152.4864.2368.6784.1792.2944.4608.4864.8192.6016.3584.1216.8.1792 1.3696.2368l.0256-.256h-.256v.4608h-6.3552v-.4608h-.256l.0256.256c.4992-.0512.9024-.1024 1.2288-.1984.2496-.0704.4608-.1664.64-.3072.2688-.2112.4288-.5184.5056-.8832.0832-.3712.1024-.8256.1024-1.408v-6.4896h-.2624-.256v6.496c0 .512-.0192.9024-.0704 1.1968-.0384.2176-.096.384-.1664.4992-.1088.1792-.256.288-.5376.384s-.6912.16-1.2352.2112l-.2304.0256v1.2032h7.3728v-1.2032l-.2304-.0192c-.4992-.0448-.8768-.1024-1.1584-.1792-.2112-.0576-.3584-.1344-.4672-.2176-.16-.128-.256-.288-.3264-.5952-.064-.3008-.0896-.7296-.0896-1.2992v-11.3216l-.3584.1536c-1.3632.5952-2.7904.9728-4.3008 1.248l-.2112.0384v1.0624l.2112.0384c.4544.0768.8.1408 1.0496.224.1856.0576.3136.1216.4032.1984.064.0576.1152.1152.16.2048.064.128.1152.32.1408.5888s.0384.6208.0384 1.0624zm1.1456-11.5712v.256c.7552 0 1.3632.608 1.3632 1.4336 0 .3776-.1536.7296-.4032.9856s-.5952.416-.992.416c-.3648 0-.7168-.16-.9728-.416s-.416-.608-.416-.9792c0-.4096.16-.768.416-1.024s.6016-.4096.9728-.4096h.032v-.2624-.256h-.032c-1.024 0-1.9008.8512-1.9008 1.9456.0064 1.0432.8704 1.9072 1.9008 1.9136.5376 0 1.0176-.224 1.3568-.5696s.5504-.8256.5504-1.344c0-.544-.2048-1.0304-.544-1.3824s-.8128-.5632-1.3312-.5632z"/><path d="m142.624 11.1232h-2.1568l-.1664-.3776.8896-.8768h1.4272v-1.92l1.8816-2.208.4736.064v4.064h3.5584c.2752.3456.1856.9664-.2304 1.2608h-3.328v8.2176c0 2.5408.9856 3.0336 1.8496 3.0336.8 0 1.4784-.2944 1.9136-.5056l.3008.7296-2.1632 1.0432c-.5504.2752-.96.352-1.2672.352-1.9392 0-3.0016-1.2672-3.0016-3.7184v-9.1584z"/><path d="m142.624 11.1232v-.256h-1.9904l-.0256-.064.6912-.6784h1.5808v-2.08l1.7344-2.0288.1152.0128v4.096h3.8144v-.256l-.1984.16c.064.0768.1024.192.1024.3264 0 .2112-.1024.4416-.2816.5632l.1472.2112v-.256h-3.584v8.4736c0 1.2992.2496 2.1184.6592 2.6304.2048.256.448.4224.6976.5248s.512.1344.7488.1344c.864 0 1.5808-.32 2.0224-.5248l-.1088-.2304-.2368.096.2112.5056-1.9456.9344c-.5248.2624-.8896.3264-1.152.3264-.9152 0-1.568-.288-2.0288-.8448-.4544-.5568-.7168-1.4272-.7168-2.6176v-9.408h-.256v.2496h-.256v9.152c0 1.2608.2688 2.2528.832 2.944.5568.6912 1.4016 1.0368 2.4256 1.0368.352 0 .8-.096 1.376-.3776l-.1152-.2304.1088.2304 2.3808-1.1456-.4992-1.2032-.2432.1152c-.4224.2048-1.0688.48-1.8048.48-.192 0-.384-.0256-.5568-.096-.2624-.1088-.5056-.3008-.704-.7104s-.3328-1.0368-.3328-1.9648v-7.9744h3.1488l.064-.0448c.3328-.2368.4992-.6144.4992-.9792 0-.2304-.064-.4608-.2112-.6464l-.0768-.096h-3.424v-4.032l-.832-.1088-2.0352 2.3872v1.7536h-1.28l-1.088 1.0752.3008.6976h2.3232v-.2624h-.256z"/><path d="m156.0384 9.8688v.7168c-1.4656.2304-1.792.5504-1.3568 1.7344l2.9632 7.9616c.9408-2.0544 2.4448-5.9456 3.0144-7.7376.4288-1.3824.1664-1.7152-1.5936-1.952v-.7168h5.8624v.7168c-1.6832.2752-1.8624.5824-2.7776 2.2912-.8768 1.6384-2.0416 4.3072-4.256 9.3696-2.1952 4.9792-2.976 6.9952-3.4432 8.736-.1728.6016-.5888.7616-1.0496.7616-.8384 0-1.6896-.7616-1.6896-1.5168 0-.4736.2816-.7616.8128-1.1328.9472-.6784 1.7664-1.6832 2.3744-2.7648.6272-1.0944.9408-1.9328 1.088-2.3616.16-.4864.1216-.8768-.0576-1.3696-1.184-3.4624-2.6432-7.3152-3.5776-9.6384-.6656-1.6896-.9344-2.1184-2.7264-2.3744v-.7168h6.4128z"/><path d="m156.0384 9.8688h-.256v.7168h.256l-.0384-.256c-.5504.0896-.9536.1792-1.2608.3584-.1536.0896-.2816.2048-.3712.352s-.1216.32-.1216.4928c0 .2624.0768.5376.1984.8768l3.1808 8.5376.256-.5632c.9472-2.0672 2.4512-5.9584 3.0272-7.7696.1152-.384.192-.6976.192-.9792 0-.192-.0384-.3776-.128-.544-.1408-.2432-.384-.4032-.6848-.512-.3072-.1088-.6912-.1856-1.184-.2496l-.032.256h.256v-.4608h5.3504v.4608h.256l-.0384-.256c-.4288.0704-.768.1408-1.056.2432-.4352.1536-.7616.3904-1.0368.736-.2752.352-.5184.8-.864 1.4464-.8832 1.6576-2.048 4.3264-4.2688 9.3888-2.1952 4.9792-2.9824 7.008-3.456 8.7744l.2496.064-.2432-.0704c-.0768.256-.1792.3776-.3072.4608-.128.0768-.2944.1152-.4992.1152-.3392 0-.7104-.16-.992-.4096-.2752-.2496-.448-.576-.448-.8512 0-.1856.0448-.3072.1536-.448s.288-.2944.5504-.4736c.9856-.704 1.824-1.7408 2.4512-2.848.64-1.1136.9536-1.9648 1.1072-2.4064.0768-.2304.1152-.4544.1152-.672 0-.288-.064-.5696-.1728-.864l-.2432.0896.2432-.0832c-1.1904-3.4688-2.6496-7.3216-3.584-9.6512-.3328-.8448-.5696-1.408-1.0048-1.8176-.2176-.2048-.4736-.352-.7872-.4608s-.6784-.192-1.1392-.256l-.0384.256h.256v-.4608h6.1504v-.2624h-.256.2624v-.256h-6.6624v1.1904l.2176.032c.4352.064.7744.1344 1.0368.2304.3904.1408.6144.3136.832.6144.2112.3008.4032.7424.6528 1.3696.9344 2.3232 2.3872 6.1696 3.5776 9.6256.096.2624.1408.4736.1408.6848 0 .16-.0256.32-.0896.512l.2432.0832-.2432-.0832c-.1472.4224-.4544 1.2416-1.0688 2.3168-.5952 1.056-1.3952 2.0352-2.2976 2.6816l.1472.2112-.1472-.2112c-.2752.192-.4992.3648-.6592.5824-.1664.2112-.2624.4736-.2624.7616 0 .4736.256.9088.6144 1.2288s.832.5376 1.3312.544c.256 0 .5312-.0448.768-.192.2432-.1472.4288-.4032.5248-.7488.4608-1.7152 1.2352-3.7248 3.4304-8.6976 2.2208-5.0624 3.3856-7.7376 4.2496-9.3568.4544-.8576.7232-1.3376 1.0432-1.6128.16-.1408.3328-.2368.576-.3264.2432-.0832.5568-.1536.9728-.224l.2176-.032v-1.1904h-6.3744v1.1968l.224.032c.6336.0832 1.056.1856 1.28.3136.1152.064.1728.128.2112.192.0384.0704.064.1536.064.288 0 .192-.0576.4672-.1664.8256-.5632 1.7728-2.0672 5.6704-3.0016 7.712l.2304.1088.2432-.0896-2.9632-7.9616c-.1152-.3072-.1664-.5376-.1664-.6976 0-.1088.0192-.1728.0512-.2304.0512-.0832.1472-.1664.3584-.2496.2048-.0832.512-.1472.9024-.2112l.2176-.032v-1.1904h-.256z"/></g></svg>